<?xml version="1.0" encoding="UTF-8"?>
<svg  xmlns="http://www.w3.org/2000/svg" width="562.14" height="180.43" viewBox="0 0 562.14 180.43" fill="#292929">
  <g>
    <g>
      <path d="M254.32,136.08h-5.48v-4.54h16.28v4.54h-5.5v13.85h-5.3v-13.85Z"/>
      <path d="M287.63,131.54v18.39h-5.3v-6.95h-6.31v6.95h-5.3v-18.39h5.3v6.87h6.31v-6.87h5.3Z"/>
      <path d="M294.71,131.54h14.56v4.54h-9.25v2.33h8.77v4.56h-8.77v2.38h9.36v4.56h-14.66v-18.39Z"/>
      <path d="M332.54,143.45h-2.18v6.47h-5.3v-18.39h7.61c4.82,0,8.42,1.17,8.42,5.91,0,2.64-1.37,4.21-3.27,5.07l4.36,7.41h-5.96l-3.68-6.47Zm-2.18-7.63v3.63h2.91c1.55,0,2.28-.76,2.28-1.8s-.74-1.83-2.28-1.83h-2.91Z"/>
      <path d="M347.86,131.54h14.56v4.54h-9.25v2.33h8.77v4.56h-8.77v2.38h9.36v4.56h-14.66v-18.39Z"/>
      <path d="M376.32,131.1c3.25,0,5.76,.76,8.07,2.03l-2.23,4.38c-1.35-.84-3.81-1.7-6.01-1.7-1.39,0-2.23,.33-2.23,1.04,0,.58,.48,.91,1.52,1.14l2.71,.56c3.42,.73,6.36,1.82,6.36,5.45,0,4.16-3.57,6.24-8.04,6.24-3.88,0-6.77-1.14-8.82-2.64l2.61-4.29c1.55,1.14,4.01,2.16,6.39,2.16,1.47,0,2.41-.28,2.41-1.04s-1.01-1.19-2.74-1.55l-2.08-.43c-2.89-.58-5.75-2-5.75-5.5,0-3.98,3.93-5.86,7.83-5.86Z"/>
      <path d="M395.95,149.92h-5.3v-18.39h5.3v18.39Z"/>
      <path d="M409.38,131.54c5.91,0,10.6,2.18,10.6,9.18s-4.69,9.21-10.6,9.21h-6.34v-18.39h6.34Zm.08,4.28h-1.12v9.81h1.12c2.91,0,4.99-.71,4.99-4.92s-2.08-4.9-4.99-4.9Z"/>
      <path d="M425.95,131.54h14.56v4.54h-9.25v2.33h8.77v4.56h-8.77v2.38h9.36v4.56h-14.66v-18.39Z"/>
      <path d="M457.58,149.92l-5.63-11.72v11.72h-4.89v-18.39h6.52l5.66,11.69v-11.69h4.89v18.39h-6.54Z"/>
      <path d="M479.36,131.1c4.72,0,8.29,2.71,9.03,7.35h-5.23c-.35-1.78-1.7-2.91-3.63-2.91-2.31,0-3.93,1.7-3.93,5.12s1.62,5.15,3.93,5.15c1.93,0,3.35-1.19,3.7-2.94h5.2c-.74,4.66-4.36,7.38-9.08,7.38-5.73,0-9.28-3.6-9.28-9.59s3.55-9.56,9.28-9.56Z"/>
      <path d="M494.43,131.54h14.56v4.54h-9.26v2.33h8.78v4.56h-8.78v2.38h9.36v4.56h-14.66v-18.39Z"/>
      <path d="M522.89,131.1c3.25,0,5.76,.76,8.07,2.03l-2.23,4.38c-1.35-.84-3.81-1.7-6.01-1.7-1.39,0-2.23,.33-2.23,1.04,0,.58,.48,.91,1.52,1.14l2.71,.56c3.42,.73,6.36,1.82,6.36,5.45,0,4.16-3.57,6.24-8.04,6.24-3.88,0-6.77-1.14-8.82-2.64l2.61-4.29c1.55,1.14,4.01,2.16,6.39,2.16,1.47,0,2.41-.28,2.41-1.04s-1.01-1.19-2.74-1.55l-2.08-.43c-2.89-.58-5.75-2-5.75-5.5,0-3.98,3.93-5.86,7.83-5.86Z"/>
    </g>
    <path d="M257.6,37.49c0-3.82,5.07-4.93,9.57-4.93,5.93,0,10.79,3.8,11.89,9.16h4.14l.04-10.61-4.52,2.28c-2.27-1.67-7.13-3.21-11.62-3.21-7.55,0-16.7,2.19-16.7,10.83,0,11.08,27.91,9.89,27.91,18.74,0,4.33-5.45,5.63-10.91,5.63-7.02,0-11.32-5.16-12.34-10.77h-4.59v12.26l4.65-2.52c4.09,2.14,7.56,3.36,12.02,3.36,10.03,0,17.9-3.2,17.9-11.16,0-13.41-27.44-12.06-27.44-19.06m35.36,3.64l8.16-6.67h6.16v18.64l-4.53,3.84h18.2l-4.55-3.84v-18.64h6.18l8.15,6.67v-9.36h-37.77v9.36Zm12.97,25.02l5.92,5.11,5.91-5.11-5.91-5.02-5.92,5.02Zm166.38-16.98l4.43,3.5v6.05c0,3.19-4.72,5.77-8.16,5.77-10.98,0-12.28-9.49-12.28-15.55,0-8.46,3.36-15.78,12.29-15.78,7.73,0,10.93,4.01,13.58,9.95h3.82v-11.34l-4.56,2.2c-1.63-.9-5.38-3.19-12.77-3.19-13.48,0-22.89,5.75-22.89,17.99,0,13.1,9.32,18.3,22.66,18.3,3.75,0,8.34-1.28,12.53-3.75l5.04,2.86v-13.52l4.38-3.5h-18.06Zm62.4-11.68c0-3.82,5.07-4.93,9.59-4.93,5.91,0,10.74,3.8,11.89,9.16h4.09l.05-10.61-4.49,2.28c-2.31-1.67-7.13-3.21-11.61-3.21-7.55,0-16.7,2.19-16.7,10.83,0,11.08,27.87,9.89,27.87,18.74,0,4.33-5.47,5.63-10.91,5.63-7.01,0-11.24-5.16-12.31-10.77h-4.54v12.26l4.62-2.52c4.07,2.14,7.52,3.36,12.02,3.36,9.98,0,17.86-3.2,17.86-11.16,0-13.41-27.43-12.06-27.43-19.06m-17.86-5.72h-18.26l4.48,3.85v26.69l-4.48,3.83h18.26l-4.53-3.83v-26.69l4.53-3.85Zm-103.36,31.75v-13.22h10.1l4.36,3.88v-10.41l-4.36,3.86h-10.1v-13.17h15.26l8.11,6.67v-9.36h-37.6l5.03,4.38v25.72l-5.03,4.28h37.6v-9.33l-8.11,6.7h-15.26Zm-32.07-9.54l-6.48-3.75c7.51-.27,12.73-1.7,12.73-8.95s-7.09-9.51-16.84-9.51h-24.35l4.48,3.89v26.19l-4.48,4.29h17.82l-4.49-4.28v-11.57h9.33l9.68,15.85h12.14l-4.98-4.29-4.56-7.87Zm-14.42-6.36h-7.19v-13.15h7.19c7.36,0,10.02,.46,10.02,6.56s-2.66,6.59-10.02,6.59"/>
    <g>
      <path d="M266.38,104.8c-.76,4.11-3.7,6.44-7.93,6.44-5.37,0-8.49-3.83-8.49-9.58s3.32-9.45,8.64-9.45c4.08,0,7,2.33,7.73,6.44h-3.09c-.56-2.48-2.36-3.8-4.74-3.8-2.91,0-5.22,2.38-5.22,6.82s2.26,6.94,5.2,6.94c2.48,0,4.26-1.29,4.81-3.8h3.09Z"/>
      <path d="M277.38,92.53h3.4l6.89,18.37h-3.52l-1.44-4.08h-7.45l-1.42,4.08h-3.29l6.84-18.37Zm-1.19,11.61h5.55l-2.79-7.88-2.76,7.88Z"/>
      <path d="M296.53,110.91h-3.22v-18.37h3.22v18.37Z"/>
      <path d="M311.33,103.15c-.3,.03-.63,.03-.96,.03h-3.12v7.73h-3.22v-18.37h5.86c5.42,0,8.19,1.22,8.19,5.3,0,2.36-1.17,3.95-3.45,4.74l4.21,8.34h-3.62l-3.88-7.76Zm-4.08-8.03v5.5h3.19c2.76,0,4.33-.56,4.33-2.76,0-2.41-1.9-2.74-4.44-2.74h-3.09Z"/>
      <path d="M332.69,111.24c-5.4,0-8.77-3.88-8.77-9.53s3.37-9.5,8.77-9.5,8.77,3.85,8.77,9.5-3.37,9.53-8.77,9.53Zm0-2.64c3.04,0,5.45-2.43,5.45-6.89s-2.41-6.87-5.45-6.87-5.45,2.41-5.45,6.87,2.41,6.89,5.45,6.89Z"/>
    </g>
  </g>
  <g>
    <path class="cls-1" d="M98.91,136.14c-6.65,9.63-15.83,13.64-24.3,14.39-14.66,1.25-26.87-6.41-34.15-12.87,.05,1.89-.25,4.64-.85,8.78-3.83-2.2-7.16-3.5-9.72-4.28,.94-10.54,.83-19.35,.73-23.04v-5.45h4.76c2.46,8.78,11.42,16.98,21.52,21.32,9.47,4.07,19.96,3.46,27.98-3.26,5.55-4.69,8.17-17.85,2.27-26.6-1.21-1.76-2.87-3.4-4.83-4.95h17.24c1.5,2.26,3.08,5.4,3.59,7.56,2.15,8.68,1.39,20.29-4.24,28.41"/>
    <path class="cls-1" d="M47.76,177.19c-7.73-13.09-22.78-24.36-33.7-20.42-3.74,1.34-5.62,4.74-5.56,8.08,.04,4.52,3.18,8.88,9.79,8.35,1.37-.11,3.5-.82,4.73-1.81,2.29-1.88,3.36-4.68,3.86-6.55,2.21,1.09,5.2,3.18,7.52,5.59-4.29,9.69-18.14,12.68-26.86,7.47-4.9-2.9-8.39-8.48-7.36-16.7,.75-6.14,4.56-10.16,8.98-12.85,5.34-3.26,11.78-3.75,19.65-1.77,8.74,2.2,16.35,7.77,19.02,11.64,1.55-1.87,3.39-4.91,4.73-7.32,2.83,1.47,7.6,3.44,12.74,4.04-2.51,5.98-12.03,18.8-17.54,22.25"/>
    <path class="cls-1" d="M38.48,41.6c12.61-15.21,36.22-14.3,49.97-4.43,.6,.41,3.84,2.8,4.38,3.25l16.92-5.01s-19.83,19.66-19.97,19.66c-8.05-13.74-33.35-19.6-40.89-4.42-3.88,7.8-3.01,16.52,6.52,22.3v14.83c-1.6-.7-3.21-1.38-4.71-2.17-23.48-12.31-20.32-34.21-12.22-44.01"/>
    <g>
      <polyline class="cls-1" points="130.75 59.48 130.75 66.2 121.7 66.2 121.74 76.82 108.32 76.82 108.32 66.2 97.09 66.2 121.7 41.9 121.7 59.48 130.75 59.48"/>
      <path class="cls-1" d="M44.18,0c1.38,5.78,6.94,12.53,28.79,12.53,23.94,0,42.84,.1,47.17,.09,39.45-.05,43.39,33.61,43.39,40.94,0,9.24-1.47,28.77-21.11,38.07-3.39,1.62-5.8,2.7-10.37,3.85,7.53,4.32,14.12,19,20.58,34.45,4.16,9.94,7.75,19.75,11.93,26.27,2.41,3.68,5.93,7.85,9.32,9.47,1.55,.75,3.78,.95,5.55,1.02,4.05,.07,6.61-1.95,7.77-3.96-3.83,1.96-8.21-.41-9.53-3.68-1.3-3.08-.88-5.85,.72-8.37,1.92-3.03,4.89-4.26,8.7-4.03,11.21,.58,11.37,13.08,11.37,13.08-.18,7.04-2.41,11.94-7.34,15.56-3.2,2.35-6.89,3.89-12.31,4.1-11.84,.5-26.12-6.89-38.59-44.13-4.59-13.73-11.81-27.8-19.4-33.58-3.52-2.69-9.95-6.64-19.15-6.64l-27.38-.05s-.4,7.52-.35,9.39c.13,4.26-1.36,25.24-2.67,27.82-3.16,.62-11.54-1.13-13.01-2.81,1.88-7.26,2.37-16.12,2.64-31.61,.03-2.09,.03-2.96,.03-2.96,0,0-.09-46.81-.09-46.86,2.43-1.16,10.66-.16,13.3,2.1,.01,.06,.06,31.64,.06,31.64,0,0,32.94-.04,46.83-.04,19.7,0,29.28-11.79,29.28-28.09s-10.84-27.63-30.2-27.63h-47.11l-7.68-.02C52.71,25.91,38.54,14.52,44.18,0"/>
    </g>
    <polyline class="cls-1" points="173.95 108.63 162.87 119.57 151.79 108.63 162.87 97.67 173.95 108.63"/>
    <path class="cls-1" d="M108.35,173.03V101.56c3.97,.09,12.19,5.9,13.3,8.2v38.97l9.05-8.64,5.98,5.64-28.32,27.29"/>
  </g>
</svg>