<svg enable-background="new 0 0 64 64" height="64" viewBox="0 0 64 64" width="64" xmlns="http://www.w3.org/2000/svg"><path d="m18.595 30.291v22.432l-17.451 4.83c-.76.2-1.39-.58-1.05-1.271l12.661-25.491c.16-.31.47-.5.81-.5zm44.312 27.361-17.541-4.04v-23.321h5.03c.34 0 .65.19.8.5l12.711 25.592c.33.68-.27 1.439-1 1.269z" fill="#75bba7"/><path d="m45.364 30.285v23.319l-13.39 4.471-13.38-5.36v-22.43h1.05c4.55 7.72 12.34 15.72 12.34 15.72s7.79-8 12.33-15.72z" fill="#93cdbe"/><path d="m31.984 5.925c-8.59 0-15.54 6.96-15.54 15.54 0 2.51 1.32 5.64 3.2 8.82 4.55 7.72 12.34 15.72 12.34 15.72s7.79-8 12.33-15.72c1.88-3.181 3.2-6.311 3.2-8.82 0-8.58-6.95-15.54-15.53-15.54zm0 7c4.7 0 8.53 3.83 8.53 8.54s-3.83 8.54-8.53 8.54c-4.71 0-8.54-3.83-8.54-8.54s3.83-8.54 8.54-8.54z" fill="#f26e62"/></svg>