<svg id="Layer_1" enable-background="new 0 0 64 64" viewBox="0 0 64 64" xmlns="http://www.w3.org/2000/svg"><g><path d="m63 41.2c-.2 0-.5 0-.8 0h-.3v-5h.3c.4 0 .8-.2.9-.6.2-.5 0-1.1-.5-1.3-.4-.2-.8-.3-1.2-.4h-.1s0 0 0 0c-.1 0-.2-.1-.3-.1v-2.2c.2.1.3.1.5.1.3 0 .7-.2.8-.5.3-.5.1-1-.4-1.3 0 0-.5-.3-1.5-.8-4-1.9-14.4-6.3-25.2-5.5-.5 0-.9.1-1.4.1-.5.1-.9.6-.8 1.1s.5.9 1 .9h.1.3v5.3c-1.5-.1-2.3-.1-2.4-.1 0 0-2.2.1-5.4.2l-3.3-6.9c.4-.2.6-.5.6-.9 0-.5-.5-.9-1-.9 0 0-.4 0-1.1.1h-.1c-1.2-4.2-2.3-7.2-2.9-8.7h.1c.5-.1.9-.5.8-1.1-.1-.5-.5-.9-1.1-.8-.5.1-1 .1-1.4.2-2.6.5-4.9 1.3-6.8 2.1s-3.4 1.8-4.4 2.4c-1 .7-1.6 1.1-1.6 1.2-.4.4-.4 1-.1 1.4.2.2.4.3.6.3-1 3.8-1.2 7.1-1.2 8.4-.1 0-.2.1-.3.1-.3.2-.6.5-.9.7-.5.3-.5 1-.2 1.4.2.2.4.3.7.3v3.5s-.1 0-.2.1h-.1c-.4.1-.8.3-1.2.4-.5.2-.7.8-.5 1.3.1.4.5.6.9.6h.3v5h-.4c-.3 0-.6 0-.8 0-.5-.1-1 .4-1 1 0 .5.4.9.8.9v6c0 .4.3.8.7.9.1 0 1.5.5 5.1.9 1.2.2 2.5.3 4.1.5 2 .2 3.8.3 5.6.4 1.3.1 2.6.1 4.1.2 1.5 0 3.1.1 4.9.1h1.7 2.7 2.4v-1l.1 1h2.3 2.7 1.7c1.7 0 3.4-.1 4.9-.1 1.5 0 2.8-.1 4.1-.2 1.8-.1 3.6-.2 5.6-.4.7-.1 1.3-.1 1.8-.2h.4c.7-.1 1.3-.1 1.9-.2 1.8-.2 3-.5 3.8-.6.8-.2 1.2-.3 1.2-.3.4-.1.7-.5.7-.9v-6c.5-.1.8-.5.8-.9-.1-.8-.5-1.2-1.1-1.2zm-26.7-15.6c9.5-.4 18.7 3.2 22.7 5.2v2.7c-.1 0-.2 0-.3 0-.3-.1-.6-.1-1-.2-.2 0-.4-.1-.5-.1-.3 0-.6-.1-.9-.2-.2 0-.4-.1-.6-.1-.1 0-.2 0-.3-.1v-.6c0-1.6-1.3-2.9-2.9-2.9-.8 0-1.5.3-2 .8s-.8 1.2-.8 1.9c-.1 0-.2 0-.2 0-.4 0-.8-.1-1.1-.1-.2 0-.3 0-.5 0-.5-.1-1-.1-1.5-.1h-.1c-.1 0-.2 0-.3 0v-1.6c0-1.6-1.3-3-3-3-.8 0-1.5.3-2.1.9s-.9 1.3-.9 2.1v1.2c-.3 0-.5 0-.7-.1-.2 0-.5 0-.7 0-.3 0-.5 0-.8 0-.2 0-.3 0-.5 0-.3 0-.6 0-.8 0h-.1v-5.7zm17.2 6.5v.4h-.1c-.2 0-.4-.1-.6-.1-.3 0-.6-.1-1-.1 0 0 0 0-.1 0v-.1c0-.2.1-.5.3-.7s.4-.3.6-.3c.4 0 .9.4.9.9zm-9.5-2v1.4c-.3 0-.7-.1-1-.1-.2 0-.4 0-.7 0-.1 0-.3 0-.4 0v-1.3c0-.3.1-.5.3-.8.1-.1.4-.3.8-.3.5 0 1 .5 1 1.1zm-36.6-12.1c1.8-1.1 5.1-3 9.4-3.9.5 1.3 1.6 4.4 2.9 8.6h-.1c-.9.1-1.8.3-2.8.5-.1 0-.2 0-.3.1-.1 0-.2 0-.3.1v-2c0-.9-.4-1.7-1-2.4-.6-.6-1.5-1-2.3-1-1.8 0-3.3 1.5-3.3 3.3v3.7c-.1 0-.1 0-.2.1-.1 0-.1 0-.2.1-.5.2-1 .4-1.5.6-.1 0-.2.1-.2.1-.5.2-1 .4-1.5.7-.1 0-.1 0-.2.1 0-1.9.4-5.2 1.6-8.7zm6.8 3.4v2.4c-.4.1-.8.2-1.1.3h-.1c-.5.1-1 .3-1.5.4v-3.1c0-.8.6-1.4 1.4-1.4.5 0 .8.2 1 .4 0 .2.3.6.3 1zm-9.3 8c.1 0 .2-.1.3-.2.3-.2.6-.4.9-.5 1.1-.6 2.3-1.1 3.5-1.5.8-.3 1.6-.5 2.4-.8.2-.1.4-.1.6-.2 3.4-.9 6.6-1.4 8.4-1.6h.3l3.2 6.7c-.9 0-1.8.1-2.8.2v-1.8c0-.8-.3-1.5-.9-2.1-.5-.5-1.3-.9-2.1-.9-1.6 0-2.9 1.3-2.9 3v2.3c-.1 0-.3 0-.4 0-.3 0-.5 0-.8.1-.4 0-.7.1-1.1.1-.3 0-.6.1-.9.1v-.8c0-.7-.3-1.4-.8-2-.5-.5-1.2-.8-2-.8-1.6 0-2.8 1.3-2.8 2.8v1.5c-.2 0-.3.1-.5.1s-.4.1-.6.1c-.4.1-.7.1-1.1.2v-4zm14.9.2v2h-.1c-.3 0-.5 0-.8.1-.2 0-.4 0-.6 0s-.4 0-.5 0v-2.1c0-.6.5-1 1-1 .3 0 .5.1.7.3.1.2.3.4.3.7zm-9.1 1.8v1c-.1 0-.1 0-.2 0-.2 0-.5.1-.7.1s-.4.1-.6.1c-.1 0-.1 0-.2 0v-1.3c0-.5.4-.9.9-.9.2 0 .4.1.6.2.1.4.2.6.2.8zm-.9 17.9c-.8-.1-1.5-.2-2.1-.2v-1c0-.6.5-1.1 1.1-1.1.3 0 .6.1.8.3s.3.5.3.8v1.2zm9.6.7c-.7 0-1.4-.1-2.1-.1v-2.4c0-.6.5-1.1 1.1-1.1.4 0 .6.2.7.3.2.2.3.5.3.8zm4.9.1c-1 0-2 0-3-.1v-2.5c0-.8-.3-1.6-.9-2.1-.6-.6-1.3-.9-2.1-.9-1.7 0-3 1.3-3 3v2.3c-1.2-.1-2.4-.1-3.6-.3v-1.4c0-.8-.3-1.6-.9-2.1-.6-.6-1.3-.9-2.1-.9-1.7 0-3 1.4-3 3v.8c-1.4-.2-2.4-.4-3-.5v-5.2h.3s0 0 0 0h2.1.1 1 .4.9.4.9.8.5.3.8.4 1.2.2 2.8.2.2 1.1.2 1c2 0 3.9-.1 5.6-.1v7zm-16.5-9v-1.5c0-.5.4-.9.9-.9.3 0 .5.1.6.3.2.2.3.4.3.7v1.4c-.6 0-1.2 0-1.8 0zm9.5-.2v-2.3c0-.6.5-1.1 1.1-1.1.4 0 .6.2.7.3.2.2.3.5.3.8v2.3c-.1 0-.3 0-.4 0h-.3c-.4 0-.9 0-1.4 0zm16.1 9.2c-.4 0-.9 0-1.3 0h-.2c-.5 0-.9 0-1.4 0v-2.3c0-.8.7-1.5 1.5-1.5.4 0 .7.2 1 .4.3.3.4.7.4 1zm4.4 0h-.7c-.5 0-1.1 0-1.7 0v-2.3c0-.9-.4-1.7-1-2.4-.7-.6-1.5-1-2.4-1-1.9 0-3.4 1.5-3.4 3.4v2.3c-.6 0-1.2 0-1.7 0h-.7v-7.5h.6l5.2-.1 5.2.1h.6zm-7.6-9.5v-2.6c0-1 .8-1.9 1.8-1.9.5 0 .9.2 1.3.5.3.4.5.8.5 1.3v2.7h-1.9zm6.9.1h-1.3v-2.7c0-1-.4-2-1.1-2.7s-1.7-1.1-2.7-1.1c-2.1 0-3.8 1.7-3.8 3.8v2.7h-1.4c-.5 0-1 0-1.6 0-.4 0-.8 0-1.1 0-.2 0-.5 0-.7 0s-.4 0-.6 0c-.1 0-.3 0-.4 0-.3 0-.6 0-.9 0h-.1v-2.3c0-.8-.3-1.6-.9-2.1-.6-.6-1.3-.9-2.1-.9-1.7 0-3 1.3-3 3v2.6c-1.3 0-2.6 0-3.8.1v-1.4c0-.8-.3-1.5-.8-2s-1.3-.8-2-.8c-1.6 0-2.9 1.3-2.9 2.8v1.5c-.7 0-1.3 0-1.8 0v-5.6h.1c1.4-.4 3.1-.7 4.9-.9 5.6-.8 12.6-1.3 16.9-1.5 3.5-.2 5.9-.3 5.9-.3s1.3 0 3.3.1c.7 0 1.4.1 2.2.1 1 0 2.1.1 3.3.2 3 .2 6.6.5 10 .8 3.4.4 6.6.8 8.9 1.4.1 0 .2 0 .2.1v5.5c-.6 0-1.2 0-1.8 0v-1.5c0-1.6-1.3-2.9-2.9-2.9-.8 0-1.5.3-2 .8s-.8 1.3-.8 2v1.5h-.2c-.2 0-.5 0-.7 0-.3 0-.7 0-1 0-.1 0-.3 0-.4 0-.5 0-1 0-1.5 0v-2.4c0-1.6-1.3-3-3-3-.8 0-1.6.3-2.1.9-.6.6-.9 1.3-.9 2.1v2.3c-1.4 0-2.7-.1-3.9-.1-.4-.1-.9-.1-1.5-.1zm19.1-1.1v1.5c-.6 0-1.2 0-1.8 0v-1.5c0-.3.1-.5.3-.7s.4-.3.6-.3c.5.1.9.5.9 1zm-9.5-1.1v2.4c-.7 0-1.4 0-2.1 0v-2.4c0-.3.1-.5.3-.8.1-.1.4-.3.7-.3.6.1 1.1.5 1.1 1.1zm0 11.4c-.7 0-1.4.1-2.1.1v-2.5c0-.3.1-.5.3-.8.1-.1.4-.3.7-.3.6 0 1.1.5 1.1 1.1zm9.6-.8c-.6.1-1.3.2-2 .2h-.1s0 0-.1 0v-1.3c0-.3.1-.6.3-.8s.5-.3.8-.3c.6 0 1.1.5 1.1 1.1zm4.9-.8c-.6.1-1.5.3-3 .5v-.8c0-1.7-1.3-3-3-3-.8 0-1.6.3-2.1.9-.6.6-.9 1.3-.9 2.1v1.5c-1.3.1-2.4.2-3.6.3v-2.3c0-1.7-1.3-3-3-3-.8 0-1.6.3-2.1.9-.6.6-.9 1.3-.9 2.1v2.5c-.9 0-1.9 0-3 .1v-7.4h.4c2.3 0 4.9.1 7.7.2 1.9 0 3.9.1 5.7.1 1.5 0 2.9 0 4.2.1h3.3.3z" fill="#2b2e63"/><g fill="#f26e61"><path d="m53.5 32.1v.4h-.1c-.2 0-.4-.1-.6-.1-.3 0-.6-.1-1-.1 0 0 0 0-.1 0v-.1c0-.2.1-.5.3-.7s.4-.3.6-.3c.4 0 .9.4.9.9z"/><path d="m56.2 39.6v1.5c-.6 0-1.2 0-1.8 0v-1.5c0-.3.1-.5.3-.7s.4-.3.6-.3c.5.1.9.5.9 1z"/><path d="m56.3 48v1.1c-.6.1-1.3.2-2 .2h-.1s0 0-.1 0v-1.3c0-.3.1-.6.3-.8s.5-.3.8-.3c.7.1 1.1.5 1.1 1.1z"/><path d="m46.7 47.4v2.5c-.7 0-1.4.1-2.1.1v-2.5c0-.3.1-.5.3-.8.1-.1.4-.3.7-.3.6 0 1.1.4 1.1 1z"/><path d="m46.7 38.5v2.4c-.7 0-1.4 0-2.1 0v-2.4c0-.3.1-.5.3-.8.1-.1.4-.3.7-.3.6.1 1.1.5 1.1 1.1z"/><path d="m44 30.1v1.4c-.3 0-.7-.1-1-.1-.2 0-.4 0-.7 0-.1 0-.3 0-.4 0v-1.3c0-.3.1-.5.3-.8.1-.1.4-.3.8-.3.5 0 1 .5 1 1.1z"/><path d="m33.8 38v2.7h-1.9-1.8v-2.7c0-1 .8-1.9 1.8-1.9.5 0 .9.2 1.3.5.4.4.6.9.6 1.4z"/><path d="m19.8 29.6v2h-.1c-.3 0-.5 0-.8.1-.2 0-.4 0-.6 0s-.4 0-.5 0v-2.1c0-.6.5-1 1-1 .3 0 .5.1.7.3.1.2.3.4.3.7z"/><path d="m10.7 31.4v1c-.1 0-.1 0-.2 0-.2 0-.5.1-.7.1s-.4.1-.6.1c-.1 0-.1 0-.2 0v-1.3c0-.5.4-.9.9-.9.2 0 .4.1.6.2.1.4.2.6.2.8z"/><path d="m19.4 38.6v2.3c-.1 0-.3 0-.4 0h-.3c-.4 0-.9 0-1.3 0h-.1v-2.3c0-.6.5-1.1 1.1-1.1.4 0 .6.2.7.3.2.2.3.5.3.8z"/><path d="m14.2 21.4v2.4c-.4.1-.8.2-1.1.3h-.1c-.5.1-1 .3-1.5.4v-3.1c0-.8.6-1.4 1.4-1.4.5 0 .8.2 1 .4 0 .2.3.6.3 1z"/><path d="m9.6 39.6v1.4c-.6 0-1.2 0-1.8 0v-1.5c0-.5.4-.9.9-.9.3 0 .5.1.6.3.2.3.3.5.3.7z"/><path d="m9.8 48.1v1.3c-.8-.1-1.5-.2-2.1-.2v-1c0-.6.5-1.1 1.1-1.1.3 0 .6.1.8.3s.2.4.2.7z"/><path d="m19.4 47.5v2.5c-.7 0-1.4-.1-2.1-.1v-2.4c0-.6.5-1.1 1.1-1.1.4 0 .6.2.7.3.2.2.3.5.3.8z"/><path d="m33.4 47.9v2.3c-.4 0-.9 0-1.3 0h-.2c-.5 0-.9 0-1.4 0v-2.3c0-.8.7-1.5 1.5-1.5.4 0 .7.2 1 .4.3.3.4.7.4 1.1z"/></g><path d="m61.2 43.1v5.2c-.6.1-1.5.3-3 .5v-.8c0-1.7-1.3-3-3-3-.8 0-1.6.3-2.1.9-.6.6-.9 1.3-.9 2.1v1.5c-1.3.1-2.4.2-3.6.3v-2.3c0-1.7-1.3-3-3-3-.8 0-1.6.3-2.1.9-.6.6-.9 1.3-.9 2.1v2.5c-.9 0-1.9 0-3 .1v-7.4h.4c2.3 0 4.9.1 7.7.2 1.9 0 3.9.1 5.7.1 1.5 0 2.9 0 4.2.1h3.3z" fill="#ffdc7c"/><path d="m59 30.7v2.7c-.1 0-.2 0-.3 0-.3-.1-.6-.1-1-.2-.2 0-.4-.1-.5-.1-.3 0-.6-.1-.9-.2-.2 0-.4-.1-.6-.1-.1 0-.2 0-.3-.1v-.6c0-1.6-1.3-2.9-2.9-2.9-.8 0-1.5.3-2 .8s-.8 1.2-.8 1.9c-.1 0-.2 0-.2 0-.4 0-.8-.1-1.1-.1-.2 0-.3 0-.5 0-.5-.1-1-.1-1.5-.1h-.1c-.1 0-.2 0-.3 0v-1.6c0-1.6-1.3-3-3-3-.8 0-1.5.3-2.1.9s-.9 1.3-.9 2.1v1.2c-.3 0-.5 0-.7-.1-.2 0-.5 0-.7 0-.3 0-.5 0-.8 0-.2 0-.3 0-.5 0-.3 0-.6 0-.8 0h-.1v-5.5c9.4-.5 18.6 3.1 22.6 5z" fill="#ffdc7c"/><path d="m19.7 22.8h-.1c-.9.1-1.8.3-2.8.5-.1 0-.2 0-.3.1-.1 0-.2 0-.3.1v-2c0-.9-.4-1.7-1-2.4-.6-.6-1.5-1-2.3-1-1.8 0-3.3 1.5-3.3 3.3v3.7c-.1 0-.1 0-.2.1-.1 0-.1 0-.2.1-.5.2-1 .4-1.5.6-.1 0-.2.1-.2.1-.5.2-1 .4-1.5.7-.1 0-.1 0-.2.1.1-1.9.5-5.2 1.7-8.7 1.8-1.1 5.1-3 9.4-3.9.4 1.3 1.5 4.3 2.8 8.6z" fill="#ffdc7c"/><path d="m21.7 31.4v-1.8c0-.8-.3-1.5-.9-2.1-.5-.5-1.3-.9-2.1-.9-1.6 0-2.9 1.3-2.9 3v2.3c-.1 0-.3 0-.4 0-.3 0-.5 0-.8.1-.4 0-.7.1-1.1.1-.3 0-.6.1-.9.1v-.8c0-.7-.3-1.4-.8-2-.5-.5-1.2-.8-2-.8-1.6 0-2.8 1.3-2.8 2.8v1.6c-.2 0-.3.1-.5.1s-.4.1-.6.1c-.4.1-.7.1-1.1.2v-4c.1 0 .2-.1.3-.2.3-.2.6-.4.9-.5 1.1-.6 2.3-1.1 3.5-1.5.8-.3 1.6-.5 2.4-.8.2-.1.4-.1.6-.2 3.4-.9 6.6-1.4 8.4-1.6h.3l3.2 6.7c-.8 0-1.7.1-2.7.1z" fill="#ffdc7c"/><path d="m60 35.6v5.5c-.6 0-1.2 0-1.8 0v-1.5c0-1.6-1.3-2.9-2.9-2.9-.8 0-1.5.3-2 .8s-.8 1.3-.8 2v1.5h-.2c-.2 0-.5 0-.7 0-.3 0-.7 0-1 0-.1 0-.3 0-.4 0-.5 0-1 0-1.5 0v-2.4c0-1.6-1.3-3-3-3-.8 0-1.6.3-2.1.9-.6.6-.9 1.3-.9 2.1v2.3c-1.4 0-2.7-.1-3.9-.1-.5 0-1.1 0-1.7 0h-1.3v-2.8c0-1-.4-2-1.1-2.7s-1.7-1.1-2.7-1.1c-2.1 0-3.8 1.7-3.8 3.8v2.7h-1.4c-.5 0-1 0-1.6 0-.4 0-.8 0-1.1 0-.2 0-.5 0-.7 0s-.4 0-.6 0c-.1 0-.3 0-.4 0-.3 0-.6 0-.9 0h-.1v-2.3c0-.8-.3-1.6-.9-2.1-.6-.6-1.3-.9-2.1-.9-1.7 0-3 1.3-3 3v2.6c-1.3 0-2.6 0-3.8.1v-1.4c0-.8-.3-1.5-.8-2s-1.3-.8-2-.8c-1.6 0-2.9 1.3-2.9 2.8v1.5c-.7 0-1.3 0-1.8 0v-5.6h.1c1.4-.4 3.1-.7 4.9-.9 5.6-.8 12.6-1.3 16.9-1.5 3.5-.2 5.9-.3 5.9-.3s1.3 0 3.3.1c.7 0 1.4.1 2.2.1 1 0 2.1.1 3.3.2 3 .2 6.6.5 10 .8 3.4.4 6.6.8 8.9 1.4.2.1.3.1.4.1z" fill="#ffdc7c"/><path d="m37.8 42.7v7.5h-.7c-.5 0-1.1 0-1.7 0v-2.3c0-.9-.4-1.7-1-2.4-.7-.6-1.5-1-2.4-1-1.9 0-3.4 1.5-3.4 3.4v2.3c-.6 0-1.2 0-1.7 0h-.7v-7.5h.6l5.2-.1 5.2.1z" fill="#ecc25d"/><path d="m24.3 42.7v7.4c-1 0-2 0-3-.1v-2.5c0-.8-.3-1.6-.9-2.1-.6-.6-1.3-.9-2.1-.9-1.7 0-3 1.3-3 3v2.3c-1.2-.1-2.4-.1-3.6-.3v-1.4c0-.8-.3-1.6-.9-2.1-.6-.6-1.3-.9-2.1-.9-1.7 0-3 1.4-3 3v.8c-1.4-.2-2.4-.4-3-.5v-5.2h.3s0 0 0 0h2.1.1 1 .4.9.4.9.8.5.3.8.4 1.2.2 2.8.2.2 1.1.2 1c2.2-.4 4.1-.4 5.8-.5z" fill="#ffdc7c"/></g></svg>