<svg height="512" viewBox="0 0 64 64" width="512" xmlns="http://www.w3.org/2000/svg"><g id="Icons"><g><g><g><g><path d="m52 14v27c0 1.105-.895 2-2 2h-36c-1.105 0-2-.895-2-2v-27z" fill="#f0f0f0"/></g></g><g><g><path d="m52 9v6h-40v-6c0-1.105.895-2 2-2h36c1.105 0 2 .895 2 2z" fill="#c80a50"/></g></g><g><g><path d="m20.5 7v3c0 .55-.45 1-1 1s-1-.45-1-1v-3z" fill="#a00028"/></g></g><g><g><path d="m28.5 7v3c0 .55-.45 1-1 1s-1-.45-1-1v-3z" fill="#a00028"/></g></g><g><g><path d="m36.5 7v3c0 .55-.45 1-1 1s-1-.45-1-1v-3z" fill="#a00028"/></g></g><g><g><path d="m44.5 7v3c0 .55-.45 1-1 1s-1-.45-1-1v-3z" fill="#a00028"/></g></g><g><g><path d="m19.5 10c-.552 0-1-.448-1-1v-4c0-.552.448-1 1-1 .552 0 1 .448 1 1v4c0 .552-.448 1-1 1z" fill="#0a5078"/></g></g><g><g><path d="m27.5 10c-.552 0-1-.448-1-1v-4c0-.552.448-1 1-1 .552 0 1 .448 1 1v4c0 .552-.448 1-1 1z" fill="#0a5078"/></g></g><g><g><path d="m35.5 10c-.552 0-1-.448-1-1v-4c0-.552.448-1 1-1 .552 0 1 .448 1 1v4c0 .552-.448 1-1 1z" fill="#0a5078"/></g></g><g><g><path d="m43.5 10c-.552 0-1-.448-1-1v-4c0-.552.448-1 1-1 .552 0 1 .448 1 1v4c0 .552-.448 1-1 1z" fill="#0a5078"/></g></g></g><g><g><path d="m40 60h-16c-2.209 0-4-1.791-4-4v-33c0-2.209 1.791-4 4-4h16c2.209 0 4 1.791 4 4v33c0 2.209-1.791 4-4 4z" fill="#0a5078"/></g></g><g><g><path d="m33 59.5h-2c-.552 0-1-.448-1-1 0-.552.448-1 1-1h2c.552 0 1 .448 1 1 0 .552-.448 1-1 1z" fill="#00325a"/></g></g><g><g><path d="m22 54v-31c0-.552.448-1 1-1h18c.552 0 1 .448 1 1v31c0 .552-.448 1-1 1h-18c-.552 0-1-.448-1-1z" fill="#fab400"/></g></g><g><g><g><path d="m37 43.5h-6c-.276 0-.5-.224-.5-.5s.224-.5.5-.5h6c.276 0 .5.224.5.5s-.224.5-.5.5z" fill="#0a5078"/></g></g><g><g><path d="m37 46h-6c-.276 0-.5-.224-.5-.5s.224-.5.5-.5h6c.276 0 .5.224.5.5s-.224.5-.5.5z" fill="#0a5078"/></g></g><g><g><g><path d="m28 43.5h-1c-.276 0-.5-.224-.5-.5s.224-.5.5-.5h1c.276 0 .5.224.5.5s-.224.5-.5.5z" fill="#0a5078"/></g></g><g><g><path d="m28 46h-1c-.276 0-.5-.224-.5-.5s.224-.5.5-.5h1c.276 0 .5.224.5.5s-.224.5-.5.5z" fill="#0a5078"/></g></g><g><g><path d="m37 48.5h-6c-.276 0-.5-.224-.5-.5s.224-.5.5-.5h6c.276 0 .5.224.5.5s-.224.5-.5.5z" fill="#0a5078"/></g></g><g><g><path d="m28 48.5h-1c-.276 0-.5-.224-.5-.5s.224-.5.5-.5h1c.276 0 .5.224.5.5s-.224.5-.5.5z" fill="#0a5078"/></g></g></g></g><g><g><path d="m28.732 39.267-4-4c-.979-.977-.978-2.559 0-3.536.979-.977 2.557-.977 3.535 0l2.232 2.232 5.232-5.232c.978-.977 2.557-.977 3.535 0 .979.977.978 2.559 0 3.536l-7 7c-.977.977-2.555.977-3.534 0z" fill="#dc9600"/></g></g><g><g><path d="m28.732 38.267-4-4c-.979-.977-.978-2.559 0-3.536.979-.977 2.557-.977 3.535 0l2.232 2.232 5.232-5.232c.978-.977 2.557-.977 3.535 0 .979.977.978 2.559 0 3.536l-7 7c-.977.977-2.555.977-3.534 0z" fill="#f0f0f0"/></g></g><g><g><path d="m42 23v1c0-.55-.45-1-1-1h-18c-.55 0-1 .45-1 1v-1c0-.55.45-1 1-1h18c.55 0 1 .45 1 1z" fill="#dc9600"/></g></g><g><g><path d="m33 58.5h-2c-.552 0-1-.448-1-1 0-.552.448-1 1-1h2c.552 0 1 .448 1 1 0 .552-.448 1-1 1z" fill="#f0f0f0"/></g></g><g><g><circle cx="32" cy="20.5" fill="#00143c" r=".5"/></g></g><g><g><g><g><path d="m29.439 37.56-4-4c-.586-.585-.586-1.536 0-2.121.586-.586 1.535-.586 2.121 0l2.939 2.939 5.939-5.939c.586-.586 1.535-.586 2.121 0 .586.585.586 1.536 0 2.121l-7 7c-.584.586-1.534.586-2.12 0z" fill="#c80a50"/></g></g></g></g><g><g><g><g><path d="m50 39.5h-2c-.553 0-1-.448-1-1s.447-1 1-1h2c.553 0 1 .448 1 1s-.447 1-1 1z" fill="#c80a50"/></g></g></g><g><g><g><g><path d="m46.707 44.707-1.414-1.415c-.391-.391-.391-1.024 0-1.414.391-.391 1.023-.391 1.414 0l1.414 1.415c.391.391.391 1.024 0 1.414-.391.391-1.023.391-1.414 0z" fill="#00a0c8"/></g></g></g></g><g><g><g><g><path d="m45.293 35.121c-.391-.391-.391-1.023 0-1.414l1.414-1.414c.391-.391 1.023-.391 1.414 0s.391 1.023 0 1.414l-1.414 1.414c-.391.391-1.023.391-1.414 0z" fill="#fab400"/></g></g></g></g></g><g><g><g><g><path d="m14 37.5h2c.553 0 1 .448 1 1s-.447 1-1 1h-2c-.553 0-1-.448-1-1s.447-1 1-1z" fill="#c80a50"/></g></g></g><g><g><g><g><path d="m17.293 32.293 1.414 1.415c.391.391.391 1.024 0 1.414-.391.391-1.023.391-1.414 0l-1.414-1.415c-.391-.391-.391-1.024 0-1.414.391-.391 1.023-.391 1.414 0z" fill="#00a0c8"/></g></g></g></g><g><g><g><g><path d="m18.707 41.879c.391.391.391 1.023 0 1.414l-1.414 1.414c-.391.391-1.023.391-1.414 0s-.391-1.023 0-1.414l1.414-1.414c.391-.391 1.023-.391 1.414 0z" fill="#fab400"/></g></g></g></g></g></g></g></svg>