<svg id="Layer_1" enable-background="new 0 0 66 66" height="50" viewBox="0 0 66 66" fill="#f00" width="50" xmlns="http://www.w3.org/2000/svg"><g><path d="m65 36.2v15c0 .6-.5 1-1 1h-4.8c-3.7 5.3-9.1 9.3-15.3 11.2 0 0 0 0-.1 0h-.1c-2.7.8-5.5 1.2-8.3 1.2-.6 0-1-.4-1-1v-1.3c0-2.8 2.3-5 5-5 1.3 0 2.6.5 3.5 1.5.7.7 1.1 1.5 1.3 2.3 5.1-1.8 9.6-5.1 12.8-9.4-.9-.6-1.5-1.6-1.5-2.7v-10.5c0-1.8 1.5-3.2 3.2-3.2h1.2c0-3.5-.8-6.8-2.1-10-.7.2-1.4.4-2.1.4-2 0-3.9-1-5.1-2.6-4.1-5.7-10.7-9.1-17.7-9.1s-13.6 3.4-17.7 9.1c-1.7 2.3-4.6 3.2-7.2 2.2-1.3 3.2-2 6.5-2.1 10h.9c1.8 0 3.2 1.5 3.2 3.2v10.5c0 1.8-1.5 3.2-3.2 3.2h-4.8c-.5 0-1-.4-1-1v-15c0-.6.5-1 1-1h2.1c.1-3.8.8-7.5 2.3-11-2.6-2.1-3.2-5.8-1.2-8.6 6.4-9 16.8-14.3 27.9-14.3 11 0 21.4 5.3 27.9 14.3 1.9 2.7 1.4 6.5-1.2 8.6 1.5 3.5 2.3 7.2 2.3 11h1.9c.5 0 1 .5 1 1z"/><path d="m50.2 33.4c0-.1 0-.1 0-.2s0-.1-.1-.2v-.1s-.1 0-.1-.1c0 0 0-.1-.1-.1l-5.8-5.4v-2.7c0-2.1-1.7-3.9-3.8-3.9h-2.2l-4.4-4c-.4-.3-1-.3-1.3 0l-4.4 4h-2.1c-2.1 0-3.8 1.7-3.8 3.9v2.6l-5.9 5.5s-.1.1-.1.1 0 0-.1.1v.1c0 .1-.1.1-.1.2v.2.1 20.1.2.1c0 .1.1.1.1.2 0 0 .1.1.1.1.1.1.1.1.2.1h.1c.1.1.2.1.4.1h32.4c.1 0 .3 0 .4-.1h.1c.1 0 .1-.1.2-.1s.1-.1.1-.1c.1-.1.1-.1.1-.2v-.1c0-.1.1-.2.1-.2v-20.2c0 .1 0 .1 0 0zm-26.2-8.7c0-1 .8-1.9 1.8-1.9h14.4c1 0 1.8.8 1.8 1.9v12.3l-9 5.9-9-5.9zm-6.2 10.7 8.5 5.6-8.5 10zm1.1 17.2 9.1-10.6 4.5 2.9c.2.1.3.2.5.2s.4 0 .5-.2l4.5-2.9 9.1 10.6zm29.3-1.7-8.5-10 8.5-5.6z"/><path d="m29.7 37.2c.2.1.3.1.5.1.3 0 .7-.2.9-.5.3-.5.1-1.1-.4-1.4-1.8-1.1-2.7-3.1-2.3-5.2.4-1.8 1.8-3.3 3.7-3.7 1.6-.3 3.2.1 4.4 1.2s1.7 2.7 1.5 4.3c-.1.7-.4 1.3-.9 1.7-.6.5-1.1.3-1.1-.2v-1.5c0-.1 0-.2 0-.3s0-.2 0-.3v-2.1c0-.6-.4-1-1-1-.4 0-.7.2-.8.5-.2-.1-.5-.1-.7-.1-1.7 0-3.1 1.4-3.1 3.1s1.4 3.1 3.1 3.1c.3 0 .6-.1.8-.1.4.8 1.2 1.4 2.2 1.4.6 0 1.3-.2 1.9-.7.9-.7 1.5-1.8 1.7-3 .3-2.2-.4-4.5-2.1-6-1.7-1.6-3.9-2.2-6.2-1.7-2.6.5-4.7 2.7-5.2 5.3-.7 2.7.6 5.6 3.1 7.1zm3.6-4.4c-.6 0-1.1-.5-1.1-1.1s.5-1.1 1.1-1.1c.2 0 .5 0 .6.7v.7c-.1.8-.5.8-.6.8z"/></g></svg>