<?xml version="1.0" encoding="iso-8859-1"?>
<!-- Uploaded to: SVG Repo, www.svgrepo.com, Generator: SVG Repo Mixer Tools -->
<!DOCTYPE svg PUBLIC "-//W3C//DTD SVG 1.1//EN" "http://www.w3.org/Graphics/SVG/1.1/DTD/svg11.dtd">
<svg version="1.1" id="Capa_1" xmlns="http://www.w3.org/2000/svg" xmlns:xlink="http://www.w3.org/1999/xlink" 
	 viewBox="0 0 335.052 335.052" xml:space="preserve">
<g>
	<g>
		<g>
			<path style="fill:#58D2D4;" d="M257.5,219.838c0.077,0.033,0.144,0.083,0.219,0.119
				C257.645,219.92,257.577,219.871,257.5,219.838z"/>
			<path style="fill:#58D2D4;" d="M247.131,219.595c0.083-0.021,0.158-0.058,0.243-0.075
				C247.289,219.537,247.213,219.573,247.131,219.595z"/>
			<path style="fill:#58D2D4;" d="M258.403,220.342c0.065,0.045,0.12,0.103,0.183,0.151
				C258.523,220.444,258.469,220.387,258.403,220.342z"/>
			<path style="fill:#58D2D4;" d="M256.5,219.519c0.087,0.018,0.166,0.055,0.251,0.078
				C256.666,219.575,256.587,219.538,256.5,219.519z"/>
			<path style="fill:#58D2D4;" d="M285.849,220.724h-26.641c-0.008,0-0.018,0.137-0.026,0.129c0.912,0.942,1.48,2.222,1.48,3.637
				c0,2.89-2.342,5.234-5.232,5.234h-6.984c-2.89,0-5.232-2.269-5.232-5.158c0-1.415,0.567-2.808,1.479-3.75
				c-0.008,0.009-0.018-0.092-0.026-0.092H26.602l8.4,22h222.373L285.849,220.724z"/>
			<path style="fill:#58D2D4;" d="M245.29,220.491c0.062-0.047,0.116-0.104,0.18-0.148
				C245.406,220.387,245.352,220.443,245.29,220.491z"/>
			<path style="fill:#58D2D4;" d="M246.163,219.952c0.072-0.035,0.136-0.082,0.21-0.114
				C246.299,219.87,246.234,219.917,246.163,219.952z"/>
		</g>
		<rect x="101.264" y="115.724" style="fill:#58D2D4;" width="13" height="22"/>
		<rect x="152.264" y="115.724" style="fill:#58D2D4;" width="11" height="22"/>
		<path style="fill:#B74B00;" d="M334.773,191.219c-0.721-2.121-2.713-3.547-4.953-3.547h-52.349l-8.833-21.066
			c-0.815-1.944-2.717-3.209-4.826-3.209h-8.631l-8.83-21.057c-0.815-1.944-2.718-3.209-4.826-3.209h-22.995V97.406
			c0-2.89-2.342-5.232-5.232-5.232c-2.89,0-5.232,2.342-5.232,5.232v41.725h-34.732V87.794c0-2.89-2.342-5.232-5.232-5.232h-29.835
			c-2.89,0-5.232,2.343-5.232,5.232v51.338h-9.813V87.794c0-2.89-2.342-5.232-5.232-5.232H88.157c-2.89,0-5.232,2.343-5.232,5.232
			v51.338H51.001c-2.446,0-4.565,1.695-5.104,4.08l-4.555,20.185h-2.722c-2.446,0-4.566,1.695-5.104,4.08l-4.557,20.194H5.232
			c-1.736,0-3.359,0.861-4.332,2.299c-0.974,1.437-1.17,3.264-0.526,4.876l21.743,54.355c0.795,1.986,2.718,3.288,4.858,3.288
			h232.18c1.154,0,2.276-0.381,3.19-1.085l70.665-54.355C334.785,195.685,335.494,193.34,334.773,191.219z M30.517,242.026
			l-11.39-28.474h275.266l-37.018,28.474H30.517z M307.976,203.104c-0.106-0.007-0.212-0.016-0.32-0.016H14.941l-1.981-4.952
			h301.476L307.976,203.104z M42.803,173.861h217.53l5.707,13.609H39.732L42.803,173.861z M55.184,149.596h182.863l5.707,13.61
			H52.113L55.184,149.596z M112.759,93.026v5.91h-19.37v-5.91H112.759z M93.389,109.4h19.37v29.355h-19.37V109.4z M162.871,93.026
			v5.91H143.5v-5.91H162.871z M143.5,109.4h19.371v29.355H143.5V109.4z"/>
		<path style="fill:#B74B00;" d="M65.049,175.128h-6.984c-2.89,0-5.232,2.342-5.232,5.232c0,2.89,2.342,5.232,5.232,5.232h6.984
			c2.89,0,5.232-2.342,5.232-5.232C70.281,177.47,67.939,175.128,65.049,175.128z"/>
		<path style="fill:#B74B00;" d="M99.763,175.128h-6.984c-2.89,0-5.232,2.342-5.232,5.232c0,2.89,2.343,5.232,5.232,5.232h6.984
			c2.89,0,5.232-2.342,5.232-5.232C104.995,177.47,102.653,175.128,99.763,175.128z"/>
		<path style="fill:#B74B00;" d="M134.478,175.128h-6.984c-2.89,0-5.232,2.342-5.232,5.232c0,2.89,2.342,5.232,5.232,5.232h6.984
			c2.89,0,5.232-2.342,5.232-5.232C139.71,177.47,137.368,175.128,134.478,175.128z"/>
		<path style="fill:#B74B00;" d="M169.194,175.128h-6.984c-2.89,0-5.232,2.342-5.232,5.232c0,2.89,2.342,5.232,5.232,5.232h6.984
			c2.89,0,5.232-2.342,5.232-5.232C174.426,177.47,172.083,175.128,169.194,175.128z"/>
		<path style="fill:#B74B00;" d="M203.908,175.128h-6.984c-2.89,0-5.232,2.342-5.232,5.232c0,2.89,2.342,5.232,5.232,5.232h6.984
			c2.89,0,5.232-2.342,5.232-5.232C209.14,177.47,206.798,175.128,203.908,175.128z"/>
		<path style="fill:#B74B00;" d="M238.622,175.128h-6.983c-2.89,0-5.232,2.342-5.232,5.232c0,2.89,2.343,5.232,5.232,5.232h6.983
			c2.89,0,5.232-2.342,5.232-5.232C243.854,177.47,241.512,175.128,238.622,175.128z"/>
		<path style="fill:#B74B00;" d="M77.468,151.689h-6.983c-2.89,0-5.232,2.342-5.232,5.232c0,2.89,2.342,5.232,5.232,5.232h6.983
			c2.89,0,5.232-2.342,5.232-5.232C82.7,154.032,80.357,151.689,77.468,151.689z"/>
		<path style="fill:#B74B00;" d="M112.183,151.689h-6.984c-2.89,0-5.232,2.342-5.232,5.232c0,2.89,2.342,5.232,5.232,5.232h6.984
			c2.89,0,5.232-2.342,5.232-5.232C117.415,154.032,115.073,151.689,112.183,151.689z"/>
		<path style="fill:#B74B00;" d="M146.898,151.689h-6.984c-2.89,0-5.232,2.342-5.232,5.232c0,2.89,2.342,5.232,5.232,5.232h6.984
			c2.89,0,5.232-2.342,5.232-5.232C152.13,154.032,149.788,151.689,146.898,151.689z"/>
		<path style="fill:#B74B00;" d="M181.612,151.689h-6.983c-2.89,0-5.232,2.342-5.232,5.232c0,2.89,2.342,5.232,5.232,5.232h6.983
			c2.89,0,5.232-2.342,5.232-5.232C186.844,154.032,184.502,151.689,181.612,151.689z"/>
		<path style="fill:#B74B00;" d="M216.328,151.689h-6.984c-2.89,0-5.232,2.342-5.232,5.232c0,2.89,2.342,5.232,5.232,5.232h6.984
			c2.89,0,5.232-2.342,5.232-5.232C221.56,154.032,219.217,151.689,216.328,151.689z"/>
		<path style="fill:#B74B00;" d="M255.429,219.408h-6.984c-2.89,0-5.232,2.342-5.232,5.232c0,2.89,2.342,5.232,5.232,5.232h6.984
			c2.89,0,5.232-2.342,5.232-5.232C260.661,221.75,258.319,219.408,255.429,219.408z"/>
	</g>
</g>
</svg>