<svg id="Layer_1" enable-background="new 0 0 512 512" viewBox="0 0 512 512" xmlns="http://www.w3.org/2000/svg"><g><g><g><path clip-rule="evenodd" d="m413.875 16.001h-315.75c-10.939 0-19.89 8.952-19.89 19.891v97.058c0 10.937 8.953 19.89 19.89 19.89h266.578v28.735c0 1.243.711 2.303 1.861 2.775s2.401.217 3.274-.667l30.458-30.843h13.58c10.938 0 19.89-8.951 19.89-19.89v-97.058c-.001-10.94-8.952-19.891-19.891-19.891z" fill="#8192a5" fill-rule="evenodd"/></g><g><path clip-rule="evenodd" d="m413.875 16.001h-10c10.939 0 19.89 8.951 19.89 19.891v97.058c0 10.94-8.952 19.89-19.89 19.89h10c10.938 0 19.89-8.951 19.89-19.89v-97.058c0-10.94-8.951-19.891-19.89-19.891zm-49.172 162.755v2.819c0 1.243.711 2.303 1.861 2.775s2.401.217 3.274-.667l30.458-30.843h-10z" fill="#65788e" fill-rule="evenodd"/></g></g><g><g><path clip-rule="evenodd" d="m364.466 48.33 8.904 23.452c.268.705.891 1.158 1.644 1.195l25.056 1.221c1.704.083 2.401 2.23 1.072 3.299l-19.553 15.716c-.588.472-.826 1.205-.628 1.932l6.581 24.207c.448 1.646-1.378 2.973-2.806 2.038l-20.989-13.74c-.631-.413-1.401-.413-2.032 0l-20.989 13.74c-1.427.935-3.253-.392-2.806-2.038l6.581-24.208c.198-.727-.04-1.46-.628-1.932l-19.553-15.716c-1.33-1.069-.632-3.216 1.072-3.299l25.056-1.221c.753-.037 1.376-.49 1.644-1.195l8.904-23.452c.604-1.585 2.869-1.585 3.47.001z" fill="#ffe177" fill-rule="evenodd"/></g><g><path clip-rule="evenodd" d="m392.151 73.812 7.92.386c1.704.083 2.401 2.23 1.072 3.299l-19.553 15.716c-.588.472-.826 1.205-.628 1.932l6.581 24.207c.448 1.646-1.378 2.973-2.806 2.039l-5.431-3.556-6.274-23.077c-.198-.727.04-1.46.628-1.932l19.553-15.716c1.327-1.067.634-3.207-1.062-3.298zm-27.685-25.482 8.904 23.453c.265.699.881 1.15 1.626 1.193l-7.913-.385c-.753-.037-1.376-.489-1.644-1.194l-6.6-17.383 2.158-5.683c.603-1.587 2.868-1.587 3.469-.001zm-.718 59.321c-.63-.413-1.401-.413-2.032 0l-20.989 13.74c-1.427.934-3.254-.392-2.806-2.039l.563-2.072 18.971-12.419c.631-.413 1.401-.412 2.032 0z" fill="#ffd064" fill-rule="evenodd"/></g></g><g><g><path clip-rule="evenodd" d="m258.98 48.33 8.904 23.452c.268.705.891 1.158 1.644 1.195l25.056 1.221c1.704.083 2.401 2.23 1.072 3.299l-19.553 15.716c-.588.472-.826 1.205-.628 1.932l6.581 24.207c.448 1.646-1.378 2.973-2.806 2.038l-20.989-13.74c-.631-.413-1.401-.413-2.032 0l-20.989 13.74c-1.427.935-3.253-.392-2.806-2.038l6.581-24.208c.198-.727-.04-1.46-.628-1.932l-19.553-15.716c-1.33-1.069-.632-3.216 1.072-3.299l25.056-1.221c.753-.037 1.376-.49 1.644-1.195l8.905-23.452c.602-1.585 2.867-1.585 3.469.001z" fill="#ffe177" fill-rule="evenodd"/></g><g><path clip-rule="evenodd" d="m286.664 73.812 7.92.386c1.704.083 2.401 2.23 1.072 3.299l-19.553 15.716c-.588.472-.826 1.205-.628 1.932l6.581 24.207c.448 1.646-1.378 2.973-2.806 2.039l-5.432-3.556-6.274-23.077c-.198-.727.04-1.46.628-1.932l19.553-15.716c1.328-1.067.636-3.207-1.061-3.298zm-27.684-25.482 8.904 23.453c.265.699.881 1.15 1.626 1.193l-7.913-.385c-.753-.037-1.376-.489-1.644-1.194l-6.6-17.383 2.158-5.683c.602-1.587 2.867-1.587 3.469-.001zm-.719 59.321c-.63-.413-1.401-.413-2.032 0l-20.989 13.74c-1.428.934-3.254-.392-2.806-2.039l.563-2.072 18.971-12.419c.631-.413 1.401-.412 2.032 0z" fill="#ffd064" fill-rule="evenodd"/></g></g><g><g><path clip-rule="evenodd" d="m151.001 48.33 8.904 23.452c.268.705.891 1.158 1.644 1.195l25.056 1.221c1.704.083 2.402 2.23 1.072 3.299l-19.553 15.716c-.588.472-.826 1.205-.628 1.932l6.581 24.207c.448 1.646-1.378 2.973-2.806 2.038l-20.989-13.74c-.631-.413-1.401-.413-2.032 0l-20.989 13.74c-1.427.935-3.253-.392-2.806-2.038l6.581-24.208c.198-.727-.04-1.46-.628-1.932l-19.553-15.716c-1.33-1.069-.632-3.216 1.072-3.299l25.056-1.221c.753-.037 1.376-.49 1.644-1.195l8.904-23.452c.604-1.585 2.869-1.585 3.47.001z" fill="#ffe177" fill-rule="evenodd"/></g><g><path clip-rule="evenodd" d="m178.686 73.812 7.92.386c1.704.083 2.402 2.23 1.072 3.299l-19.553 15.716c-.588.472-.826 1.205-.628 1.932l6.581 24.207c.448 1.646-1.378 2.973-2.806 2.039l-5.431-3.556-6.274-23.077c-.198-.727.04-1.46.628-1.932l19.553-15.716c1.327-1.067.634-3.207-1.062-3.298zm-27.685-25.482 8.905 23.453c.265.699.881 1.15 1.626 1.193l-7.913-.385c-.753-.037-1.376-.489-1.644-1.194l-6.6-17.383 2.158-5.683c.602-1.587 2.867-1.587 3.468-.001zm-.718 59.321c-.63-.413-1.401-.413-2.032 0l-20.989 13.74c-1.428.934-3.254-.392-2.806-2.039l.563-2.072 18.971-12.419c.631-.413 1.401-.412 2.032 0z" fill="#ffd064" fill-rule="evenodd"/></g></g><g><g><g><g><path clip-rule="evenodd" d="m298.851 361.666-57.396 47.598 30.781 71.468c.989 2.296 4.145 2.53 5.463.406l19.87-32.019 36.917 7.561c2.452.501 4.448-1.95 3.458-4.249z" fill="#fe646f" fill-rule="evenodd"/></g><g><path clip-rule="evenodd" d="m298.851 361.666-7.589 6.293 36.382 84.47c.427.992.298 2.011-.182 2.811l7.025 1.439c2.452.501 4.448-1.95 3.457-4.249zm-28.493 114.705 18.073-29.124 9.138 1.872-19.87 32.019c-1.318 2.124-4.474 1.889-5.463-.406z" fill="#fd4755" fill-rule="evenodd"/></g></g><g><g><path clip-rule="evenodd" d="m214.175 405.572-41.268 88.639c-1.055 2.266-4.217 2.409-5.473.248l-18.933-32.581-37.122 6.486c-2.466.43-4.39-2.079-3.333-4.348l40.816-87.669z" fill="#fe646f" fill-rule="evenodd"/></g><g><path clip-rule="evenodd" d="m214.175 405.572-41.268 88.639c-1.055 2.266-4.217 2.409-5.473.248l-18.933-32.581-37.122 6.486c-2.466.43-4.39-2.079-3.332-4.348l2.509-5.39 32.732-5.719 18.933 32.581c1.256 2.161 4.418 2.018 5.473-.248l38.71-83.145z" fill="#fd4755" fill-rule="evenodd"/></g></g><g><g><path clip-rule="evenodd" d="m238.66 187.1c24.676 18.471 19.08 16.434 49.856 18.146 11.821.657 21.422 8.714 24.122 20.24 2.551 10.887 3.798 24.615 12.111 32.417l14.418 13.531c8.632 8.102 10.809 20.444 5.468 31.01-13.905 27.509-12.871 21.644-9.213 52.25 1.405 11.755-4.861 22.609-15.745 27.27-28.335 12.135-23.772 8.307-40.643 34.103-6.48 9.908-18.257 14.195-29.59 10.77-29.505-8.917-23.55-8.917-53.055 0-11.333 3.425-23.11-.862-29.59-10.77-16.871-25.797-12.309-21.968-40.644-34.103-10.883-4.661-17.15-15.515-15.744-27.27 3.658-30.606 4.692-24.741-9.213-52.25-5.341-10.566-3.165-22.908 5.468-31.01 22.475-21.094 19.498-15.937 26.528-45.948 2.7-11.527 12.301-19.583 24.122-20.24 30.776-1.712 25.18.325 49.856-18.146 9.478-7.094 22.01-7.094 31.488 0z" fill="#ffe177" fill-rule="evenodd"/></g><g><path clip-rule="evenodd" d="m238.66 187.1c24.676 18.471 19.08 16.434 49.856 18.146 11.821.657 21.422 8.713 24.122 20.24 2.551 10.887 3.798 24.615 12.111 32.416l14.417 13.532c8.632 8.102 10.809 20.445 5.467 31.01-13.905 27.508-12.871 21.644-9.213 52.249 1.405 11.756-4.861 22.609-15.745 27.27-28.335 12.135-23.772 8.307-40.643 34.103-6.289 9.616-17.568 13.937-28.588 11.052 6.037-1.621 11.417-5.431 15.093-11.052 16.871-25.797 12.308-21.969 40.643-34.103 10.883-4.661 17.15-15.515 15.744-27.27-3.658-30.605-4.692-24.741 9.213-52.249 5.341-10.566 3.165-22.909-5.468-31.01l-14.417-13.532c-8.313-7.801-9.56-21.529-12.11-32.416-2.7-11.527-12.301-19.583-24.122-20.24-30.776-1.712-25.18.325-49.856-18.146-2.787-2.086-5.837-3.558-8.997-4.417 7.588-2.063 15.802-.591 22.493 4.417zm-22.492 233.913c-4.507 1.026-10.32 2.966-19.78 5.826-4.904 1.482-9.892 1.519-14.497.282.334-.088.669-.181 1.002-.282 20.045-6.059 23.726-7.999 33.275-5.826z" fill="#ffd064" fill-rule="evenodd"/></g></g></g><g><g><g><ellipse clip-rule="evenodd" cx="222.916" cy="303.505" fill="#eceff1" fill-rule="evenodd" rx="72.705" ry="72.705" transform="matrix(.024 -1 1 .024 -85.806 519.137)"/></g><g><path clip-rule="evenodd" d="m163.137 303.504c0 14.873 4.466 28.702 12.129 40.221 2.957 4.446 6.392 8.547 10.229 12.231 11.609 11.146 26.909 18.475 43.885 19.97-2.129.188-4.285.283-6.463.283-3.533 0-7.007-.252-10.405-.739-.438-.063-.876-.13-1.312-.2-34.583-5.603-60.989-35.601-60.989-71.766 0-40.154 32.551-72.705 72.705-72.705 2.178 0 4.334.096 6.463.283-37.127 3.271-66.242 34.446-66.242 72.422z" fill="#d1d1d6" fill-rule="evenodd"/></g></g><g><g><g><path clip-rule="evenodd" d="m222.916 310.516c-26.19 0-47.752 19.845-50.483 45.31 13.077 12.62 30.873 20.384 50.482 20.383 3.533 0 7.007-.252 10.404-.739 15.463-2.216 29.354-9.3 40.075-19.646-2.725-25.471-24.283-45.308-50.478-45.308z" fill="#8ac9fe" fill-rule="evenodd"/></g><g><path clip-rule="evenodd" d="m216.454 310.923c30.222 3.841 42.401 26.709 45.201 54.113 4.227-2.667 8.16-5.758 11.74-9.213-2.726-25.471-24.285-45.308-50.479-45.308-2.189.001-4.345.14-6.462.408z" fill="#60b7ff" fill-rule="evenodd"/><path d="m261.566 365.221-.018-.174c-3.316-32.461-18.493-50.635-45.107-54.017v-.214c2.133-.271 4.312-.409 6.476-.409 12.635 0 24.749 4.663 34.112 13.13 9.296 8.406 15.146 19.868 16.475 32.274l.006.053-.038.037c-3.59 3.464-7.546 6.568-11.758 9.227zm-44.248-54.291c13.772 1.937 24.572 8.04 32.107 18.149 6.637 8.905 10.782 20.941 12.32 35.773 4.129-2.62 8.01-5.671 11.537-9.069-2.782-25.749-24.426-45.159-50.366-45.159-1.868 0-3.748.103-5.598.306z" fill="#8ac9fe"/></g></g><g><g><ellipse clip-rule="evenodd" cx="222.917" cy="281.008" fill="#f6dccd" fill-rule="evenodd" rx="25.671" ry="25.671" transform="matrix(.973 -.23 .23 .973 -58.599 58.733)"/></g><g><path clip-rule="evenodd" d="m242.124 281.008c0 13.083-9.787 23.88-22.439 25.469 1.059.133 2.137.201 3.232.201 14.177 0 25.67-11.493 25.67-25.67s-11.493-25.67-25.67-25.67c-1.094 0-2.173.068-3.232.202 12.652 1.588 22.439 12.385 22.439 25.468z" fill="#f1cbbc" fill-rule="evenodd"/></g></g></g></g></g></g></svg>