<svg version="1.1" id="Capa_1" xmlns="http://www.w3.org/2000/svg" xmlns:xlink="http://www.w3.org/1999/xlink" x="0px" y="0px" viewBox="0 0 512 512" style="enable-background:new 0 0 512 512;" xml:space="preserve">
<g>
	<g>
		<linearGradient id="SVGID_1_" gradientUnits="userSpaceOnUse" x1="103.7392" y1="380.8701" x2="446.5461" y2="38.0631">
			<stop offset="0" style="stop-color:#FFF0EB;stop-opacity:0"/>
			<stop offset="0.2938" style="stop-color:#FFE7DB;stop-opacity:0.3731"/>
			<stop offset="0.7874" style="stop-color:#FFD3B8"/>
		</linearGradient>
		<path style="fill:url(#SVGID_1_);" d="M12.843,272.765c9.391,57.764,80.605,68.028,121.797,30.059&#10;&#9;&#9;&#9;c25.598-23.595,40.496-56.395,52.949-88.909c27.351-71.412,84.948-33.01,60.016,28.916c-17.064,42.382-38.12,84.255-43.809,129.59&#10;&#9;&#9;&#9;c-30.577,243.65,339.555,169.507,292.881-231.825C477.672-22.815,282.358-40.061,182.996,69.537&#10;&#9;&#9;&#9;c-16.489,18.188-31.922,38.123-52.738,51.154c-40.297,25.226-7.828-74.469-40.019-86.515C17.42,6.927,6.33,232.704,12.843,272.765&#10;&#9;&#9;&#9;z"/>
	</g>
	<g>
		<g>
			<g>
				<g>
					<g>
						<path style="opacity:0.1;fill:#0000C9;" d="M407.868,229.215c5.523,0,10-4.477,10-10v-68.134c0-5.523-4.477-10-10-10h-9.897&#10;&#9;&#9;&#9;&#9;&#9;&#9;&#9;v-26.099c0-16.568-13.431-30-30-30h-90.999v-5.131c0-7.252-5.879-13.131-13.131-13.131H107.263&#10;&#9;&#9;&#9;&#9;&#9;&#9;&#9;c-7.252,0-13.131,5.879-13.131,13.131v136.177c0,7.252,5.879,13.131,13.131,13.131h48.589v228.266c0,16.569,13.431,30,30,30&#10;&#9;&#9;&#9;&#9;&#9;&#9;&#9;h182.12c16.569,0,30-13.431,30-30V278.299h9.897c5.523,0,10-4.477,10-10v-8.134c0-5.523-4.477-10-10-10h-9.897v-20.95H407.868&#10;&#9;&#9;&#9;&#9;&#9;&#9;&#9;z"/>
						<g>
							<g>
								<g>
									<g>
										<path style="fill:#4D4DFF;" d="M407.868,203.215h-13.505v-88.134h13.505c5.523,0,10,4.477,10,10v68.134&#10;&#9;&#9;&#9;&#9;&#9;&#9;&#9;&#9;&#9;&#9;&#9;C417.868,198.738,413.391,203.215,407.868,203.215z"/>
										
											<path style="fill:none;stroke:#0000C9;stroke-width:10;stroke-linecap:round;stroke-linejoin:round;stroke-miterlimit:10;" d="&#10;&#9;&#9;&#9;&#9;&#9;&#9;&#9;&#9;&#9;&#9;&#9;M407.868,203.215h-13.505v-88.134h13.505c5.523,0,10,4.477,10,10v68.134C417.868,198.738,413.391,203.215,407.868,203.215&#10;&#9;&#9;&#9;&#9;&#9;&#9;&#9;&#9;&#9;&#9;&#9;z"/>
									</g>
									<g>
										<path style="fill:#4D4DFF;" d="M407.868,252.299h-13.505v-28.134h13.505c5.523,0,10,4.477,10,10v8.134&#10;&#9;&#9;&#9;&#9;&#9;&#9;&#9;&#9;&#9;&#9;&#9;C417.868,247.821,413.391,252.299,407.868,252.299z"/>
										
											<path style="fill:none;stroke:#0000C9;stroke-width:10;stroke-linecap:round;stroke-linejoin:round;stroke-miterlimit:10;" d="&#10;&#9;&#9;&#9;&#9;&#9;&#9;&#9;&#9;&#9;&#9;&#9;M407.868,252.299h-13.505v-28.134h13.505c5.523,0,10,4.477,10,10v8.134C417.868,247.821,413.391,252.299,407.868,252.299z&#10;&#9;&#9;&#9;&#9;&#9;&#9;&#9;&#9;&#9;&#9;&#9;"/>
									</g>
								</g>
								<g>
									<path style="fill:#8181FF;" d="M397.97,88.98v342.45c0,16.56-13.43,30-30,30H185.85c-16.57,0-30-13.44-30-30V229.16&#10;&#9;&#9;&#9;&#9;&#9;&#9;&#9;&#9;&#9;&#9;c0,0,21.13-23.93,0-35.51V88.98c0-16.57,13.43-30,30-30h182.12C384.54,58.98,397.97,72.41,397.97,88.98z"/>
									<path style="fill:#6C6CFF;" d="M276.972,79.856v136.17c0,7.25-5.88,13.13-13.13,13.13h-107.99V88.986&#10;&#9;&#9;&#9;&#9;&#9;&#9;&#9;&#9;&#9;&#9;c0-8.84,3.82-16.79,9.91-22.27h98.08C271.092,66.716,276.972,72.596,276.972,79.856z"/>
									<path style="fill:#FFFFFF;" d="M377.97,88.98v342.45c0,5.51-4.48,10-10,10H185.85c-5.51,0-10-4.49-10-10V229.16&#10;&#9;&#9;&#9;&#9;&#9;&#9;&#9;&#9;&#9;&#9;c0,0,25.6-17.5,0-37.37V88.98c0-5.51,4.49-10,10-10h182.12C373.49,78.98,377.97,83.47,377.97,88.98z"/>
									<path style="fill:#D7D7FF;" d="M175.852,88.983v140.173h27.321l31.041,4.219l29.628-4.219c7.25,0,13.13-5.88,13.13-13.13&#10;&#9;&#9;&#9;&#9;&#9;&#9;&#9;&#9;&#9;&#9;V79.856c0-0.295-0.025-0.583-0.044-0.873h-91.076C180.338,78.983,175.852,83.469,175.852,88.983z"/>
									<g>
										
											<path style="fill:none;stroke:#0000C9;stroke-width:10;stroke-linecap:round;stroke-linejoin:round;stroke-miterlimit:10;" d="&#10;&#9;&#9;&#9;&#9;&#9;&#9;&#9;&#9;&#9;&#9;&#9;M155.852,228.796v202.63c0,16.569,13.431,30,30,30h182.12c16.569,0,30-13.431,30-30V88.983c0-16.568-13.431-30-30-30&#10;&#9;&#9;&#9;&#9;&#9;&#9;&#9;&#9;&#9;&#9;&#9;h-67.299"/>
									</g>
								</g>
								<g>
									<path style="fill:#4D4DFF;" d="M304.002,114.526h-54.181c-6.384,0-11.559-5.175-11.559-11.558v0&#10;&#9;&#9;&#9;&#9;&#9;&#9;&#9;&#9;&#9;&#9;c0-6.384,5.175-11.558,11.559-11.558h54.181c6.384,0,11.559,5.175,11.559,11.558v0&#10;&#9;&#9;&#9;&#9;&#9;&#9;&#9;&#9;&#9;&#9;C315.561,109.351,310.386,114.526,304.002,114.526z"/>
								</g>
							</g>
						</g>
						<g>
							<path style="fill:#FFFFFF;" d="M263.841,203.16H107.263c-7.252,0-13.131-5.879-13.131-13.131V53.852&#10;&#9;&#9;&#9;&#9;&#9;&#9;&#9;&#9;c0-7.252,5.879-13.131,13.131-13.131h156.579c7.252,0,13.131,5.879,13.131,13.131v136.177&#10;&#9;&#9;&#9;&#9;&#9;&#9;&#9;&#9;C276.972,197.281,271.093,203.16,263.841,203.16z"/>
							<path style="fill:#FF6C6C;" d="M276.972,80.744V53.852c0-7.252-5.879-13.131-13.131-13.131H107.263&#10;&#9;&#9;&#9;&#9;&#9;&#9;&#9;&#9;c-7.252,0-13.131,5.879-13.131,13.131v26.892H276.972z"/>
							
								<path style="fill:none;stroke:#0000C9;stroke-width:10;stroke-linecap:round;stroke-linejoin:round;stroke-miterlimit:10;" d="&#10;&#9;&#9;&#9;&#9;&#9;&#9;&#9;&#9;M263.841,203.16H107.263c-7.252,0-13.131-5.879-13.131-13.131V53.852c0-7.252,5.879-13.131,13.131-13.131h156.579&#10;&#9;&#9;&#9;&#9;&#9;&#9;&#9;&#9;c7.252,0,13.131,5.879,13.131,13.131v136.177C276.972,197.281,271.093,203.16,263.841,203.16z"/>
						</g>
						<g>
							<g>
								<path style="fill:#FFA966;" d="M343.734,416.199H210.21c-4.765,0-8.627-3.863-8.627-8.627v-45.595&#10;&#9;&#9;&#9;&#9;&#9;&#9;&#9;&#9;&#9;c0-4.765,3.863-8.627,8.627-8.627h133.524c4.765,0,8.627,3.863,8.627,8.627v45.595&#10;&#9;&#9;&#9;&#9;&#9;&#9;&#9;&#9;&#9;C352.362,412.336,348.499,416.199,343.734,416.199z"/>
							</g>
							<g>
								<g>
									<g>
										<g>
											
												<path style="fill:none;stroke:#FF7300;stroke-width:10;stroke-linecap:round;stroke-linejoin:round;stroke-miterlimit:10;" d="&#10;&#9;&#9;&#9;&#9;&#9;&#9;&#9;&#9;&#9;&#9;&#9;&#9;M230.244,384.774h-9.618v-14.983h9.618c4.137,0,7.491,3.354,7.491,7.491v0&#10;&#9;&#9;&#9;&#9;&#9;&#9;&#9;&#9;&#9;&#9;&#9;&#9;C237.735,381.42,234.381,384.774,230.244,384.774z"/>
										</g>
										
											<path style="fill:none;stroke:#FF7300;stroke-width:10;stroke-linecap:round;stroke-linejoin:round;stroke-miterlimit:10;" d="&#10;&#9;&#9;&#9;&#9;&#9;&#9;&#9;&#9;&#9;&#9;&#9;M230.244,399.757h-9.618v-14.983h9.618c4.137,0,7.491,3.354,7.491,7.491v0&#10;&#9;&#9;&#9;&#9;&#9;&#9;&#9;&#9;&#9;&#9;&#9;C237.735,396.403,234.381,399.757,230.244,399.757z"/>
									</g>
									<g>
										
											<path style="fill:none;stroke:#FF7300;stroke-width:10;stroke-linecap:round;stroke-linejoin:round;stroke-miterlimit:10;" d="&#10;&#9;&#9;&#9;&#9;&#9;&#9;&#9;&#9;&#9;&#9;&#9;M269.596,391.202v-12.856c0-4.725-3.83-8.555-8.555-8.555l0,0c-4.725,0-8.555,3.83-8.555,8.555v12.856&#10;&#9;&#9;&#9;&#9;&#9;&#9;&#9;&#9;&#9;&#9;&#9;c0,4.725,3.83,8.555,8.555,8.555l0,0C265.766,399.757,269.596,395.927,269.596,391.202z"/>
										
											<path style="fill:none;stroke:#FF7300;stroke-width:10;stroke-linecap:round;stroke-linejoin:round;stroke-miterlimit:10;" d="&#10;&#9;&#9;&#9;&#9;&#9;&#9;&#9;&#9;&#9;&#9;&#9;M301.458,391.202v-12.856c0-4.725-3.83-8.555-8.555-8.555l0,0c-4.725,0-8.555,3.83-8.555,8.555v12.856&#10;&#9;&#9;&#9;&#9;&#9;&#9;&#9;&#9;&#9;&#9;&#9;c0,4.725,3.83,8.555,8.555,8.555l0,0C297.628,399.757,301.458,395.927,301.458,391.202z"/>
									</g>
									<g>
										
											<line style="fill:none;stroke:#FF7300;stroke-width:10;stroke-linecap:round;stroke-linejoin:round;stroke-miterlimit:10;" x1="333.319" y1="369.791" x2="316.209" y2="384.774"/>
										
											<line style="fill:none;stroke:#FF7300;stroke-width:10;stroke-linecap:round;stroke-linejoin:round;stroke-miterlimit:10;" x1="316.209" y1="399.757" x2="316.209" y2="369.791"/>
									</g>
								</g>
								
									<line style="fill:none;stroke:#FF7300;stroke-width:10;stroke-linecap:round;stroke-linejoin:round;stroke-miterlimit:10;" x1="316.209" y1="384.774" x2="333.319" y2="399.757"/>
							</g>
						</g>
						<g>
							<g>
								<path style="fill:#6C6CFF;" d="M130.052,61.027h-10.248c-2.761,0-5-2.239-5-5V29.574c0-2.761,2.239-5,5-5h10.248&#10;&#9;&#9;&#9;&#9;&#9;&#9;&#9;&#9;&#9;c2.761,0,5,2.239,5,5v26.452C135.052,58.788,132.813,61.027,130.052,61.027z"/>
								<path style="fill:#6C6CFF;" d="M170.468,61.027H160.22c-2.761,0-5-2.239-5-5V29.574c0-2.761,2.239-5,5-5h10.248&#10;&#9;&#9;&#9;&#9;&#9;&#9;&#9;&#9;&#9;c2.761,0,5,2.239,5,5v26.452C175.468,58.788,173.23,61.027,170.468,61.027z"/>
								<path style="fill:#6C6CFF;" d="M210.884,61.027h-10.248c-2.761,0-5-2.239-5-5V29.574c0-2.761,2.239-5,5-5h10.248&#10;&#9;&#9;&#9;&#9;&#9;&#9;&#9;&#9;&#9;c2.761,0,5,2.239,5,5v26.452C215.884,58.788,213.646,61.027,210.884,61.027z"/>
								<path style="fill:#6C6CFF;" d="M251.3,61.027h-10.248c-2.761,0-5-2.239-5-5V29.574c0-2.761,2.239-5,5-5H251.3&#10;&#9;&#9;&#9;&#9;&#9;&#9;&#9;&#9;&#9;c2.761,0,5,2.239,5,5v26.452C256.3,58.788,254.062,61.027,251.3,61.027z"/>
							</g>
							<g>
								
									<path style="fill:none;stroke:#0000C9;stroke-width:10;stroke-linecap:round;stroke-linejoin:round;stroke-miterlimit:10;" d="&#10;&#9;&#9;&#9;&#9;&#9;&#9;&#9;&#9;&#9;M130.052,61.027h-10.248c-2.761,0-5-2.239-5-5V29.574c0-2.761,2.239-5,5-5h10.248c2.761,0,5,2.239,5,5v26.452&#10;&#9;&#9;&#9;&#9;&#9;&#9;&#9;&#9;&#9;C135.052,58.788,132.813,61.027,130.052,61.027z"/>
								
									<path style="fill:none;stroke:#0000C9;stroke-width:10;stroke-linecap:round;stroke-linejoin:round;stroke-miterlimit:10;" d="&#10;&#9;&#9;&#9;&#9;&#9;&#9;&#9;&#9;&#9;M170.468,61.027H160.22c-2.761,0-5-2.239-5-5V29.574c0-2.761,2.239-5,5-5h10.248c2.761,0,5,2.239,5,5v26.452&#10;&#9;&#9;&#9;&#9;&#9;&#9;&#9;&#9;&#9;C175.468,58.788,173.23,61.027,170.468,61.027z"/>
								
									<path style="fill:none;stroke:#0000C9;stroke-width:10;stroke-linecap:round;stroke-linejoin:round;stroke-miterlimit:10;" d="&#10;&#9;&#9;&#9;&#9;&#9;&#9;&#9;&#9;&#9;M210.884,61.027h-10.248c-2.761,0-5-2.239-5-5V29.574c0-2.761,2.239-5,5-5h10.248c2.761,0,5,2.239,5,5v26.452&#10;&#9;&#9;&#9;&#9;&#9;&#9;&#9;&#9;&#9;C215.884,58.788,213.646,61.027,210.884,61.027z"/>
								
									<path style="fill:none;stroke:#0000C9;stroke-width:10;stroke-linecap:round;stroke-linejoin:round;stroke-miterlimit:10;" d="&#10;&#9;&#9;&#9;&#9;&#9;&#9;&#9;&#9;&#9;M251.3,61.027h-10.248c-2.761,0-5-2.239-5-5V29.574c0-2.761,2.239-5,5-5H251.3c2.761,0,5,2.239,5,5v26.452&#10;&#9;&#9;&#9;&#9;&#9;&#9;&#9;&#9;&#9;C256.3,58.788,254.062,61.027,251.3,61.027z"/>
							</g>
						</g>
					</g>
					<g>
						<g>
							
								<polyline style="fill:none;stroke:#6C6CFF;stroke-width:10;stroke-linecap:round;stroke-linejoin:round;stroke-miterlimit:10;" points="&#10;&#9;&#9;&#9;&#9;&#9;&#9;&#9;&#9;232.668,133.746 239.867,140.944 253.248,127.562 &#9;&#9;&#9;&#9;&#9;&#9;&#9;"/>
							<circle style="fill:#FF6C6C;" cx="242.958" cy="168.199" r="10.124"/>
							<circle style="fill:#FF6C6C;" cx="242.958" cy="101.87" r="10.124"/>
						</g>
						<g>
							
								<polyline style="fill:none;stroke:#6C6CFF;stroke-width:10;stroke-linecap:round;stroke-linejoin:round;stroke-miterlimit:10;" points="&#10;&#9;&#9;&#9;&#9;&#9;&#9;&#9;&#9;195.053,133.746 202.252,140.944 215.633,127.562 &#9;&#9;&#9;&#9;&#9;&#9;&#9;"/>
							<circle style="fill:#FF6C6C;" cx="205.343" cy="168.199" r="10.124"/>
							<circle style="fill:#FF6C6C;" cx="205.343" cy="101.87" r="10.124"/>
						</g>
						<g>
							
								<polyline style="fill:none;stroke:#6C6CFF;stroke-width:10;stroke-linecap:round;stroke-linejoin:round;stroke-miterlimit:10;" points="&#10;&#9;&#9;&#9;&#9;&#9;&#9;&#9;&#9;157.438,133.746 164.637,140.944 178.018,127.562 &#9;&#9;&#9;&#9;&#9;&#9;&#9;"/>
							<circle style="fill:#FF6C6C;" cx="167.728" cy="168.199" r="10.124"/>
							<circle style="fill:#FF6C6C;" cx="167.728" cy="101.87" r="10.124"/>
						</g>
						<g>
							
								<polyline style="fill:none;stroke:#6C6CFF;stroke-width:10;stroke-linecap:round;stroke-linejoin:round;stroke-miterlimit:10;" points="&#10;&#9;&#9;&#9;&#9;&#9;&#9;&#9;&#9;117.856,167.691 125.054,174.89 138.436,161.508 &#9;&#9;&#9;&#9;&#9;&#9;&#9;"/>
							
								<polyline style="fill:none;stroke:#6C6CFF;stroke-width:10;stroke-linecap:round;stroke-linejoin:round;stroke-miterlimit:10;" points="&#10;&#9;&#9;&#9;&#9;&#9;&#9;&#9;&#9;117.856,133.746 125.054,140.944 138.436,127.562 &#9;&#9;&#9;&#9;&#9;&#9;&#9;"/>
							<circle style="fill:#FF6C6C;" cx="128.146" cy="101.87" r="10.124"/>
						</g>
					</g>
				</g>
			</g>
			<g>
				<g>
					<g>
						<path style="fill:#FF4D4D;" d="M350.771,260.267H203.173c-5.523,0-10-4.477-10-10v-11.112c0-5.523,4.477-10,10-10h147.598&#10;&#9;&#9;&#9;&#9;&#9;&#9;&#9;c5.523,0,10,4.477,10,10v11.112C360.771,255.79,356.294,260.267,350.771,260.267z"/>
					</g>
					<path style="fill:#FFFFFF;" d="M344.174,238.489h-9.633c-1.89,0-3.04,2.083-2.032,3.682l4.816,7.642&#10;&#9;&#9;&#9;&#9;&#9;&#9;c0.942,1.495,3.121,1.495,4.063,0l4.816-7.642C347.214,240.572,346.064,238.489,344.174,238.489z"/>
					<g>
						<g>
							
								<line style="fill:none;stroke:#FFB1B1;stroke-width:10;stroke-linecap:round;stroke-linejoin:round;stroke-miterlimit:10;" x1="221.157" y1="244.712" x2="296.469" y2="244.712"/>
						</g>
					</g>
				</g>
				<g>
					<g>
						<path style="fill:#FF4D4D;" d="M350.771,299.154H203.173c-5.523,0-10-4.477-10-10v-11.112c0-5.523,4.477-10,10-10h147.598&#10;&#9;&#9;&#9;&#9;&#9;&#9;&#9;c5.523,0,10,4.477,10,10v11.112C360.771,294.677,356.294,299.154,350.771,299.154z"/>
					</g>
					<path style="fill:#FFFFFF;" d="M344.174,277.376h-9.633c-1.89,0-3.04,2.083-2.032,3.682l4.816,7.642&#10;&#9;&#9;&#9;&#9;&#9;&#9;c0.942,1.495,3.121,1.495,4.063,0l4.816-7.642C347.214,279.458,346.064,277.376,344.174,277.376z"/>
					<g>
						<g>
							
								<line style="fill:none;stroke:#FFB1B1;stroke-width:10;stroke-linecap:round;stroke-linejoin:round;stroke-miterlimit:10;" x1="221.157" y1="283.598" x2="296.469" y2="283.598"/>
						</g>
					</g>
				</g>
				<g>
					<g>
						<path style="fill:#FF4D4D;" d="M350.771,338.04H203.173c-5.523,0-10-4.477-10-10v-11.112c0-5.523,4.477-10,10-10h147.598&#10;&#9;&#9;&#9;&#9;&#9;&#9;&#9;c5.523,0,10,4.477,10,10v11.112C360.771,333.563,356.294,338.04,350.771,338.04z"/>
					</g>
					<path style="fill:#FFFFFF;" d="M344.174,316.262h-9.633c-1.89,0-3.04,2.083-2.032,3.682l4.816,7.642&#10;&#9;&#9;&#9;&#9;&#9;&#9;c0.942,1.495,3.121,1.495,4.063,0l4.816-7.642C347.214,318.345,346.064,316.262,344.174,316.262z"/>
					<g>
						<g>
							
								<line style="fill:none;stroke:#FFB1B1;stroke-width:10;stroke-linecap:round;stroke-linejoin:round;stroke-miterlimit:10;" x1="221.157" y1="322.485" x2="296.469" y2="322.485"/>
						</g>
					</g>
				</g>
			</g>
			<g>
				<g>
					<path style="fill:none;stroke:#FF4D4D;stroke-width:10;stroke-linecap:round;stroke-linejoin:round;stroke-miterlimit:10;" d="&#10;&#9;&#9;&#9;&#9;&#9;&#9;M345.143,178.762c2.405-2.914,3.849-6.649,3.849-10.722c0-9.309-7.547-16.856-16.856-16.856&#10;&#9;&#9;&#9;&#9;&#9;&#9;c-9.309,0-16.856,7.547-16.856,16.856c0,4.072,1.444,7.807,3.847,10.72"/>
				</g>
				<g>
					<path style="fill:none;stroke:#4D4DFF;stroke-width:10;stroke-linecap:round;stroke-linejoin:round;stroke-miterlimit:10;" d="&#10;&#9;&#9;&#9;&#9;&#9;&#9;M332.136,187.311v-14.689c9.309,0,16.856,7.547,16.856,16.856c0,9.309-7.547,16.856-16.856,16.856&#10;&#9;&#9;&#9;&#9;&#9;&#9;c-9.309,0-16.856-7.547-16.856-16.856c0-4.072,1.444-7.807,3.847-10.72"/>
				</g>
				
					<line style="fill:none;stroke:#FF4D4D;stroke-width:10;stroke-linecap:round;stroke-linejoin:round;stroke-miterlimit:10;" x1="315.28" y1="135.298" x2="334.062" y2="135.298"/>
				
					<line style="fill:none;stroke:#FF4D4D;stroke-width:10;stroke-linecap:round;stroke-linejoin:round;stroke-miterlimit:10;" x1="348.992" y1="135.298" x2="348.33" y2="135.298"/>
			</g>
		</g>
		<path style="fill:none;stroke:#FF9B33;stroke-width:10;stroke-linecap:round;stroke-linejoin:round;stroke-miterlimit:10;" d="&#10;&#9;&#9;&#9;M73.847,219.481c0,6.259-5.074,11.333-11.333,11.333c6.259,0,11.333,5.074,11.333,11.333c0-6.259,5.074-11.333,11.333-11.333&#10;&#9;&#9;&#9;C78.921,230.815,73.847,225.74,73.847,219.481z"/>
		<path style="fill:none;stroke:#FF9B33;stroke-width:10;stroke-linecap:round;stroke-linejoin:round;stroke-miterlimit:10;" d="&#10;&#9;&#9;&#9;M436.597,403.827c0,6.259-5.074,11.333-11.333,11.333c6.259,0,11.333,5.074,11.333,11.333c0-6.259,5.074-11.333,11.333-11.333&#10;&#9;&#9;&#9;C441.672,415.16,436.597,410.086,436.597,403.827z"/>
		<path style="fill:none;stroke:#6C6CFF;stroke-width:10;stroke-linecap:round;stroke-linejoin:round;stroke-miterlimit:10;" d="&#10;&#9;&#9;&#9;M456.132,103.193c0,6.259-5.074,11.333-11.333,11.333c6.259,0,11.333,5.074,11.333,11.333c0-6.259,5.074-11.333,11.333-11.333&#10;&#9;&#9;&#9;C461.206,114.526,456.132,109.452,456.132,103.193z"/>
		
			<polyline style="fill:none;stroke:#6C6CFF;stroke-width:10;stroke-linecap:round;stroke-linejoin:round;stroke-miterlimit:10;" points="&#10;&#9;&#9;&#9;123.804,264.704 114.804,255.704 105.804,264.704 &#9;&#9;"/>
		
			<polyline style="fill:none;stroke:#FF4D4D;stroke-width:10;stroke-linecap:round;stroke-linejoin:round;stroke-miterlimit:10;" points="&#10;&#9;&#9;&#9;436.597,71.221 427.597,62.221 418.597,71.221 &#9;&#9;"/>
	</g>
</g>
<g>
</g>
<g>
</g>
<g>
</g>
<g>
</g>
<g>
</g>
<g>
</g>
<g>
</g>
<g>
</g>
<g>
</g>
<g>
</g>
<g>
</g>
<g>
</g>
<g>
</g>
<g>
</g>
<g>
</g>
</svg>