<svg id="Layer_1" enable-background="new 0 0 512 512" height="512" viewBox="0 0 512 512" width="512" xmlns="http://www.w3.org/2000/svg"><g><path d="m126.87 270.059c69.185-76.601 134.035-157.191 195.277-241.101-22.753 100.642-27.633 186.676-5.12 234.532-64.096-8.398-127.351-4.255-190.157 6.569z" fill="#ffef80"/><path d="m58.763 427.388c-4.155 4.642-7.893 9.616-10.781 14.945-1.165 2.147-2.33 4.306-3.219 6.585-.425 1.089-1.08 2.293-1.241 3.46-.254 1.839.097 3.822.195 5.658.182 3.418.386 6.837.731 10.243.426 4.205.852 9.039 3.148 12.719 1.667 2.671 4.394 3.769 7.466 3.769 10.964 0 389.343 3.672 396.788 0 1.29-.636 2.213-1.981 2.972-3.151 1.227-1.891 2.205-3.944 3.111-6.004 2.386-5.426 4.254-11.083 5.986-16.746.896-2.929 1.743-5.874 2.549-8.83 1.943-7.122.999-12.174-2.116-18.874-2.909-6.258-5.097-14.294-10.462-18.756-2.888-2.402-5.942-4.601-9.1-6.633-13.832-8.902-29.505-14.801-45.24-19.349-19.211-5.553-38.992-9.074-58.829-11.467-22.005-2.655-44.18-3.879-66.34-4.028-22.62-.151-45.254.828-67.773 2.969-21.19 2.015-42.314 5.042-63.13 9.521-17.816 3.834-35.535 8.683-52.409 15.631-2.204.908-4.392 1.854-6.561 2.844-.879.402-1.996.893-2.669 1.629-1.189 1.303-1.776 3.17-2.949 4.56-1.605 1.901-3.549 3.491-5.423 5.113-5.018 4.345-10.115 9.066-14.704 14.192z" fill="#00e0c5"/><path d="m468.841 438.509c-1.079-2.888-1.481-5.687-2.196-8.666-1.461-6.09-5.072-11.245-8.286-16.549-3.857-6.367-7.011-12.935-11.163-19.14-4.619-6.902-8.442-14.165-13.094-21.056-4.146-6.141-6.936-12.845-10.622-19.237-6.877-11.925-12.787-23.995-21.989-34.336-2.492-2.801-4.866-7.149-7.981-9.272-1.948-1.327-3.912-.923-6.224-.913-4.645.019-9.292-.009-13.937-.001-15.049.024-29.663-1.368-44.677-2.387-52.843-3.585-105.493-3.196-158.335-1.121-6.327.248-12.656.521-18.989.814-16.359.756-33.536 1.166-47.928 9.651-3.537 2.085-6.08 4.917-9.198 7.419-1.083.869-1.796 1.107-2.57 2.19-.584.819-.963 2.368-1.56 3.371-1.705 2.866-1.523 5.435-3.101 8.344-7.122 13.132-13.821 25.98-19.136 40.027-5.934 15.682-10.959 31.686-16.689 47.441-2.679 7.365-6.41 14.742-8.273 22.359-.593 2.423-.525 4.655.076 7.07.382 1.534.811 3.326 1.501 4.743.655 1.345 1.97 2.957 3.53 3.107.8.076 1.694-.038 2.504-.038h5.619c5.654-.002 11.148-.602 16.681-1.874 3.44-.791 6.969-1.091 10.346-2.147 3.775-1.181 7.493-2.343 11.381-3.13 2.982-.603 5.853-1.678 8.835-2.224 2.487-.455 5.028-.781 7.536-1.077 2.128-.252 4.177-.457 6.32-.464 1.728-.006 2.498-.076 3.667 1.452 1.001 1.307 1.675 2.909 2.5 4.33 1.062 1.829 1.867 3.239 3.447 4.736 1.341 1.272 3.163 2.198 4.804 3.024 1.951.982 4.016 2.133 6.073 2.835 2.787.95 5.607 1.964 8.495 2.55 1.497.304 2.995.392 4.512.504 3.472.256 7.007.751 10.488.776 4.943.035 10.057-.858 14.902-1.711 5.129-.904 10.122-2.302 15.091-3.834 4.296-1.324 8.334-2.371 12.477-4.188 1.483-.651 2.983-1.268 4.388-2.079 1.386-.8 2.583-1.9 4.097-2.463.826-.307 1.582-.786 2.164-.084.463.56.3 1.471.298 2.13-.013 4.468 5.575 4.868 8.884 5.456 11.075 1.969 22.402 2.071 33.625 2.108 4.185.014 8.396.211 12.551-.439 2.967-.464 5.907-1.16 8.827-1.839 4.671-1.086 9.395-2.075 13.923-3.678 4.439-1.572 8.839-3.128 13.383-4.401 3.1-.869 6.169-1.702 9.228-2.702 1.633-.534 3.096-1.018 4.843-1.191 1.786-.177 3.587-.011 5.377-.05.644-.014 1.335-.126 1.949.154 1.548.705 2.325 2.658 3.778 3.559 1.365.846 3.333 1.26 4.844 1.669 2.313.626 4.738 1.04 7.108 1.374 6.896.971 14.184 1.158 21.149.774 8.366-.46 16.924-2.773 24.942-5.127 8.592-2.522 16.668-6.164 25.069-9.191 2.371-.855 4.729-1.307 7.186-1.803 1.837-.371 3.848-1.012 5.737-.576 1.667.385 2.299 2.126 3.514 3.197 2.245 1.978 5.873 2.178 8.683 2.227 5.874.103 12.145.272 17.915-1.024.923-.207 1.712-.563 2.526-1.033 2.375-1.373 4.966-1.842 7.423-2.979.986-.457 1.85-1.387 2.25-2.397.472-1.2-.08-1.852-.498-2.97z" fill="#00edd1"/><path d="m420.717 338.067c-1.397 5.294-3.015 10.625-5.037 15.736-1.103 2.831-2.353 5.588-3.75 8.236-.662 1.287-1.103 2.427-1.654 3.53-.588 1.14-1.287 2.169-2.537 3.199-7.427 5.956-25.626 7.206-34.707 9.412-18.346 4.412-36.877 7.831-55.223 12.133-7.28 1.691-14.523 3.529-21.766 5.478-28.714 7.795-57.87 13.42-87.246 18.052-16.214 2.574-32.648 5.074-49.156 4.155-18.089-.993-37.612-5.478-52.245-16.545-9.375-7.096-16.361-15.699-22.06-25.663-.993-1.618-1.875-3.309-2.758-5-4.853-9.375-9.522-19.927-12.684-30.075-1.287-4.191-1.213-7.279-1.213-11.508 15.185 0 31.325-3.787 46.436-5.037 31.508-2.647 62.87-7.022 94.195-11.14 50.186-6.544 100.555-8.934 150.999-11.949 2.022-.147.331-.735 2.243-.037 4.816 1.802 10 2.353 14.854 4.191 8.015 3.015 15.772 6.103 24.045 8.42 6.177 1.691 13.089 2.794 18.751 5.993 1.324.735 2.537 1.618 3.125 3.125 1.58 4.227-1.508 11.176-2.612 15.294z" fill="#ffca7a"/><path d="m401.435 313.644c3.525.977 7.113 1.714 10.625 2.743 2.903.85 5.37 2.32 8.244 3.195.055 3.55-7.642 1.852-9.661 2.252-1.021.203-1.65.676-2.754.736-51.895 2.806-103.35 10.464-155.061 15.328-27.531 2.589-55.186 3.828-82.838 3.753-25.501-.068-54.221 1.498-79.198-4.166-4.879-1.106-9.589-3.02-14.547-3.805-2.305-.365-5.687-.366-7.66-1.919.269-1.339-.985-2.347.095-2.555 1.944-.374 7.252-.265 8.633-.375 4.259-.34 8.498-.842 12.731-1.419 8.354-1.14 16.68-2.548 25.087-3.255 31.506-2.648 62.856-7.017 94.196-11.109 50.154-6.549 100.521-8.966 150.976-11.977 2.03-.121.357-.728 2.253-.02 4.831 1.804 9.99 2.35 14.855 4.189 8.004 3.022 15.757 6.114 24.024 8.404z" fill="#ffd699"/><path d="m407.298 318.911c-1.912.11-3.824.221-5.735.368-31.031 1.875-62.245 5.441-92.467 8.898-18.567 2.096-37.722 4.302-56.62 6.066-.625.073-1.287.11-1.912.184-25.736 2.353-52.097 3.566-78.312 3.566l-4.044-.037c-4.118 0-8.309.074-12.537.074-4.302.037-8.676.11-13.052.11-16.839 0-34.634-.515-50.995-4.228-1.985-.441-3.897-1.03-5.809-1.618-.515-.147-1.029-.294-1.544-.441 1.985-.221 4.044-.478 6.287-.809 2.316-.294 4.633-.661 6.949-.992 5.882-.846 11.986-1.728 17.942-2.243 27.281-2.28 54.855-5.919 81.547-9.412l12.795-1.691c16.435-2.169 33.016-3.86 49.598-5.294 27.611-2.39 55.186-4.008 82.246-5.552l18.898-1.103c.331-.037.699-.074 1.066-.147 2.574.919 5.037 1.507 7.464 2.096 2.463.588 4.816 1.14 7.059 1.985l3.346 1.25c6.728 2.574 13.714 5.221 20.993 7.243.147.037.257.074.404.11 1.471.404 3.015.772 4.486 1.14.66.147 1.322.33 1.947.477z" fill="#ffca7a"/><path d="m415.681 353.802c-1.103 2.831-2.353 5.588-3.75 8.236-.662 1.287-1.103 2.427-1.654 3.53-.588 1.14-1.287 2.169-2.537 3.199-7.427 5.956-25.626 7.206-34.707 9.412-18.346 4.412-36.877 7.831-55.223 12.133-7.28 1.691-14.523 3.529-21.766 5.478-28.714 7.795-57.87 13.42-87.246 18.052-16.214 2.574-32.648 5.074-49.156 4.155-18.089-.993-37.612-5.478-52.245-16.545-9.375-7.096-16.361-15.699-22.06-25.663 36.582 16.066 66.032 20.552 134.674 12.17 54.341-6.692 148.057-24.708 195.67-34.157z" fill="#f70"/><circle cx="204.454" cy="365.345" fill="#f2bb68" r="11.542"/><circle cx="204.454" cy="365.345" fill="#00e8cc" r="10.292"/><circle cx="203.454" cy="364.344" fill="#00f0d3" r="7.336"/><circle cx="262.05" cy="360.138" fill="#f2bb68" r="9.177"/><circle cx="262.051" cy="360.138" fill="#00e8cc" r="8.183"/><circle cx="261.255" cy="359.342" fill="#00f0d3" r="5.833"/><circle cx="319.168" cy="353.802" fill="#f2bb68" r="9.177"/><circle cx="319.168" cy="353.802" fill="#00e8cc" r="8.183"/><circle cx="318.372" cy="353.007" fill="#00f0d3" r="5.833"/><circle cx="374.864" cy="346.046" fill="#f2bb68" r="7.756"/><circle cx="374.864" cy="346.046" fill="#00e8cc" r="6.916"/><circle cx="374.191" cy="345.373" fill="#00f0d3" r="4.93"/><path d="m401.563 319.279c-31.031 1.875-62.245 5.441-92.467 8.898-3.75.441-7.537.846-11.324 1.287-14.964 1.691-30.222 3.383-45.296 4.78-.625.073-1.287.11-1.912.184 1.618-4.486 3.162-8.934 5.037-13.383 1.287-3.125 2.427-6.434 3.787-9.633 1.066-2.574 2.28-5.111 3.787-7.39.993-1.507 2.243-2.905 3.272-4.412 3.235-4.853 6.103-10.037 10.295-14.191 1.029-1.03 2.169-2.868 3.382-3.64.772-.478 1.434-.257 2.353-.368 2.426-.294 4.669-.478 7.169-.478 7.757.037 15.515.037 23.273.037 12.427-.037 24.854.11 37.244-.331 9.375-.294 18.714-.294 28.052-.588 1.36-.037 2.684-.331 4.008-.331 1.471 0 2.868.515 4.192 1.14.845.404 1.618.919 2.426 1.434 1.066.699 1.103.882 1.14 2.133.037 2.61.735 4.632 1.618 7.169 3.052 8.567 6.214 17.096 9.265 25.7.257.659.478 1.321.699 1.983z" fill="#fa8e11"/><g fill="#fa9c2f"><path d="m309.978 287.66-12.206 41.803c-14.964 1.691-30.222 3.383-45.296 4.78-.625.073-1.287.11-1.912.184 1.618-4.486 3.162-8.934 5.037-13.383 1.287-3.125 2.427-6.434 3.787-9.633 1.066-2.574 2.28-5.111 3.787-7.39.993-1.507 2.243-2.905 3.272-4.412 3.235-4.853 6.103-10.037 10.295-14.191 1.029-1.03 2.169-2.868 3.382-3.64z"/><path d="m325.688 29.99c.527-8.925-7.001-2.362-7.001 3.138l-6.544 250.671c-.069 1.38 8.066 1.785 8.135.406z"/><path d="m126.955 268.06c-6.666-.027-1.228 7.113 2.856 6.805l186.595-7.498c1.03-.009.719-8.143-.31-8.134z"/></g><g><path d="m70.194 330.716c-1.006 1.009-2.519-.501-1.512-1.51 68.373-68.374 228.082-262.059 251.241-300.247l.595 5.275c-23.865 39.358-180.014 226.171-250.324 296.482z" fill="#fa9c2f"/></g></g></svg>