<svg id="Layer_1" enable-background="new 0 0 66 66" viewBox="0 0 66 66" xmlns="http://www.w3.org/2000/svg"><g><g><g><g><g><path d="m62.35 13.06v-4.28c0-3.09-2.5-5.59-5.59-5.59h-47.52c-3.09 0-5.59 2.5-5.59 5.59v4.29h58.7z" fill="#ffa431"/></g><g><path d="m62.35 13.76h-58.7c-.39 0-.7-.31-.7-.7v-4.28c0-3.47 2.82-6.29 6.29-6.29h47.52c3.47 0 6.29 2.82 6.29 6.29v4.29c0 .38-.32.69-.7.69zm-58-1.4h57.3v-3.58c0-2.7-2.19-4.89-4.89-4.89h-47.52c-2.7 0-4.89 2.19-4.89 4.89z" fill="#363d3d"/></g></g><g><g><path d="m56.76 63.51h-47.52c-3.47 0-6.29-2.82-6.29-6.29v-44.16c0-.39.31-.7.7-.7h58.7c.39 0 .7.31.7.7v44.16c0 3.47-2.82 6.29-6.29 6.29zm-52.41-49.75v43.46c0 2.7 2.19 4.89 4.89 4.89h47.52c2.7 0 4.89-2.19 4.89-4.89v-43.46z" fill="#363d3d"/></g></g></g><g><g><g><circle cx="11.7" cy="8.12" fill="#363d3d" r=".93"/></g></g><g><g><circle cx="16.56" cy="8.12" fill="#363d3d" r=".93"/></g></g><g><g><circle cx="21.41" cy="8.12" fill="#363d3d" r=".93"/></g></g></g></g><g><g><path d="m54.96 8.82h-19.08c-.39 0-.7-.31-.7-.7s.31-.7.7-.7h19.08c.39 0 .7.31.7.7s-.31.7-.7.7z" fill="#363d3d"/></g></g><g><g><g><path d="m40.51 23.79v16.23c0 .92-.34 1.76-.89 2.41-.69.81-1.7 1.31-2.84 1.31h-23.23c-1.28 0-2.4-.64-3.07-1.62-.41-.61-.65-1.32-.65-2.11v-16.22c0-2.06 1.67-3.73 3.73-3.73h23.24c2.04.01 3.71 1.68 3.71 3.73z" fill="#dbeaf2"/></g><g><path d="m36.78 44.45h-23.23c-1.46 0-2.82-.72-3.65-1.92-.51-.75-.77-1.61-.77-2.5v-16.24c0-2.44 1.99-4.43 4.43-4.43h23.24c2.44 0 4.43 1.99 4.43 4.43v16.23c0 1.04-.37 2.06-1.05 2.86-.87 1-2.1 1.57-3.4 1.57zm-23.23-23.68c-1.67 0-3.03 1.36-3.03 3.03v16.23c0 .61.18 1.2.53 1.71.56.82 1.5 1.31 2.5 1.31h23.24c.89 0 1.73-.39 2.31-1.07.47-.56.72-1.24.72-1.96v-16.23c0-1.67-1.36-3.03-3.03-3.03h-23.24z" fill="#363d3d"/></g></g><g><g><path d="m39.62 42.44c-.69.81-1.7 1.31-2.84 1.31h-7.54l-3.17-4.33 3.95-3.95c.73-.73 1.91-.73 2.64 0z" fill="#a7d930"/></g><g><path d="m36.78 44.45h-7.54c-.22 0-.43-.11-.56-.29l-3.17-4.33c-.2-.28-.17-.66.07-.91l3.95-3.95c.97-.97 2.66-.97 3.62 0l6.97 6.97c.26.26.27.67.04.95-.85.99-2.08 1.56-3.38 1.56zm-7.18-1.4h7.18c.67 0 1.32-.22 1.84-.62l-6.46-6.46c-.44-.44-1.21-.44-1.65 0l-3.51 3.52z" fill="#363d3d"/></g></g><g><g><path d="m29.25 43.75h-15.7c-1.28 0-2.4-.64-3.07-1.62l7.29-9.95c.74-1.02 2.26-1.02 3.01 0l5.31 7.24z" fill="#a7d930"/></g><g><path d="m29.25 44.45h-15.7c-1.46 0-2.82-.72-3.65-1.92-.17-.25-.16-.57.01-.81l7.29-9.95c.49-.67 1.24-1.05 2.07-1.05.82 0 1.58.38 2.07 1.05l8.48 11.57c.16.21.18.49.06.73-.13.23-.37.38-.63.38zm-17.9-2.34c.57.6 1.36.94 2.19.94h14.32l-7.66-10.46c-.22-.3-.56-.48-.94-.48-.38 0-.72.17-.94.48z" fill="#363d3d"/></g></g><g><g><circle cx="28.85" cy="26.64" fill="#ffa431" r="2.68"/></g><g><path d="m28.85 30.02c-1.87 0-3.38-1.52-3.38-3.38s1.52-3.38 3.38-3.38 3.38 1.52 3.38 3.38c.01 1.86-1.51 3.38-3.38 3.38zm0-5.37c-1.09 0-1.98.89-1.98 1.98s.89 1.98 1.98 1.98 1.98-.89 1.98-1.98-.88-1.98-1.98-1.98z" fill="#363d3d"/></g></g></g><g><g><path d="m58.48 24.65h-13.06c-.39 0-.7-.31-.7-.7s.31-.7.7-.7h13.06c.39 0 .7.31.7.7s-.31.7-.7.7z" fill="#363d3d"/></g></g><g><g><path d="m58.48 31.05h-13.06c-.39 0-.7-.31-.7-.7s.31-.7.7-.7h13.06c.39 0 .7.31.7.7s-.31.7-.7.7z" fill="#363d3d"/></g></g><g><g><path d="m58.48 37.45h-13.06c-.39 0-.7-.31-.7-.7s.31-.7.7-.7h13.06c.39 0 .7.31.7.7s-.31.7-.7.7z" fill="#363d3d"/></g></g><g><g><path d="m58.48 43.85h-13.06c-.39 0-.7-.31-.7-.7s.31-.7.7-.7h13.06c.39 0 .7.31.7.7s-.31.7-.7.7z" fill="#363d3d"/></g></g><g><g><g><path d="m57.33 50.26h-48.66c-.39 0-.7-.31-.7-.7s.31-.7.7-.7h48.66c.39 0 .7.31.7.7 0 .38-.31.7-.7.7z" fill="#363d3d"/></g></g><g><g><path d="m57.33 56.66h-18.97c-.39 0-.7-.31-.7-.7s.31-.7.7-.7h18.97c.39 0 .7.31.7.7 0 .38-.31.7-.7.7z" fill="#363d3d"/></g></g><g><g><path d="m32.85 56.66h-12.19c-.39 0-.7-.31-.7-.7s.31-.7.7-.7h12.19c.39 0 .7.31.7.7 0 .38-.31.7-.7.7z" fill="#363d3d"/></g></g><g><g><path d="m16.72 56.66h-8.05c-.39 0-.7-.31-.7-.7s.31-.7.7-.7h8.06c.39 0 .7.31.7.7-.01.38-.32.7-.71.7z" fill="#363d3d"/></g></g></g></g></svg>