<svg height="512" viewBox="0 0 60 60" width="512" xmlns="http://www.w3.org/2000/svg"><g id="Page-1" fill="none" fill-rule="evenodd"><g id="013---Sightseeing-Boat-Trip" fill-rule="nonzero"><path id="Shape" d="m37 38v2c0 .5522847-.4477153 1-1 1h-17c-1.1032019-.0032948-1.9967052-.8967981-2-2 .0081672-1.1011688.8988312-1.9918328 2-2h17c.5522847 0 1 .4477153 1 1z" fill="#ffdb00"/><path id="Shape" d="m29 41v7h-12l2-7z" fill="#7f8d93"/><path id="Rectangle-path" d="m29 41h6v7h-6z" fill="#37474f"/><path id="Shape" d="m56.57 49.54-4.88 7.66c-.7753766-.1398487-1.562142-.2068075-2.35-.2-4.83 0-4.83 2-9.67 2s-4.83-2-9.66-2-4.84 2-9.67 2-4.83-2-9.67-2c-3.6 0-4.52 1.11-6.76 1.68-.56766807-.3703083-.90995777-1.0022277-.91-1.68v-7c.0032948-1.1032019.89679813-1.9967052 2-2h50.73c.3653473.000608.7012839.2004093.8762314.5211465.1749476.3207372.1610569.7113534-.0362314 1.0188535z" fill="#ff9701"/><path id="Shape" d="m55.73 48h-3c.3653473.000608.7012839.2004093.8762314.5211465.1749476.3207372.1610569.7113534-.0362314 1.0188535l-4.762 7.474c.175-.006.344-.014.532-.014.787858-.0068075 1.5746234.0601513 2.35.2l4.88-7.66c.1972883-.3075001.211179-.6981163.0362314-1.0188535-.1749475-.3207372-.5108841-.5205385-.8762314-.5211465z" fill="#f47c00"/><ellipse id="Oval" cx="19" cy="27" fill="#02a8f3" rx="8" ry="6"/><path id="Shape" d="m19 21c-.501942.0009897-1.003188.0374136-1.5.109 3.7.528 6.5 2.965 6.5 5.891s-2.8 5.363-6.5 5.891c.496812.0715864.998058.1080103 1.5.109 4.42 0 8-2.69 8-6s-3.58-6-8-6z" fill="#0377bb"/><ellipse id="Oval" cx="30" cy="27" fill="#545c60" rx="3" ry="2"/><ellipse id="Oval" cx="41" cy="27" fill="#02a8f3" rx="8" ry="6"/><path id="Shape" d="m41 21c-.501942.0009897-1.003188.0374136-1.5.109 3.7.528 6.5 2.965 6.5 5.891s-2.8 5.363-6.5 5.891c.496812.0715864.998058.1080103 1.5.109 4.42 0 8-2.69 8-6s-3.58-6-8-6z" fill="#0377bb"/><path id="Shape" d="m44 7v5.44c-.9720746-.2971797-1.9835285-.4455263-3-.44-1.3750654-.0101854-2.7372275.2656524-4 .81v-5.81c.0155732-.3830337.185031-.74358231.47-1 .8500678-.69932053 1.9306667-1.05595384 3.03-1 1.0993333-.05595384 2.1799322.30067947 3.03 1 .284969.25641769.4544268.6169663.47 1z" fill="#545c60"/><path id="Shape" d="m46 3v1c-.0032948 1.10320187-.8967981 1.9967052-2 2h-.47c-.8500678-.69932053-1.9306667-1.05595384-3.03-1-1.0993333-.05595384-2.1799322.30067947-3.03 1h-.47c-1.1032019-.0032948-1.9967052-.89679813-2-2v-1c.0032948-1.10320187.8967981-1.9967052 2-2h7c1.1032019.0032948 1.9967052.89679813 2 2z" fill="#9d9d9d"/><path id="Shape" d="m44 1h-3c1.1032019.0032948 1.9967052.89679813 2 2v1c-.001447.50481494-.1952724.99009374-.542 1.357.3970159.13989666.7616527.3586107 1.072.643h.47c1.1032019-.0032948 1.9967052-.89679813 2-2v-1c-.0032948-1.10320187-.8967981-1.9967052-2-2z" fill="#707070"/><path id="Shape" d="m23 7v5.81c-1.2627725-.5443476-2.6249346-.8201854-4-.81-1.0164715-.0055263-2.0279254.1428203-3 .44v-5.44c.0155732-.3830337.185031-.74358231.47-1 .8500678-.69932053 1.9306667-1.05595384 3.03-1 1.0993333-.05595384 2.1799322.30067947 3.03 1 .284969.25641769.4544268.6169663.47 1z" fill="#545c60"/><path id="Shape" d="m25 3v1c-.0032948 1.10320187-.8967981 1.9967052-2 2h-.47c-.8500678-.69932053-1.9306667-1.05595384-3.03-1-1.0993333-.05595384-2.1799322.30067947-3.03 1h-.47c-1.1032019-.0032948-1.9967052-.89679813-2-2v-1c.0032948-1.10320187.8967981-1.9967052 2-2h7c1.1032019.0032948 1.9967052.89679813 2 2z" fill="#9d9d9d"/><path id="Shape" d="m23 1h-3c1.1032019.0032948 1.9967052.89679813 2 2v1c-.001447.50481494-.1952724.99009374-.542 1.357.3970159.13989666.7616527.3586107 1.072.643h.47c1.1032019-.0032948 1.9967052-.89679813 2-2v-1c-.0032948-1.10320187-.8967981-1.9967052-2-2z" fill="#707070"/><path id="Shape" d="m27 18v9c0-3.31-3.58-6-8-6s-8 2.69-8 6v-9c0-2.52 2.07-4.67 5-5.56.9720746-.2971797 1.9835285-.4455263 3-.44 1.3750654-.0101854 2.7372275.2656524 4 .81 1.8958769.7027598 3.344017 2.2660084 3.9 4.21.0634572.3228878.0969329.65095.1.98z" fill="#9d9d9d"/><path id="Shape" d="m26.9 17.02c-.555983-1.9439916-2.0041231-3.5072402-3.9-4.21-1.2627725-.5443476-2.6249346-.8201854-4-.81-.5173383-.0004017-1.0340254.0366955-1.546.111.876924.114622 1.7337374.3501952 2.546.7 1.8958769.7027598 3.344017 2.2660084 3.9 4.21.0633959.3225597.0968714.6502843.1.979v4.321c1.7580582.918326 2.8991887 2.6981092 3 4.679v-9c-.0030671-.32905-.0365428-.6571122-.1-.98z" fill="#707070"/><path id="Shape" d="m33.1 17.02c-.0634572.3228878-.0969329.65095-.1.98v9c0-1.1-1.34-2-3-2s-3 .9-3 2v-9c-.0030671-.32905-.0365428-.6571122-.1-.98l.1-.02c0-1.1 1.34-2 3-2s3 .9 3 2z" fill="#707070"/><path id="Shape" d="m49 18v9c0-3.31-3.58-6-8-6s-8 2.69-8 6v-9c.0030671-.32905.0365428-.6571122.1-.98.555983-1.9439916 2.0041231-3.5072402 3.9-4.21 1.2627725-.5443476 2.6249346-.8201854 4-.81 1.0164715-.0055263 2.0279254.1428203 3 .44 2.93.89 5 3.04 5 5.56z" fill="#9d9d9d"/><path id="Shape" d="m44 12.44c-.9720746-.2971797-1.9835285-.4455263-3-.44-.4866369.0036548-.9724476.0407422-1.454.111.4924544.0718524.9785834.18185 1.454.329 2.93.89 5 3.04 5 5.56v4.321c1.7580582.918326 2.8991887 2.6981092 3 4.679v-9c0-2.52-2.07-4.67-5-5.56z" fill="#707070"/><g fill="#f4f4f4"><path id="Shape" d="m15 28c-.2164998.0008032-.4272821-.0694576-.6-.2-.4392144-.3338162-.5251271-.9602627-.192-1.4 1.1731172-1.4578039 2.9219734-2.3336919 4.792-2.4.5522847 0 1 .4477153 1 1s-.4477153 1-1 1c-1.242296.0668624-2.4011325.6462806-3.2 1.6-.1888544.2518058-.4852427.4-.8.4z"/><path id="Shape" d="m37 28c-.2164998.0008032-.4272821-.0694576-.6-.2-.4392144-.3338162-.5251271-.9602627-.192-1.4 1.1731172-1.4578039 2.9219734-2.3336919 4.792-2.4.5522847 0 1 .4477153 1 1s-.4477153 1-1 1c-1.242296.0668624-2.4011325.6462806-3.2 1.6-.1888544.2518058-.4852427.4-.8.4z"/><path id="Shape" d="m50 53h-37c-.5522847 0-1-.4477153-1-1s.4477153-1 1-1h37c.5522847 0 1 .4477153 1 1s-.4477153 1-1 1z"/><path id="Shape" d="m9 53h-2c-.55228475 0-1-.4477153-1-1s.44771525-1 1-1h2c.55228475 0 1 .4477153 1 1s-.44771525 1-1 1z"/></g><path id="Shape" d="m15 11.739c-2.958 1.148-5 3.52-5 6.261v9c0 3.86 4.038 7 9 7 3.912 0 7.24-1.955 8.478-4.673 1.5616074.8973274 3.4823926.8973274 5.044 0 1.238 2.718 4.566 4.673 8.478 4.673 4.962 0 9-3.14 9-7v-9c0-2.741-2.042-5.113-5-6.261v-4.739c0-.061-.02-.117-.025-.176 1.2069734-.41476955 2.0194049-1.54776053 2.025-2.824v-1c0-1.65685425-1.3431458-3-3-3h-7c-1.6568542 0-3 1.34314575-3 3v1c.0042045 1.27645911.8172338 2.40988215 2.025 2.823 0 .06-.025.116-.025.177v5.184c-1.2527422.6302975-2.3161472 1.5812203-3.082 2.756-1.7435485-1.2530581-4.0924515-1.2530581-5.836 0-.7658528-1.1747797-1.8292578-2.1257025-3.082-2.756v-5.184c0-.061-.02-.117-.025-.176 1.2069734-.41476955 2.0194049-1.54776053 2.025-2.824v-1c0-1.65685425-1.3431458-3-3-3h-7c-1.6568542 0-3 1.34314575-3 3v1c.0042045 1.27645911.8172338 2.40988215 2.025 2.823-.005.06-.025.116-.025.177zm4 20.261c-3.86 0-7-2.243-7-5 0-1.8 1.349-3.383 3.36-4.263.02-.007.038-.016.058-.025 1.1338705-.476127 2.352236-.7183035 3.582-.712 3.86 0 7 2.243 7 5s-3.14 5-7 5zm11-4c-1.221 0-2-.592-2-1s.779-1 2-1 2 .592 2 1-.779 1-2 1zm11 4c-3.86 0-7-2.243-7-5 0-1.8 1.349-3.383 3.36-4.263.02-.007.038-.016.058-.025 1.1338705-.476127 2.352236-.7183035 3.582-.712 3.86 0 7 2.243 7 5s-3.14 5-7 5zm-5-29c0-.55228475.4477153-1 1-1h7c.5522847 0 1 .44771525 1 1v1c0 .55228475-.4477153 1-1 1h-.114c-2.0604067-1.33346025-4.7115933-1.33346025-6.772 0h-.114c-.5522847 0-1-.44771525-1-1zm2 4c0-.29.876-1 2.5-1s2.5.71 2.5 1v4.18c-.6601162-.1184003-1.3293509-.1786314-2-.18-1.0137859.0006424-2.0228634.137877-3 .408zm-.64 6.737c.02-.007.038-.016.058-.025 1.1338705-.476127 2.352236-.7183035 3.582-.712 3.86 0 7 2.243 7 5v4.61c-1.9150052-1.7310204-4.4191701-2.6647162-7-2.61-1.0137859.0006424-2.0228634.137877-3 .408v-2.408c0-.5522847.4477153-1 1-1s1-.4477153 1-1-.4477153-1-1-1c-1.6568542 0-3 1.3431458-3 3v3.184c-.7313201.3774242-1.404823.8576317-2 1.426v-4.61c0-1.8 1.349-3.383 3.36-4.263zm-9.36 3.263c0-.408.779-1 2-1s2 .592 2 1c.0056175.0879517.0231095.174739.052.258-.0339785.2458847-.0513512.4937795-.052.742v6.405c-1.2786636-.539974-2.7213364-.539974-4 0v-6.405c-.0006488-.2482205-.0180215-.4961153-.052-.742.0288905-.083261.0463825-.1700483.052-.258zm-2 1v4.61c-1.9150052-1.7310204-4.4191701-2.6647162-7-2.61-1.0137859.0006424-2.0228634.137877-3 .408v-2.408c0-.5522847.4477153-1 1-1s1-.4477153 1-1-.4477153-1-1-1c-1.6568542 0-3 1.3431458-3 3v3.184c-.7313201.3774242-1.404823.8576317-2 1.426v-4.61c0-2.757 3.14-5 7-5 1.229764-.0063035 2.4481295.235873 3.582.712.02.009.038.018.058.025 2.011.88 3.36 2.463 3.36 4.263zm-7-7c-.6706491.0013686-1.3398838.0615997-2 .18v-4.18c0-.29.876-1 2.5-1s2.5.71 2.5 1v4.408c-.9771366-.270123-1.9862141-.4073576-3-.408zm-4-8c0-.55228475.4477153-1 1-1h7c.5522847 0 1 .44771525 1 1v1c0 .55228475-.4477153 1-1 1h-.114c-.9920966-.68808304-2.1792619-1.03869298-3.386-1-1.2067381-.03869298-2.3939034.31191696-3.386 1h-.114c-.5522847 0-1-.44771525-1-1z" fill="#000"/><path id="Shape" d="m59 58c-1.53435.0385218-3.0568811-.2776883-4.449-.924-.408-.169-.825-.338-1.283-.492l4.149-6.512c.3909231-.6157167.4156865-1.3954164.0646223-2.0346987s-1.0222886-1.0367778-1.7516223-1.0373013h-19.73v-5c1.1045695 0 2-.8954305 2-2v-2c0-1.1045695-.8954305-2-2-2h-17c-1.6568542 0-3 1.3431458-3 3 .0033144.3414397.0655622.679743.184 1h-12.184c-.55228475 0-1 .4477153-1 1s.44771525 1 1 1h2v5h-1c-1.65685425 0-3 1.3431458-3 3v7c.00569317.3228961.06378249.642725.172.947-.356.032-.737.053-1.172.053-.55228475 0-1 .4477153-1 1s.44771525 1 1 1c1.05743189.0157824 2.11266807-.1011301 3.141-.348l.024-.007c.70142557-.1885748 1.38769067-.4295866 2.053-.721 1.39353012-.6463304 2.91736172-.9625263 4.453-.924 1.5359612-.0385365 3.06012.2776562 4.454.924 1.6343545.7513188 3.4187466 1.1193475 5.217 1.076 1.7976103.0433599 3.5813551-.3246764 5.215-1.076 1.3924461-.6463937 2.9153206-.9626041 4.45-.924 1.534999-.0385781 3.0581925.2776274 4.451.924 1.6340385.7512031 3.4180793 1.1192299 5.216 1.076 1.7976103.0433599 3.5813551-.3246764 5.215-1.076 1.3921189-.6463117 2.91465-.9625218 4.449-.924 1.53435-.0385218 3.0568811.2776883 4.449.924 1.6329575.7512609 3.4160392 1.1193016 5.213 1.076.5522847 0 1-.4477153 1-1s-.4477153-1-1-1zm-25-11h-4v-5h4zm-14.246-5h8.246v5h-9.674zm-1.754-3c0-.5522847.4477153-1 1-1h17v2h-17c-.5522847 0-1-.4477153-1-1zm-10 3h9.674l-1.428 5h-8.246zm36.124 15.076c-1.3924461.6463937-2.9153206.9626041-4.45.924-1.534999.0385781-3.0581925-.2776274-4.451-.924-1.6340717-.751102-3.4180888-1.1191239-5.216-1.076-1.7976103-.0433599-3.5813551.3246764-5.215 1.076-1.3924461.6463937-2.9153206.9626041-4.45.924-1.5356383.0385263-3.0594699-.2776696-4.453-.924-1.6347148-.7512995-3.4194266-1.1193237-5.218-1.076-1.79856074-.0431824-3.58324101.3248352-5.218 1.076-.414.171-.821.338-1.274.483-.11423962-.1642332-.17659285-.3589564-.179-.559v-7c0-.5522847.44771525-1 1-1h50.727l-4.527 7.112c-.6176553-.0768715-1.2395837-.1142807-1.862-.112-1.7972744-.0432069-3.58066.3248259-5.214 1.076z" fill="#000"/></g></g></svg>