<svg id="Capa_1" enable-background="new 0 0 512 512" height="512" viewBox="0 0 512 512" width="512" xmlns="http://www.w3.org/2000/svg"><g><g><g><path d="m52.984 61.792c0-3.976 3.235-7.211 7.211-7.211h288.496v-27.154c0-4.552-3.69-8.241-8.241-8.241h-314.62c-4.552 0-8.241 3.69-8.241 8.241v441.967c0 4.552 3.69 8.241 8.241 8.241h27.153v-415.843z" fill="#ffe177"/></g><g><g><path d="m340.45 19.186h-50.699c4.552 0 8.241 3.69 8.241 8.241v27.154h50.699v-27.154c0-4.551-3.69-8.241-8.241-8.241z" fill="#ffd15b"/></g></g><g><g><path d="m374.814 512h-314.619c-4.552 0-8.241-3.69-8.241-8.241v-441.967c0-4.552 3.69-8.241 8.241-8.241h314.619c4.552 0 8.241 3.69 8.241 8.241v441.967c.001 4.551-3.689 8.241-8.241 8.241z" fill="#f9f3f1"/></g><g><path d="m374.814 53.551h-43.24c4.552 0 8.241 3.69 8.241 8.241v441.967c0 4.552-3.69 8.241-8.241 8.241h43.24c4.552 0 8.241-3.69 8.241-8.241v-441.967c.001-4.552-3.689-8.241-8.241-8.241z" fill="#f3eae6"/></g><g><g fill="#b9acac"><path d="m147.276 104.133h140.458c4.143 0 7.5-3.358 7.5-7.5s-3.357-7.5-7.5-7.5h-140.458c-4.143 0-7.5 3.358-7.5 7.5s3.357 7.5 7.5 7.5z"/><path d="m111.144 145.677h212.722c4.143 0 7.5-3.358 7.5-7.5s-3.357-7.5-7.5-7.5h-212.722c-4.143 0-7.5 3.358-7.5 7.5s3.357 7.5 7.5 7.5z"/><path d="m323.865 166.393h-212.721c-4.143 0-7.5 3.358-7.5 7.5s3.357 7.5 7.5 7.5h212.722c4.143 0 7.5-3.358 7.5-7.5s-3.358-7.5-7.501-7.5z"/><path d="m111.144 217.108h140.076c4.143 0 7.5-3.358 7.5-7.5s-3.357-7.5-7.5-7.5h-140.076c-4.143 0-7.5 3.358-7.5 7.5s3.357 7.5 7.5 7.5z"/><path d="m323.865 202.108h-43.801c-4.143 0-7.5 3.358-7.5 7.5s3.357 7.5 7.5 7.5h43.801c4.143 0 7.5-3.358 7.5-7.5s-3.357-7.5-7.5-7.5z"/><path d="m323.865 237.824h-212.721c-4.143 0-7.5 3.358-7.5 7.5s3.357 7.5 7.5 7.5h212.722c4.143 0 7.5-3.358 7.5-7.5s-3.358-7.5-7.501-7.5z"/><path d="m111.144 288.54h27.786c4.143 0 7.5-3.358 7.5-7.5s-3.357-7.5-7.5-7.5h-27.786c-4.143 0-7.5 3.358-7.5 7.5s3.357 7.5 7.5 7.5z"/><path d="m323.865 273.54h-156.09c-4.143 0-7.5 3.358-7.5 7.5s3.357 7.5 7.5 7.5h156.09c4.143 0 7.5-3.358 7.5-7.5s-3.357-7.5-7.5-7.5z"/><path d="m206.83 309.256h-95.687c-4.143 0-7.5 3.358-7.5 7.5s3.357 7.5 7.5 7.5h95.687c4.143 0 7.5-3.358 7.5-7.5s-3.357-7.5-7.5-7.5z"/><path d="m111.144 359.972h79.359c4.143 0 7.5-3.358 7.5-7.5s-3.357-7.5-7.5-7.5h-79.359c-4.143 0-7.5 3.358-7.5 7.5s3.357 7.5 7.5 7.5z"/><path d="m200.707 416.403h-89.563c-4.143 0-7.5 3.358-7.5 7.5s3.357 7.5 7.5 7.5h89.563c4.143 0 7.5-3.358 7.5-7.5s-3.357-7.5-7.5-7.5z"/><path d="m200.707 452.119h-89.563c-4.143 0-7.5 3.358-7.5 7.5s3.357 7.5 7.5 7.5h89.563c4.143 0 7.5-3.358 7.5-7.5s-3.357-7.5-7.5-7.5z"/></g><g><g><path d="m271.982 417.451c-10.854 0-20.916-3.429-29.184-9.246v58.974c0 2.671 2.863 4.364 5.204 3.077l22.288-12.259c1.054-.579 2.331-.579 3.385 0l22.288 12.259c2.34 1.287 5.204-.406 5.204-3.077v-58.975c-8.268 5.818-18.331 9.247-29.185 9.247z" fill="#fd8087"/></g><g><g><path d="m279.713 416.858v44.461l16.249 8.937c2.34 1.287 5.204-.406 5.204-3.077v-58.975c-6.265 4.409-13.562 7.442-21.453 8.654z" fill="#fe646f"/></g></g><g><circle cx="271.982" cy="366.598" fill="#ffe177" r="51.883"/></g><g><path d="m271.982 387.082c-11.295 0-20.484-9.188-20.484-20.483s9.189-20.484 20.484-20.484 20.483 9.189 20.483 20.484-9.188 20.483-20.483 20.483z" fill="#ffd15b"/></g><g><path d="m271.983 394.582c-15.431 0-27.984-12.553-27.984-27.983s12.554-27.984 27.984-27.984 27.982 12.554 27.982 27.984c0 15.429-12.553 27.983-27.982 27.983zm0-40.967c-7.159 0-12.984 5.825-12.984 12.984s5.825 12.983 12.984 12.983c7.158 0 12.982-5.824 12.982-12.983 0-7.16-5.824-12.984-12.982-12.984z" fill="#ffc344"/></g></g></g></g></g><g><path d="m421.606 33.418h30.77v-18c0-8.515-6.903-15.418-15.418-15.418s-15.418 6.903-15.418 15.418v18.007c.022 0 .043-.007.066-.007z" fill="#fd8087"/><path d="m436.583 15.418v18h15.793v-18c0-8.515-6.903-15.418-15.418-15.418-2.89 0-5.584.81-7.896 2.193 4.499 2.693 7.521 7.6 7.521 13.225z" fill="#fe646f"/><path d="m416.606 46.418v292.871c0 2.685.42 5.354 1.245 7.91l.323 1h37.568l.323-1c.825-2.555 1.245-5.224 1.245-7.91v-292.871z" fill="#01c0fa"/><path d="m438.713 46.418v292.871c0 2.685-.42 5.354-1.245 7.909l-.323 1h18.596l.323-1c.825-2.555 1.245-5.224 1.245-7.909v-292.871z" fill="#08a9f1"/><g><path d="m417.851 347.199 16.166 50.094c.921 2.855 4.961 2.855 5.882 0l16.166-50.094z" fill="#c8effe"/></g><g><path d="m427.659 377.594 6.357 19.699c.921 2.855 4.961 2.855 5.882 0l16.166-50.094h-18.596z" fill="#99e6fc"/></g><path d="m476.61 32.418h-55.003c-2.761 0-5 2.239-5 5v10h60.003c1.547 0 2.802 1.254 2.802 2.802v103.644c0 4.107 3.165 7.688 7.27 7.811 4.247.127 7.73-3.278 7.73-7.497v-103.958c-.001-9.831-7.971-17.802-17.802-17.802z" fill="#99e6fc"/></g></g></svg>