<svg id="Layer_1" enable-background="new 0 0 74 74" height="512" viewBox="0 0 74 74" width="512" xmlns="http://www.w3.org/2000/svg"><g><g><circle cx="37" cy="37" fill="#34495e" r="32"/></g><g><path d="m36.99 67c-16.54 0-30-13.46-30-30s13.46-30 30-30c16.55 0 30.02 13.46 30.02 30s-13.47 30-30.02 30z" fill="#ecf0f1"/></g><g><g><path d="m39.13 16.18h-1.33c-.28 0-.5-.22-.5-.5s.22-.5.5-.5h1.33c.28 0 .5.22.5.5s-.22.5-.5.5z" fill="#34495e"/></g><g><path d="m27.4 12.97h-1.33c-.28 0-.5-.22-.5-.5s.22-.5.5-.5h1.33c.28 0 .5.22.5.5s-.22.5-.5.5z" fill="#34495e"/></g><g><path d="m62.24 28.35h-3.31c-.28 0-.5-.22-.5-.5s.22-.5.5-.5h3.31c.28 0 .5.22.5.5s-.22.5-.5.5z" fill="#34495e"/></g><g><path d="m52.24 10.89h-4.08c-.28 0-.5-.22-.5-.5s.22-.5.5-.5h4.08c.28 0 .5.22.5.5s-.22.5-.5.5z" fill="#34495e"/></g><g><path d="m67.56 40.95h-3.02c-.28 0-.5-.22-.5-.5s.22-.5.5-.5h3.02c.28 0 .5.22.5.5s-.23.5-.5.5z" fill="#34495e"/></g><g><path d="m10.48 29.29h-3.49c-.28 0-.5-.22-.5-.5s.22-.5.5-.5h3.49c.28 0 .5.22.5.5s-.22.5-.5.5z" fill="#34495e"/></g><g><path d="m15.59 43.44h-4.36c-.28 0-.5-.22-.5-.5s.22-.5.5-.5h4.36c.28 0 .5.22.5.5s-.22.5-.5.5z" fill="#34495e"/></g></g><g><g><path d="m13.41 55.51c5.5 6.99 14.02 11.49 23.58 11.49 9.57 0 18.09-4.5 23.6-11.49z" fill="#ffe200"/></g><g><g><path d="m41.56 63.86h-1.97c-.28 0-.5-.22-.5-.5s.22-.5.5-.5h1.97c.28 0 .5.22.5.5s-.22.5-.5.5z" fill="#ffb806"/></g><g><path d="m30.45 62.48h-1.33c-.28 0-.5-.22-.5-.5s.22-.5.5-.5h1.33c.28 0 .5.22.5.5s-.22.5-.5.5z" fill="#ffb806"/></g><g><path d="m51.51 60.91h-1.77c-.28 0-.5-.22-.5-.5s.22-.5.5-.5h1.77c.28 0 .5.22.5.5s-.23.5-.5.5z" fill="#ffb806"/></g><g><path d="m47.77 58.57h-1.77c-.28 0-.5-.22-.5-.5s.22-.5.5-.5h1.77c.28 0 .5.22.5.5s-.22.5-.5.5z" fill="#ffb806"/></g><g><path d="m37.93 59.39h-3.48c-.28 0-.5-.22-.5-.5s.22-.5.5-.5h3.48c.28 0 .5.22.5.5s-.23.5-.5.5z" fill="#ffb806"/></g><g><path d="m23.82 58.42h-1.33c-.28 0-.5-.22-.5-.5s.22-.5.5-.5h1.33c.28 0 .5.22.5.5s-.23.5-.5.5z" fill="#ffb806"/></g></g><g opacity=".1"><path d="m60.59 55.52c-5.5 6.98-14.03 11.48-23.59 11.48-5.26 0-10.21-1.36-14.52-3.75 4.73-.26 9.6.04 14.3-.6 7-.95 13.51-3.97 19.84-7.13z"/></g><g><path d="m61.61 56.01h-49.22c-.28 0-.5-.22-.5-.5s.22-.5.5-.5h49.22c.28 0 .5.22.5.5s-.22.5-.5.5z" fill="#34495e"/></g></g><g><g><g><path d="m54.53 51.78v-34.33c-11.86 1.86-23.21 1.86-35.06 0v34.33z" fill="#eda87a"/></g><g><path d="m54.53 36.85v-19.4c-11.86 1.86-23.21 1.86-35.06 0v19.39h35.06z" fill="#eda87a"/></g><g opacity=".1"><path d="m54.53 20.69v16.16h-35.06v-7.48c6.3 1.42 13 .85 19.19-1.04 5.64-1.7 10.91-4.45 15.87-7.64z"/></g><g opacity=".1"><path d="m54.53 34.06v17.71h-35.06v-4.15c3.22.24 6.44.38 9.66.21 4.65-.26 9.32-1.21 13.45-3.38 4.7-2.47 8.43-6.37 11.95-10.39z"/></g><g><path d="m54.53 17.45v2.89c-11.85 1.85-23.21 1.85-35.06 0v-2.89c11.85 1.86 23.21 1.86 35.06 0z" fill="#fcc397"/></g><g opacity=".1"><path d="m54.53 17.45v2.89c-7.01 1.1-13.86 1.54-20.74 1.34 1.79-.85 3.53-1.8 5.21-2.85 5.14-.1 10.29-.55 15.53-1.38z"/></g><g><path d="m37 22.22c-5.84 0-11.68-.46-17.61-1.39-.27-.04-.46-.3-.42-.57s.29-.46.57-.42c11.75 1.83 23.16 1.83 34.91 0 .28-.04.53.15.57.42s-.14.53-.42.57c-5.91.93-11.76 1.39-17.6 1.39z" fill="#34495e"/></g><g><path d="m54.53 52.28h-35.06c-.28 0-.5-.22-.5-.5v-34.33c0-.15.06-.28.17-.38.11-.09.26-.14.4-.11 11.75 1.84 23.17 1.84 34.91 0 .14-.02.29.02.4.11.11.1.17.23.17.38v34.33c.01.28-.21.5-.49.5zm-34.56-1h34.06v-33.24c-11.45 1.74-22.61 1.74-34.06 0z" fill="#34495e"/></g></g><g><g><g><path d="m32.54 25.68v9.42h-4.29v-10.04z" fill="#808b8d"/></g><g><path d="m32.54 35.6h-4.29c-.28 0-.5-.22-.5-.5v-10.04c0-.15.06-.28.17-.38.11-.09.25-.14.4-.12l4.29.62c.25.04.43.25.43.5v9.42c0 .27-.22.5-.5.5zm-3.79-1h3.29v-8.49l-3.29-.47z" fill="#34495e"/></g></g><g><g><path d="m21.65 26.24v8.39h4.29v-7.64c0-1.62-1.56-2.79-3.12-2.33-.69.2-1.17.85-1.17 1.58z" fill="#808b8d"/></g><g><path d="m25.94 35.13h-4.29c-.28 0-.5-.22-.5-.5v-8.4c0-.94.63-1.79 1.54-2.06.89-.26 1.83-.1 2.58.46s1.17 1.41 1.17 2.35v7.64c0 .29-.22.51-.5.51zm-3.79-1h3.29v-7.14c0-.61-.28-1.18-.77-1.54-.49-.37-1.11-.48-1.7-.31-.48.14-.82.59-.82 1.1z" fill="#34495e"/></g></g><g><g><path d="m41.46 25.68v9.42h4.29v-10.04z" fill="#808b8d"/></g><g><path d="m45.75 35.6h-4.29c-.28 0-.5-.22-.5-.5v-9.42c0-.25.18-.46.43-.5l4.29-.62c.15-.02.29.02.4.12s.17.23.17.38v10.04c0 .27-.22.5-.5.5zm-3.79-1h3.29v-8.96l-3.29.47z" fill="#34495e"/></g></g><g><g><path d="m52.35 26.24v8.39h-4.29v-7.64c0-1.62 1.56-2.79 3.12-2.33.69.2 1.17.85 1.17 1.58z" fill="#808b8d"/></g><g><path d="m52.35 35.13h-4.29c-.28 0-.5-.22-.5-.5v-7.64c0-.93.43-1.79 1.17-2.35.75-.56 1.69-.73 2.58-.46.91.27 1.54 1.11 1.54 2.06v8.4c0 .27-.22.49-.5.49zm-3.79-1h3.29v-7.9c0-.5-.34-.96-.82-1.1-.59-.17-1.21-.06-1.7.31s-.77.93-.77 1.54z" fill="#34495e"/></g></g><g><g><path d="m39.15 27.46v8.86h-4.29v-8.86c0-1.19.96-2.15 2.15-2.15 1.18 0 2.14.96 2.14 2.15z" fill="#808b8d"/></g><g><path d="m39.15 36.82h-4.29c-.28 0-.5-.22-.5-.5v-8.86c0-1.46 1.19-2.65 2.65-2.65s2.65 1.19 2.65 2.65v8.86c-.01.28-.24.5-.51.5zm-3.8-1h3.29v-8.36c0-.91-.74-1.65-1.65-1.65s-1.65.74-1.65 1.65v8.36z" fill="#34495e"/></g></g></g><g><g><g><path d="m32.54 51.78v-7.61l-4.29-.62v8.23z" fill="#808b8d"/></g><g><path d="m32.54 52.28h-4.29c-.28 0-.5-.22-.5-.5v-8.23c0-.15.06-.28.17-.38.11-.09.25-.14.4-.12l4.29.62c.25.04.43.25.43.5v7.61c0 .28-.22.5-.5.5zm-3.79-1h3.29v-6.68l-3.29-.47z" fill="#34495e"/></g></g><g><g><path d="m25.94 51.78v-6.3c0-1.62-1.56-2.79-3.12-2.33-.7.21-1.18.85-1.18 1.58v7.05z" fill="#808b8d"/></g><g><path d="m25.94 52.28h-4.29c-.28 0-.5-.22-.5-.5v-7.05c0-.94.63-1.79 1.54-2.06.89-.27 1.83-.09 2.58.46.75.56 1.17 1.41 1.17 2.35v6.3c0 .28-.22.5-.5.5zm-3.79-1h3.29v-5.8c0-.61-.28-1.18-.77-1.54s-1.11-.48-1.7-.3c-.48.14-.82.59-.82 1.1z" fill="#34495e"/></g></g><g><g><path d="m45.75 51.78v-8.23l-4.29.62v7.61z" fill="#808b8d"/></g><g><path d="m45.75 52.28h-4.29c-.28 0-.5-.22-.5-.5v-7.61c0-.25.18-.46.43-.5l4.29-.62c.15-.02.29.02.4.12s.17.23.17.38v8.23c0 .28-.22.5-.5.5zm-3.79-1h3.29v-7.15l-3.29.47z" fill="#34495e"/></g></g><g><g><path d="m52.35 51.78v-7.05c0-.73-.48-1.37-1.18-1.58-1.56-.46-3.11.71-3.11 2.33v6.3z" fill="#808b8d"/></g><g><path d="m52.35 52.28h-4.29c-.28 0-.5-.22-.5-.5v-6.3c0-.93.43-1.79 1.17-2.35.75-.56 1.69-.73 2.58-.46.91.27 1.54 1.11 1.54 2.06v7.05c0 .28-.22.5-.5.5zm-3.79-1h3.29v-6.55c0-.5-.34-.96-.82-1.1-.59-.17-1.21-.06-1.7.31s-.77.93-.77 1.54z" fill="#34495e"/></g></g><g><g><path d="m39.15 51.78v-5.83c0-1.19-.96-2.15-2.15-2.15-1.19 0-2.15.96-2.15 2.15v5.83z" fill="#808b8d"/></g><g><path d="m39.15 52.28h-4.29c-.28 0-.5-.22-.5-.5v-5.83c0-1.46 1.19-2.65 2.65-2.65s2.65 1.19 2.65 2.65v5.83c-.01.28-.24.5-.51.5zm-3.8-1h3.29v-5.33c0-.91-.74-1.65-1.65-1.65s-1.65.74-1.65 1.65v5.33z" fill="#34495e"/></g></g></g><g><g><path d="m11.51 51.78h50.99v3.73h-50.99z" fill="#ffd6c0"/></g><g><path d="m62.49 56.02h-50.98c-.28 0-.5-.22-.5-.5v-3.73c0-.28.22-.5.5-.5h50.99c.28 0 .5.22.5.5v3.73c-.01.27-.23.5-.51.5zm-50.48-1h49.99v-2.73h-49.99z" fill="#34495e"/></g><g><path d="m52.03 55.52h-12.42l2.59-3.74h12.42z" fill="#fcc397"/></g><g><path d="m52.03 56.02h-12.42c-.19 0-.36-.1-.44-.27-.09-.17-.07-.36.03-.52l2.59-3.73c.09-.13.25-.21.41-.21h12.42c.19 0 .36.1.44.27.09.17.07.36-.03.52l-2.59 3.73c-.09.13-.25.21-.41.21zm-11.47-1h11.2l1.9-2.73h-11.2z" fill="#34495e"/></g><g><g><path d="m31.86 55.52h-4.92l2.59-3.74h4.92z" fill="#fcc397"/></g><g><path d="m31.86 56.02h-4.92c-.19 0-.36-.1-.44-.27-.09-.17-.07-.36.03-.52l2.59-3.73c.09-.13.25-.21.41-.21h4.92c.19 0 .36.1.44.27.09.17.07.36-.03.52l-2.59 3.73c-.09.13-.25.21-.41.21zm-3.97-1h3.7l1.9-2.73h-3.7z" fill="#34495e"/></g></g><g><path d="m18.62 55.52h-7.11v-3.74h9.7z" fill="#fcc397"/></g><g><path d="m18.62 56.02h-7.12c-.28 0-.5-.22-.5-.5v-3.73c0-.28.22-.5.5-.5h9.71c.19 0 .36.1.44.27.09.17.07.36-.03.52l-2.59 3.73c-.09.13-.24.21-.41.21zm-6.61-1h6.35l1.9-2.73h-8.25z" fill="#34495e"/></g></g><g><g><g><path d="m14.36 20.47h5.11v27.52h-5.11z" fill="#fcc397"/></g><g opacity=".1"><path d="m19.47 34.95v13.04h-5.11v-8.06c1.87-1.48 3.58-3.16 5.11-4.98z"/></g><g><path d="m19.47 48.49h-5.11c-.28 0-.5-.22-.5-.5v-27.52c0-.28.22-.5.5-.5h5.11c.28 0 .5.22.5.5v27.52c0 .27-.23.5-.5.5zm-4.61-1h4.11v-26.52h-4.11z" fill="#34495e"/></g><g><path d="m19.47 47.99h-5.11l-1.25 3.79h7.6z" fill="#ffd6c0"/></g><g opacity=".1"><path d="m20.71 51.79h-6.49c1.5-1.08 2.86-2.35 4.02-3.8h1.23z"/></g><g><path d="m20.71 52.28h-7.6c-.16 0-.31-.08-.4-.21s-.12-.3-.07-.45l1.25-3.8c.07-.21.26-.34.48-.34h5.11c.22 0 .41.14.48.34l1.25 3.8c.05.15.02.32-.07.45-.12.14-.27.21-.43.21zm-6.91-1h6.22l-.92-2.8h-4.38z" fill="#34495e"/></g><g><path d="m14.36 17.55h5.11l1.25-3.79h-7.6z" fill="#fcc397"/></g><g opacity=".1"><path d="m20.72 13.75-1.24 3.8h-5.12l-.22-.66c2.36-.38 4.61-1.49 6.35-3.14z"/></g><g><path d="m19.47 18.05h-5.11c-.22 0-.41-.14-.48-.34l-1.25-3.8c-.05-.15-.02-.32.07-.45s.24-.21.4-.21h7.6c.16 0 .31.08.4.21s.12.3.07.45l-1.25 3.8c-.04.2-.23.34-.45.34zm-4.74-1h4.38l.92-2.8h-6.22z" fill="#34495e"/></g><g><path d="m13.11 17.56h7.6v2.91h-7.6z" fill="#ffd6c0"/></g><g opacity=".1"><path d="m20.71 17.55v2.91h-5.96c1.2-.85 2.31-1.82 3.29-2.91z"/></g><g><path d="m20.72 20.97h-7.6c-.28 0-.5-.22-.5-.5v-2.91c0-.28.22-.5.5-.5h7.6c.28 0 .5.22.5.5v2.91c0 .28-.23.5-.5.5zm-7.11-1h6.6v-1.91h-6.6z" fill="#34495e"/></g></g><g><g><path d="m54.53 20.47h5.11v27.52h-5.11z" fill="#fcc397"/></g><g opacity=".1"><path d="m59.64 34.95v13.04h-5.11v-8.06c1.88-1.48 3.59-3.16 5.11-4.98z"/></g><g><path d="m59.64 48.49h-5.11c-.28 0-.5-.22-.5-.5v-27.52c0-.28.22-.5.5-.5h5.11c.28 0 .5.22.5.5v27.52c0 .27-.22.5-.5.5zm-4.61-1h4.11v-26.52h-4.11z" fill="#34495e"/></g><g><path d="m59.64 47.99h-5.11l-1.24 3.79h7.6z" fill="#ffd6c0"/></g><g opacity=".1"><path d="m60.88 51.79h-6.49c1.5-1.08 2.86-2.35 4.02-3.8h1.23z"/></g><g><path d="m60.89 52.28h-7.6c-.16 0-.31-.08-.4-.21s-.12-.3-.07-.45l1.25-3.8c.07-.21.26-.34.48-.34h5.11c.22 0 .41.14.48.34l1.25 3.8c.05.15.02.32-.07.45-.12.14-.27.21-.43.21zm-6.91-1h6.22l-.92-2.8h-4.38z" fill="#34495e"/></g><g><path d="m54.54 17.55h5.11l1.24-3.79h-7.6z" fill="#fcc397"/></g><g opacity=".1"><path d="m60.89 13.75-1.24 3.8h-5.12l-.22-.66c2.36-.38 4.61-1.49 6.35-3.14z"/></g><g><path d="m59.65 18.05h-5.11c-.22 0-.41-.14-.48-.34l-1.25-3.8c-.05-.15-.02-.32.07-.45s.24-.21.4-.21h7.6c.16 0 .31.08.4.21s.12.3.07.45l-1.25 3.8c-.05.2-.24.34-.45.34zm-4.75-1h4.38l.92-2.8h-6.22z" fill="#34495e"/></g><g><path d="m53.28 17.56h7.6v2.91h-7.6z" fill="#ffd6c0"/></g><g opacity=".1"><path d="m60.89 17.55v2.91h-5.96c1.2-.85 2.31-1.82 3.29-2.91z"/></g><g><path d="m60.89 20.97h-7.6c-.28 0-.5-.22-.5-.5v-2.91c0-.28.22-.5.5-.5h7.6c.28 0 .5.22.5.5v2.91c0 .28-.23.5-.5.5zm-7.11-1h6.6v-1.91h-6.6z" fill="#34495e"/></g></g></g><g><g><path d="m50.74 33.16v2.89c-8.17 1.82-17.74 1.82-25.92 0l1.39-2.89c8.17 1.83 16.35 1.83 24.53 0z" fill="#fcc397"/></g><g opacity=".1"><path d="m50.73 33.15v2.89c-1.03.23-2.07.44-3.13.6-2.06.33-4.18.56-6.34.67 1.44-.98 2.83-2.06 4.12-3.23 1.79-.21 3.57-.53 5.35-.93z"/></g><g><path d="m50.74 36.05.22 2.39c-8.17 1.82-17.96 2.42-26.14.59v-2.98c8.17 1.83 17.74 1.83 25.92 0z" fill="#fcc397"/></g><g opacity=".1"><path d="m50.96 38.44c-4.52 1-9.52 1.64-14.48 1.69 1.65-.83 3.24-1.76 4.76-2.8 2.15-.11 4.29-.34 6.36-.68 1.06-.17 2.1-.37 3.13-.6z"/></g><g><g><path d="m38.47 35.03c-4.13 0-8.27-.46-12.37-1.38-.27-.06-.44-.33-.38-.6s.33-.44.6-.38c8.07 1.81 16.25 1.81 24.31 0 .27-.06.54.11.6.38s-.11.54-.38.6c-4.11.92-8.24 1.38-12.38 1.38z" fill="#34495e"/></g><g><path d="m37.78 37.92c-4.46 0-8.92-.46-13.07-1.39-.27-.06-.44-.33-.38-.6s.33-.44.6-.38c8.05 1.79 17.65 1.79 25.7 0 .27-.06.54.11.6.38s-.11.54-.38.6c-4.16.93-8.61 1.39-13.07 1.39z" fill="#34495e"/></g></g><g><path d="m37.78 37.93c-4.46 0-8.92-.47-13.07-1.4-.27-.06-.44-.33-.38-.6s.33-.44.6-.38c8.04 1.8 17.65 1.8 25.7 0 .27-.06.54.11.6.38s-.11.54-.38.6c-4.16.94-8.61 1.4-13.07 1.4z" fill="#34495e"/></g><g><path d="m35.8 40.64c-3.96 0-7.73-.37-11.09-1.12-.27-.06-.44-.33-.38-.6s.33-.44.6-.38c7.39 1.65 16.84 1.43 25.92-.59.27-.06.54.11.6.38s-.11.54-.38.6c-5.11 1.13-10.34 1.71-15.27 1.71z" fill="#34495e"/></g><g><g><path d="m26.21 33.16v1.93l-1.39 1.34v2.6h-5.35v-5.87z" fill="#ffd6c0"/></g><g><path d="m49.35 38.51v-1.93l1.39-1.35v-2.07h3.79v5.35z" fill="#ffd6c0"/></g></g><g><g><path d="m24.82 39.53h-5.35c-.28 0-.5-.22-.5-.5v-5.87c0-.28.22-.5.5-.5h6.74c.28 0 .5.22.5.5v1.93c0 .14-.05.26-.15.36l-1.23 1.2v2.38c-.01.27-.23.5-.51.5zm-4.85-1h4.35v-2.09c0-.14.05-.26.15-.36l1.23-1.2v-1.22h-5.74v4.87z" fill="#34495e"/></g><g><path d="m54.53 39.01h-5.18c-.28 0-.5-.22-.5-.5v-1.93c0-.14.05-.26.15-.36l1.23-1.2v-1.86c0-.28.22-.5.5-.5h3.8c.28 0 .5.22.5.5v5.35c0 .28-.22.5-.5.5zm-4.68-1h4.18v-4.35h-2.8v1.57c0 .14-.05.26-.15.36l-1.23 1.2z" fill="#34495e"/></g></g></g></g></g></svg>