<svg id="Layer_1" viewBox="0 0 512 512" xmlns="http://www.w3.org/2000/svg" data-name="Layer 1"><g fill-rule="evenodd"><path d="m411.979 302.513q-5.77 5.775-11.5 11.58-5.727 5.79-11.48 11.57a14.172 14.172 0 0 1 -20 0c-1.907-1.92-3.84-4.089-5.7-6.19s-3.8-4.28-5.71-6.19a7 7 0 1 1 9.9-9.9c2.212 2.21 4.279 4.541 6.279 6.8 1.81 2.04 3.52 3.96 5.13 5.58a.182.182 0 0 0 .2 0q5.736-5.745 11.43-11.509 5.762-5.838 11.551-11.636a7 7 0 1 1 9.9 9.895zm-77.858-135.4a7 7 0 0 1 -7 7h-108.331a7 7 0 1 1 0-14h108.332a7 7 0 0 1 7 7zm0 39.022a7 7 0 0 1 -7 7h-108.329a7 7 0 1 1 0-14h108.33a7 7 0 0 1 7 7zm130.13 191.787a7.006 7.006 0 0 0 -5.922 5.931l-2.938 20.29-41.238-41.37a35.392 35.392 0 0 1 12.256-2.07h8.642a17.124 17.124 0 0 0 17.108-17.1v-1.44l32.449 32.82-20.358 2.939zm-72.612-16.822a47.6 47.6 0 0 1 34.772-14.4h8.638a3.152 3.152 0 0 0 3.111-3.1v-8.65a47.591 47.591 0 0 1 14.4-34.77l6.109-6.11a3.148 3.148 0 0 0 0-4.39l-6.113-6.12a47.546 47.546 0 0 1 -14.4-34.763v-8.645a3.154 3.154 0 0 0 -3.108-3.107h-8.648a47.567 47.567 0 0 1 -34.76-14.4l-6.11-6.111a3.151 3.151 0 0 0 -4.4 0l-6.113 6.113a47.58 47.58 0 0 1 -34.77 14.4h-8.64a3.146 3.146 0 0 0 -3.109 3.107v8.646a47.584 47.584 0 0 1 -14.4 34.763l-6.121 6.12a3.15 3.15 0 0 0 0 4.39l6.119 6.11a47.622 47.622 0 0 1 14.4 34.77v8.65a3.145 3.145 0 0 0 3.11 3.1h8.64a47.621 47.621 0 0 1 34.772 14.4l6.108 6.12a3.163 3.163 0 0 0 4.4 0l6.106-6.12zm-82.8 37.8-2.929-20.24a6.987 6.987 0 0 0 -5.92-5.919l-20.3-2.941 34.807-34.73v8.53a17.119 17.119 0 0 0 17.109 17.1h8.64a38.142 38.142 0 0 1 5.83.44l-37.24 37.76zm-199.867-75.99h-.013a4.429 4.429 0 0 1 -3.14-1.311 4.49 4.49 0 0 1 -1.33-3.189v-83.18l14.031-8.1v42.97a6.994 6.994 0 0 0 6.608 6.986 25.71 25.71 0 0 1 24 22.151 7 7 0 0 0 6.93 6.059h143.342l4.8 4.79a36.177 36.177 0 0 1 6.6 8.911l-3.508 3.488-198.319.431zm-24.6-99.156c4.419 4.372 7.763 2.446 9.77 1.287l51.158-29.533c2-1.156 5.343-3.089 3.763-9.1l-64.693 37.349zm-28.377.218-9.495-16.438a6.991 6.991 0 0 1 2.546-9.507l95.284-55.009a6.834 6.834 0 0 1 3.436-.922 7.156 7.156 0 0 1 1.84.243 6.909 6.909 0 0 1 4.23 3.228l9.493 16.439-107.336 61.969zm19.836-69.534a6.978 6.978 0 0 1 .45 6.825 22.5 22.5 0 0 0 -1.849 5.944l31.649-18.276a22.336 22.336 0 0 0 -6.11-1.368 7 7 0 0 1 -5.48-3.418c-6.87-11.617-10.807-26.193-14.62-40.286-4.75-17.555-9.66-35.708-19.05-39.585-5.03-2.078-12.359-.373-21.78 5.065-9.85 5.682-15.207 11.52-15.94 17.355-1.42 11.261 13.2 25.55 27.34 39.37 9.37 9.157 19.063 18.623 25.39 28.374zm255.78 68.607h8.64a33.6 33.6 0 0 0 24.872-10.3l6.108-6.11a17.124 17.124 0 0 1 24.19 0l6.12 6.113c.29.292.59.568.882.847v-88.494a39.752 39.752 0 0 1 -27.43-26.087h-212.8a39.92 39.92 0 0 1 -29.669 26.19v8.467l4.809-2.778a21 21 0 0 1 28.631 7.671l12.989 22.5a7 7 0 0 1 -2.558 9.562l-14.972 8.643c6.57 16.864-3.879 25.33-9.117 28.358l-19.786 11.423v44.991a39.769 39.769 0 0 1 29.17 27.252h131.43a16.909 16.909 0 0 1 4.97-11.51l2.934-2.941h-109.095a7 7 0 1 1 0-14h119.78a34.709 34.709 0 0 0 2.791-14.042v-8.645a18.152 18.152 0 0 1 .141-2.113h-156.962a7 7 0 0 1 0-14h168.239a16.935 16.935 0 0 1 5.68-1zm-222.621-155.656a4.559 4.559 0 0 0 -4.5 4.5v61.335c.15.3.293.6.45.9a36.555 36.555 0 0 1 13.582 5.567v-20.69a7 7 0 0 1 6.8-7 25.765 25.765 0 0 0 24.56-21.2 7 7 0 0 1 6.892-5.788h223.707a7 7 0 0 1 6.911 5.883 25.691 25.691 0 0 0 22.74 21.431 7 7 0 0 1 6.292 6.963v102.422a36.341 36.341 0 0 0 9.983 1.334h6.21v-151.159a4.558 4.558 0 0 0 -4.5-4.5zm391.09 303.324-46.269-46.78a34.15 34.15 0 0 1 8.648-13.85l6.112-6.11a17.123 17.123 0 0 0 0-24.19l-6.109-6.117a33.6 33.6 0 0 1 -10.3-24.866v-8.645a17.048 17.048 0 0 0 -5.551-12.574v-155.692a18.522 18.522 0 0 0 -18.5-18.5h-319.121a18.525 18.525 0 0 0 -18.5 18.5v17.844c-5.08-17.628-11.131-32.946-24.331-38.4-9.387-3.878-20.55-1.954-34.12 5.881-14.039 8.105-21.51 17.177-22.83 27.736-2.288 18.16 14.86 34.92 31.44 51.129 7.811 7.63 15.859 15.494 21.41 23.058a36.6 36.6 0 0 0 -1.67 16.176l-18.337 10.587a21 21 0 0 0 -7.673 28.634l12.992 22.5a6.994 6.994 0 0 0 9.558 2.563l15.12-8.731c5.162 6.3 11.28 9.579 17.74 9.579.233 0 .47-.018.7-.025v77.99a18.52 18.52 0 0 0 18.469 18.5h.042l184.23-.4-29.039 28.98a10.028 10.028 0 0 0 5.649 17.03l22.962 3.319 3.33 22.971a9.972 9.972 0 0 0 6.758 8.08 10.145 10.145 0 0 0 3.2.521 9.882 9.882 0 0 0 7.09-2.98l46.973-47.631a38.524 38.524 0 0 1 4.966 4.2l6.113 6.12a17.125 17.125 0 0 0 24.187 0l6.12-6.12c.171-.17.36-.339.529-.51l49.012 49.15a10.028 10.028 0 0 0 17.029-5.65l3.324-22.96 22.967-3.33a10.028 10.028 0 0 0 5.679-16.99zm-116.748-37.74a41.1 41.1 0 1 0 -41.1-41.1 41.142 41.142 0 0 0 41.1 41.1zm0-96.195a55.1 55.1 0 1 0 55.1 55.095 55.166 55.166 0 0 0 -55.1-55.095z" fill="#242222"/><path d="m55.993 243.975 107.339-61.969-9.493-16.439a6.909 6.909 0 0 0 -4.23-3.228 7.156 7.156 0 0 0 -1.84-.243 6.834 6.834 0 0 0 -3.436.922l-95.284 55.009a6.991 6.991 0 0 0 -2.546 9.507z" fill="#5d689e"/><path d="m149.062 206.407-64.692 37.35c4.419 4.372 7.763 2.446 9.77 1.287l51.16-29.536c2-1.156 5.342-3.089 3.762-9.101z" fill="#ffe177"/><path d="m74.43 187.21 31.649-18.276a22.336 22.336 0 0 0 -6.11-1.368 7 7 0 0 1 -5.48-3.418c-6.87-11.617-10.807-26.193-14.62-40.286-4.75-17.555-9.66-35.708-19.05-39.585-5.03-2.078-12.359-.373-21.78 5.065-9.85 5.682-15.207 11.52-15.94 17.355-1.42 11.261 13.2 25.55 27.34 39.37 9.37 9.157 19.063 18.623 25.39 28.374a6.978 6.978 0 0 1 .45 6.825 22.5 22.5 0 0 0 -1.849 5.944z" fill="#ffe177"/><path d="m153.229 148.816a20.809 20.809 0 0 1 12.731 9.749l12.989 22.5a7 7 0 0 1 -2.558 9.562l-14.972 8.643c6.57 16.864-3.879 25.33-9.117 28.358l-19.782 11.422v44.991a39.769 39.769 0 0 1 29.17 27.252h131.43a16.909 16.909 0 0 1 4.97-11.51l2.934-2.941h-109.095a7 7 0 1 1 0-14h119.78a34.709 34.709 0 0 0 2.791-14.042v-8.645a18.152 18.152 0 0 1 .141-2.113h-156.962a7 7 0 0 1 0-14h168.239a16.935 16.935 0 0 1 5.68-1h8.65a33.6 33.6 0 0 0 24.872-10.3l6.108-6.11a17.124 17.124 0 0 1 24.19 0l6.12 6.113c.29.292.59.568.882.847v-88.494a39.752 39.752 0 0 1 -27.43-26.087h-212.8a39.92 39.92 0 0 1 -29.669 26.19v8.467l4.809-2.778a20.8 20.8 0 0 1 15.9-2.078zm65.56 11.3h108.333a7 7 0 0 1 0 14h-108.332a7 7 0 1 1 0-14zm0 39.022h108.333a7 7 0 0 1 0 14h-108.329a7 7 0 1 1 0-14z" fill="#eaf6ff"/><path d="m125.319 132a25.765 25.765 0 0 0 24.56-21.2 7 7 0 0 1 6.892-5.788h223.707a7 7 0 0 1 6.911 5.883 25.691 25.691 0 0 0 22.74 21.431 7 7 0 0 1 6.292 6.963v102.422a36.341 36.341 0 0 0 9.983 1.334h6.21v-151.159a4.558 4.558 0 0 0 -4.5-4.5h-319.124a4.559 4.559 0 0 0 -4.5 4.5v61.335c.15.3.293.6.45.9a36.555 36.555 0 0 1 13.582 5.567v-20.69a7 7 0 0 1 6.797-6.998z" fill="#b5dbfd"/><path d="m149.129 319.234a25.71 25.71 0 0 0 -24-22.151 6.994 6.994 0 0 1 -6.608-6.986v-42.963l-14.031 8.1v83.18a4.49 4.49 0 0 0 1.33 3.189 4.429 4.429 0 0 0 3.14 1.311h.013l198.319-.431 3.508-3.488a36.177 36.177 0 0 0 -6.6-8.911l-4.8-4.79h-143.341a7 7 0 0 1 -6.93-6.06z" fill="#b5dbfd"/><path d="m328.5 268.8a47.584 47.584 0 0 1 -14.4 34.763l-6.121 6.12a3.15 3.15 0 0 0 0 4.39l6.119 6.11a47.622 47.622 0 0 1 14.4 34.77v8.65a3.145 3.145 0 0 0 3.11 3.1h8.64a47.621 47.621 0 0 1 34.772 14.4l6.108 6.12a3.163 3.163 0 0 0 4.4 0l6.106-6.12a47.6 47.6 0 0 1 34.772-14.4h8.638a3.152 3.152 0 0 0 3.111-3.1v-8.65a47.591 47.591 0 0 1 14.4-34.77l6.109-6.11a3.148 3.148 0 0 0 0-4.39l-6.113-6.12a47.546 47.546 0 0 1 -14.4-34.763v-8.645a3.154 3.154 0 0 0 -3.108-3.107h-8.643a47.567 47.567 0 0 1 -34.76-14.4l-6.11-6.111a3.151 3.151 0 0 0 -4.4 0l-6.113 6.113a47.58 47.58 0 0 1 -34.77 14.4h-8.64a3.146 3.146 0 0 0 -3.109 3.107v8.643zm-.27 43.073a55.1 55.1 0 1 1 55.1 55.1 55.163 55.163 0 0 1 -55.101-55.1z" fill="#ffe177"/><path d="m383.329 270.78a41.1 41.1 0 1 0 41.1 41.093 41.145 41.145 0 0 0 -41.1-41.093zm-25.74 32.6a7.009 7.009 0 0 1 9.9 0c2.212 2.21 4.279 4.541 6.279 6.8 1.81 2.04 3.52 3.96 5.13 5.58a.182.182 0 0 0 .2 0q5.736-5.745 11.43-11.509 5.762-5.838 11.551-11.636a7 7 0 1 1 9.9 9.895q-5.77 5.775-11.5 11.58-5.727 5.79-11.48 11.57a14.172 14.172 0 0 1 -20 0c-1.907-1.92-3.84-4.089-5.7-6.19s-3.8-4.28-5.71-6.19a7.009 7.009 0 0 1 0-9.897z" fill="#eceff1"/><g fill="#fb545c"><path d="m331.609 380.7a17.119 17.119 0 0 1 -17.109-17.1v-8.53l-34.807 34.73 20.3 2.941a6.987 6.987 0 0 1 5.92 5.919l2.929 20.24 37.24-37.76a38.142 38.142 0 0 0 -5.83-.44z"/><path d="m414.153 382.773 41.238 41.37 2.938-20.29a7.006 7.006 0 0 1 5.922-5.931l20.358-2.939-32.449-32.82v1.44a17.124 17.124 0 0 1 -17.108 17.1h-8.642a35.392 35.392 0 0 0 -12.257 2.07z"/></g></g></svg>