<svg id="Layer_1" enable-background="new 0 0 68 68" viewBox="0 0 68 68" xmlns="http://www.w3.org/2000/svg"><g><g><g><g><g><path d="m53.7845268 39.9851418c0 3.0583534-.5323448 5.9983215-1.5122643 8.7188301-2.0528603 5.7363739-6.0742226 10.5429535-11.2615471 13.5843964-3.8355255 2.2560196-8.3046684 3.5484161-13.0693741 3.5484161-.15201 0-.3042278 0-.4562378-.0086594-6.8936749-.117981-13.1283646-2.9313049-17.6989861-7.4342728-4.7480001-4.6885986-7.6962156-11.2108078-7.6962156-18.4087105 0-4.0718956.9376373-7.9160843 2.6103687-11.3456993 3.7427111-7.6372261 11.1349058-13.1541471 19.9040623-14.2778273 1.0898533-.1435537 2.2048702-.2194557 3.3370075-.2194557 14.2689563.0000001 25.8431865 11.565568 25.8431865 25.8429824z" fill="#d1dafe"/></g><g><path d="m53.7656288 40.7729492c-.0801964 2.777523-.5963631 5.4389915-1.4956894 7.9318085-2.0472832 5.7328262-6.0709991 10.539814-11.2609291 13.5842209-3.8368073 2.2520142-8.3056221 3.5521011-13.0680542 3.5521011-.1514816 0-.3027458 0-.45401-.0091248-6.8990402-.1243134-13.1304302-2.9374847-17.6970444-7.4419403-.9703951-.9523544-1.8605938-1.9851265-2.6619029-3.0800514 7.9318089 2.7683945 18.3381805 1.9581757 28.1036339-2.9466095 7.0326991-3.5342827 13.735702-7.3884773 18.5339961-11.5904045z" fill="#8a9bea"/></g><g><path d="m53.7834511 39.9896774c0 .258194 0 .5250778-.0178223.7832718.0089111.0091286.0089111.0091286 0 .0178223.0089111.0086899.0089111.0265121 0 .0356407-.0089111.3294792-.0267334.649826-.0534668.9793053-.0178185.2847061-.0356407.5607224-.0712852.8454285-.1334419 1.3531189-.3827248 2.6797256-.7208939 3.970253-.0801964.3116531-.1693039.6233101-.2671051.9258385-.1156197.3916359-.249279.7745781-.3829384 1.1575203-.1601753-.0891075-.3292618-.1603928-.4983482-.231678-1.0238571-.4094582-2.1453018-.4807434-3.2315331-.5785408-1.3439903-.1334457-2.6705971-.3294792-3.9880714-.5963631-.0089111 0-.0089111 0-.0089111 0-.8100052-.1603928-1.6110954-.3386078-2.4034958-.5429001-1.691288-.4542274-3.4273491-1.0327721-4.7091827-2.2254982-1.2818336-1.2018547-2.0118599-3.142643-1.3174782-4.7539558.3559914-.8367348 1.0060387-1.9138412.3027458-2.4836884-.2671013-.2134209-.6052742-.2490654-.9347534-.2847061-2.5193291-.2312431-4.9851971-.987999-7.2106953-2.1898575-1.0681934-.5785408-2.1007462-1.2909584-2.7327518-2.3237305-.6320076-1.0414619-.7567558-2.4567394-.0267334-3.4269161.7832718-1.0505905 2.4302254-1.4691753 2.7062397-2.7505741.1779957-.7837067-.2760143-1.5934906-.90802-2.0920544-.6322231-.4985638-1.4244061-.7567558-2.1722507-1.0505905-1.833643-.7119846-3.8098583-2.0385895-3.8544121-4.0058937-.0445538-1.9051476 1.700201-3.2760878 3.0978737-4.5757437.0710678-.0799789.1512642-.1421356.2225494-.2312431 1.0949268-.1425705 2.2076759-.2225494 3.3382454-.2225494 14.2699088-.0000001 25.8424949 11.5725831 25.8424949 25.8514031z" fill="#255299"/></g><g><path d="m21.9321156 51.7669868c-.311657.934536-1.0060368 1.6821632-1.7447548 2.3141708-1.4244041 1.219677-3.0802689 2.0920525-4.8337173 2.7597008-1.4689589.5698509-3.0089846.9884338-4.5311899 1.3266068-.3470821.0712852-.6854706.1512642-1.0325518.2225494-.3562098-.3472977-.7032919-.7124214-1.0327702-1.086235-.2314596-.2403717-.4450989-.498127-.6587381-.756321-.2136388-.2494965-.4183669-.4985619-.6141849-.7658844-.1158385-.1425705-.2225494-.2847061-.3294778-.4359703-.0176039-.0091286-.026732-.0178223-.026732-.0356407-3.168942-4.2819099-5.0384459-9.5874596-5.0384459-15.3202858 0-4.077179.934752-7.9226799 2.6082211-11.3500328 1.0684123.676342 2.1009645 1.4061489 3.1156955 2.1629047 1.4956899 1.0862331 3.0446267 2.2880878 3.7211871 4.0150204.8634663 2.1898575.2668848 5.0651817 2.0472822 6.6230278 1.5934906 1.4065819 4.1928015.8102188 6.0179701 1.9051476 1.8603745 1.1305695 2.3143845 3.6051292 2.492382 5.7684708.0712852.8901977.1247482 1.81604-.1601753 2.6527709z" fill="#255299"/></g><g><path d="m41.0090103 62.2889786c-3.8368073 2.2520142-8.3056221 3.5521011-13.0680542 3.5521011-.1514816 0-.3027458 0-.45401-.0091248-.053463-.151268-.1069279-.2847061-.1601753-.4181519-.311655-.6676483-.8901978-1.1753387-1.3442078-1.7447548-1.0949268-1.4157104-1.5222054-3.320858-1.103838-5.0656128.2671032-1.1127472.8189125-2.0916176 1.557848-2.9461746 1.1838169-1.3800697 2.8129501-2.466301 4.3886185-3.4095306.5342064-.3294792 1.2105484-.6589546 1.7625771-.3381691.3738136.1955986.5520248.6228752.6943779 1.0145111.0267334.0799789.0623779.1603928.0888901.2403717.0091286.0178223.0178223.0447693.0269508.0621567.729805 1.8516846 2.1542091 3.2852173 3.8989639 4.255394.2136421.1156197.4094582.258194.5963669.4007645.8280411.6850357 1.4065819 1.6200027 1.949482 2.5367165.320568.5342063.7300224 1.1662139 1.1662101 1.869503z" fill="#255299"/></g><g><path d="m22.4992046 40.628727c-.2448959.8060799-.44203 1.6543007-.3071194 2.4858894.2926483 1.803894 2.1431828 3.0506477 3.967001 3.166275.1079388.0068436.2244701.0136337.3079681.0823784.1979027.1629295.0479527.4790459.0680141.7346039.0333347.4246521.5335751.6258163.9521523.7047768 1.0749645.2027817 2.1833038.2275085 3.2662411.0728645.6073513-.086731 1.2610645-.2641182 1.6181202-.7630272.3425789-.4786835.3182182-1.1217308.2461853-1.7059479-.0721703-.5853348-.1778755-1.1665344-.3164253-1.7397957-.0992432-.4106216-.2291946-.8403168-.5430889-1.1230316-.5699024-.5132942-1.4840488-.3381729-2.1696892-.6819038-1.3435555-.6735649-1.2610817-2.9664917-2.6713905-3.4859657-.3587418-.1321411-.7520103-.1155128-1.1341934-.1250954-.5852432-.0146751-1.7051926-.4654045-2.236063-.1383438-.5900097.3634948-.8588066 1.8945427-1.0477124 2.5163231z" fill="#255299"/></g><g><path d="m18.7101994 25.5816574c.294796.0425377.5960159.1160259.8314133.2985134s.3890419.4974079.3062134.7835064c-.0844326.2916374-.3728676.4674969-.638092.6152744-.6393757.3562508-1.2865257.7157326-1.9922581.9097977-.8030663.2208309-4.4116554.6974277-3.9366512-1.2010841.3423956-1.3684941 4.3643187-1.5637932 5.4293746-1.4060078z" fill="#255299"/></g><g><path d="m7.1279988 55.3099632c2.5282426.8810692 5.3055491 1.3974533 8.2256451 1.5308952-1.4689589.5698509-3.0089846.9884338-4.5311899 1.3266068-.3470821.0712852-.6854706.1512642-1.0325518.2225494-.3562098-.3472977-.7032919-.7124214-1.0327702-1.086235-.2314596-.2403717-.4450989-.498127-.6587381-.756321-.2136388-.2494965-.4183669-.4985619-.6141849-.7658844-.1158385-.1425705-.2225494-.2847061-.3294778-.4359703-.0176043-.0091285-.0267324-.0178222-.0267324-.0356407z" fill="#272791"/></g><g><path d="m39.8428001 60.4194756c.3205681.5342064.7300224 1.166214 1.1662102 1.869503-3.8368073 2.2520142-8.3056221 3.5521011-13.0680542 3.5521011-.1514816 0-.3027458 0-.45401-.0091248-.053463-.151268-.1069279-.2847061-.1601753-.4181519-.311655-.6676483-.8901978-1.1753387-1.3442078-1.7447548-1.0949268-1.4157104-1.5222054-3.320858-1.103838-5.0656128.2671032-1.1127472.8189125-2.0916176 1.557848-2.9461746 2.3143864-.5789757 4.6557217-1.3887634 6.9614143-2.4306602.729805 1.8516846 2.1542091 3.2852173 3.8989639 4.255394.2136421.1156197.4094582.258194.5963669.4007645.8280412.6850357 1.406582 1.6200027 1.949482 2.5367165z" fill="#272791"/></g><g><path d="m53.7656288 40.7729492c.0089111.0091286.0089111.0091286 0 .0178223.0089111.0086899.0089111.0265121 0 .0356407-.0089111.3294792-.0267334.649826-.0534668.9793053-.0178185.2847061-.0356407.5607224-.0712852.8454285-.1334419 1.3531189-.3827248 2.6797256-.7208939 3.970253-.0801964.3116531-.1693039.6233101-.2671051.9258385-.1156197.3916359-.249279.7745781-.3829384 1.1575203-.1601753-.0891075-.3292618-.1603928-.4983482-.231678-1.0238571-.4094582-2.1453018-.4807434-3.2315331-.5785408-1.3439903-.1334457-2.6705971-.3294792-3.9880714-.5963631 3.4629936-2.0742341 6.6143303-4.2462655 9.2136421-6.5252267z" fill="#171d8f"/></g></g></g></g><g><g><path d="m20.83992 14.0602016c0 4.0837784-5.8320122 12.3948994-8.2964621 15.7246456-.5378017.7266293-1.6196423.7266293-2.157443 0-2.4644503-3.3297462-8.296462-11.6408672-8.296462-15.7246456 0-5.1777706 4.1974125-9.3751831 9.3751831-9.3751831s9.375184 4.1974125 9.375184 9.3751831z" fill="#aec46e"/></g><g><circle cx="11.465" cy="14.06" fill="#617f4d" r="7.184"/></g><g><circle cx="11.465" cy="14.06" fill="#fff" r="5.383"/></g></g><g><g><path d="m43.1054916 41.7807655c-.20187-.7676468-.3224983-1.5352898-.4476051-2.3029366l-.1503983-1.1516953c-.0781059-.4820709.1139183-1.1431885.5232544-1.5540924.2023163-.2152977.4552155-.3894157.7387733-.5022125.1412201-.0581894.2916183-.0908661.4429092-.1141396l.3659172-.0268593 1.1514702-.0644531c.7676468-.036705 1.5352936-.0461044 2.3029404-.0510292.7676468.0031357 1.5355148.0134277 2.3031616.0483437l1.1514702.0649033.3659173.0268555c.151516.0237236.3019104.0568466.4438019.1136932.284008.1127968.5371284.2873611.7398949.5026627.4100113.4117966.600914 1.0738068.5239258 1.5563278l-.1506196 1.1516953c-.1262245.7676468-.2466316 1.5352898-.4502945 2.3029366-.2034378-.7676468-.3240662-1.5352898-.4500694-2.3029366l-.1506195-1.1516953c-.0443115-.2833328-.1436806-.4059792-.3045959-.5156441-.0767632-.0474434-.1597939-.0751953-.240139-.083252-.040287-.0040283-.0787811-.0076103-.1179466-.0076103l-.0653496.0053711-.1439056.0080566-1.1514702.0649033c-.7676468.0349121-1.5355148.045208-2.3031616.0483398-.7676468-.0044746-1.5352936-.0143204-2.3029404-.0510254l-1.1514702-.0644569-.1439056-.0080566-.0657959-.004921c-.0391655-.0004501-.0776596.0035782-.118618.0062637-.0805664.0085068-.1640472.036705-.2410355.0841522-.161808.1105576-.2598343.2345467-.3054924.5178795l-.1501732 1.1516953c-.1251031.7676469-.2457352 1.5352898-.4478303 2.3029366z" fill="#3a3a3a"/></g><g><path d="m65.5722122 61.2119904c-.1649399 2.1632843-1.8882294 3.8865738-4.0609131 4.0696411-.7790604.0644608-1.5491676.1284637-2.328228.1745682-1.3477478.1007156-2.6952667.174118-4.0427895.2291794-4.7392654.2108231-9.4695778.2108231-14.2088394-.0183563-1.3475227-.0550537-2.6950455-.137413-4.0517426-.2385712-.7334023-.0456543-1.4668083-.1007156-2.2002106-.1647186-2.0901031-.1745682-3.7950382-1.7693939-4.0425644-3.8503189-.6599979-5.5736046-.6324692-11.3119278.0458794-17.2064667.2383499-2.0719757 1.9065819-3.6851501 3.9785576-3.8865738.7423553-.0734062 1.4849358-.1378632 2.218338-.20187 1.3566971-.1101112 2.7042198-.2108231 4.0517426-.27528 4.7392616-.2564774 9.4787521-.2654305 14.2088394-.0179024 1.3475227.0640068 2.6950417.1557655 4.0427895.2658768.7974129.0640106 1.6042213.1280174 2.4016342.2103767 2.1357574.2112694 3.822567 1.9068069 3.9969063 4.0427856.4400025 5.4634934.4400025 11.0827561-.0093994 16.8676301z" fill="#fbad3e"/></g><g><g><path d="m40.9314423 39.8432236v25.8237991c-1.3475227-.0550537-2.6950455-.137413-4.0517426-.2385712v-25.309948c1.3566971-.1101112 2.7042198-.210823 4.0517426-.2752799z" fill="#b53016"/></g><g><path d="m59.1830711 40.091198v25.3650017c-1.3477478.1007156-2.6952667.174118-4.0427895.2291794v-25.8600579c1.3475228.0640068 2.6950417.1557655 4.0427895.2658768z" fill="#b53016"/></g></g><g><path d="m42.0500107 45.5000839-.0427475-.0022392c-1.0339699-.0577393-2.0677185-.0823593-3.1016922-.1123466-1.0339737-.0250664-2.0677223-.0250664-3.1016922-.036705h-.0136528c-.3251877.003582-.5856934.2703552-.5818901.5953178.0089531 1.8078842.0346909 3.6157684.1136932 5.4236565l.001564.0375977c.0100708.2555847.2251472.4543228.4802856.4444733 1.0912628-.0425224 2.1740265-.1136932 3.2185173-.1996307l2.9848671-.2824402-3.2185173-.2819939c-.8513489-.0716171-1.6736031-.1284637-2.4891434-.1714325.0568466-1.4605446.0825844-2.9210854.0931015-4.3820763.8376961-.0067139 1.6751709-.0093994 2.512867-.029541.8947678-.0259628 1.7897568-.0546074 2.6845245-.0971298.0414047.7014008.0986977 1.4095154.1640472 2.1453819l.2531204 2.8167915.2533455-2.6068649c.0794525-.910881.155098-1.8598099.1929207-2.8167915.0091745-.2327577-.1700896-.4310457-.4035185-.4440271z" fill="#3a3a3a"/></g><g><path d="m60.3806076 45.5000839-.0427475-.0022392c-1.0339737-.0577393-2.0677223-.0823593-3.1016922-.1123466-1.0339737-.0250664-2.0677223-.0250664-3.101696-.036705h-.0136528c-.3251839.003582-.5856934.2703552-.5818863.5953178.0089493 1.8078842.034687 3.6157684.1136894 5.4236565l.0015678.0375977c.0100708.2555847.2251472.4543228.4802818.4444733 1.0912666-.0425224 2.1740303-.1136932 3.2185211-.1996307l2.9848671-.2824402-3.2185173-.2819939c-.8513489-.0716171-1.6736031-.1284637-2.4891434-.1714325.0568428-1.4605446.0825806-2.9210854.0931015-4.3820763.8376961-.0067139 1.6751709-.0093994 2.512867-.029541.8947639-.0259628 1.7897568-.0546074 2.6845245-.0971298.0414009.7014008.0986938 1.4095154.1640472 2.1453819l.2531204 2.8167915.2533455-2.6068649c.0794525-.910881.155098-1.8598099.1929207-2.8167915.0091745-.2327577-.1700934-.4310457-.4035185-.4440271z" fill="#3a3a3a"/></g><g><g><path d="m44.549 48.484h6.503v9.083h-6.503z" fill="#8a9bea" transform="matrix(.771 .637 -.637 .771 44.751 -18.3)"/></g><g><path d="m42.612 53.866h6.503v3.004h-6.503z" fill="#8a9bea" transform="matrix(.771 .637 -.637 .771 45.8 -16.528)"/></g><g><path d="m44.526 51.551h6.503v3.004h-6.503z" fill="#4269c4" transform="matrix(.771 .637 -.637 .771 44.763 -18.279)"/></g></g></g><g><g><path d="m48.3601303 6.9471464-2.6504021 2.6503439-2.5962982-2.5962725 2.6504021-2.6503944c.4041405-.4045665 1.0593185-.4045663 1.4634819.0000005l1.1328163 1.1328173c.4041405.4041638.4041405 1.0593419 0 1.4635052" fill="#8a9bea"/></g><g><path d="m63.7183762 22.3053646-2.6504021 2.6503448-2.5967026-2.5962734 2.6503792-2.6503944c.4041634-.4045658 1.0597458-.4045658 1.4639091 0l1.1328163 1.1328182c.4041367.4041634.4041367 1.0593414.0000001 1.4635048" fill="#e9edf4"/></g><g><path d="m63.7177467 22.3045578-2.6504021 2.6507473-2.5967026-2.5962715 2.6503754-2.6507988c.4041672-.4041634 1.0597496-.4041634 1.463913.0000019l1.1328163 1.1328163c.4053994.4053726.4037361 1.0593414 0 1.4635048" fill="#8a9bea"/></g><g><path d="m62.7374878 31.169548-1.5262527 1.5261955c-.3707275.3707504-.9916382.2898178-1.255024-.1626244l-8.2429924-14.1502113 5.9121666-5.9121733 5.3131523 17.9065628c.0833778.28115.0061722.5849773-.2010498.7922507" fill="#b53016"/></g><g><path d="m36.8996353 5.331295-1.5262489 1.5261955c-.3707275.3707519-.2902222.991662.1626472 1.255023l14.150219 8.2430258 5.9121666-5.9117718-17.9069824-5.3131427c-.2807236-.0834031-.5845795-.0066023-.7918015.2006702" fill="#b53016"/></g><g><path d="m46.8053322 31.3009701-.8954353.8958111c-.3661919.3661652-.9788399.2922897-1.2475929-.1498718l-2.8518448-4.6909695 2.5541992-2.5541916 2.6004257 5.5975647c.1411819.3046856.0776062.6646518-.1597519.9016571" fill="#b53016"/></g><g><path d="m36.768013 21.2636013-.8954353.8954086c-.3665962.3661671-.292717.9784088.1494446 1.2471619l4.6905937 2.8522778 2.5545998-2.5546455-5.5979958-2.6000024c-.3042565-.1411552-.6642494-.0776081-.901207.1597996" fill="#b53016"/></g><g><path d="m62.750988 10.1082945-11.7867851 11.7867041-8.4184914 6.7423725c-.8813744.7043114-2.1520729.6345158-2.9504967-.1638851-.3992004-.3988209-.6159477-.9169273-.6456795-1.4441032-.0305367-.5271759.1317101-1.0659428.4818001-1.5059872l6.7427711-8.4184418 11.786789-11.7867546c1.8969498-1.8969975 4.4532166-3.0054228 7.1168175-3.1581674.4660721-.0268602.8582687.36536.8314362.8314583-.0681152 1.1910226-.3277969 2.3605263-.7633286 3.4603345-.5366821 1.3573747-1.3458443 2.6078621-2.3948326 3.6564699" fill="#d1dafe"/></g><g><path d="m62.6714172 8.0570383-2.6594658-2.6594672c-.1857796-.1862073-.1593475-.5020294.0644035-.6378422.3310928-.2022834.7055244-.3017621 1.0803833-.3017616.532547 0 1.0667534.2030897 1.4733849.6105795l.3703232.3698955c.6923218.6923189.7950974 1.7520137.3087921 2.5541925-.1358413.223751-.4520645.2501573-.6378212.0644035" fill="#8a9bea"/></g><g><path d="m43.7414017 25.4249763-4.8413048 4.8416462c-.3034286.3034248-.7971687.3030205-1.1005936 0-.300148-.3001003-.300148-.7934608.0037079-1.09729l4.8412781-4.8412933c.3001251-.3000984.7934647-.3000984 1.0935898.0000019.3034477.3034248.3034477.7967853.0033226 1.0969352" fill="#b53016"/></g></g></g></svg>