<svg id="Layer_1" enable-background="new 0 0 512 512" height="512" viewBox="0 0 512 512" width="512" xmlns="http://www.w3.org/2000/svg"><g><path d="m76.6108 404.2215c-6.8-8.7638-13.8864-17.3232-20.3209-26.3476-6.6615-9.3427-12.9349-19.0041-16.3707-30.1489-2.0441-6.63-3.8319-13.3269-2.1204-20.3016 1.503-6.1257 4.5904-11.3503 11.2576-12.5692 3.3193-.6068 7.08-.0956 10.3967.8073 13.3919 3.6459 25.8175 9.5837 37.4495 17.1032 5.6514 3.6534 11.0146 7.7528 16.5025 11.6585.9044.6437 1.7784 1.33 3.0973 1.679-.8085-2.3566-1.614-4.7143-2.4261-7.0696-10.928-31.6931-21.9996-63.3377-32.7286-95.098-5.8288-17.2542-11.253-34.6502-14.9724-52.5255-3.9775-19.116-6.5354-38.3811-5.7722-57.9404.5207-13.3424 1.9313-26.6189 6.5822-39.2701 3.2263-8.776 7.6669-16.8954 14.8675-23.1435 3.9417-3.4203 6.5593-3.567 11.0784-1.0743 20.5412 11.3297 42.0721 20.5649 63.4859 30.0545 18.4752 8.1873 36.892 16.5067 55.3348 24.7669.958.4291 1.9196.8499 3.172 1.4038.1311-2.164.2532-4.034.3564-5.905.632-11.4425 3.0028-22.5978 5.5284-33.7309.4869-2.1466 1.7232-3.3939 3.7461-4.2398 13.697-5.7273 28.1879-6.8522 42.762-7.4193 4.358-.1697 8.7335.0605 13.0992.1779 1.1027.0295 1.8687.0249 2.1422-1.3557 2.0429-10.3091 3.9879-20.6419 3.321-31.2141-.3418-5.4163-1.0117-10.8255-1.8176-16.1952-.9244-6.1583-.4486-7.7169 5.0871-10.259 7.9913-3.6696 16.4103-4.1931 24.9612-2.4757 6.9977 1.4056 13.9882 3.0338 19.8643 7.3627 2.9955 2.2068 5.6277 4.9107 8.3849 7.433.3679.3364.5789.903.7357 1.403 6.0498 19.2687 10.0565 38.8838 8.8463 59.1939-.3981 6.6821-1.8546 13.3089-2.9848 19.9342-.2878 1.6873.103 2.6219 1.4662 3.6144 13.0166 9.4756 25.7611 19.2881 36.6836 31.2184 2.7381 2.9907 5.2505 6.1892 7.8388 9.3152 2.4467 2.9553 3.7644 6.4298 3.5095 10.2058-.6854 10.1539-1.1694 20.3528-2.558 30.4201-1.8712 13.5662-4.5421 27.0216-6.755 40.5432-.1305.7974.5469 1.9866 1.2079 2.6151 10.2288 9.7269 19.8846 19.9881 28.6596 31.0421 8.4486 10.6427 16.0058 21.8488 21.3466 34.4582 1.3262 3.1312 3.7191 5.7949 5.2977 8.8413.8767 1.6918 1.4229 3.7094 1.5412 5.616 1.1163 17.9963-1.6129 35.5936-5.7375 53.0331-.1021.4313-.1425.8773-.2623 1.6385 5.792-2.8453 11.2953-5.6251 16.8635-8.2678 10.1613-4.8228 20.1979-9.9693 31.0867-13.0365 2.1042-.5928 4.3743-.9064 6.5556-.852 4.7238.1177 7.8821 4.2702 6.776 8.8701-1.8289 7.6053-5.545 14.4187-9.4683 21.0826-18.5784 31.5571-43.6263 56.8115-74.5644 76.3167-3.9366 2.4818-7.4507 5.7147-11.556 7.8335-13.1558 6.7899-27.3577 10.6228-41.7364 13.789-27.0766 5.9622-54.5542 8.9137-82.1822 10.5769-39.5789 2.3824-79.1861 2.9886-118.8109 1.3235-15.0799-.6338-30.1619-1.4226-45.0378-4.2085-4.048-.7582-8.0019-2.0199-11.998-3.0537-.2217-.0575-.4401-.1343-.6526-.2203-8.1544-3.2948-9.3999-9.9618-2.4934-15.4314 3.735-2.9581 8.2125-4.9799 12.3625-7.4116.7013-.4109 1.4404-.7576 2.8001-1.4667-4.622-.8381-8.58-1.5539-12.5372-2.2737-18.0364-3.2807-35.7937-7.6157-52.7688-14.6625-11.4871-4.7686-22.5383-10.4123-32.1621-18.4376-6.0453-5.0413-10.9517-10.9267-12.4001-19.018-.0176-.0974-.2293-.1602-.3505-.2391 0-.9197 0-1.8396 0-2.7594.1739-.2987.419-.5769.5108-.899 1.1575-4.0625 3.6114-6.4722 7.8464-6.4326 5.7845.054 11.6007.4423 17.3369 1.1938 14.2183 1.8624 27.9093 5.8585 41.3093 10.8941.3216.0565.6431.1131.9646.1697-.1591-.212-.3183-.4238-.4775-.6354zm253.5721-377.6946c-7.4662-3.525-15.2278-6.0494-23.4756-6.9254-5.7991-.1899-11.5751-.2326-16.7489 2.4464.8306 5.5237 1.6339 10.865 2.46 16.358 1.2128-.6705 2.3029-1.3625 3.4649-1.8988 3.5889-1.6566 7.2051-3.2538 10.8107-4.874 6.4025-1.1321 12.7239-1.0502 18.8853 1.295 2.4163.9197 4.8185 1.8766 7.2272 2.8163 2.0783 1.3142 4.1566 2.6284 6.5999 4.1732-.2982-1.3546-.4884-2.2323-.6852-3.1086-.5447-2.4238-.4114-5.4158-1.8286-7.1114-1.4399-1.7225-4.4098-2.1668-6.7097-3.1707zm-20.8113 23.4419c12.1537-.2821 23.0789 3.7438 33.5236 9.9286.0838-.66.1966-.9661.1467-1.243-.7849-4.364-1.562-8.7298-2.4319-13.077-.0965-.4822-.6718-1.011-1.157-1.2506-4.0461-1.9975-8.0576-4.0872-12.2073-5.8474-5.3845-2.2839-10.9212-4.0742-16.9248-2.7492-5.7527.6526-10.7107 3.3859-15.6661 6.0776-.8473.4602-1.986 1.3973-2.0249 2.1631-.203 4.0025-.0948 8.0209-.0948 12.1495 4.9883-3.292 10.74-5.211 16.8365-6.1516zm-188.6411 328.5589c2.5757.9786 5.1513 1.9575 7.727 2.9361.1583-.2202.3167-.4403.4749-.6604-1.5621-4.2019-3.1244-8.4037-4.6866-12.6056-1.3209-3.8346-2.6187-7.6775-3.9865-11.4954-.2212-.6171-.656-1.2377-1.1568-1.6628-8.5347-7.2426-17.4289-13.9927-27.1346-19.6174-9.7986-6.2144-20.2814-10.9419-31.3379-14.4232-2.4684-.5058-4.9212-1.1138-7.4089-1.492-3.2456-.4934-5.8347.7505-7.7937 3.3692-2.465 3.2952-3.2698 7.0596-2.9746 11.0622.5959 8.0822 3.2284 15.5907 7.0295 22.6548 6.1129 11.3606 13.5719 21.8539 21.3996 32.0794 12.4608 16.2777 25.484 32.0175 42.7193 43.6319.4366.2943.6557.9109.9763 1.3772-1.7379-.3108-3.0644-1.0113-4.3777-1.7353-1.3357-.7364-2.6584-1.4961-3.9867-2.2456-.1621-.1141-.324-.2283-.486-.3425-.2982-.2005-.5966-.4011-.8949-.6017-5.3821-4.2888-10.7625-8.5798-16.1498-12.862-.3557-.2827-.7438-.5415-1.1515-.7397-9.162-4.4532-18.4866-8.4879-28.3286-11.2397-10.4027-2.9085-20.8856-5.3784-31.689-6.2369-2.6689-.1721-5.3366-.4663-8.0067-.4895-4.6066-.0399-6.0938 1.9193-5.0192 6.3847 1.096 4.554 3.7678 8.2024 6.9763 11.423 7.0694 7.0961 15.7252 11.8574 24.6087 16.2261 18.6416 9.1671 38.5547 14.1833 58.8519 17.9309 7.2939 1.3467 14.6076 2.6054 21.8567 4.1627 1.5414.331 2.841 1.7865 4.2519 2.7239.1945 2.3898-1.1062 3.4659-3.2282 4.2737-3.8139 1.4517-7.5104 3.2117-11.256 4.8428-3.2819 2.0562-6.7355 3.8896-9.7892 6.2419-2.2743 1.7518-1.9061 3.0856.687 4.4734 1.0699.5726 2.2301 1.0145 3.3942 1.3673 10.2527 3.1077 20.8378 4.3988 31.4549 4.9675 18.8098 1.0075 37.6398 1.9155 56.471 2.1733 17.6103.2412 35.2418-.154 52.8475-.7533 16.2952-.5545 32.586-1.5146 48.8472-2.7214 21.7713-1.6158 43.382-4.5532 64.7205-9.2735 15.3599-3.3977 30.2618-8.186 44.539-14.8408 7.8458-2.9768 14.536-7.9163 20.6463-13.3979 9.3178-8.3586 18.2109-17.2082 27.0106-26.1196 4.8126-4.8734 9.0627-10.3023 13.5664-15.4807 7.4624-8.553 13.7308-17.9508 19.0983-27.9106 2.7752-5.1494 4.984-10.6194 7.2076-16.0434.9308-2.2706-.2677-3.7349-2.6502-3.3445-2.5982.4256-5.1128 1.3629-7.6638 2.0771-3.9733 1.581-7.9467 3.1618-11.92 4.7428-.3083.1457-.6166.2915-.925.4373l.0057-.0034c-4.1029 1.859-8.2408 3.6448-12.3025 5.5897-20.8384 9.9778-41.5745 20.1735-62.517 29.9268-10.6064 4.9397-21.6121 9.0143-33.1833 11.2105-4.366.8287-8.7357 1.0645-12.1932-2.6206-2.0718-2.6673-2.9875-5.738-2.5939-9.0398.3689-3.0947 1.127-6.143 1.7137-9.2116.7747-1.9083 1.4662-3.8556 2.3391-5.7178 3.3091-7.0604 6.7074-14.079 9.9966-21.1485.6398-1.375.9405-2.9077 1.3976-4.3676-.2253-.2192-.4505-.4384-.6757-.6576-3.7122 1.5141-7.4244 3.0284-11.1366 4.5425-1.9989.9156-3.9977 1.8311-5.9966 2.7467-1.0566.435-2.1344.8252-3.1669 1.3116-21.8049 10.2722-43.5483 20.6773-65.4315 30.7799-9.5856 4.4253-19.4531 8.2682-29.9393 10.0996-5.0229.8773-10.069 1.3333-14.5525-1.9965-.0663-.1499-.1811-.2165-.3442-.1998l.0253-.0471c-.8476-1.9284-1.6951-3.8567-2.5427-5.7851.3222-2.1868.3238-4.483 1.0275-6.5394 1.9774-5.7792 4.2334-11.4637 6.3997-17.1779 1.7044-4.496 3.6862-8.8909 3.7869-13.8516.057-2.7992-1.151-4.7277-3.6951-5.3637-2.6986-.6746-5.5426-.7683-8.3231-1.1158-.3019.0157-.6038.0313-.9057.0469-1.0635.0528-2.1418.0108-3.1883.1735-8.7504 1.36-17.1665 3.9796-25.1487 7.7033-12.5425 5.8513-24.9133 12.0726-37.3282 18.1953-11.5146 5.6786-23.1535 10.6382-36.4678 7.4088-.655-.2045-1.3057-.4234-1.9654-.6111-12.9345-3.6808-22.8662-11.263-29.5977-22.9244-.7389-1.2801-.9791-2.8482-1.4505-4.2826.2988-.1884.5976-.3766.8965-.565 1.1928 1.0661 2.3856 2.1323 3.5782 3.1984 5.1016 7.5815 11.6359 13.4741 20.1191 17.0696zm218.5321-274.2664c1.2519.927 2.5039 1.8541 3.9158 2.8997 1.4931-11.4894 2.6569-22.5484 1.758-33.7641-.5693-7.1026-.2861-7.1255-6.4822-10.6474-6.4531-3.8847-13.3873-6.507-20.8147-7.7398-4.1259-.6848-8.2787-.9847-12.3518.4242-5.0771.6387-9.2959 3.3258-13.6085 5.7643-.3638.2057-.5396.8786-.6534 1.3692-.895 3.8551-1.7543 7.7186-2.6225 11.5799-.2731 1.2143.1124 1.9291 1.4537 2.0006.6029.0322 1.2119.1373 1.7967.2914 3.7495.9868 7.4932 1.9964 11.2386 2.9984.277.2565.5244.558.8353.7631 6.2278 4.1076 12.5043 8.1426 18.6842 12.3209 5.6704 3.8342 11.2379 7.8205 16.8508 11.7396zm-43.1043-18.8095c-5.486-2.2718-11.3241-2.5751-17.1196-2.8062-10.9474-.4366-21.9213-.4591-32.7499 1.4158-5.8442 1.012-11.5719 2.7202-17.3181 4.2429-.7103.1882-1.5767 1.0799-1.7533 1.7975-2.9812 12.1223-5.406 24.3318-5.5865 36.8889-.0257 1.7922.5245 2.6783 2.1375 3.4899 17.0232 8.5647 34.0012 17.2191 50.9845 25.8629 2.5668 1.3063 5.097 2.6844 7.7155 4.067.166-.4515.2776-.6466.308-.8536 1.8628-12.6999 3.4805-25.4419 5.6602-38.0871 1.4391-8.3494 3.6615-16.5651 5.587-24.8282.4505-1.933 1.3401-3.5171 3.8175-2.8482.2939 1.5204.974 3.0858.8037 4.5525-.3949 3.4032-1.1953 6.7596-1.8408 10.1332-2.2206 11.606-4.4453 23.2111-6.6684 34.8165-.1123.4711-.2245.9421-.3369 1.4131-.0528.2927-.1056.5853-.1585.878-1.2602 4.3701-2.35 8.7996-3.8456 13.0876-.8745 2.5073-.4436 3.9727 2.0593 4.7959 21.3138 11.5311 41.8043 24.3846 61.2953 38.7757 8.7368 6.4509 17.0772 13.439 25.5974 20.1833 2.4788 2.2311 4.9575 4.4621 7.608 6.8478.2253-.9583.3978-1.54.4963-2.1339 1.8909-11.4008 4.0722-22.764 5.5652-34.2169 1.2546-9.6248 1.7209-19.3532 2.5029-29.0384.2076-2.5722-.7813-4.7157-2.3528-6.755-9.5362-12.3755-21.1897-22.5244-33.6573-31.7511-13.7885-10.2042-27.7811-20.1328-41.7029-30.1563-5.3408-3.8455-10.6851-7.7025-17.0477-9.7736zm-206.5388-9.9418c-.4691-.4277-.9381-.8555-1.575-1.4362-1.1488 1.4447-2.1244 2.6714-3.0998 3.8981-1.878 2.8713-3.9092 5.6552-5.6075 8.6292-7.2607 12.715-9.0228 26.8812-9.7948 41.0655-.5464 10.0414.0165 20.1982.8336 30.2426.7274 8.9418 2.2077 17.8511 3.8447 26.684 3.3628 18.1442 9.0567 35.674 14.7997 53.1657 4.7954 14.606 9.8678 29.1214 14.8367 43.6704.7499 2.1956 1.605 4.3552 2.4687 6.6863.4673-.3889.719-.5581.9219-.7734 7.3244-7.7737 15.4705-14.5629 24.4717-20.3083 1.3604-.8682 1.3072-1.9234.9161-3.1555-5.3181-16.756-10.5593-33.5368-15.9957-50.2543-5.0091-15.4035-10.348-30.6999-15.3303-46.1117-7.2779-22.5115-10.9751-45.6571-11.7337-69.2866.1003-.9067.2008-1.8134.375-3.3862.6092.9308.9244 1.2007.9653 1.5073.4961 3.7077.9633 7.4194 1.4157 11.1328 1.5156 12.4393 3.3106 24.8257 6.3162 37.0156 5.1362 20.8305 12.6294 40.9005 19.5666 61.1515 3.5442 10.3463 7.1446 20.6747 10.5429 31.069 2.6139 7.995 4.9454 16.0823 7.4205 24.1229.3023.9825.4628 1.857 1.9627 2.0828 4.3571.6559 8.9017 1.0359 12.9465 2.6155 13.1792 5.1471 26.3141 10.4594 39.1952 16.3047 17.2852 7.8439 34.3496 16.1781 51.4503 24.4231 19.7892 9.5411 39.5059 19.2325 59.2708 28.8239 14.8778 7.2198 29.7706 14.4087 44.7012 21.5181.9567.4555 2.4062.4243 3.437.0693 2.6709-.92 5.1771-2.3269 7.8581-3.2069 3.3117-1.0872 6.6902-2.1396 10.1224-2.6358 2.5658-.3709 4.7797 1.9534 4.8153 4.4912.0211 1.5002-.1747 3.0773-.6483 4.4944-.842 2.5194-1.9691 4.9435-3.004 7.4734.2701.2184.4726.4553.7297.5793 13.0354 6.2866 26.0704 12.5746 39.1317 18.8073.5992.2859 1.5609.3254 2.147.0459 5.6621-2.6996 11.28-5.4922 16.9104-8.2597 2.8102-.6411 4.1746-2.3056 4.9149-5.2208 4.7634-18.7561 8.3137-37.6707 8.2704-57.107-.0039-1.7831-.2722-3.7248-1.0129-5.3157-1.8693-4.0153-3.6275-8.2069-6.2405-11.7263-6.4273-8.6566-13.1043-17.1491-20.0667-25.3814-7.401-8.751-15.0687-17.2955-22.9733-25.5934-3.8844-4.0777-8.6422-7.3102-12.875-11.0715-12.9493-11.5071-26.3687-22.4134-40.5438-32.3875-20.1389-14.1703-41.2519-26.7291-62.8906-38.4494-35.2459-19.0904-71.3506-36.4079-107.9105-52.8162-25.9092-11.6282-52.1548-22.6076-76.2565-37.886zm54.1995 191.4969c-1.9449-.5255-3.8896-1.0512-6.4096-1.7322 10.8045 37.0179 17.8854 74.0294 19.1476 112.4504 1.9994-1.0512 3.4055-1.7904 4.8114-2.5296 2.1431-1.0041 4.3036-1.9727 6.4261-3.0182 14.6847-7.2324 28.9249-15.446 44.6016-20.4995 8.3892-2.7044 16.8471-5.0416 25.8627-3.745 8.6038 1.2375 13.1245 6.9243 10.9895 15.3426-1.7196 6.781-4.6103 13.2595-6.8584 19.9138-1.3889 4.1114-2.8082 8.2448-3.7138 12.4754-.5637 2.6332.5931 4.0922 3.257 4.2311 3.3063.1725 6.7362.0236 9.9627-.6773 12.571-2.7308 24.2433-8.0314 35.8433-13.3724 16.0592-7.3943 31.9561-15.1415 47.9174-22.7482 2.4508-1.1679 4.8743-2.393 7.5934-3.7308-1.006-.508-1.611-.8309-2.2303-1.1233-19.8635-9.3789-39.7759-18.6562-59.5809-28.1569-23.3986-11.2245-46.6283-22.8029-70.0762-33.9219-17.4901-8.2938-35.1683-16.1972-52.8568-24.0628-4.7178-2.0978-9.7817-3.418-14.6867-5.0952zm-9.9779 1.1855c-1.6965 1.3638-2.9708 2.3328-4.1844 3.3727-6.8505 5.8709-13.674 11.7733-20.5372 17.629-1.3922 1.1878-1.7337 2.3589-1.0718 4.1805 2.6363 7.2574 5.0975 14.5784 7.6238 21.8758 7.5065 21.6835 15.0442 43.3563 22.465 65.0691.6404 1.8737 1.5106 2.4987 3.2854 2.0553 3.1093-.7769 6.1993-1.6325 9.3145-2.3847 1.5561-.3758 2.0141-1.2169 1.8776-2.8024-.6683-7.7643-1.0356-15.5594-1.8855-23.3022-1.0666-9.7149-2.0868-19.4664-3.8735-29.063-2.4593-13.2087-5.5462-26.3036-8.5103-39.414-1.276-5.6432-2.9184-11.2036-4.5036-17.2161zm232.5368 101.5692c-2.982 7.1129-5.9998 13.8762-8.6195 20.7903-.9487 2.5038-1.2542 5.3634-1.2993 8.0699-.0589 3.5408 1.8014 5.1355 5.3419 5.0058 2.048-.075 4.1982-.1353 6.1068-.7808 9.8343-3.3256 19.6285-6.775 29.3854-10.3221 3.2461-1.1802 6.3399-2.7787 10.0402-4.4248-13.8128-6.1849-27.0431-12.1087-40.9555-18.3383z" fill="#25303d"/><path d="m427.2041 378.4667c-5.6303 2.7662-11.2482 5.5588-16.9103 8.2584-.5861.2795-1.5478.24-2.147-.0459-13.0613-6.2328-26.0963-12.5207-39.1317-18.8073-.2571-.124-.4596-.361-.7297-.5793 1.0348-2.53 2.1619-4.954 3.004-7.4734.4736-1.4172.6693-2.9942.6483-4.4944-.0357-2.5378-2.2495-4.8621-4.8153-4.4912-3.4323.4963-6.8107 1.5486-10.1224 2.6358-2.681.8799-5.1872 2.2869-7.8581 3.2069-1.0307.355-2.4802.3861-3.437-.0693-14.9306-7.1093-29.8234-14.2983-44.7012-21.5181-19.765-9.5913-39.4816-19.2827-59.2708-28.8239-17.1007-8.245-34.1652-16.5792-51.4503-24.4231-12.8811-5.8453-26.016-11.1577-39.1952-16.3047-4.0448-1.5797-8.5894-1.9597-12.9465-2.6155-1.5-.2258-1.6604-1.1003-1.9627-2.0828-2.4751-8.0406-4.8065-16.1279-7.4205-24.1229-3.3983-10.3943-6.9988-20.7227-10.5429-31.069-6.9372-20.251-14.4304-40.321-19.5666-61.1515-3.0056-12.1899-4.8006-24.5763-6.3162-37.0156-.4524-3.7134-.9196-7.4251-1.4157-11.1328-.041-.3066-.3562-.5764-.9653-1.5073-.1742 1.5728-.2747 2.4795-.3749 3.386-.4486-3.8104-.9798-7.6137-1.3026-11.4347-.1164-1.3797.2674-2.8019.423-4.2045 5.3109 6.201 11.8235 10.8461 19.2142 14.1481 10.9545 4.894 22.1303 9.2989 33.0321 14.304 11.2403 5.1604 22.5959 10.2127 33.3085 16.3473 16.7987 9.6198 33.7119 18.9959 51.0522 27.581 14.7394 7.2975 29.7145 14.1198 44.4398 21.4445 10.8208 5.3826 21.5216 11.0323 32.0663 16.9372 11.3316 6.3456 22.5596 12.9029 33.5675 19.7916 8.8018 5.5079 17.0648 11.8726 25.8221 17.457 11.3504 7.2382 21.1487 16.3362 31.0329 25.3085 4.1488 3.7662 7.4146 8.4992 11.1268 12.7533 8.736 10.011 17.5092 19.9896 26.2427 30.0028 1.7771 2.0374 3.8359 3.9559 2.7217 7.2028-.3163.9216.0841 2.1059.2166 3.1621.654 5.2129 1.6333 10.4068 1.9168 15.6388.342 6.31.5191 12.6869-.0085 18.9697-.5264 6.2661-1.8385 12.4883-3.1306 18.6618-1.1386 5.4384-2.725 10.7834-4.1135 16.1696zm-157.6569-165.8413c2.3596.2027 4.7195.551 7.0784.5429 1.0734-.0035 2.815-.4733 3.0576-1.1562.3532-.995-.0936-2.5425-.7028-3.5499-.9788-1.6186-2.2779-3.0767-3.6031-4.4465-3.8327-3.9616-7.6541-7.9428-11.6636-11.7211-2.2098-2.0822-3.9432-1.7793-5.7457.7496-3.3278 4.6686-6.5815 9.3926-9.7607 14.1637-1.6376 2.4575-.9636 4.0447 1.8895 4.6493 1.7474.3705 3.5515.4742 5.8589.7641-2.286 1.8307-4.1257 3.5395-6.1933 4.9028-2.8767 1.8971-4.3018 1.7397-6.6115-.8665-6.8688-7.7503-9.3054-17.5253-12.3799-26.9727 5.5734-2.9993 7.3201-4.8291 6.7586-7.4213-1.1625-5.3663-5.6384-5.2309-10.2984-5.5521.498-1.1647.7166-2.1757 1.2842-2.9205 3.2458-4.2581 3.0249-9.9081-.6333-13.8327-5.4509-5.8481-16.3336-6.3596-23.1599-1.0887-4.8036 3.709-5.8945 10.8371-2.1533 15.5595 1.2912 1.6297 3.1788 2.7869 4.7358 4.1106-4.0028 2.2155-4.5427 6.53-.6383 9.5776 2.1766 1.6989 4.9987 2.5705 7.6499 3.8738.4112 6.7022.9279 13.9885 1.2608 21.2833.0927 2.0321-.1687 4.1317-.6156 6.1221-.4095 1.8236-1.4489 3.4143-3.5001 3.8953-3.9878.9351-9.3457-1.8672-11.379-6.3207 2.5144-.1897 4.8659-.1898 7.1363-.6191 1.0154-.1919 2.3206-1.0796 2.6439-1.9629.2365-.6459-.7306-2.0119-1.4928-2.6768-1.0774-.9396-2.4704-1.5125-3.7115-2.2703-6.6609-4.0668-13.3129-8.148-19.9758-12.2115-2.4568-1.4983-3.75-.9866-4.5363 1.8233-.2865 1.0243-.3725 2.1029-.6207 3.1399-1.4758 6.1662-2.9759 12.3268-4.4606 18.491-.8059 3.3463.4369 4.9544 3.8959 4.9514 1.2146-.001 2.4314-.1713 3.643-.3023 1.9147-.2073 3.2399.2223 4.1111 2.2772 2.6195 6.1791 6.3943 11.4774 12.4148 14.8684 4.918 2.77 10.3848 2.9867 15.7849 3.2623 5.5037.2807 9.5458 2.8598 12.7506 7.1045 1.1516 1.5253 2.2807 3.0689 3.4764 4.5589 1.1906 1.484 2.055.9383 2.624-.5599.2425-.6384.3513-1.3271.5289-1.9908.9244-3.4551 2.9638-5.854 6.2903-7.3608 6.5398-2.9623 13.2265-5.6457 18.8154-10.4016 7.5284-6.4066 12.1956-13.877 9.9247-24.244.0752-.0731.1494-.1472.2223-.2226zm130.6931 90.5748c.4372-2.2981.8208-3.6948.9533-5.1147.7233-7.7485 1.4196-15.5 2.0198-23.2588.0696-.8991-.269-2.0471-.8337-2.7422-3.3723-4.1512-6.5183-8.5746-10.3954-12.2077-7.1107-6.6629-14.3493-13.2769-22.1362-19.108-9.5359-7.1411-19.5084-13.7498-29.6402-20.0269-6.7368-4.1737-14.0378-7.456-21.1809-10.9434-2.402-1.1727-3.5254-.2211-3.5411 2.5335-.0331 5.7463-.0045 11.4931-.0056 17.2397-.0006 3.4946.1088 6.9948-.0583 10.4816-.099 2.0639.54 3.3168 2.3316 4.4443 8.7406 5.5006 17.6507 10.7851 26.0147 16.8201 16.1197 11.6307 31.9088 23.7196 47.844 35.6064 2.6627 1.9858 5.3716 3.9099 8.628 6.2761z" fill="#458dcf"/><path d="m232.993 397.1638c.8475 1.9284 1.6949 3.8567 2.5419 5.7852-.7838.0683-1.5672.1365-3.1792.2769 2.2253 2.427 3.8163 4.7015 5.9062 6.3401 6.1528 4.8244 13.3471 5.1883 20.7018 4.027 10.5593-1.6674 20.0598-6.3157 29.4641-11.0499 6.744-3.395 13.3043-7.1765 19.811-11.0152 7.0848-4.1795 14.1331-8.4442 20.9727-13.0085 5.8244-3.8871 11.3572-8.2161 16.9525-12.4376 1.0843-.8182 1.8617-2.0432 2.7806-3.0805 1.9989-.9156 3.9977-1.8311 5.9966-2.7466-.3829 1.1382-.6231 2.3509-1.172 3.4023-3.4381 6.5847-6.2069 13.4307-7.7411 20.7019-1.1794 5.5894-1.5282 11.2135 1.3898 16.4912.3724.6737 1.0199 1.1952 1.3167 1.5327.4109-3.4033.5002-6.7548 1.3227-9.9156.4483-1.7229.4239-4.2177 2.963-4.8637-.5867 3.0686-1.3448 6.1169-1.7137 9.2116-.3936 3.3018.522 6.3725 2.5936 9.0396-.8665-.135-1.7325-.27-2.5985-.405l-.1087-.1931-.0873.0898.196.1033c.289.6719.44 1.459.889 1.9977 3.6236 4.3479 8.4949 6.0312 13.96 6.2691 10.3219.449 19.9348-2.5585 29.265-6.4699 8.3763-3.5115 16.5652-7.4686 24.8517-11.1957 13.5177-6.08 26.8861-12.4552 38.709-21.5355 2.4909-1.9131 5.899-3.1267 6.7595-6.7924.0868-.3698.7939-.7773 1.2602-.8451 3.2783-.4776 5.1075-2.9067 7.1004-5.1294l-.0056.0034c.3083-.1458.6165-.2917.9248-.4373 3.9733-1.581 7.9467-3.1618 11.92-4.7426-.1412.8131-.0872 1.7294-.4548 2.4221-2.464 4.6438-4.7363 9.4228-7.5952 13.8168-8.1914 12.5896-17.6979 24.1909-27.468 35.5774-.1824.2126-.1253.6307-.228 1.2356 3.5801-1.4898 6.8541-2.9032 10.1676-4.2169 3.1742-1.2583 6.3894-2.4134 9.5866-3.6138-4.5038 5.1783-8.754 10.6073-13.5665 15.4807-8.7997 8.9113-17.6928 17.761-27.0106 26.1196-6.1104 5.4816-12.8005 10.4211-20.6462 13.3974.2171-.3955.3696-.847.6601-1.1774 6.8537-7.7936 13.7393-15.5591 20.5826-23.3617 5.2827-6.0232 10.5245-12.0821 15.7625-18.1442.8788-1.0171 1.6452-2.1314 2.4634-3.2009-8.8129 3.3737-17.2234 7.1624-25.6767 10.8535-7.0693 3.0866-14.1412 6.1766-21.2993 9.0475-6.5854 2.6411-13.2534 5.0881-19.9479 7.4415-5.8323 2.0504-11.6702 4.1753-17.6517 5.6898-10.5526 2.6723-21.1759 5.1061-31.8461 7.2612-9.3136 1.881-18.7048 3.4337-28.1126 4.7758-9.2568 1.3205-18.566 2.3104-27.8736 3.2304-9.3183.9209-18.6592 1.6256-27.9972 2.3312-7.2189.5454-14.4481.9567-21.6741 1.4053-3.0451.1891-6.0941.314-9.1407.4808-7.9921.4373-15.9837.8815-23.9756 1.3231.3168-.3917.7323-.7392.931-1.1837.4894-1.0952 1.0981-2.2169 1.1918-3.3661.0332-.4085-1.2257-1.1514-1.9949-1.3463-1.4194-.3595-2.2317.5034-3.1166 1.6525-1.4395 1.8695.3844 2.871.7138 4.2572-3.3463.1663-6.6929.3249-10.0388.5007-11.4755.6032-22.9449 1.4012-34.4282 1.7501-7.1598.2177-14.3458-.1173-21.5084-.452-3.0802-.1439-6.131-.9156-9.1951-1.4021 3.7456-1.6311 7.4421-3.3911 11.256-4.8428 2.122-.8078 3.4227-1.8839 3.2282-4.2736 7.9897-.1367 16.0861.6857 23.7643-2.2512.0725-.3188.1449-.6377.2175-.9564-1.6921-.7379-3.3843-1.4757-5.2992-2.3105 1.1404 0 2.0948.0155 3.0484-.0035 1.7559-.035 3.5032-.3854 4.2546-2.1261.766-1.7742-.5687-2.9747-1.7028-4.1558-3.2809-3.4172-6.6115-6.7917-9.7761-10.3145-5.5003-6.1228-10.6648-12.5637-16.3932-18.4603-5.3084-5.4643-11.374-10.1891-16.7396-15.6028-7.4695-7.5366-14.9203-15.1384-21.7635-23.2329-4.9922-5.905-8.9908-12.6499-13.4322-19.0204.6643.1425 1.3244.3114 1.994.423 2.9475.4919 5.5303-1.1836 5.7952-3.7432.2035-1.9661-1.3851-4.0473-3.3957-4.4491-3.3985-.6793-5.2702.2779-6.2909 3.2168-.459-.3465-1.1441-.5948-1.3433-1.054-2.8112-6.4799-5.6259-12.9602-8.291-19.5011-1.5532-3.8121-1.0427-8.5229-4.9865-11.2832-.0478-.0335-.0429-.1423-.0626-.216 11.0565 3.4813 21.5393 8.2088 31.3377 14.4232.2361 1.7947.3709 3.6097.7264 5.3804 1.3108 6.5319 3.585 12.6888 7.2448 18.3055.4252.6523.4578 1.5605.6724 2.3502-1.1926-1.0661-2.3854-2.1323-3.5782-3.1984-.2988.1884-.5976.3766-.8965.565.4714 1.4344.7116 3.0025 1.4505 4.2826 6.7316 11.6614 16.6632 19.2437 29.5977 22.9244.6597.1877 1.3104.4066 1.9654.6111.3345.3768.602.8631 1.0135 1.114 5.6334 3.4359 11.8878 4.6942 18.3558 4.7644 7.1271.0774 14.1346-1.0895 20.8937-3.3458 10.3869-3.4673 20.4615-7.7333 29.886-13.3249 8.6482-5.131 17.1712-10.4903 25.5412-16.062 2.5071-1.6689 4.3147-4.3885 6.4427-6.6267.3019-.0156.6038-.0313.9057-.0469.1192.3592.1569.7778.3698 1.0685 2.6619 3.636 1.8628 7.167.0825 10.9322-2.6339 5.5699-5.0271 11.2953-5.7545 17.4825-.5896 5.0143-.6263 10.0641 1.5383 14.8156.8574 1.882 1.8466 3.7287 3.618 4.6093.3401-1.7398.6451-3.2999.9502-4.8599zm-18.2537-15.1669c-2.6158-.0154-4.6025 1.8555-4.6367 4.3292-.047 3.3824 3.2885 6.1434 6.9994 6.6039 1.9111.2372 4.0123-2.2242 4.039-4.4542.0399-3.3688-3.0132-6.4588-6.4017-6.4789zm88.9787 33.5716c-2.8103-.0067-5.2402 2.2642-5.3046 4.9578-.057 2.3792 2.734 5.12 5.244 5.15 2.8318.0336 5.7381-2.5461 5.791-5.1402.0565-2.7614-2.4794-4.9598-5.7304-4.9676zm-134.9484 34.0357c3.1134.0342 4.5259-1.2346 4.5449-4.0828.0181-2.7144-1.6954-4.5987-4.2345-4.657-2.4065-.0551-4.9931 2.2513-4.9575 4.4206.0405 2.4772 1.991 4.29 4.6471 4.3192zm75.8325-8.816c.0284-2.6268-1.6133-4.4846-3.9989-4.5257-2.2763-.0392-4.2491 1.8434-4.279 4.0831-.031 2.3252 1.9285 4.1677 4.4664 4.1996 2.4449.0307 3.7848-1.2903 3.8115-3.757zm-76.811-46.4548c-.0282 2.6436 1.3047 4.1247 3.7855 4.2068 2.0483.0677 4.0625-2.0214 4.0331-4.1829-.0297-2.1704-2.0359-4.1188-4.1798-4.0594-1.7211.0477-3.6189 2.1523-3.6388 4.0355zm33.3062 27.2146c2.5826.0057 3.5159-.7405 3.4874-2.7879-.0255-1.8175-2.4643-4.0543-4.4805-4.1096-2.1399-.0587-3.3255 1.1476-3.3376 3.3958-.0122 2.232 1.5505 3.4956 4.3307 3.5017zm-35.5301-.0678c.9307-.563 2.1368-.8815 2.3875-1.5555.2694-.7243-.0745-2.079-.6535-2.6326-1.1902-1.1381-2.6614-2.023-4.1184-2.8289-1.3805-.7636-2.8194-.1963-3.2399 1.1192-.3195.9996-.0728 2.7812.6311 3.3774 1.332 1.1279 3.1738 1.6541 4.9932 2.5204zm160.4401-18.8894c-.0263-2.1078-1.0142-3.1248-3.0305-3.1197-2.1903.0054-3.8168 1.429-3.8617 3.3799-.0425 1.8503 1.6405 3.5412 3.4934 3.5099 1.9454-.0329 3.4249-1.674 3.3988-3.7701zm48.3529 28.6113c-2.3708.0244-3.8054 1.6314-3.7411 4.0302.0465 1.7379 1.347 2.9337 3.1124 2.8618 1.9384-.0788 3.9521-2.2207 3.7264-4.2016-.2058-1.8056-1.2087-2.9427-3.0977-2.6904zm-45.4-8.2684c-1.4343.0199-2.9121 1.5475-2.9003 2.998.0151 1.844 2.0984 3.9619 3.8757 3.8784 1.7347-.0815 2.3628-1.3417 2.4461-2.7777.1308-2.2487-1.5418-4.1245-3.4215-4.0987z" fill="#d1eef9"/><path d="m143.819 267.0069c4.905 1.6772 9.9688 2.9974 14.6868 5.0953 17.6886 7.8655 35.3667 15.769 52.8568 24.0628 23.4479 11.1191 46.6776 22.6974 70.0762 33.9219 19.805 9.5006 39.7174 18.778 59.5809 28.1569.6193.2924 1.2242.6154 2.2303 1.1233-2.7191 1.3377-5.1425 2.5629-7.5934 3.7308-15.9613 7.6067-31.8583 15.3539-47.9174 22.7482-11.6 5.341-23.2722 10.6417-35.8433 13.3724-3.2265.7009-6.6564.8498-9.9627.6773-2.6639-.1389-3.8207-1.5979-3.257-4.2311.9057-4.2306 2.3249-8.364 3.7138-12.4754 2.2481-6.6543 5.1387-13.1328 6.8584-19.9138 2.135-8.4183-2.3857-14.1051-10.9895-15.3426-9.0156-1.2966-17.4735 1.0405-25.8627 3.745-15.6767 5.0535-29.9169 13.2671-44.6016 20.4995-2.1226 1.0455-4.2831 2.0141-6.4256 3.0175-.7708-5.6214-1.5519-11.2408-2.3113-16.863-.864-6.396-1.6918-12.797-2.5677-19.1914-.6491-4.7402-1.3633-9.4714-2.0245-14.2099-.8499-6.0918-1.6325-12.1932-2.5237-18.2791-.9573-6.5361-1.8978-13.0781-3.046-19.5822-1.2008-6.803-1.9884-13.7297-5.0768-20.0624z" fill="#de2c1a"/><path d="m116.5485 465.1568c3.0641.4865 6.1149 1.2582 9.1951 1.4021 7.1626.3347 14.3486.6696 21.5084.452 11.4833-.3488 22.9526-1.1469 34.4282-1.7501 3.3458-.1758 6.6925-.3344 10.0388-.5005.7582-.0044 1.5166-.0091 2.275-.0136 7.9919-.4416 15.9836-.8858 23.9756-1.3231 3.0466-.1667 6.0956-.2917 9.1407-.4808 7.2261-.4486 14.4552-.8599 21.6741-1.4053 9.338-.7056 18.6789-1.4103 27.9972-2.3312 9.3076-.92 18.6168-1.9099 27.8736-3.2304 9.4078-1.3421 18.799-2.8949 28.1126-4.7758 10.6702-2.1551 21.2935-4.5889 31.8461-7.2612 5.9815-1.5146 11.8194-3.6395 17.6517-5.6898 6.6945-2.3534 13.3625-4.8004 19.9479-7.4415 7.1581-2.8709 14.23-5.9609 21.2993-9.0475 8.4532-3.691 16.8638-7.4797 25.6767-10.8535-.8182 1.0695-1.5846 2.1837-2.4634 3.2009-5.238 6.0621-10.4799 12.121-15.7625 18.1442-6.8433 7.8026-13.7289 15.5681-20.5826 23.3617-.2905.3304-.443.7819-.6601 1.1774-14.2774 6.6552-29.1793 11.4435-44.5392 14.8412-21.3385 4.7203-42.9492 7.6577-64.7205 9.2735-16.2613 1.2068-32.552 2.1669-48.8472 2.7214-17.6056.5992-35.2371.9945-52.8475.7533-18.8312-.2579-37.6612-1.1659-56.471-2.1733-10.6171-.5687-21.2021-1.8598-31.4549-4.9675-1.1641-.3528-2.3243-.7946-3.3942-1.3673-2.5931-1.3878-2.9613-2.7216-.687-4.4734 3.0536-2.3523 6.5072-4.1857 9.7891-6.2419zm249.9878-9.5681c2.9714-.0045 5.0457-1.8529 4.989-4.4456-.0504-2.3066-2.0664-4.2414-4.4759-4.2955-2.1934-.0493-5.048 2.6104-5.1057 4.757-.0583 2.1824 2.0229 3.9879 4.5926 3.9841zm-96.8397 13.3362c2.919-.0081 5.7944-2.1248 5.692-4.1901-.0788-1.5872-2.4561-3.2036-4.6755-3.1792-2.911.032-5.029 1.8369-4.9562 4.2235.0577 1.8898 1.6385 3.1521 3.9397 3.1458z" fill="#abe0f4"/><path d="m88.6963 82.5865c-.1556 1.4027-.5394 2.8248-.423 4.2045.3228 3.821.854 7.6244 1.3026 11.4347.7584 23.6297 4.4557 46.7753 11.7335 69.2868 4.9824 15.4118 10.3212 30.7082 15.3303 46.1117 5.4364 16.7175 10.6776 33.4983 15.9957 50.2543.3911 1.2321.4444 2.2873-.9161 3.1555-9.0013 5.7455-17.1474 12.5346-24.4717 20.3083-.2029.2153-.4546.3845-.9219.7734-.8637-2.3312-1.7188-4.4908-2.4687-6.6863-4.9689-14.549-10.0412-29.0643-14.8367-43.6704-5.743-17.4917-11.4369-35.0215-14.7997-53.1657-1.637-8.8329-3.1173-17.7422-3.8447-26.684-.817-10.0444-1.38-20.2012-.8336-30.2426.772-14.1843 2.534-28.3505 9.7948-41.0655 1.6983-2.974 3.7295-5.7579 5.6081-8.6293 1.2169 1.2504 2.4334 2.5011 3.6499 3.7518.0339.2875.0675.5751.1012.8628z" fill="#1760b4"/><path d="m60.6301 320.9992c.0197.0737.0148.1826.0626.216 3.9437 2.7603 3.4333 7.4711 4.9865 11.2832 2.6651 6.5408 5.4798 13.0211 8.291 19.5011.1992.4591.8843.7075 1.3437 1.0536.6326 1.5174 1.2648 3.0352 1.8969 4.5529 4.4415 6.3706 8.4401 13.1154 13.4322 19.0204 6.8432 8.0945 14.294 15.6963 21.7635 23.2329 5.3656 5.4137 11.4312 10.1385 16.7396 15.6028 5.7285 5.8965 10.8929 12.3375 16.3932 18.4603 3.1646 3.5228 6.4952 6.8973 9.7761 10.3145 1.1341 1.1811 2.4688 2.3816 1.7028 4.1558-.7514 1.7407-2.4986 2.0912-4.2546 2.1261-.9536.019-1.908.0035-3.0484.0035 1.9149.8349 3.607 1.5726 5.2992 2.3105-.0726.3187-.145.6376-.2175.9564-7.6782 2.9369-15.7745 2.1144-23.7643 2.2512-1.4109-.9376-2.7106-2.393-4.2519-2.724-7.249-1.5573-14.5627-2.816-21.8567-4.1627-20.2972-3.7476-40.2103-8.7638-58.8519-17.9309-8.8834-4.3687-17.5392-9.13-24.6087-16.2261-3.2085-3.2206-5.8803-6.869-6.9763-11.423-1.0746-4.4655.4126-6.4247 5.0192-6.3847 2.6701.0233 5.3378.3174 8.0068.4895.4612.6762.8072 1.482 1.4012 2.0081 5.3548 4.7432 10.753 9.4374 16.2572 14.2498-1.2612 3.8654-1.09 5.4267 1.1005 6.6099 3.0918 1.6701 4.771-.5182 6.0579-2.2007 7.1712 2.8727 14.0071 5.8962 21.0421 8.3485 6.9776 2.4322 14.2247 4.084 21.2292 6.4474 10.0395 3.3874 19.9625 7.1194 29.9434 10.6816 2.0217.7215 4.0795 1.3419 6.1206 2.0088-.0028-.5154-.1293-.7294-.3054-.7846-6.8882-2.1596-12.7134-6.292-18.622-10.2122-2.0672-1.3715-3.696-3.4036-5.5249-5.1341 1.3284.7495 2.6511 1.5092 3.9867 2.2456 1.3133.724 2.6398 1.4245 4.3777 1.7353-.3206-.4663-.5397-1.0829-.9763-1.3772-17.2353-11.6143-30.2586-27.3542-42.7193-43.6319-7.8277-10.2255-15.2867-20.7189-21.3996-32.0794-3.8011-7.0641-6.4336-14.5727-7.0295-22.6548-.2952-4.0025.5096-7.767 2.9746-11.0622 1.9591-2.6187 4.5481-3.8626 7.7937-3.3692 2.4879.3782 4.9408.9862 7.4092 1.492zm-9.8533 10.4079c1.7343-.0078 3.2601-1.4632 3.2759-3.1247.0133-1.3853-1.6727-2.8593-3.2747-2.8634-1.6567-.0041-3.004 1.341-3.0167 3.0119-.0135 1.7539 1.2332 2.9843 3.0155 2.9762zm83.1592 115.219c-.1166-.0099-.2333-.0199-.35-.0298.0546.0439.1063.1182.1642.123.0589.0049.1235-.0583.1858-.0932zm1.1881.5613c.062-.0331.1242-.0661.1863-.0992-.0543-.0436-.1057-.1175-.1632-.1224-.0585-.0051-.1228.0578-.1846.0909.0539.0436.1077.0871.1615.1307z" fill="#abdff4"/><path d="m290.1358 143.2955c2.2231-11.6054 4.4478-23.2105 6.6684-34.8165.6455-3.3736 1.4458-6.7301 1.8408-10.1332.1703-1.4667-.5099-3.0321-.8034-4.5529.2026-1.1365.405-2.2724.6073-3.4084.3465.1433.7353.2269 1.0331.4384 11.4355 8.1208 22.8614 16.255 34.2913 24.3836 8.2012 5.8325 16.4144 11.6478 24.5993 17.5028 1.0457.748 2.0637 1.5925 2.9067 2.5566 6.7759 7.7481 13.4453 15.5904 20.3023 23.2654 1.3947 1.5611 2.255 2.997 1.887 5.0605-2.1527-2.0574-4.4134-4.0141-6.4417-6.1877-19.4983-20.8956-42.141-38.0196-65.306-54.5158-1.9464-1.3862-3.6201-.5094-4.2225 1.8532-1.2087 4.7394-2.5177 9.4531-3.7649 14.1829-.6876 2.6075-1.8712 4.9079 1.2023 7.3665 4.0834 3.2668 7.1455 7.8158 11.2451 11.0562 17.407 13.7583 34.9886 27.2977 52.6181 40.7712 4.0597 3.1026 8.5608 5.628 12.8587 8.419-1.0251 6.9697-1.8524 13.9762-3.1413 20.8967-.942 5.0571-2.491 10.001-3.7695 14.9954-8.5202-6.7443-16.8606-13.7324-25.5974-20.1833-19.491-14.3912-39.9815-27.2446-61.2954-38.7757.0218-1.2207-.0961-2.4634.0907-3.6584.6559-4.1964 1.441-8.3725 2.1062-12.5675.082-.5178-.2632-1.1034-.4104-1.6576.0529-.2927.1057-.5853.1584-.878.112-.4713.2243-.9423.3368-1.4134z" fill="#cecfda"/><path d="m88.6963 82.5865c-.0336-.2877-.0673-.5753-.1002-.8633.3417-2.0713.6825-4.1422 1.0234-6.2132 24.1017 15.2784 50.3473 26.2578 76.2569 37.8861 36.56 16.4083 72.6646 33.7258 107.9105 52.8162 21.6387 11.7204 42.7516 24.2791 62.8906 38.4494 14.1751 9.9741 27.5945 20.8804 40.5438 32.3875 4.2328 3.7614 8.9906 6.9938 12.875 11.0715 7.9046 8.2979 15.5722 16.8424 22.9733 25.5934 6.9623 8.2322 13.6393 16.7248 20.0667 25.3814 2.613 3.5194 4.3713 7.7111 6.2405 11.7263.7407 1.5909 1.0089 3.5326 1.0129 5.3157.0433 19.4363-3.507 38.3508-8.2704 57.107-.7404 2.9152-2.1047 4.5797-4.9149 5.2215 1.3884-5.3856 2.9748-10.7306 4.1131-16.1692 1.2921-6.1736 2.6042-12.3957 3.1306-18.6618.5276-6.2828.3505-12.6597.0085-18.9697-.2834-5.2321-1.2628-10.4259-1.9168-15.6388-.1325-1.0562-.533-2.2405-.2166-3.1621 1.1143-3.2469-.9445-5.1654-2.7217-7.2028-8.7335-10.0132-17.5067-19.9918-26.2427-30.0028-3.7122-4.2541-6.978-8.9871-11.1268-12.7533-9.8842-8.9723-19.6825-18.0703-31.0329-25.3085-8.7573-5.5844-17.0203-11.9491-25.8221-17.457-11.0079-6.8886-22.2359-13.446-33.5675-19.7916-10.5447-5.9049-21.2454-11.5546-32.0663-16.9372-14.7254-7.3247-29.7004-14.147-44.4398-21.4445-17.3403-8.5852-34.2535-17.9612-51.0522-27.581-10.7126-6.1347-22.0682-11.1869-33.3085-16.3473-10.9017-5.005-22.0775-9.41-33.0321-14.304-7.3909-3.3018-13.9035-7.9469-19.2143-14.1479z" fill="#6cc7e6"/><path d="m298.4488 90.3844c-.2023 1.136-.4047 2.2719-.6073 3.4084-2.4777-.6684-3.3673.9156-3.8178 2.8487-1.9256 8.2631-4.1479 16.4788-5.587 24.8282-2.1796 12.6452-3.7973 25.3872-5.6602 38.0871-.0304.207-.142.4021-.308.8536-2.6184-1.3826-5.1487-2.7608-7.7155-4.067-16.9832-8.6438-33.9613-17.2982-50.9845-25.8629-1.613-.8116-2.1633-1.6977-2.1375-3.4899.1805-12.5571 2.6053-24.7666 5.5865-36.8889.1765-.7176 1.043-1.6092 1.7533-1.7975 5.7462-1.5226 11.4739-3.2308 17.3181-4.2429 10.8286-1.875 21.8026-1.8524 32.7499-1.4158 5.7954.2311 11.6336.5345 17.1196 2.8062.7634 1.6443 1.5269 3.2886 2.2904 4.9327zm-66.6726 6.4576c.3386 1.1758.815 1.9174.6891 2.5364-1.0961 5.3823-2.2074 10.765-3.5047 16.1013-.8652 3.5585.348 4.9629 3.9604 4.2424 2.2462-.448 4.4944-1.05 6.7653-1.1837 14.0999-.8305 28.2081-1.5236 42.3075-2.3616.8774-.0521 2.1267-.7394 2.4884-1.4801 2.7781-5.6882 4.468-11.65 4.4061-18.0832-.0159-1.6522-.7116-2.5266-1.9194-2.7742-3.95-.8097-7.9368-1.8318-11.9322-1.9423-6.9502-.1919-13.949-.1151-20.8685.5049-6.5909.5906-13.113 1.982-19.6482 3.1198-.9751.1698-1.8564.8792-2.7438 1.3203z" fill="#acacc0"/><path d="m133.8411 268.1924c1.5852 6.0125 3.2276 11.5729 4.5035 17.2161 2.9641 13.1105 6.051 26.2053 8.5103 39.414 1.7868 9.5966 2.807 19.3481 3.8735 29.063.8499 7.7428 1.2172 15.5379 1.8855 23.3022.1365 1.5855-.3215 2.4267-1.8776 2.8024-3.1152.7522-6.2052 1.6078-9.3145 2.3847-1.7748.4433-2.6451-.1817-3.2854-2.0553-7.4208-21.7127-14.9585-43.3856-22.465-65.0691-2.5263-7.2975-4.9875-14.6184-7.6238-21.8758-.6618-1.8216-.3203-2.9927 1.0718-4.1805 6.8632-5.8557 13.6867-11.7581 20.5372-17.629 1.2137-1.0399 2.488-2.0089 4.1845-3.3727z" fill="#c91500"/><path d="m305.2877 55.434c4.0731-1.4088 8.226-1.109 12.3518-.4242 7.4273 1.2327 14.3616 3.8551 20.8147 7.7399-.1536.6374-.4588 1.2807-.4337 1.9108.0912 2.2839.3776 4.5611.4392 6.8449.2949 10.918.54 21.8372.8029 32.7559-5.6129-3.9192-11.1804-7.9055-16.8508-11.7395-6.1798-4.1784-12.4564-8.2134-18.6842-12.3209-.3109-.2051-.5583-.5065-.834-.7636.1286-1.1322.2699-2.2624.3812-3.3955.6747-6.8689 1.3427-13.7385 2.0129-20.6078z" fill="#818182"/><path d="m106.2131 429.701c1.8289 1.7305 3.4577 3.7625 5.5249 5.1341 5.9087 3.9202 11.7338 8.0526 18.622 10.2122.1761.0551.3026.2691.3054.7846-2.0411-.667-4.0989-1.2873-6.1206-2.0088-9.9808-3.5621-19.9039-7.2942-29.9434-10.6816-7.0045-2.3633-14.2516-4.0151-21.2292-6.4474-7.0351-2.4523-13.8709-5.4759-21.0421-8.3485-1.2868 1.6825-2.9661 3.8708-6.0579 2.2007-2.1905-1.1831-2.3617-2.7445-1.1005-6.6099-5.5042-4.8124-10.9024-9.5066-16.2572-14.2498-.594-.5261-.94-1.3319-1.4012-2.0081 10.8033.8584 21.2862 3.3284 31.6889 6.2369 9.842 2.7518 19.1666 6.7866 28.3286 11.2397.4078.1982.7958.4569 1.1515.7397 5.3874 4.2822 10.7677 8.5732 16.1498 12.8621.2982.2007.5966.4012.8949.6016.1621.1142.324.2284.4861.3425zm-56.0752-21.0306c.2317-.307 1.3329-1.4511 1.1928-1.6316-.9613-1.238-2.1824-2.2741-3.3198-3.3754-.697.8015-1.7676 1.5068-2.0046 2.4267-.3699 1.4367 1.2844 2.5812 4.1316 2.5803z" fill="#d1eef9"/><path d="m298.4488 90.3844c-.7635-1.6442-1.527-3.2885-2.2905-4.9326 6.3627 2.0711 11.7069 5.9281 17.0478 9.7736 13.9218 10.0235 27.9144 19.9522 41.7029 30.1563 12.4677 9.2267 24.1212 19.3756 33.6573 31.7511 1.5715 2.0392 2.5604 4.1827 2.3528 6.755-.7819 9.6852-1.2482 19.4136-2.5029 29.0384-1.4931 11.453-3.6743 22.8162-5.5652 34.2169-.0984.5938-.271 1.1755-.4963 2.1339-2.6505-2.3857-5.1292-4.6167-7.608-6.8478 1.2785-4.9944 2.8276-9.9383 3.7695-14.9954 1.2889-6.9205 2.1162-13.9271 3.1413-20.8967.5536-.74 1.3638-1.4024 1.6154-2.2338.9676-3.1995 1.5775-6.5141 2.6556-9.6715 1.4581-4.2699 1.6535-8.0901-2.4602-11.0401.368-2.0637-.4923-3.4995-1.887-5.0606-6.8571-7.675-13.5264-15.5173-20.3023-23.2654-.8431-.964-1.8611-1.8086-2.9067-2.5566-8.1848-5.855-16.398-11.6703-24.5993-17.5028-11.4299-8.1285-22.8558-16.2628-34.2913-24.3836-.2976-.2114-.6864-.2949-1.0329-.4383z" fill="#e3e3e9"/><path d="m348.9446 363.0012c-.919 1.0373-1.6964 2.2623-2.7806 3.0805-5.5954 4.2215-11.1281 8.5505-16.9525 12.4376-6.8395 4.5644-13.8879 8.829-20.9727 13.0085-6.5067 3.8387-13.067 7.6202-19.811 11.0152-9.4043 4.7342-18.9048 9.3825-29.4641 11.0499-7.3546 1.1613-14.549.7974-20.7018-4.027-2.0898-1.6386-3.6809-3.9132-5.9062-6.3401 1.612-.1404 2.3954-.2086 3.1792-.2769 0 0-.0247.047-.0255.048.1144.067.2296.1328.3449.1988 4.4834 3.3299 9.5296 2.8738 14.5525 1.9965 10.4862-1.8314 20.3537-5.6743 29.9393-10.0996 21.8831-10.1025 43.6266-20.5077 65.4315-30.7799 1.0326-.4863 2.1104-.8765 3.167-1.3115z" fill="#abdff4"/><path d="m231.2832 353.1623c-2.128 2.2382-3.9355 4.9578-6.4427 6.6267-8.37 5.5717-16.893 10.931-25.5412 16.062-9.4246 5.5916-19.4992 9.8575-29.886 13.3249-6.759 2.2563-13.7666 3.4232-20.8937 3.3458-6.468-.0702-12.7224-1.3285-18.3558-4.7644-.4114-.2509-.679-.7372-1.0135-1.114 13.3144 3.2294 24.9533-1.7302 36.4678-7.4088 12.4148-6.1228 24.7856-12.344 37.3282-18.1953 7.9821-3.7238 16.3982-6.3434 25.1487-7.7033 1.0464-.1628 2.1247-.1208 3.1882-.1736z" fill="#abdff4"/><path d="m366.3779 369.7616c13.9124 6.2296 27.1427 12.1534 40.9555 18.3383-3.7003 1.6461-6.7942 3.2446-10.0402 4.4248-9.7569 3.5471-19.5511 6.9964-29.3854 10.3221-1.9086.6455-4.0588.7057-6.1068.7808-3.5405.1297-5.4008-1.465-5.3419-5.0058.045-2.7065.3506-5.5661 1.2993-8.0699 2.6197-6.9141 5.6375-13.6774 8.6195-20.7903z" fill="#de2c1a"/><path d="m474.0965 361.7485c-1.993 2.2226-3.8222 4.6518-7.1004 5.1294-.4663.0679-1.1735.4754-1.2602.8451-.8605 3.6657-4.2686 4.8792-6.7595 6.7924-11.8229 9.0803-25.1913 15.4555-38.709 21.5355-8.2865 3.7271-16.4754 7.6842-24.8517 11.1957-9.3303 3.9114-18.9431 6.9189-29.265 6.4699-5.465-.2378-10.3364-1.9212-13.96-6.2691-.449-.5387-.6-1.3257-.889-1.9977.8661.135 1.7321.27 2.5985.405 3.4579 3.6853 7.8275 3.4495 12.1935 2.6208 11.5712-2.1962 22.5769-6.2708 33.1833-11.2105 20.9425-9.7534 41.6786-19.9491 62.517-29.9268 4.0617-1.945 8.1997-3.7307 12.3025-5.5897z" fill="#abdff4"/><path d="m470.9439 401.7931c-3.1971 1.2004-6.4123 2.3554-9.5865 3.6138-3.3135 1.3138-6.5875 2.7271-10.1676 4.2169.1027-.6049.0457-1.023.228-1.2356 9.7701-11.3864 19.2766-22.9878 27.468-35.5774 2.8589-4.394 5.1313-9.173 7.5952-13.8168.3676-.6927.3136-1.6091.4548-2.4221 2.551-.7144 5.0656-1.6516 7.6638-2.0773 2.3825-.3904 3.581 1.0739 2.6502 3.3445-2.2237 5.4239-4.4324 10.894-7.2076 16.0434-5.3675 9.9597-11.6358 19.3576-19.0983 27.9106z" fill="#e7f6fb"/><path d="m100.6113 361.4584c-.2146-.7897-.2472-1.6978-.6724-2.3502-3.6598-5.6167-5.934-11.7736-7.2448-18.3055-.3554-1.7707-.4903-3.5857-.7264-5.3804 9.7059 5.6246 18.6001 12.3748 27.1348 19.6174.5008.425.9357 1.0457 1.1568 1.6628 1.3677 3.8179 2.6655 7.6608 3.9862 11.4951-3.4834 2.4444-4.3043 4.6682-3.3201 8.7367.1177.4871-.1213 1.0601-.195 1.5934-8.4831-3.5955-15.0174-9.4881-20.1191-17.0693z" fill="#abdff4"/><path d="m143.819 267.0069c3.0884 6.3327 3.876 13.2594 5.0769 20.0622 1.1482 6.5041 2.0887 13.0461 3.046 19.5822.8912 6.0858 1.6737 12.1873 2.5237 18.2791.6611 4.7385 1.3753 9.4698 2.0245 14.2099.8758 6.3944 1.7037 12.7954 2.5677 19.1914.7594 5.6223 1.5405 11.2416 2.3113 16.863-1.4065.74-2.8125 1.4792-4.812 2.5304-1.2621-38.421-8.3431-75.4325-19.1476-112.4504 2.5199.681 4.4646 1.2067 6.4095 1.7322z" fill="#c91500"/><path d="m310.321 35.7303c6.0036-1.325 11.5403.4653 16.9248 2.7492 4.1497 1.7602 8.1612 3.8498 12.2073 5.8474.4852.2396 1.0604.7683 1.157 1.2506.87 4.3471 1.6471 8.713 2.4319 13.077.0499.2769-.0629.583-.1467 1.243-10.4448-6.1848-21.3699-10.2108-33.5228-9.9288.3167-4.7464.6327-9.4924.9485-14.2384z" fill="#ee4200"/><path d="m232.9928 397.1638c-.305 1.5601-.6099 3.1201-.95 4.8595-1.7714-.8805-2.7606-2.7273-3.618-4.6093-2.1646-4.7516-2.1279-9.8014-1.5383-14.8156.7274-6.1871 3.1206-11.9125 5.7545-17.4825 1.7803-3.7652 2.5794-7.2961-.0825-10.9322-.2128-.2906-.2505-.7092-.3698-1.0685 2.7805.3475 5.6245.4413 8.3231 1.1158 2.5441.636 3.7521 2.5645 3.6951 5.3637-.1008 4.9607-2.0825 9.3556-3.7869 13.8516-2.1663 5.7143-4.4223 11.3987-6.3997 17.1779-.7036 2.0566-.7052 4.3528-1.0275 6.5396z" fill="#e7f6fb"/><path d="m353.0203 387.6035c-2.5392.646-2.5147 3.1409-2.963 4.8637-.8224 3.1608-.9118 6.5123-1.3227 9.9156-.2968-.3376-.9443-.859-1.3167-1.5327-2.918-5.2777-2.5692-10.9019-1.3898-16.4912 1.5341-7.2713 4.3029-14.1172 7.7411-20.7019.549-1.0513.7891-2.264 1.172-3.4023 3.7122-1.5143 7.4244-3.0286 11.1366-4.5427.2253.2192.4505.4384.6757.6576-.4571 1.4599-.7578 2.9926-1.3976 4.3676-3.2892 7.0694-6.6875 14.0881-9.9966 21.1485-.8729 1.8622-1.5643 3.8094-2.339 5.7178z" fill="#e7f6fb"/><path d="m305.2877 55.434c-.6702 6.8693-1.3382 13.739-2.0129 20.6077-.1113 1.1331-.2526 2.2633-.3812 3.3955-3.7467-1.0015-7.4904-2.011-11.2399-2.9978-.5848-.154-1.1938-.2592-1.7967-.2914-1.3414-.0715-1.7268-.7863-1.4537-2.0006.8682-3.8614 1.7275-7.7248 2.6225-11.5799.1138-.4906.2896-1.1635.6534-1.3692 4.3126-2.4386 8.5313-5.1256 13.6085-5.7643z" fill="#646465"/><path d="m310.321 35.7303c-.3158 4.746-.6317 9.492-.9485 14.2383-6.0974.9408-11.8491 2.8598-16.8373 6.1519 0-4.1286-.1082-8.147.0948-12.1495.0389-.7658 1.1776-1.703 2.0249-2.1631 4.9554-2.6917 9.9133-5.4249 15.6661-6.0776z" fill="#e02800"/><path d="m306.694 31.6331c-3.6056 1.6202-7.2218 3.2174-10.8107 4.874-1.1619.5364-2.252 1.2283-3.4649 1.8988-.8261-5.493-1.6294-10.8343-2.46-16.358 5.1738-2.679 10.9498-2.6363 16.7488-2.4467-.0044 4.0105-.0088 8.0212-.0132 12.0319z" fill="#646465"/><path d="m306.694 31.6331c.0044-4.0107.0088-8.0215.0132-12.0319 8.2479.8763 16.0095 3.4007 23.4756 6.9254.1612.7935.2643 1.6045.4948 2.3775.6828 2.2883 1.4157 4.5614 2.129 6.8404-2.4087-.9398-4.8109-1.8966-7.2272-2.8163-6.1615-2.3452-12.4829-2.4271-18.8854-1.2951z" fill="#818182"/><path d="m339.2626 104.2613c-.2628-10.9187-.508-21.838-.8029-32.7559-.0616-2.2838-.348-4.561-.4392-6.8449-.0252-.6301.2801-1.2734.4337-1.9108 6.1961 3.5218 5.9129 3.5446 6.4822 10.6472.899 11.2157-.2649 22.2747-1.758 33.7641-1.4119-1.0456-2.6639-1.9726-3.9158-2.8997z" fill="#b3b4b4"/><path d="m120.7305 378.5277c.0737-.5333.3127-1.1064.195-1.5934-.9842-4.0685-.1634-6.2923 3.3201-8.7367 1.5626 4.2022 3.1248 8.404 4.6869 12.6059-.1582.2201-.3167.4402-.4749.6604-2.5758-.9787-5.1514-1.9576-7.7271-2.9362z" fill="#6cc7e6"/><path d="m332.8066 35.7445c-.7133-2.279-1.4463-4.5521-2.129-6.8404-.2305-.773-.3336-1.5841-.4948-2.3775 2.3 1.0043 5.2699 1.4485 6.7099 3.1712 1.4172 1.6957 1.2839 4.6876 1.8286 7.1114.1969.8763.387 1.754.6852 3.1086-2.4434-1.5449-4.5216-2.8591-6.5999-4.1733z" fill="#b3b4b4"/><path d="m289.6404 145.5866c.1473.5542.4925 1.1398.4104 1.6576-.6652 4.195-1.4504 8.3712-2.1062 12.5675-.1868 1.195-.0689 2.4377-.0907 3.6584-2.5027-.8232-2.9337-2.2886-2.0591-4.7959 1.4956-4.288 2.5854-8.7175 3.8456-13.0876z" fill="#acacc0"/><path d="m89.6195 75.51c-.3409 2.071-.6817 4.1419-1.0234 6.2132-1.2174-1.2503-2.4339-2.501-3.6508-3.7514.9749-1.2266 1.9504-2.4533 3.0992-3.898.6369.5807 1.1059 1.0085 1.575 1.4362z" fill="#458dcf"/><path d="m290.1358 143.2955c-.1125.4711-.2248.9421-.337 1.4131.1125-.471.2247-.942.337-1.4131z" fill="#acacc0"/><path d="m76.6108 404.2215c.1591.2116.3184.4234.4776.6352-.3215-.0566-.643-.1132-.9646-.1697.1622-.155.3245-.3103.487-.4655z" fill="#fefefe"/><path d="m105.7271 429.3585c-.2982-.2004-.5966-.4009-.8949-.6016.2983.2005.5966.401.8949.6016z" fill="#abdff4"/><path d="m475.0158 361.3145c-.3083.1457-.6165.2915-.9248.4373.3082-.1458.6165-.2916.9248-.4373z" fill="#abdff4"/><path d="m235.8544 403.1957c-.1153-.066-.2305-.1318-.3449-.1988.1638-.0177.2786.0489.3449.1988z" fill="#d1eef9"/><path d="m269.3249 212.8482c2.2709 10.367-2.3962 17.8375-9.9247 24.244-5.5889 4.756-12.2756 7.4393-18.8154 10.4016-3.3265 1.5068-5.3659 3.9057-6.2903 7.3608-.1776.6637-.2864 1.3524-.5289 1.9908-.569 1.4982-1.4334 2.0439-2.624.5599-1.1957-1.49-2.3249-3.0337-3.4764-4.5589-3.2048-4.2448-7.247-6.8239-12.7506-7.1045-5.4001-.2756-10.8669-.4923-15.7849-3.2623-6.0206-3.391-9.7954-8.6893-12.4148-14.8684-.8712-2.0549-2.1963-2.4845-4.1111-2.2772-1.2117.1311-2.4284.3013-3.643.3023-3.459.0031-4.7018-1.6051-3.8959-4.9514 1.4847-6.1642 2.9848-12.3247 4.4606-18.491.2482-1.037.3342-2.1156.6207-3.1399.7863-2.8099 2.0795-3.3217 4.5363-1.8233 6.6629 4.0635 13.3149 8.1448 19.9758 12.2115 1.2411.7578 2.6341 1.3307 3.7115 2.2703.7622.6649 1.7293 2.0309 1.4928 2.6768-.3232.8833-1.6285 1.771-2.6439 1.9629-2.2703.4293-4.6218.4294-7.1363.6191 2.0332 4.4535 7.3912 7.2558 11.379 6.3207 2.0512-.4811 3.0906-2.0717 3.5001-3.8953.447-1.9904.7084-4.09.6156-6.1221-.3329-7.2948-.8497-14.5812-1.2608-21.2833-2.6512-1.3034-5.4734-2.175-7.6499-3.8738-3.9044-3.0476-3.3645-7.3621.6383-9.5776-1.557-1.3237-3.4445-2.481-4.7358-4.1106-3.7412-4.7225-2.6503-11.8505 2.1533-15.5595 6.8263-5.271 17.709-4.7595 23.1599 1.0887 3.6582 3.9246 3.8791 9.5747.6333 13.8327-.5677.7448-.7862 1.7558-1.2842 2.9205 4.66.3212 9.1359.1858 10.2984 5.5521.5615 2.5923-1.1852 4.422-6.7586 7.4213 3.0745 9.4474 5.5111 19.2224 12.3799 26.9727 2.3097 2.6062 3.7347 2.7635 6.6115.8665 2.0676-1.3633 3.9073-3.0721 6.1933-4.9028-2.3075-.2899-4.1115-.3936-5.8589-.7641-2.853-.6047-3.527-2.1918-1.8895-4.6493 3.1792-4.7712 6.4329-9.4951 9.7607-14.1637 1.8026-2.5289 3.5359-2.8318 5.7457-.7496 4.0096 3.7783 7.8309 7.7595 11.6636 11.7211 1.3252 1.3698 2.6243 2.8279 3.6031 4.4465.6092 1.0073 1.056 2.5548.7028 3.5499-.2426.6829-1.9842 1.1527-3.0576 1.1562-2.3588.008-4.7188-.3402-7.0791-.5422-.1508-.0273-.3006-.0556-.4505-.0838.0764.1018.1526.2037.2289.3057zm-49.3328-3.3085c.0999 4.1156.5669 8.2539-1.0432 12.2343-1.1479 2.8381-2.8861 4.9903-5.9697 5.8655-5.8164 1.651-12.57-1.4508-14.8475-7.0355-.581-1.4246-1.182-3.2721-.7375-4.5705.5118-1.495 2.1728-2.5965 3.3893-3.9288-3.5304-2.1526-7.3712-4.4944-11.2119-6.8363-1.7953-1.1938-3.5907-2.3876-5.4419-3.6187-1.62 6.8102-3.151 13.2458-4.6821 19.6819 2.1596.2263 4.1996.5051 6.2492.6363 2.042.1306 2.9806 1.0584 3.8434 3.0444 3.2894 7.5701 8.1038 13.7741 16.8238 15.4718 2.6856.5229 5.4662.6295 8.2112.7601 5.5984.2664 10.4359 2.1909 14.367 6.2439.8722.8992 1.7289 1.8135 2.3982 2.5168 2.0859-2.1042 4.0039-4.039 5.9218-5.9738 7.0902-3.2562 14.3338-6.2182 20.2682-11.5343 5.1285-4.5939 8.1313-10.0639 7.7168-17.1374-.1112-1.8963-.0168-3.8048-.0168-6.0502h10.1134c-4.0358-4.1299-7.7485-7.9293-11.4612-11.7289-.7052-.9674-1.4104-1.9348-2.4915-3.4178-3.5642 5.2018-6.559 9.5723-9.695 14.1494 3.0937.3134 5.5723.5646 8.051.8157-1.1625 5.787-4.0097 10.4082-9.4569 13.023-2.9007 1.3924-5.9375 1.2025-8.4-.9561-1.8106-1.587-3.4656-3.4729-4.7678-5.4972-5.3009-8.2401-7.7519-17.561-9.8321-26.9951-.2568-1.165-.0097-1.8943 1.4572-2.2839 1.4912-.3961 2.8947-1.3351 4.1735-2.2617 1.5438-1.1185 1.4033-2.616-.3917-3.3454-1.2959-.5267-2.8185-.6986-4.2352-.679-2.2987.0317-4.0887-.6444-5.0172-2.8264-.919-2.1602.2656-3.6885 1.8099-4.9721 1.8898-1.571 2.2052-3.5518 1.7382-5.8029-.8818-4.2491-4.2443-6.9463-8.8992-7.1266-3.0368-.9039-5.9408-.1861-8.6735 1.025-3.5895 1.5908-5.557 5.0714-5.1082 8.4341.4376 3.2771 3.151 5.7636 7.1287 6.4816.6711.121 1.4283-.0683 2.0408.1631.6598.2492 1.5042.7009 1.7365 1.2781 1.4553 3.6167.7312 4.6305-3.2229 4.7873-.6115.0243-1.2418-.0666-1.832.0519-.8447.1697-1.6604.4831-2.4886.7351.3942.9422.526 2.2466 1.2321 2.7578 2.0274 1.4676 4.1586 3.0037 6.4929 3.7735 2.1792.7186 2.4685 2.0114 2.6772 3.8348.6423 5.6102 1.3817 11.2095 2.0833 16.8132z" fill="#25303d"/><path d="m400.2403 303.2002c-3.2565-2.3661-5.9653-4.2903-8.6279-6.2762-15.9353-11.8868-31.7243-23.9758-47.844-35.6064-8.364-6.0349-17.274-11.3195-26.0147-16.8201-1.7916-1.1274-2.4306-2.3803-2.3316-4.4443.1672-3.4868.0578-6.9871.0583-10.4816.001-5.7466-.0275-11.4934.0056-17.2397.0157-2.7546 1.1391-3.7062 3.5411-2.5335 7.1432 3.4874 14.4441 6.7697 21.1809 10.9434 10.1318 6.2771 20.1043 12.8858 29.6402 20.0269 7.7868 5.8311 15.0255 12.4451 22.1362 19.108 3.877 3.6331 7.0231 8.0566 10.3954 12.2077.5647.695.9033 1.8431.8337 2.7422-.6001 7.7588-1.2965 15.5102-2.0198 23.2588-.1325 1.42-.5162 2.8167-.9534 5.1148zm-49.161-42.9329c1.0019.723 2.0038 1.446 3.3831 2.4413 0-1.9575 0-3.4277 0-4.898.0613-1.2435.1224-2.4869.1837-3.7303.118-2.1321.2361-4.2644.3542-6.3965.1037-1.6801.2074-3.3603.3109-5.0404.028-1.839.0559-3.678.0838-5.517.5277-1.6216-.5026-2.2712-1.7411-2.7909-1.8342-1.2454-3.6683-2.4909-5.5025-3.7362-2.873-1.9083-5.7459-3.8166-9.0364-6.0023-.3045 4.22-.57 7.8995-.8355 11.5789-.2387 2.3043-.4773 4.6087-.7161 6.9129-.042.7688-.0841 1.5375-.1263 2.3063-.2539 1.4024-.6127 2.7973-.711 4.2105-.0407.5835.4778 1.2057.742 1.8103 1.6895 1.0688 3.3788 2.1374 5.0684 3.206 1.4556.9257 2.9114 1.8514 4.367 2.7771 1.3921.9562 2.784 1.9123 4.1758 2.8683zm44.3664 34.7988c.8322.6738 1.6646 1.3477 2.8054 2.2714.2054-1.6996.3499-2.8965.4944-4.0934.0746-2.3151.1493-4.63.2238-6.9449.1068-2.4327.2136-4.8655.3205-7.2982.0965-2.1598.247-4.3194.2463-6.479-.0002-.4566-.5535-.9131-.8518-1.3696-.9029-.7832-1.8059-1.5665-2.7088-2.3499-1.9114-1.7347-3.8228-3.4695-5.734-5.2043-.1971.1111-.3942.2225-.5912.3338v8.1693c-.185 1.8295-.3702 3.659-.5552 5.4885-.4973 2.7577-.9946 5.5154-1.4919 8.273-1.2222 1.5978-.8351 2.8646.7727 3.9171.8138.5327 1.5896 1.1234 2.3827 1.688 1.5622 1.1995 3.1247 2.3988 4.6871 3.5982zm-11.8942-37.3437c-.8317-.7303-1.6632-1.4606-2.4948-2.1909-1.6882-1.5008-3.3763-3.0016-5.4656-4.8592-.2356 3.0654-.4272 5.5587-.619 8.0519-.2207 1.9959-.4414 3.9917-.6621 5.9876-.1905.9175-.381 1.8352-.5715 2.7527-.2507 1.8432-.5014 3.6866-.752 5.53.0149 1.0588.03 2.1178.0449 3.1767 1.3231 1.1195 2.6462 2.2389 3.9692 3.3584 1.3969 1.2054 2.7937 2.4107 4.1906 3.6161 1.4742 1.3724 2.9483 2.7448 4.991 4.6464 0-2.973 0-5.218 0-7.463.2004-1.9984.4008-3.9968.6012-5.9952.1574-2.4388.3149-4.8777.4723-7.3162.0721-1.072.1442-2.1441.2163-3.2161-.2489-1.0783-.498-2.1565-.747-3.2348-1.0578-.948-2.1156-1.8963-3.1735-2.8444zm-17.6764 13.041c1.1201.9149 2.2403 1.8299 3.6192 2.9562.1988-2.1674.3445-3.7552.49-5.3431.1919-1.9959.3837-3.9917.5754-5.9876.2029-3.0517.4056-6.1034.6083-9.155.1393-1.1281.2136-2.269.4325-3.3814.337-1.7128-.0322-3.0151-1.7947-3.6707-.157-.1319-.3139-.2639-.4708-.3958-1.8508-1.3875-3.7015-2.7749-5.5524-4.1624-1.9575-1.4842-3.9149-2.9683-6.2234-4.7185v8.4875c-.105 2.1485-.2102 4.2968-.3152 6.4452-.1251 1.2261-.2501 2.4521-.3752 3.6783-.3537 2.4505-.7072 4.9012-1.0607 7.3517 1.8745 1.5396 3.7491 3.079 5.6236 4.6184 1.4811 1.0925 2.9623 2.1848 4.4434 3.2772zm-35.2492-23.5375c.9798.6478 1.9597 1.2956 3.4102 2.2547 0-1.7142 0-2.9094 0-4.1043.1844-2.3019.3689-4.6037.5533-6.9056.3264-4.1313.6531-8.2625.9795-12.3938.6165-2.2424.4743-4.1416-2.2122-4.8905-.1502-.0556-.3004-.1112-.4507-.1667-1.3445-.7822-2.6889-1.5645-4.0335-2.3468-3.0688-1.8656-6.1376-3.7312-9.3703-5.6963v10.3778c-.0996 1.6717-.1994 3.3433-.299 5.0148-.0094.1562-.0187.3123-.0281.4683.1752 1.3799.3503 2.7597.5255 4.1396-.204 4.2921-1.3625 9.0009 4.6226 10.5918.0736.0196.148.036.2222.0538 2.0268 1.2011 4.0537 2.402 6.0805 3.6032z" fill="#25303d"/><g fill="#e7f6fb"><path d="m214.7393 381.9969c3.3885.0201 6.4417 3.11 6.4016 6.4788-.0266 2.2299-2.1279 4.6914-4.039 4.4542-3.7109-.4604-7.0463-3.2215-6.9994-6.6039.0342-2.4735 2.021-4.3444 4.6368-4.3291z"/><path d="m303.718 415.5685c3.251.0079 5.787 2.2062 5.7305 4.9676-.0529 2.5941-2.9592 5.1738-5.791 5.1402-2.5101-.03-5.3011-2.7708-5.244-5.15.0643-2.6937 2.4942-4.9646 5.3045-4.9578z"/><path d="m77.2108 357.606c-.6322-1.5178-1.2643-3.0356-1.8969-4.5529 1.0202-2.9384 2.892-3.8956 6.2904-3.2164 2.0106.4018 3.5991 2.483 3.3957 4.4491-.2649 2.5596-2.8476 4.2351-5.7952 3.7432-.6696-.1116-1.3297-.2806-1.994-.423z"/><path d="m168.7696 449.6042c-2.6562-.0291-4.6066-1.8419-4.6471-4.3192-.0355-2.1693 2.551-4.4757 4.9575-4.4206 2.5392.0582 4.2526 1.9426 4.2345 4.657-.019 2.8481-1.4315 4.117-4.5449 4.0828z"/><path d="m244.6021 440.7882c-.0266 2.4668-1.3666 3.7877-3.8115 3.757-2.5378-.0319-4.4973-1.8744-4.4664-4.1996.0298-2.2397 2.0027-4.1223 4.279-4.0831 2.3855.0411 4.0272 1.8989 3.9989 4.5257z"/><path d="m167.7911 394.3334c.0199-1.8831 1.9177-3.9878 3.6388-4.0356 2.144-.0594 4.1501 1.889 4.1798 4.0594.0294 2.1615-1.9848 4.2506-4.0331 4.1829-2.4808-.082-3.8137-1.5631-3.7855-4.2067z"/><path d="m201.0973 421.548c-2.7802-.0061-4.3429-1.2697-4.3307-3.5017.0121-2.2483 1.1978-3.4545 3.3376-3.3958 2.0163.0553 4.4551 2.2921 4.4805 4.1096.0285 2.0474-.9048 2.7936-3.4874 2.7879z"/><path d="m165.5672 421.4802c-1.8194-.8663-3.6611-1.3924-4.9932-2.5204-.704-.5962-.9506-2.3778-.6311-3.3774.4205-1.3155 1.8595-1.8829 3.2399-1.1192 1.4569.8059 2.9282 1.6908 4.1184 2.8289.5791.5536.9229 1.9083.6535 2.6326-.2508.6739-1.4569.9925-2.3875 1.5555z"/><path d="m326.0073 402.5908c.0261 2.0961-1.4534 3.7372-3.3987 3.7701-1.8529.0313-3.5359-1.6597-3.4934-3.5099.0449-1.9509 1.6714-3.3745 3.8617-3.3799 2.0162-.0051 3.0041 1.0118 3.0304 3.1197z"/><path d="m374.3602 431.2021c1.889-.2523 2.892.8848 3.0976 2.6904.2257 1.9809-1.788 4.1228-3.7264 4.2016-1.7654.0718-3.0659-1.1239-3.1124-2.8618-.0642-2.3987 1.3704-4.0058 3.7412-4.0302z"/><path d="m328.9602 422.9337c1.8797-.0259 3.5522 1.85 3.4216 4.0987-.0834 1.436-.7115 2.6962-2.4461 2.7777-1.7773.0835-3.8607-2.0344-3.8757-3.8784-.0119-1.4505 1.466-2.9781 2.9002-2.998z"/><path d="m193.9939 464.7467c-.7584.0045-1.5168.0092-2.275.0136-.3294-1.3863-2.1533-2.3878-.7138-4.2573.8849-1.1491 1.6973-2.012 3.1166-1.6525.7692.1949 2.0281.9378 1.9949 1.3463-.0936 1.1492-.7024 2.2709-1.1918 3.3661-.1985.4446-.6141.7921-.9309 1.1838z"/></g><path d="m351.3016 405.4497-.1959-.1033.0873-.0898z" fill="#abdff4"/><path d="m366.5363 455.5887c-2.5697.0038-4.6509-1.8017-4.5926-3.9841.0576-2.1466 2.9123-4.8062 5.1057-4.757 2.4094.0541 4.4254 1.9889 4.4759 4.2955.0567 2.5928-2.0176 4.4411-4.989 4.4456z" fill="#d1eef9"/><path d="m269.6966 468.9249c-2.3012.0063-3.882-1.256-3.9397-3.1457-.0728-2.3866 2.0452-4.1915 4.9562-4.2235 2.2194-.0244 4.5967 1.5919 4.6755 3.1792.1024 2.0652-2.773 4.1819-5.692 4.19z" fill="#d1eef9"/><path d="m50.7768 331.4071c-1.7822.0081-3.029-1.2223-3.0155-2.9762.0127-1.6709 1.36-3.016 3.0167-3.0119 1.602.0041 3.288 1.4781 3.2747 2.8634-.0158 1.6615-1.5417 3.117-3.2759 3.1247z" fill="#d1eef9"/><path d="m133.936 446.6269c-.0623.0341-.127.0973-.1858.0923-.0579-.0048-.1097-.0791-.1642-.123.1167.01.2335.0199.35.0307z" fill="#d1eef9"/><path d="m135.1241 447.1874c-.0538-.0436-.1077-.0872-.1615-.1308.0617-.0331.1261-.0959.1846-.0909.0575.005.109.0789.1632.1224-.0621.0332-.1242.0663-.1863.0993z" fill="#d1eef9"/><path d="m383.4684 163.5915c4.1137 2.9502 3.9183 6.7703 2.4602 11.0402-1.0781 3.1574-1.688 6.4719-2.6556 9.6715-.2516.8314-1.0617 1.4938-1.6154 2.2338-4.298-2.791-8.799-5.3164-12.8587-8.419-17.6295-13.4735-35.2111-27.013-52.6181-40.7712-4.0997-3.2404-7.1617-7.7893-11.2451-11.0562-3.0735-2.4586-1.8899-4.759-1.2023-7.3665 1.2472-4.7298 2.5561-9.4435 3.7649-14.1829.6025-2.3626 2.2762-3.2393 4.2225-1.8532 23.165 16.4962 45.8077 33.6202 65.306 54.5158 2.0282 2.1736 4.2889 4.1304 6.4416 6.1877zm-69.9096-44.2244c.5007-1.0626 1.0015-2.1254 1.5023-3.188.8789-1.4325 1.758-2.8652 2.6815-4.3705-.8438-.6092-1.5653-1.13-2.287-1.6509-1.3834-1.2264-2.7669-2.4529-4.3312-3.8398-.4512 2.7058-.8152 4.8882-1.1792 7.0706-.523 1.8228-1.0461 3.6457-1.5688 5.4687-.2535.7917-.5071 1.5836-.7606 2.3755-.3797.7271-.7592 1.4542-1.2059 2.3097 1.5894 1.2512 3.0993 2.44 4.6486 3.6597.8872-2.7803 1.6938-5.3076 2.5003-7.835zm48.4437 30.3297c-1.3636-1.3288-2.7273-2.6576-4.4526-4.339-.2549 2.3192-.4433 4.0321-.6316 5.745-.1817 1.3826-.3633 2.7653-.545 4.1479-.283.8486-.4414 1.7679-.8741 2.5317-1.0019 1.7689-.2719 2.7508 1.3362 3.4483 1.7654 1.4381 3.531 2.876 5.5477 4.5186.5108-2.5855.9292-4.7034 1.3477-6.8215.5429-1.9816 1.0859-3.9631 1.6288-5.9447-1.1191-1.0954-2.238-2.1908-3.3571-3.2863zm13.317 19.361c-.2305 1.3348-.4611 2.6695-.6917 4.0043-.1338.9049-.7145 2.1931-.3241 2.6481 1.6421 1.9133 3.5743 3.5778 5.764 5.683.924-4.0559 1.7119-7.5145 2.4998-10.9731 1.0085-1.7014.6085-2.9614-1.1853-3.7852-1.6683-1.4504-3.3368-2.9007-5.2628-4.5752-.3045 2.6641-.5521 4.8311-.7999 6.9981zm-21.799-16.5906c.1773-1.3736.3546-2.7471.5318-4.1207.2549-1.2394.6468-2.4714.7126-3.7208.0386-.7327-.4419-1.4928-.6889-2.2406-.8915-.7929-1.783-1.5858-2.6746-2.3787-1.7063-1.5611-3.4127-3.1222-5.3878-4.9291-.7794 2.5447-1.4363 4.6887-2.093 6.8326-.5935 1.5343-1.1872 3.0685-1.7808 4.6028-1.4675 3.0357-1.4675 3.0357 1.5008 4.6754 1.4596 1.1043 2.919 2.2086 4.3786 3.3129 1.5557 1.2441 3.1115 2.4881 5.0299 4.0223.1844-2.3687.3279-4.2124.4714-6.0561zm-38.4541-29.3823c-.1717.4533-.3436.9065-.5154 1.3598-.3543 1.6794-2.1173 3.2079-.5466 5.094 1.5419 1.2196 3.0838 2.4391 4.6258 3.6587 2.1549 1.6295 4.3098 3.2592 6.6574 5.0345.8815-2.8317 1.6606-5.3343 2.4397-7.8369.8178-1.9798 1.6357-3.9597 2.4536-5.9395 2.0078-2.8399-1.133-2.9778-2.2049-4.2012-.5266-.435-1.0531-.8701-1.5797-1.3051-1.3614-1.0827-2.7228-2.1655-4.0843-3.2481-.8203-.7381-1.6405-1.4761-2.691-2.4214-.709 1.4406-1.292 2.6253-1.875 3.8101-.8933 1.9983-1.7864 3.9967-2.6796 5.9951zm19.5751 21.6221c1.1944.9408 2.3888 1.8816 3.7998 2.993.5459-1.5694.9597-2.7591 1.3733-3.9489.7809-1.9832 1.5615-3.9663 2.3424-5.9495 2.3901-5.0855 2.5146-3.9076-.8811-6.5237-1.4306-1.2062-2.8611-2.4125-4.2916-3.6186-1.4131-1.256-2.826-2.5118-4.5288-4.0252-.7661 1.9978-1.4132 3.6853-2.0604 5.3727-.6869 1.8544-1.3737 3.7087-2.0607 5.5632-2.0966 4.5431-2.0721 4.6373 1.7862 6.9164 1.5069 1.0736 3.0139 2.1471 4.5209 3.2206zm38.5743 21.0891c.1959-1.1258.3237-2.2689.6048-3.3729.35-1.375.3551-2.5362-1.2185-3.1246-1.2662-1.2152-2.5326-2.4305-4.0266-3.864-.4575 2.2661-.8132 4.028-1.1691 5.79-.7468 1.8137-1.5446 3.6091-2.1991 5.4555-.1376.3883.2516.9633.3981 1.4524 1.9857 1.7272 3.9715 3.4545 6.2123 5.4035.5149-2.8506.9565-5.2953 1.3981-7.7399z" fill="#25303d"/><path d="m231.7762 96.842c.8874-.4411 1.7686-1.1505 2.7438-1.3202 6.5353-1.1378 13.0574-2.5292 19.6482-3.1198 6.9195-.62 13.9183-.6968 20.8685-.5049 3.9954.1104 7.9821 1.1325 11.9322 1.9423 1.2079.2476 1.9035 1.122 1.9194 2.7742.0619 6.4332-1.6279 12.3949-4.4061 18.0832-.3617.7407-1.611 1.428-2.4884 1.4801-14.0994.838-28.2075 1.5311-42.3075 2.3616-2.2709.1337-4.5191.7357-6.7653 1.1837-3.6125.7205-4.8256-.6839-3.9604-4.2424 1.2972-5.3363 2.4085-10.719 3.5047-16.1013.1259-.6191-.3505-1.3606-.6891-2.5365zm3.5199 13.7931c-.3159 1.1884-.632 2.377-1.0389 3.9076 1.7489-.2571 3.0565-.4495 4.3691-.6425.0964-1.6973.1814-3.1917.2662-4.6862.3136-2.4346.6272-4.8692.9408-7.3037.2096-1.2411.4192-2.482.6699-3.9661-1.5625.19-2.7931.3398-3.8959.4739v4.2977c-.4371 2.6397-.8742 5.2795-1.3112 7.9193zm17.7257-4.1235c.1303-.6123.2605-1.2245.3908-1.8368.4316-1.8491.8631-3.6983 1.2946-5.5474.1815-.6534.3629-1.3069.6086-2.1918-3.9351.2339-7.4554.4432-11.0936.6595-.1784 2.8637-.3374 5.4161-.4964 7.9682-.27 1.6968-.54 3.3935-.81 5.0903-.239.8801-.478 1.7602-.7759 2.8573.8644-.0841 1.4295-.1391 1.9945-.1941h8.1478c.2957-2.7218.5176-4.7635.7396-6.8052zm22.8549-6.9022c-.2333 1.8524-.4666 3.7046-.7 5.5569-.4579 2.2158-.916 4.4315-1.4176 6.8575 2.7779.1416 5.3339.2719 8.159.4158 1.2293-4.5392 2.4176-8.9264 3.6057-13.3135.1902-.9225.3803-1.8451.6266-3.0403-2.2765.2609-4.2108.4827-6.1453.7043-1.3184 0-2.637 0-4.1283 0-.0001 1.0777-.0001 1.9486-.0001 2.8193zm-17.5183 13.1194c3.6243-.2713 7.2486-.5426 10.9536-.82.4829-2.7994.9475-5.4924 1.412-8.1854.4179-1.9788.8359-3.9576 1.2539-5.9365-.1841-.3332-.3642-.9544-.5529-.957-4.0172-.056-8.0353-.0424-11.9968-.0424-.6604 3.7704-1.2633 7.2135-1.8663 10.6567-.4986 1.7236-.9971 3.447-1.5688 5.4234.9135-.0536 1.6394-.0963 2.3653-.1388z" fill="#25303d"/><path d="m50.1379 408.6704c-2.8472.0009-4.5015-1.1436-4.1315-2.5803.2369-.9199 1.3076-1.6252 2.0044-2.4267 1.1375 1.1012 2.3587 2.1374 3.3199 3.3754.1401.1805-.9611 1.3246-1.1928 1.6316z" fill="#e7f6fb"/><path d="m217.9258 159.404c4.6549.1803 8.0174 2.8775 8.8992 7.1266.467 2.2512.1515 4.2319-1.7382 5.8029-1.5443 1.2836-2.7289 2.812-1.8099 4.9721.9285 2.182 2.7185 2.8582 5.0172 2.8264 1.4167-.0196 2.9393.1523 4.2352.679 1.795.7294 1.9355 2.2269.3917 3.3454-1.2788.9266-2.6824 1.8656-4.1735 2.2617-1.4669.3896-1.7141 1.1189-1.4572 2.2839 2.0802 9.4341 4.5311 18.755 9.8321 26.9951 1.3022 2.0243 2.9572 3.9102 4.7678 5.4972 2.4625 2.1586 5.4993 2.3486 8.4.9561 5.4472-2.6148 8.2944-7.236 9.4569-13.023 1.0831-3.4889 2.1495-6.983 3.2712-10.4594.1331-.4126.5688-.7277.8643-1.0879 3.7126 3.7995 7.4254 7.5989 11.4612 11.7289-3.8781 0-7.0299 0-10.1134 0 0 2.2455-.0943 4.1539.0168 6.0502.4145 7.0735-2.5883 12.5435-7.7168 17.1374-5.9344 5.3161-13.178 8.2782-20.2682 11.5343-3.4501-1.5475-6.7662-3.6372-10.3781-4.5301-7.6254-1.8854-15.3833-3.2406-22.3891-7.0329-5.1241-2.7738-8.9478-6.544-9.656-12.7397-.3407-2.9799-1.8583-5.272-4.6679-6.6274-.6311-.3045-1.5848-.9931-1.5514-1.4428.1587-2.1416.6069-4.2619.9519-6.3897 3.8408 2.3418 7.6815 4.6837 11.2119 6.8363-1.2165 1.3323-2.8775 2.4339-3.3893 3.9288-.4445 1.2984.1565 3.1459.7375 4.5705 2.2775 5.5847 9.0311 8.6865 14.8475 7.0355 3.0836-.8752 4.8218-3.0274 5.9697-5.8655 1.6101-3.9805 1.1431-8.1187 1.043-12.2343.2276-.3522.6671-.7149.6506-1.0553-.1774-3.6464-.3978-7.2915-.664-10.9326-.3354-4.5898-3.6898-8.9287-1.1413-13.7615.0316-.06-.0018-.1517.006-.2274.3956-3.868-1.9041-6.6107-3.9199-9.487-.452-.645-.7117-1.4248-1.0598-2.1425 2.869.4577 4.9454-.6645 6.0118-3.2494.9635-2.3354-.3826-4.5522-2.8915-4.7619-3.8491-.3218-5.561 1.2747-5.579 5.2028-3.0672-.938-3.5538-2.5071-1.1586-4.5041 1.599-1.3332 3.5825-2.1972 5.348-3.3417.8325-.5396 1.5577-1.2448 2.3316-1.875z" fill="#cfd0d0"/><path d="m189.5716 205.2684c-.345 2.1279-.7932 4.2481-.9519 6.3897-.0333.4496.9203 1.1382 1.5514 1.4428 2.8096 1.3554 4.3273 3.6476 4.6679 6.6274.7082 6.1956 4.5319 9.9659 9.656 12.7397 7.0058 3.7922 14.7637 5.1475 22.3891 7.0329 3.6119.8929 6.928 2.9826 10.3781 4.5301-1.918 1.9348-3.836 3.8696-5.9218 5.9738-.6693-.7032-1.526-1.6176-2.3982-2.5168-3.9312-4.053-8.7686-5.9776-14.367-6.2439-2.7449-.1306-5.5256-.2372-8.2112-.7601-8.72-1.6977-13.5345-7.9017-16.8238-15.4718-.8628-1.986-1.8014-2.9137-3.8434-3.0444-2.0496-.1312-4.0896-.41-6.2492-.6363 1.5311-6.4361 3.0621-12.8716 4.6821-19.6819 1.8512 1.2312 3.6466 2.425 5.4419 3.6188z" fill="#c2c2c2"/><path d="m213.8634 171.9333c.3481.7177.6079 1.4975 1.0598 2.1425 2.0158 2.8763 4.3156 5.6191 3.9199 9.487-.0078.0758.0256.1675-.006.2274-2.5485 4.8327.8059 9.1717 1.1413 13.7615.2662 3.6411.4866 7.2862.664 10.9326.0165.3404-.423.7031-.6506 1.0553-.7015-5.6037-1.4409-11.203-2.0831-16.8135-.2087-1.8233-.498-3.1162-2.6772-3.8348-2.3342-.7698-4.4655-2.3059-6.4929-3.7735-.7062-.5112-.838-1.8156-1.2321-2.7578.8282-.252 1.6439-.5655 2.4886-.7351.5902-.1185 1.2204-.0276 1.832-.0519 3.9541-.1568 4.6783-1.1706 3.2229-4.7873-.2323-.5771-1.0767-1.0288-1.7365-1.2781-.6125-.2314-1.3698-.0421-2.0408-.1631-3.9777-.718-6.691-3.2045-7.1287-6.4816-.4489-3.3626 1.5187-6.8433 5.1082-8.4341 2.7327-1.2111 5.6368-1.9289 8.6735-1.025-.7739.6302-1.4991 1.3354-2.3316 1.875-1.7656 1.1445-3.7491 2.0085-5.348 3.3417-2.3952 1.9969-1.9086 3.5661 1.1578 4.5039.8193.9363 1.6394 1.8725 2.4595 2.8089z" fill="#c2c2c2"/><path d="m263.8826 197.5802c-.2955.3602-.7312.6753-.8643 1.0879-1.1217 3.4764-2.1881 6.9706-3.2712 10.4594-2.4788-.2511-4.9574-.5023-8.051-.8157 3.1361-4.5771 6.1309-8.9476 9.695-14.1494 1.081 1.483 1.7863 2.4504 2.4915 3.4178z" fill="#c2c2c2"/><path d="m269.3249 212.8482c-.0764-.1019-.1526-.2039-.2289-.3058.1499.0282.2997.0565.4505.0838-.0722.0746-.1464.1487-.2216.222z" fill="#458dcf"/><path d="m324.5454 243.6227c-.0742-.0179-.1486-.0342-.2222-.0538-5.985-1.5909-4.8266-6.2996-4.6226-10.5918 4.3508-2.0397 8.6908-4.103 13.0616-6.0987.8751-.3994 1.8681-.541 2.8067-.8015-.3264 4.1313-.6531 8.2625-.9795 12.3938-.755.3396-1.5295.6425-2.262 1.0256-2.6018 1.3606-5.1892 2.7487-7.782 4.1264z" fill="#fefefe"/><path d="m369.8061 246.1821c1.7622.6553 2.1314 1.9576 1.7944 3.6704-.219 1.1124-.2933 2.2532-.4325 3.3814-1.8634 1.1398-3.7394 2.2599-5.5878 3.4236-3.2662 2.0562-6.5157 4.1387-9.7721 6.2103.3535-2.4505.707-4.9012 1.0607-7.3519 1.7992-1.2122 3.6354-2.3737 5.3892-3.6487 2.5471-1.852 5.0349-3.786 7.5481-5.6851z" fill="#c2ebf9"/><path d="m355.8081 262.8678c3.2564-2.0716 6.5059-4.1541 9.7721-6.2103 1.8484-1.1637 3.7244-2.2838 5.5878-3.4236-.2027 3.0517-.4054 6.1033-.6083 9.1552-1.08.5492-2.1821 1.0592-3.2354 1.6557-1.9791 1.1208-3.93 2.2915-5.8926 3.4415-1.8746-1.5395-3.7491-3.079-5.6236-4.6185z" fill="#fafbfc"/><path d="m337.4684 251.4161c-.2642-.6047-.7827-1.2269-.742-1.8103.0983-1.4132.4571-2.8081.7111-4.2105.9099-.3642 1.84-.6853 2.7264-1.0998 5.0829-2.3774 10.1553-4.777 15.2313-7.169-.028 1.839-.0559 3.678-.0838 5.5171-5.9476 2.9242-11.8954 5.8484-17.843 8.7725z" fill="#c2ebf9"/><path d="m348.1516 230.5993c1.8341 1.2453 3.6683 2.4908 5.5025 3.7362-1.6388.9352-3.2599 1.9031-4.92 2.7989-3.7132 2.0038-7.4458 3.9718-11.1704 5.9545.2388-2.3043.4774-4.6087.7162-6.9131 3.2906-1.8588 6.5811-3.7177 9.8717-5.5765z" fill="#c2ebf9"/><path d="m337.4684 251.4161c5.9477-2.9241 11.8954-5.8483 17.843-8.7725-.1035 1.68-.2072 3.3602-.3109 5.0406-.6259.2215-1.3048.3509-1.8685.6787-3.5461 2.0619-7.0664 4.1678-10.5952 6.2593-1.6896-1.0687-3.379-2.1374-5.0684-3.2061z" fill="#fefefe"/><path d="m398.6842 271.1523c.2984.4565.8517.913.8518 1.3696.0007 2.1596-.1498 4.3192-.2463 6.479-3.8955 2.2873-7.7911 4.5746-11.6867 6.8619.4973-2.7577.9946-5.5154 1.4919-8.2732 3.1965-2.1458 6.3928-4.2915 9.5893-6.4373z" fill="#c2ebf9"/><path d="m387.603 285.8628c3.8956-2.2873 7.7912-4.5746 11.6867-6.8619-.1069 2.4327-.2137 4.8655-.3205 7.2983-.3882.22-.7869.4233-1.1627.6626-2.3524 1.4976-4.6995 3.0031-7.0482 4.5061-.7931-.5646-1.5688-1.1554-2.3827-1.688-1.6076-1.0525-1.9948-2.3193-.7726-3.9171z" fill="#fafbfc"/><path d="m377.0005 279.5297c-1.323-1.1195-2.6461-2.2389-3.9691-3.3584 1.454-1.0816 2.8453-2.2636 4.3754-3.2245 3.2446-2.0375 6.5616-3.9598 9.8489-5.9293-.1575 2.4388-.315 4.8777-.4726 7.3168-3.2607 1.7318-6.5216 3.4636-9.7826 5.1954z" fill="#c2ebf9"/><path d="m335.5689 226.0768c-.9386.2605-1.9316.4021-2.8067.8015-4.3708 1.9956-8.7108 4.059-13.0616 6.0987-.1752-1.3799-.3503-2.7597-.5255-4.1397 4.4918-2.1848 8.9901-4.3566 13.4624-6.5805.3345-.1663.484-.7048.7196-1.0702 2.6862.7486 2.8284 2.6478 2.2118 4.8902z" fill="#c2ebf9"/><path d="m372.9865 272.9944c.2505-1.8432.5013-3.6866.7523-5.53.8153-.3746 1.6541-.7051 2.4412-1.1312 3.5229-1.9073 7.0314-3.8418 10.545-5.7665.2491 1.0784.4982 2.1567.7471 3.2352-.9909.5309-2.0259.9943-2.9654 1.6047-3.8559 2.505-7.6828 5.0546-11.5202 7.5878z" fill="#c2ebf9"/><path d="m363.7826 241.6236c1.8508 1.3875 3.7015 2.7749 5.5525 4.1626-1.3537.6499-2.7184 1.2782-4.0592 1.9537-2.6842 1.3524-5.3553 2.7305-8.032 4.0979.105-2.1483.2102-4.2967.3152-6.4452 2.0745-1.2564 4.149-2.5127 6.2235-3.769z" fill="#c2ebf9"/><path d="m342.5367 254.6221c3.5288-2.0914 7.0491-4.1974 10.5952-6.2593.5637-.3278 1.2427-.4572 1.8685-.6787-.1182 2.1318-.2362 4.2641-.3546 6.3965-1.0461.3676-2.1192.6727-3.1314 1.1167-1.5589.6839-3.076 1.4631-4.6107 2.2019-1.4556-.9257-2.9114-1.8514-4.367-2.7771z" fill="#c2ebf9"/><path d="m348.1516 230.5993c-3.2905 1.8587-6.5811 3.7176-9.8717 5.5765.2653-3.6793.5308-7.3587.8353-11.5788 3.2905 2.1857 6.1634 4.094 9.0364 6.0023z" fill="#fafbfc"/><path d="m319.5022 223.3543c0-3.3214 0-6.6428 0-10.3778 3.2328 1.9651 6.3015 3.8307 9.3705 5.6964-.8213.4112-1.6421.8229-2.4638 1.2333-2.3021 1.1496-4.6045 2.2987-6.9067 3.4481z" fill="#fafbfc"/><path d="m319.5022 223.3543c2.3022-1.1494 4.6046-2.2984 6.9066-3.4481.8217-.4104 1.6425-.8221 2.4638-1.2333 1.3445.7822 2.6889 1.5645 4.0334 2.3467-4.5676 2.4499-9.1353 4.8997-13.7028 7.3495.0996-1.6715.1994-3.3432.299-5.0148z" fill="#c2ebf9"/><path d="m337.5636 243.0889c3.7246-1.9826 7.4572-3.9506 11.1704-5.9545 1.6601-.8959 3.2813-1.8637 4.92-2.7989 1.2386.5197 2.2689 1.1693 1.7411 2.7909-5.076 2.392-10.1485 4.7916-15.2313 7.169-.8864.4145-1.8165.7356-2.7264 1.0998.0421-.7687.0842-1.5375.1262-2.3063z" fill="#abdff4"/><path d="m377.0005 279.5297c3.261-1.7318 6.5218-3.4636 9.7827-5.1955-.2002 1.9981-.4006 3.9966-.601 5.995-1.6638.9389-3.3274 1.8777-4.991 2.8166-1.397-1.2054-2.7938-2.4108-4.1907-3.6161z" fill="#fafbfc"/><path d="m324.5454 243.6227c2.5928-1.3777 5.1803-2.7657 7.782-4.1264.7325-.3831 1.507-.686 2.262-1.0256-.1844 2.3019-.3689 4.6037-.5532 6.9056-1.1367.6167-2.2736 1.2332-3.4103 1.8497-2.0268-1.2013-4.0537-2.4022-6.0805-3.6033z" fill="#c2ebf9"/><path d="m372.9865 272.9944c3.8374-2.5332 7.6643-5.0829 11.5201-7.5878.9395-.6104 1.9744-1.0737 2.9654-1.6047-.0721 1.0717-.1442 2.1438-.2163 3.2155-3.2872 1.9695-6.6042 3.8918-9.8488 5.9293-1.5301.9609-2.9214 2.1429-4.3754 3.2245-.0151-1.0589-.0301-2.1178-.045-3.1768z" fill="#fafbfc"/><path d="m398.6842 271.1523c-3.1965 2.1457-6.3928 4.2914-9.5893 6.4373.185-1.8293.3702-3.6588.5552-5.4883 2.1084-1.0996 4.2168-2.1992 6.3252-3.2989.903.7834 1.806 1.5667 2.7089 2.3499z" fill="#fafbfc"/><path d="m361.4317 267.4862c1.9626-1.1499 3.9135-2.3206 5.8926-3.4415 1.0533-.5965 2.1554-1.1065 3.2354-1.6557-.1917 1.9958-.3835 3.9916-.5753 5.9875-1.3698.7957-2.7396 1.5912-4.1093 2.3869-1.4811-1.0924-2.9623-2.1847-4.4434-3.2772z" fill="#c2ebf9"/><path d="m374.3099 264.7119c.2207-1.9959.4414-3.9917.6621-5.9878 2.0283-1.0642 4.0564-2.1284 6.0846-3.1925.8317.7303 1.6632 1.4606 2.4948 2.1909-3.0804 2.3298-6.1609 4.6596-9.2415 6.9894z" fill="#c2ebf9"/><path d="m390.7584 291.468c2.3487-1.503 4.6958-3.0085 7.0482-4.5061.3758-.2393.7745-.4426 1.1627-.6626-.0745 2.3148-.1492 4.6297-.2238 6.9448-1.0999.6074-2.1998 1.2147-3.2997 1.822-1.5625-1.1994-3.125-2.3987-4.6874-3.5981z" fill="#c2ebf9"/><path d="m374.3099 264.7119c3.0806-2.3297 6.1611-4.6595 9.2416-6.9894 1.0579.9481 2.1157 1.8963 3.1735 2.8444-3.5137 1.9246-7.0222 3.859-10.5451 5.7664-.787.4261-1.6259.7566-2.4412 1.1312.1901-.9174.3807-1.8351.5712-2.7526z" fill="#abdff4"/><path d="m357.244 251.8378c2.6766-1.3674 5.3477-2.7455 8.032-4.0979 1.3408-.6754 2.7055-1.3038 4.0592-1.9537.1568.1318.3137.2637.4708.3958-2.513 1.8992-5.0008 3.8332-7.548 5.6852-1.7537 1.275-3.5899 2.4365-5.3892 3.6487.125-1.226.2501-2.452.3752-3.6781z" fill="#fafbfc"/><path d="m363.7826 241.6236c-2.0745 1.2563-4.149 2.5125-6.2234 3.769 0-2.6513 0-5.3025 0-8.4875 2.3084 1.7502 4.2659 3.2344 6.2234 4.7185z" fill="#e7f6fb"/><path d="m395.9754 268.8025c-2.1084 1.0996-4.2168 2.1992-6.3252 3.2989 0-2.7232 0-5.4463 0-8.1693.197-.1113.394-.2226.5912-.3338 1.9112 1.7346 3.8226 3.4694 5.734 5.2042z" fill="#c2ebf9"/><path d="m346.9037 257.3992c1.5348-.7388 3.0518-1.5179 4.6107-2.2019 1.0121-.4441 2.0853-.7492 3.1314-1.1167-.061 1.2431-.1221 2.4865-.1834 3.73-1.1277.8189-2.2554 1.6377-3.3831 2.4567-1.3918-.956-2.7837-1.9121-4.1756-2.8681z" fill="#fafbfc"/><path d="m381.0566 255.5315c-2.0283 1.0641-4.0564 2.1283-6.0846 3.1925.1917-2.4931.3834-4.9863.619-8.0517 2.0894 1.8576 3.7774 3.3584 5.4656 4.8592z" fill="#fafbfc"/><path d="m381.1912 283.1458c1.6636-.9389 3.3272-1.8777 4.991-2.8166v7.463c-2.0427-1.9016-3.5168-3.274-4.991-4.6464z" fill="#abe0f4"/><path d="m319.2032 228.3691c4.5675-2.4498 9.1353-4.8996 13.7028-7.3495.1502.0556.3004.1112.4508.1669-.2354.3655-.3848.9041-.7193 1.0704-4.4724 2.2238-8.9706 4.3957-13.4624 6.5805.0094-.156.0187-.3121.0281-.4683z" fill="#fafbfc"/><path d="m365.8751 270.7634c1.3698-.7957 2.7395-1.5912 4.1093-2.3869-.1457 1.5879-.2914 3.1757-.4901 5.3431-1.3789-1.1262-2.4992-2.0413-3.6192-2.9562z" fill="#abdff4"/><path d="m351.0793 260.2673c1.1277-.8189 2.2554-1.6377 3.3831-2.4567v4.898c-1.3792-.9953-2.3812-1.7183-3.3831-2.4413z" fill="#c2ebf9"/><path d="m330.6259 247.2259c1.1368-.6165 2.2737-1.233 3.4103-1.8497-.0002 1.195-.0002 2.3901-.0002 4.1043-1.4504-.959-2.4303-1.6068-3.4101-2.2546z" fill="#abdff4"/><path d="m395.4457 295.0661c1.0999-.6073 2.1998-1.2146 3.2997-1.822-.1445 1.1969-.289 2.3938-.4944 4.0934-1.1406-.9237-1.973-1.5976-2.8053-2.2714z" fill="#e7f6fb"/><path d="m341.2759 131.2779c3.3957 2.6161 3.2712 1.4382.8811 6.5237-4.0122 1.2282-8.0242 2.4565-12.0364 3.6849-3.8583-2.2791-3.8828-2.3733-1.7862-6.9166 4.3139-1.0974 8.6277-2.1947 12.9415-3.292z" fill="#fafbfc"/><path d="m330.1807 124.4554c-.8178 1.9798-1.6357 3.9597-2.4535 5.9395-3.0324.9342-6.0647 1.8682-9.0971 2.8023-1.542-1.2194-3.0839-2.439-4.6256-3.6584 4.335-1.5504 8.6573-3.1384 13.0148-4.6228.9911-.3377 2.1043-.3167 3.1614-.4606z" fill="#fafbfc"/><path d="m330.1808 124.4554c-1.0572.1439-2.1704.1229-3.1615.4606-4.3575 1.4844-8.6798 3.0724-13.0148 4.6228-1.5709-1.8862.1922-3.4147.5466-5.0944 1.1682-.2909 2.3577-.5159 3.5007-.8848 3.318-1.071 6.6173-2.1997 9.9241-3.3057 1.072 1.2237 4.2127 1.3616 2.2049 4.2015z" fill="#c2ebf9"/><path d="m343.6406 151.188c-2.9683-1.6396-2.9683-1.6396-1.5008-4.6754 3.1959-.9902 6.4003-1.9544 9.582-2.9885.8214-.2669 1.5715-.7534 2.3543-1.1391.247.7479.7275 1.508.6889 2.2406-.0658 1.2494-.4577 2.4814-.7126 3.7208-3.4707.9473-6.9413 1.8945-10.4118 2.8416z" fill="#c2ebf9"/><path d="m365.3596 152.9832c-.5429 1.9816-1.0859 3.9631-1.6288 5.9448-2.2986.7676-4.597 1.5352-6.8954 2.3028-1.6081-.6975-2.3381-1.6794-1.3362-3.4483.4326-.7638.5911-1.6831.8741-2.5317 2.9954-.7559 5.9908-1.5117 8.9863-2.2676z" fill="#fafbfc"/><path d="m341.2759 131.2779c-4.3138 1.0973-8.6276 2.1946-12.9415 3.292.687-1.8544 1.3739-3.7087 2.061-5.5632 2.1964-.4493 4.3926-.8984 6.5889-1.3474 1.4305 1.2061 2.861 2.4124 4.2916 3.6186z" fill="#c2ebf9"/><path d="m365.6055 168.1325c-.1466-.4891-.5358-1.0641-.3981-1.4524.6545-1.8465 1.4522-3.6418 2.1991-5.4554 1.732-.6421 3.4639-1.2841 5.1956-1.9262 1.5737.5884 1.5685 1.7496 1.2185 3.1246-.2811 1.104-.409 2.2471-.6049 3.3729-.7859.2005-1.5832.3649-2.3553.6087-1.7582.5552-3.5041 1.1495-5.2549 1.7278z" fill="#fafbfc"/><path d="m382.5675 170.4201c-.7879 3.4586-1.5758 6.9172-2.4998 10.9731-2.1897-2.1052-4.1219-3.7697-5.764-5.683-.3904-.455.1903-1.7432.3244-2.6484.9005-.1549 1.846-.1847 2.6921-.4898 1.7768-.6407 3.5014-1.426 5.2473-2.1519z" fill="#c2ebf9"/><path d="m330.1206 141.4865c4.0122-1.2283 8.0243-2.4567 12.0364-3.6849-.7809 1.9832-1.5615 3.9663-2.3424 5.9495-1.7243.3187-3.4486.6373-5.1731.9558-1.507-1.0734-3.014-2.1469-4.5209-3.2204z" fill="#c2ebf9"/><path d="m322.3119 115.701c1.3615 1.0827 2.7229 2.1655 4.0843 3.2483-3.7766 1.3785-7.5531 2.7571-11.3297 4.1356.8931-1.9984 1.7862-3.9968 2.6794-5.9954 1.5221-.4629 3.044-.9257 4.566-1.3885z" fill="#c2ebf9"/><path d="m354.076 142.385c-.7828.3857-1.5329.8722-2.3543 1.1391-3.1817 1.0341-6.3861 1.9983-9.582 2.9885.5936-1.5343 1.1873-3.0685 1.7808-4.6028 2.4937-.6345 4.9873-1.269 7.4809-1.9035.8916.7929 1.7831 1.5858 2.6746 2.3787z" fill="#fafbfc"/><path d="m308.3762 118.8571c.5229-1.8229 1.046-3.6458 1.569-5.4686 1.8368-1.0769 3.6736-2.1539 5.5104-3.2308.7217.5209 1.4432 1.0417 2.287 1.6509-.9235 1.5054-1.8026 2.938-2.6815 4.3705-2.2283.8927-4.4567 1.7854-6.6849 2.678z" fill="#c2ebf9"/><path d="m343.6406 151.188c3.4706-.9471 6.9412-1.8943 10.4117-2.8415-.1773 1.3736-.3546 2.7472-.5318 4.1209-1.8339.6779-3.6676 1.3557-5.5013 2.0335-1.4596-1.1043-2.919-2.2086-4.3786-3.3129z" fill="#fafbfc"/><path d="m318.6302 133.1972c3.0323-.9341 6.0647-1.8681 9.0971-2.8023-.7791 2.5026-1.5582 5.0052-2.4397 7.8369-2.3476-1.7752-4.5025-3.4049-6.6574-5.0346z" fill="#c2ebf9"/><path d="m382.5675 170.4201c-1.7459.7259-3.4706 1.5112-5.2473 2.1519-.8461.3051-1.7916.3349-2.6921.4898.2303-1.3345.4609-2.6692.6914-4.0039 2.0209-.8077 4.0417-1.6154 6.0627-2.423 1.7938.8237 2.1938 2.0838 1.1853 3.7852z" fill="#fafbfc"/><path d="m365.3596 152.9832c-2.9955.7559-5.9909 1.5117-8.9862 2.2675.1817-1.3826.3633-2.7653.545-4.1479 1.6948-.4686 3.3896-.9373 5.0842-1.406 1.119 1.0955 2.2379 2.1909 3.357 3.2864z" fill="#c2ebf9"/><path d="m365.6055 168.1325c1.7508-.5783 3.4967-1.1726 5.2549-1.7277.7721-.2438 1.5694-.4082 2.3553-.6087-.4414 2.4447-.883 4.8893-1.3979 7.7399-2.2408-1.949-4.2266-3.6763-6.2123-5.4035z" fill="#c2ebf9"/><path d="m313.5588 119.3671c-.8065 2.5273-1.6132 5.0546-2.5004 7.835-1.5493-1.2197-3.0591-2.4085-4.6486-3.6597.4467-.8555.8263-1.5826 1.2059-2.3098 1.9811-.6219 3.9621-1.2437 5.9431-1.8655z" fill="#c2ebf9"/><path d="m356.8354 161.2308c2.2984-.7676 4.5968-1.5352 6.8954-2.3028-.4185 2.1179-.8369 4.2358-1.3477 6.8214-2.0167-1.6426-3.7822-3.0805-5.5477-4.5186z" fill="#c2ebf9"/><path d="m351.4014 140.0063c-2.4935.6345-4.9872 1.269-7.4809 1.9035.6567-2.144 1.3136-4.2879 2.093-6.8326 1.9752 1.8069 3.6816 3.368 5.3879 4.9291z" fill="#c2ebf9"/><path d="m381.3822 166.6349c-2.021.8077-4.0417 1.6154-6.0627 2.423.2477-2.1671.4954-4.3341.7999-6.9982 1.9261 1.6744 3.5945 3.1248 5.2628 4.5752z" fill="#c2ebf9"/><path d="m315.4556 110.1577c-1.8368 1.077-3.6736 2.1539-5.5104 3.2308.3639-2.1824.728-4.3648 1.1792-7.0706 1.5643 1.3869 2.9478 2.6134 4.3312 3.8398z" fill="#e7f6fb"/><path d="m348.0192 154.5009c1.8337-.6778 3.6674-1.3556 5.5013-2.0335-.1435 1.8435-.287 3.6872-.4714 6.0558-1.9184-1.5342-3.4743-2.7782-5.0299-4.0223z" fill="#c2ebf9"/><path d="m315.0665 123.0849c3.7766-1.3785 7.5531-2.7571 11.3297-4.1358.5266.435 1.0531.8701 1.5797 1.305-3.3068 1.1059-6.6061 2.2346-9.9241 3.3056-1.1431.3689-2.3325.5938-3.5009.8848.1719-.453.3438-.9063.5156-1.3596z" fill="#fafbfc"/><path d="m336.9843 127.6593c-2.1963.449-4.3925.8981-6.5889 1.3474.6469-1.6873 1.294-3.3748 2.0601-5.3726 1.7029 1.5134 3.1158 2.7693 4.5288 4.0252z" fill="#fafbfc"/><path d="m313.5588 119.3671c-1.981.6218-3.962 1.2435-5.9431 1.8655.2535-.7917.5071-1.5836.7604-2.3755 2.2282-.8927 4.4565-1.7853 6.6849-2.678-.5007 1.0627-1.0015 2.1254-1.5022 3.188z" fill="#fafbfc"/><path d="m362.0025 149.6968c-1.6946.4688-3.3894.9374-5.0842 1.406.1883-1.7129.3766-3.4258.6316-5.745 1.7254 1.6814 3.089 3.0102 4.4526 4.339z" fill="#e7f6fb"/><path d="m372.6021 159.2985c-1.7318.6421-3.4637 1.2841-5.1956 1.9262.3559-1.7622.7116-3.5241 1.1691-5.7902 1.4939 1.4335 2.7602 2.6488 4.0265 3.864z" fill="#c2ebf9"/><path d="m334.6415 144.707c1.7245-.3186 3.4488-.6371 5.1731-.9558-.4136 1.1897-.8274 2.3794-1.3733 3.9489-1.411-1.1116-2.6054-2.0523-3.7998-2.9931z" fill="#e7f6fb"/><path d="m322.3119 115.701c-1.522.4628-3.0439.9256-4.5659 1.3885.583-1.1846 1.166-2.3693 1.875-3.8099 1.0504.9453 1.8707 1.6834 2.6909 2.4214z" fill="#e7f6fb"/><path d="m285.5238 99.1261c-1.1881 4.3871-2.3764 8.7743-3.6057 13.3135-2.8251-.1439-5.3811-.2742-8.159-.4158.5016-2.426.9597-4.6417 1.4176-6.8576 1.0291-.5756 2.0691-1.133 3.0853-1.7303 2.4264-1.4266 4.8418-2.872 7.2618-4.3098z" fill="#fafbfc"/><path d="m257.562 107.4442c.6031-3.4432 1.206-6.8863 1.8663-10.6567 3.9615 0 7.9796-.0136 11.9968.0424.1887.0026.3687.6238.5526.9572-1.4909 1.0113-2.9761 2.0307-4.4735 3.0318-3.3108 2.2132-6.6278 4.4174-9.9422 6.6253z" fill="#c2ebf9"/><path d="m257.562 107.4442c3.3144-2.2079 6.6313-4.4121 9.9422-6.6254 1.4975-1.001 2.9826-2.0205 4.4735-3.0318-.4178 1.9787-.8358 3.9575-1.2537 5.9363-1.705 1.1064-3.4692 2.1327-5.1013 3.3379-2.4698 1.8238-4.8477 3.772-7.2644 5.6675-.7259.0426-1.4518.0853-2.3653.1388.5719-1.9763 1.0704-3.6997 1.569-5.4233z" fill="#fafbfc"/><path d="m243.7258 105.5634c.159-2.5522.318-5.1045.4964-7.9682 3.6382-.2163 7.1585-.4256 11.0936-.6595-.2457.8849-.4271 1.5384-.6086 2.1919-.8358.3551-1.7309.6131-2.4966 1.0824-2.8513 1.7469-5.6602 3.5631-8.4848 5.3534z" fill="#fafbfc"/><path d="m243.7258 105.5634c2.8247-1.7903 5.6335-3.6065 8.4848-5.3534.7657-.4692 1.6608-.7272 2.4966-1.0824-.4315 1.8489-.863 3.6982-1.2946 5.5472-.4119.1528-.8577.2478-1.2302.4673-3.0964 1.8241-6.1796 3.6713-9.2666 5.5114.27-1.6966.54-3.3933.81-5.0901z" fill="#c2ebf9"/><path d="m258.3584 112.7288c2.4167-1.8954 4.7946-3.8437 7.2644-5.6675 1.632-1.2052 3.3963-2.2316 5.1013-3.3379-.4645 2.693-.9291 5.3861-1.412 8.1854-3.7051.2773-7.3294.5486-10.9537.82z" fill="#c2ebf9"/><path d="m285.5238 99.1261c-2.42 1.4378-4.8354 2.8832-7.2617 4.3097-1.0163.5973-2.0562 1.1548-3.0853 1.7303.2334-1.8522.4667-3.7043.7-5.5568 1.3762-.9398 2.7523-1.8795 4.1283-2.8193 1.9345-.2216 3.8688-.4433 6.1453-.7043-.2463 1.1953-.4365 2.1179-.6266 3.0404z" fill="#c2ebf9"/><path d="m253.0218 106.5116c-.222 2.0417-.4439 4.0834-.7397 6.8053-2.5765 0-5.3621 0-8.1477 0 2.9625-2.2684 5.9249-4.5369 8.8874-6.8053z" fill="#c2ebf9"/><path d="m253.0218 106.5116c-2.9624 2.2684-5.9249 4.5368-8.8873 6.8053-.5652.055-1.1302.11-1.9946.1941.298-1.0971.5369-1.9772.7759-2.8573 3.0871-1.8403 6.1702-3.6875 9.2666-5.5116.3725-.2195.8184-.3145 1.2302-.4673-.1303.6123-.2605 1.2246-.3908 1.8368z" fill="#fafbfc"/><path d="m239.8332 101.9103c-.3136 2.4346-.6272 4.8692-.9408 7.304-1.1988.4738-2.3976.9472-3.5964 1.4208.437-2.6398.8741-5.2796 1.3111-7.9194 1.0754-.2684 2.1508-.5369 3.2261-.8054z" fill="#fafbfc"/><path d="m235.2961 110.6351c1.1988-.4736 2.3976-.9471 3.5964-1.4208-.0848 1.4942-.1698 2.9886-.2662 4.6859-1.3126.1931-2.6202.3854-4.3691.6425.4069-1.5306.7229-2.7192 1.0389-3.9076z" fill="#c2ebf9"/><path d="m239.8332 101.9103c-1.0753.2685-2.1507.5371-3.226.8055 0-1.3483 0-2.6965 0-4.2977 1.1028-.1341 2.3334-.2839 3.8959-.4739-.2507 1.4841-.4603 2.725-.6699 3.9661z" fill="#abe0f4"/><path d="m280.0051 96.7901c-1.3761.9398-2.7521 1.8795-4.1283 2.8193 0-.8707 0-1.7416 0-2.8193z" fill="#fafbfc"/><path d="m213.8634 171.9333c-.8201-.9364-1.6402-1.8726-2.4595-2.8087.0187-3.9279 1.7306-5.5244 5.5797-5.2027 2.5089.2097 3.855 2.4265 2.8915 4.7619-1.0663 2.585-3.1427 3.7072-6.0117 3.2495zm4.6422-4.7379c-.9431-.6682-1.507-1.3589-1.8701-1.2659-.8304.2127-1.5624.8085-2.3344 1.2488.3983.6108.9863 1.7948 1.1632 1.7362.913-.302 1.7205-.9224 3.0413-1.7191z" fill="#25303d"/><path d="m218.5056 167.1954c-1.3208.7967-2.1283 1.4172-3.0413 1.719-.177.0587-.765-1.1254-1.1632-1.7362.772-.4403 1.504-1.0361 2.3344-1.2488.3631-.093.927.5978 1.8701 1.266z" fill="#458dcf"/></g></svg>