<svg id="Layer_1" enable-background="new 0 0 64 64" height="512" viewBox="0 0 64 64" width="512" xmlns="http://www.w3.org/2000/svg" xmlns:xlink="http://www.w3.org/1999/xlink"><pattern id="New_Pattern_Swatch_1" height="23.25" overflow="visible" patternUnits="userSpaceOnUse" viewBox="0 -23.25 23.63 23.25" width="23.63" x="-420" y="-252"><g><path d="m0-23.25h23.63v23.25h-23.63z" fill="none"/><path d="m0-23.25h23.63v23.25h-23.63z" fill="#fccc77"/></g></pattern><pattern id="New_Pattern_Swatch_16" height="24.63" overflow="visible" patternUnits="userSpaceOnUse" viewBox="0 -24.63 24.63 24.63" width="24.63" x="-420" y="-252"><g><path d="m0-24.63h24.63v24.63h-24.63z" fill="none"/><path d="m0-24.63h24.63v24.63h-24.63z" fill="#a5b0b9"/></g></pattern><pattern id="New_Pattern_Swatch_17" height="24.63" overflow="visible" patternUnits="userSpaceOnUse" viewBox="0 -24.63 24.63 24.63" width="24.63" x="-420" y="-252"><g><path d="m0-24.63h24.63v24.63h-24.63z" fill="none"/><path d="m0-24.63h24.63v24.63h-24.63z" fill="#82929e"/></g></pattern><pattern id="New_Pattern_Swatch_8" height="23.25" overflow="visible" patternUnits="userSpaceOnUse" viewBox="0 -23.25 23.63 23.25" width="23.63" x="-420" y="-252"><g><path d="m0-23.25h23.63v23.25h-23.63z" fill="none"/><path d="m0-23.25h23.63v23.25h-23.63z" fill="#f26d74"/></g></pattern><pattern id="SVGID_1_" patternTransform="matrix(.985 0 0 .985 -129.307 -116.965)" xlink:href="#New_Pattern_Swatch_8"/><pattern id="SVGID_2_" patternTransform="matrix(.985 0 0 .985 -129.307 -116.965)" xlink:href="#New_Pattern_Swatch_8"/><pattern id="SVGID_3_" patternTransform="matrix(.985 0 0 .985 -129.307 -116.965)" xlink:href="#New_Pattern_Swatch_1"/><pattern id="SVGID_4_" patternTransform="matrix(.985 0 0 .985 -129.307 -116.965)" xlink:href="#New_Pattern_Swatch_1"/><pattern id="SVGID_5_" patternTransform="matrix(.985 0 0 .985 -131.276 -114.402)" xlink:href="#New_Pattern_Swatch_16"/><pattern id="SVGID_6_" patternTransform="matrix(.985 0 0 .985 -129.307 -116.965)" xlink:href="#New_Pattern_Swatch_1"/><pattern id="SVGID_7_" patternTransform="matrix(.985 0 0 .985 -131.276 -114.402)" xlink:href="#New_Pattern_Swatch_16"/><pattern id="SVGID_8_" patternTransform="matrix(.985 0 0 .985 -131.276 -114.402)" xlink:href="#New_Pattern_Swatch_17"/><pattern id="SVGID_9_" patternTransform="matrix(.985 0 0 .985 -129.307 -116.965)" xlink:href="#New_Pattern_Swatch_8"/><pattern id="SVGID_10_" patternTransform="matrix(.985 0 0 .985 -129.307 -116.965)" xlink:href="#New_Pattern_Swatch_8"/><pattern id="SVGID_11_" patternTransform="matrix(.985 0 0 .985 -129.307 -116.965)" xlink:href="#New_Pattern_Swatch_8"/><g><path d="m63.92 23.58c-.02-.14-.09-.26-.2-.34-.12-.08-.26-.11-.38-.08-4.47.85-8.99 1.72-13.54 2.66l-10.29-6.09c-.09-.06-.21-.08-.32-.07l-9.65 1.23-1.56-5.52c-.07-.21-.26-.35-.48-.35h-6.99c-.16 0-.31.08-.4.21s-.11.3-.06.45l2.14 6.15-2.91.37-1.96-6.83c-.06-.21-.25-.35-.47-.35h-7.22c-.16 0-.31.08-.4.21s-.12.29-.07.44l2.43 7.51-4.13.52c-.25.03-.43.25-.43.49v13.15c-1.04.37-2.08.76-3.12 1.15-.12.04-.24.09-.35.13-1.08.41-2.17.84-3.24 1.27-.19.07-.32.25-.32.45v8.16c0 .27.23.49.49.49h49.96c.2 0 .37-.12.45-.31.02-.05 2.1-4.89 6.66-9.13 1.95-1.81 3.33-3.61 4.22-5.51 1.76-3.7 2.48-7.22 2.14-10.46zm-42.7-7.59h5.93l.43 1.55h-5.83zm.87 2.53h5.76l.71 2.49-5.37.68zm-11.79-2.53h6.18l.53 1.87-6.01.3zm1.02 3.14 5.97-.31 1 3.49-5.71.73zm-3.31 5.49 31.14-3.97 3.08 1.83c-11.55 2.02-23.05 4.59-34.22 7.64zm0 6.52c11.59-3.18 23.53-5.84 35.51-7.9l4.83 2.87c-13.4 2.8-27.06 6.14-40.35 10.86v-5.83zm52.88 2.48c-.85 1.78-2.16 3.5-4.02 5.22-4.1 3.81-6.21 8.01-6.74 9.17h-49.15v-7.33c19.34-7.74 39.76-12.17 59.21-15.92.94-.18 1.86-.35 2.79-.53.2 2.9-.5 6.06-2.09 9.39z"/><path d="m18.29 22.31-5.71.73-1.26-3.91 5.97-.3z" fill="url(#SVGID_1_)"/><path d="m28.56 21.01-5.36.68-1.11-3.17h5.76z" fill="url(#SVGID_2_)"/><path d="m27.58 17.54h-5.83l-.53-1.55h5.92z" fill="url(#SVGID_3_)"/><path d="m17.01 17.86-6 .3-.71-2.17h6.18z" fill="url(#SVGID_4_)"/><path d="m42.24 22.48c-11.55 2.02-23.05 4.59-34.22 7.64v-5.5l31.14-3.97z" fill="url(#SVGID_5_)"/><path d="m48.36 26.11c-13.4 2.8-27.06 6.14-40.35 10.86v-5.83c11.59-3.18 23.53-5.84 35.51-7.9z" fill="url(#SVGID_6_)"/><path d="m.98 40.67v7.33h46.34c.53-1.15 2.65-5.36 6.74-9.17 1.86-1.72 3.17-3.44 4.02-5.22 1.49-3.13 2.2-6.11 2.11-8.87-19.45 3.76-39.87 8.2-59.21 15.93zm28.21.29c-.5 0-.97-.12-1.4-.32-1.11-.52-1.89-1.66-1.89-2.97 0-1.32.78-2.45 1.89-2.97.42-.21.9-.32 1.4-.32 1.81 0 3.29 1.47 3.29 3.29 0 1.81-1.48 3.29-3.29 3.29zm10.55-1.61c-.5 0-.97-.11-1.4-.32-1.11-.52-1.89-1.66-1.89-2.97s.78-2.45 1.89-2.97c.42-.21.9-.32 1.4-.32 1.81 0 3.29 1.48 3.29 3.29s-1.48 3.29-3.29 3.29zm9.96-1.19c-.5 0-.97-.12-1.4-.32-1.11-.52-1.89-1.66-1.89-2.97 0-1.32.78-2.46 1.89-2.98.42-.21.9-.32 1.4-.32 1.81 0 3.29 1.48 3.29 3.3s-1.48 3.29-3.29 3.29z" fill="url(#SVGID_7_)"/><path d="m60.89 33.62c-.85 1.78-2.16 3.5-4.02 5.22-4.1 3.81-6.21 8.01-6.74 9.17h-2.81c.53-1.15 2.65-5.36 6.74-9.17 1.86-1.72 3.17-3.44 4.02-5.22 1.49-3.13 2.2-6.11 2.11-8.87.94-.18 1.86-.35 2.79-.53.2 2.91-.5 6.07-2.09 9.4z" fill="url(#SVGID_8_)"/><path d="m49.7 31.58c-1.81 0-3.29 1.48-3.29 3.3 0 1.81 1.48 3.29 3.29 3.29s3.29-1.48 3.29-3.29c0-1.83-1.48-3.3-3.29-3.3zm0 5.6c-1.27 0-2.3-1.03-2.3-2.3 0-1.28 1.03-2.31 2.3-2.31s2.3 1.03 2.3 2.31c0 1.26-1.03 2.3-2.3 2.3z"/><path d="m52 34.87c0 1.27-1.03 2.3-2.3 2.3s-2.3-1.03-2.3-2.3c0-1.28 1.03-2.31 2.3-2.31s2.3 1.03 2.3 2.31z" fill="url(#SVGID_9_)"/><path d="m39.74 32.78c-1.81 0-3.29 1.48-3.29 3.29s1.48 3.29 3.29 3.29 3.29-1.48 3.29-3.29-1.48-3.29-3.29-3.29zm0 5.59c-1.27 0-2.3-1.03-2.3-2.3s1.03-2.3 2.3-2.3 2.3 1.03 2.3 2.3-1.03 2.3-2.3 2.3z"/><circle cx="39.74" cy="36.07" fill="url(#SVGID_10_)" r="2.3"/><path d="m29.19 34.38c-1.81 0-3.29 1.47-3.29 3.29 0 1.81 1.48 3.29 3.29 3.29s3.29-1.48 3.29-3.29c0-1.82-1.48-3.29-3.29-3.29zm0 5.59c-1.27 0-2.3-1.03-2.3-2.3s1.03-2.3 2.3-2.3 2.3 1.03 2.3 2.3c.01 1.27-1.03 2.3-2.3 2.3z"/><circle cx="29.19" cy="37.67" fill="url(#SVGID_11_)" r="2.3"/></g></svg>