<svg id="Layer_1" enable-background="new 0 0 66 66" height="512" viewBox="0 0 66 66" width="512" xmlns="http://www.w3.org/2000/svg"><g><g><path d="m62.12 39.61c.8-2.18 1.14-4.5.73-6.91-.47-2.77-2.18-5.3-4.58-6.75-1.46-.89-3.57-1.79-5.31-1.83-1.85-.04-3.16.67-4.99-.33-1.11-.6-2-1.57-3.13-2.14-1.52-.77-4-.08-5.41.75-.69.41-1.25 1.01-1.85 1.55-.6.53-1.34.14-2.14.23-1.3.15-1.86-.26-2.98-.59-1.22-.36-3.02.05-4 .8-1.8 1.38-1.14 3.7-1.37 5.68-.38 3.19-1.29 6.32-2.76 9.18-4.33 8.4-12.84 13.62-21.38 16.97 11.51 4.73 24.62 5.3 36.48 2.34 5.23-1.31 10.4-3.8 14.7-7.95 3.09-2.98 6.43-6.74 7.99-11z" fill="#0092f2"/></g><g opacity=".1"><path d="m62.85 32.7c-.47-2.77-2.18-5.3-4.58-6.75-.13-.08-.27-.16-.4-.23.54.97.92 2.02 1.11 3.11.41 2.41.07 4.72-.73 6.91-1.56 4.26-4.9 8.02-7.98 11-4.31 4.15-9.47 6.64-14.7 7.95-9.4 2.35-19.58 2.47-29.13.07-1.15.53-2.31 1.02-3.47 1.48 11.51 4.73 24.62 5.3 36.48 2.34 5.23-1.31 10.4-3.8 14.7-7.95 3.09-2.98 6.42-6.74 7.98-11 .79-2.2 1.13-4.52.72-6.93z"/></g><g><path d="m60.36 19.99c-1.04-1.15-2.29-2.07-3.78-2.61-1.12-.41-2.44-.37-3.39-1.2-.67-.58-1.02-1.52-1.72-2.1-1.07-.89-2.32-1.58-3.64-2-2.18-.7-4.47.65-6.72.25-1.64-.29-3.23-1.17-4.74-1.85-3.75-1.68-7.71-3.19-11.54-.77-1.19.75-2.28 1.81-3.67 1.99-1.49.2-2.89-.66-4.26-1.28s-3.16-.96-4.25.07c-.71.67-.9 1.73-1.47 2.52-1.11 1.56-3.28 1.76-5.16 2.13-1.73.34-4.27 1.7-4.01 3.86.12 1.01.99 1.88 2 2.01.57.07 1.15-.07 1.73-.08s1.23.18 1.5.69c.28.54.04 1.19.06 1.8.04 1.38 1.55 2.4 2.93 2.24 1.77-.21 2.8-1.97 3.93-3.13 1.42-1.46 3.44-2.41 5.54-2.09.62.09 1.3.37 1.51.95.76 2.06-2.1 3.74-2.28 5.67-.16 1.67 1.21 2.61 2.75 2.22 2.77-.72 4.1-4.9 6.9-5.25.59-.07 1.24.13 1.6.61.26.36.34.82.49 1.24.9 2.51 2.31-.39 2.96-1.26.43-.58 1.35-.95 1.84-.42 1.14 1.2 1.11 2.96 3.22 2.55 2.34-.46 1.52-3.53 4.08-4.27 2.98-.87 3.3 1.82 5.34 2.87 1.75.9 2.51-.87 4-1.21 3.34-.76 6.51 1.02 8.35 3.77 1.79 2.67 2.54 6.3 2.2 9.48.19-1.84 1.03-3.53 1.3-5.34.2-1.35.03-2.86-.15-4.22-.4-2.93-1.46-5.65-3.45-7.84z" fill="#0092f2"/></g><g><path d="m40.87 9.31c.56-1.39-.21-3.27-1.57-3.87-.47-.21-1.01-.29-1.5-.14s-.91.58-.97 1.09c-.1.82.72 1.49 1.54 1.64.45.08.92.06 1.37.18.44.13.88.46.92.92" fill="#0092f2"/></g><g><path d="m16.32 25.93c-1.66-.05-3.78.79-4.62 2.32-.37.68-.38 1.4.42 1.76.91.41 1.34-.32 1.71-1.05.6-1.18 1.48-2.21 2.55-2.99" fill="#0092f2"/></g><g><path d="m9.03 12.19c-.49-.72-1.7-1.44-2.58-1.54-.59-.07-2.1.58-1.52 1.43.06.09.17.15.28.18.66.21 1.35-.13 2.01-.36s1.53-.27 1.91.31" fill="#0092f2"/></g><g><path d="m14.38 35.35c-1.7.52-3.97 2.48-3.51 4.5.08.37.34.72.7.83.51.16 1.07-.2 1.33-.66.26-.47.32-1.02.4-1.55.18-1.11.55-2.2 1.07-3.19" fill="#0092f2"/></g><g><path d="m62.64 38.1c-.03 0-.05 0-.08 0-.4-.04-.69-.4-.65-.8.33-3.14-.47-6.58-2.08-8.99-1.83-2.73-4.81-4.09-7.58-3.46-.4.09-.78.36-1.17.63-.77.55-1.83 1.29-3.33.52-.84-.44-1.42-1.09-1.92-1.66-.87-.99-1.4-1.59-2.88-1.16-.92.27-1.24.89-1.67 1.87-.42.94-.94 2.12-2.47 2.42-1.98.39-2.67-.84-3.18-1.73-.21-.36-.42-.74-.71-1.04-.01-.01-.02-.04-.1-.02-.2.01-.48.18-.63.38-.09.12-.2.29-.32.48-.63.97-1.39 2.18-2.48 2.06-.62-.07-1.1-.57-1.42-1.48-.05-.13-.09-.27-.13-.41-.07-.25-.14-.49-.26-.64-.17-.24-.54-.37-.92-.32-1.18.15-2.12 1.23-3.12 2.38-1.05 1.21-2.14 2.46-3.69 2.86-1.02.27-2.02.07-2.74-.55-.69-.58-1.01-1.45-.92-2.44.1-1.01.72-1.88 1.33-2.72.81-1.12 1.28-1.86 1-2.63-.1-.27-.55-.43-.94-.49-1.69-.26-3.48.43-4.9 1.88-.25.26-.49.54-.74.83-.93 1.09-1.98 2.32-3.63 2.51-.95.11-1.96-.21-2.7-.85-.65-.56-1.01-1.3-1.04-2.08-.01-.23.02-.48.05-.71.04-.31.07-.6-.02-.76-.1-.18-.46-.29-.84-.3-.2 0-.41.02-.61.05-.37.04-.78.08-1.22.03-1.33-.17-2.47-1.3-2.63-2.64-.33-2.68 2.64-4.28 4.59-4.66.24-.05.48-.09.72-.13 1.57-.28 3.19-.58 3.99-1.7.2-.27.35-.61.51-.96.25-.55.54-1.18 1.06-1.67 1.14-1.07 2.98-1.14 5.05-.21.24.11.48.22.72.34 1.09.53 2.13 1.02 3.15.89.85-.11 1.62-.66 2.44-1.24.31-.22.62-.44.94-.65 4.08-2.57 8.28-1.05 12.23.72.33.15.67.31 1.01.47 1.16.55 2.37 1.12 3.56 1.33.91.16 1.86-.01 2.87-.19 1.28-.23 2.6-.47 3.95-.04 1.41.45 2.76 1.19 3.89 2.14.44.37.75.83 1.03 1.23.23.34.45.66.7.88.48.42 1.16.57 1.87.72.42.09.86.19 1.29.34 1.52.55 2.89 1.49 4.07 2.8 1.97 2.18 3.19 4.94 3.61 8.21.19 1.46.36 3 .15 4.42-.13.9-.4 1.77-.65 2.6-.28.92-.55 1.8-.64 2.7v.01c-.09.35-.41.63-.77.63zm-9.03-14.87c2.83 0 5.62 1.56 7.42 4.26.97 1.44 1.67 3.21 2.06 5.08.05-.22.09-.43.12-.65.18-1.23.03-2.66-.15-4.02-.38-2.97-1.47-5.47-3.24-7.42-1.02-1.13-2.2-1.94-3.49-2.41-.34-.12-.71-.2-1.1-.29-.82-.18-1.76-.38-2.52-1.05-.39-.34-.67-.76-.94-1.15-.25-.36-.48-.7-.76-.94-.99-.83-2.16-1.47-3.4-1.87-1-.32-2.09-.12-3.25.08-1.09.2-2.21.4-3.38.19-1.38-.24-2.68-.86-3.93-1.45-.33-.16-.66-.31-.98-.46-3.74-1.68-7.39-3-10.86-.81-.3.19-.59.39-.87.6-.92.66-1.88 1.34-3.09 1.5-1.46.19-2.79-.45-3.97-1.02-.23-.11-.46-.22-.69-.32-.56-.25-2.46-1-3.46-.06-.31.29-.52.74-.73 1.21-.18.4-.37.81-.65 1.2-1.14 1.6-3.15 1.97-4.91 2.29-.24.04-.47.09-.7.13-1.21.24-3.64 1.3-3.43 3.06.09.69.69 1.29 1.38 1.38.27.03.57 0 .89-.03.25-.03.5-.05.75-.05h.04c.96 0 1.75.4 2.11 1.08.29.56.23 1.14.18 1.6-.04.17-.06.34-.06.51.01.37.2.73.53 1.02.43.38 1.04.57 1.58.51 1.08-.13 1.86-1.04 2.69-2.01.27-.32.54-.63.81-.9 1.75-1.8 4-2.63 6.17-2.3 1.07.16 1.81.67 2.09 1.42.58 1.55-.36 2.85-1.18 3.99-.52.71-1 1.39-1.06 2.01-.05.51.09.93.41 1.2.35.3.88.39 1.44.24 1.12-.29 2.01-1.32 2.96-2.4 1.13-1.3 2.3-2.65 4.03-2.87.9-.11 1.79.24 2.28.9.26.36.38.75.48 1.09.03.11.07.23.11.34.1.28.19.42.24.49.31-.2.86-1.04 1.07-1.37.14-.22.27-.42.38-.56.41-.55 1.08-.93 1.71-.96.48-.02.93.14 1.25.48.41.43.68.9.91 1.32.5.88.69 1.2 1.63 1.02.75-.15 1-.64 1.42-1.58.44-.98.98-2.21 2.6-2.68 2.37-.69 3.49.57 4.38 1.59.46.53.9 1.02 1.5 1.33.69.36 1.05.13 1.82-.41.47-.33 1-.71 1.69-.87.54-.15 1.11-.21 1.67-.21z" fill="#6f1e3f"/></g><g><path d="m24.58 61.12c-7.6 0-15.08-1.42-21.9-4.22-.27-.11-.45-.38-.45-.68s.18-.56.46-.67c16.76-6.58 24.55-16.73 23.83-31.01-.02-.4.29-.74.69-.76.43-.03.74.29.76.69.72 14.29-7.04 24.96-23.06 31.75 10.63 3.95 22.76 4.54 34.35 1.64 5.66-1.41 10.49-4.03 14.37-7.77l.3-.29c3.11-3 6.05-5.83 7.57-10.38.39-1.16.71-2.37.96-3.61.08-.39.46-.65.86-.57.39.08.65.46.57.86-.26 1.29-.6 2.57-1 3.78-1.64 4.89-4.84 7.98-7.94 10.97l-.3.29c-4.06 3.92-9.12 6.65-15.03 8.13-4.97 1.23-10.03 1.85-15.04 1.85z" fill="#6f1e3f"/></g><g><g><path d="m49.32 45.46c-.05-.1.85-.6 2.22-1.52 1.35-.93 3.15-2.35 4.69-4.32s2.54-4.03 3.22-5.53c.67-1.51 1.04-2.47 1.14-2.44.08.03-.13 1.04-.69 2.62-.57 1.57-1.53 3.73-3.13 5.78s-3.52 3.46-4.97 4.3c-1.47.84-2.45 1.18-2.48 1.11z" fill="#813b57"/></g></g><g><g><path d="m53.22 36.64c-.19-.08.88-2.66 1.53-6.01.68-3.34.67-6.13.88-6.14.17-.02.49 2.83-.2 6.27-.67 3.45-2.06 5.97-2.21 5.88z" fill="#813b57"/></g></g><g><g><path d="m51.09 33.12c-.18-.1.81-1.96 1.25-4.46.47-2.5.19-4.59.39-4.62.17-.05.78 2.09.29 4.74-.46 2.65-1.79 4.45-1.93 4.34z" fill="#813b57"/></g></g><g><g><path d="m35.67 41.77c-.18-.12 2.66-3.47 4.17-8.56 1.59-5.05 1.3-9.42 1.53-9.41.08-.01.26 1.07.24 2.84-.03 1.76-.3 4.2-1.11 6.78-.79 2.58-1.95 4.76-2.97 6.2-1 1.45-1.8 2.21-1.86 2.15z" fill="#813b57"/></g></g><g><g><path d="m27.4 45.46c-.07-.09.85-.87 2.1-2.34 1.26-1.46 2.79-3.66 4.02-6.34 2.51-5.36 2.81-10.27 3.05-10.23.08 0 .1 1.22-.19 3.17-.31 1.94-.95 4.61-2.23 7.35-1.26 2.74-2.9 4.97-4.28 6.38-1.38 1.42-2.42 2.07-2.47 2.01z" fill="#813b57"/></g></g><g><g><path d="m23.34 43.72c-.08-.06.49-.93 1.38-2.34s2.1-3.37 3.07-5.69c.97-2.33 1.46-4.57 1.64-6.21.19-1.64.13-2.68.24-2.69.08-.01.31 1.02.25 2.73-.06 1.7-.48 4.04-1.49 6.44-1 2.4-2.31 4.36-3.31 5.71-1 1.34-1.7 2.1-1.78 2.05z" fill="#813b57"/></g></g><g><g><path d="m36.82 50.57c-.07-.1 1.05-.9 2.73-2.33 1.66-1.43 3.87-3.56 5.67-6.37 1.82-2.8 2.77-5.71 3.31-7.84s.75-3.49.86-3.48c.08.01.04 1.39-.38 3.58-.42 2.18-1.33 5.21-3.21 8.1-1.86 2.9-4.18 5.02-5.94 6.37-1.79 1.37-3 2.03-3.04 1.97z" fill="#813b57"/></g></g><g><g><path d="m21.31 54.72c-.03-.12 1.47-.48 3.73-1.49 1.14-.48 2.43-1.19 3.83-2.02 1.38-.87 2.85-1.9 4.3-3.1 1.44-1.22 2.7-2.49 3.78-3.71 1.03-1.26 1.94-2.42 2.56-3.49 1.29-2.1 1.78-3.57 1.9-3.53.05.01-.05.39-.26 1.06-.09.34-.25.74-.46 1.19-.2.46-.43.98-.75 1.52-.58 1.12-1.46 2.35-2.49 3.65-1.08 1.27-2.35 2.59-3.82 3.83-1.48 1.23-2.99 2.27-4.42 3.12-1.45.82-2.79 1.49-3.97 1.93-.58.24-1.12.42-1.6.56-.48.15-.89.27-1.24.33-.7.14-1.08.2-1.09.15z" fill="#813b57"/></g></g><g><g><path d="m46.73 49.04c.03.04-.27.34-.84.86-.28.27-.65.56-1.09.89-.43.35-.94.7-1.52 1.08-2.29 1.54-5.74 3.26-9.79 4.44-4.05 1.2-7.89 1.56-10.64 1.52-1.38-.03-2.49-.11-3.25-.25-.76-.12-1.18-.21-1.17-.25.02-.12 1.7.08 4.42.01 2.71-.08 6.47-.51 10.45-1.69 3.98-1.16 7.4-2.78 9.72-4.19 2.35-1.4 3.63-2.51 3.71-2.42z" fill="#813b57"/></g></g><g><g><path d="m23.94 47.57c.07.05-.4.89-1.46 2.02-1.05 1.13-2.77 2.48-4.9 3.49-2.14 1.01-4.22 1.55-5.73 1.8-1.52.25-2.47.26-2.48.18-.05-.25 3.76-.65 7.91-2.61 2.07-.98 3.75-2.21 4.86-3.22 1.12-.99 1.71-1.73 1.8-1.66z" fill="#813b57"/></g></g><g><g><path d="m30.97 16.26c.01.08-1.08.36-2.91.45-.91.03-2.05-.03-3.22-.47-1.14-.4-2.31-1.15-3.52-.97-1.2.2-2.18 1.22-3.27 1.78-1.06.61-2.28.92-3.24.58-.94-.3-1.49-.98-1.65-1.5-.17-.53-.03-.83 0-.82.06 0 .03.3.25.71.21.41.73.93 1.54 1.13.79.22 1.82-.07 2.79-.67.5-.29.98-.66 1.53-1.04.54-.37 1.18-.76 1.95-.88.78-.12 1.51.08 2.13.32.63.24 1.19.53 1.72.74 1.06.43 2.11.54 2.99.57 1.77.07 2.9-.04 2.91.07z" fill="#813b57"/></g></g><g><g><path d="m49.2 19.24c-.04.1-.9-.22-2.35-.01-.72.08-1.59.28-2.61.33-.51.02-1.07-.01-1.63-.17-.57-.15-1.08-.47-1.56-.74-.93-.57-1.93-.74-2.88-.71-.94.03-1.78.25-2.48.46-1.39.45-2.25.81-2.3.71-.03-.07.74-.58 2.13-1.17.7-.28 1.58-.57 2.61-.64 1.01-.09 2.23.11 3.25.74 1.84 1.37 3.91.72 5.42.69 1.56-.09 2.46.44 2.4.51z" fill="#813b57"/></g></g><g><g><path d="m40.65 9.14c-.05.01-.09-.18-.3-.38s-.59-.38-1.15-.39c-.28-.02-.6-.01-.98-.07-.38-.07-.77-.24-1.11-.53-.34-.28-.65-.74-.63-1.31.01-.56.38-1.06.84-1.33.48-.28 1.03-.3 1.5-.2.46.1.88.31 1.22.59.66.55 1 1.27 1.13 1.87.28 1.26-.25 1.97-.3 1.92-.11-.03.19-.74-.17-1.78-.17-.51-.51-1.09-1.05-1.5-.52-.4-1.37-.63-1.97-.29-.3.17-.5.47-.51.76-.02.29.14.58.37.8.49.47 1.12.51 1.73.59.61.07 1.12.39 1.3.71.19.32.12.55.08.54z" fill="#813b57"/></g></g><g><g><path d="m16.38 25.97c.07.09-.54.57-1.28 1.53-.37.49-.74 1.08-1.1 1.82-.2.36-.42.85-1.04 1.09-.31.1-.64.05-.89-.05-.26-.1-.52-.25-.72-.52-.41-.58-.22-1.25.01-1.67.24-.44.55-.8.88-1.09.67-.58 1.4-.89 2.02-1.07 1.26-.35 2.07-.16 2.06-.08 0 .11-.78.11-1.9.54-.55.22-1.19.55-1.75 1.08-.28.26-.53.57-.71.93-.18.35-.23.73-.05.96.17.24.63.42.85.33.25-.07.5-.41.68-.75.38-.73.85-1.37 1.28-1.83.89-.94 1.61-1.29 1.66-1.22z" fill="#813b57"/></g></g><g><g><path d="m9.14 12.22c-.07.05-.45-.41-1.3-.2-.41.07-.85.33-1.48.53-.31.09-.69.17-1.09.09-.17-.04-.47-.11-.64-.39-.13-.19-.21-.49-.13-.76.17-.54.56-.75.89-.92.35-.15.67-.26 1.09-.23.69.11 1.19.41 1.58.68.8.55 1.06 1.14.97 1.18-.08.05-.44-.37-1.23-.76-.38-.19-.88-.41-1.4-.46-.38-.02-1.16.34-1.25.68-.01.07-.01.13.05.23-.01.02.06.06.2.09.24.06.51.03.78-.04.53-.13 1.07-.38 1.59-.4.5-.04.93.1 1.15.3.23.19.25.36.22.38z" fill="#813b57"/></g></g><g><g><path d="m14.38 35.28c.09.05-.24.76-.54 1.95-.17.61-.23 1.29-.37 2.16-.09.42-.27.96-.71 1.31-.21.18-.48.32-.8.35-.32.04-.67-.07-.92-.29-.25-.21-.4-.48-.48-.77-.06-.28-.09-.53-.08-.79.02-.52.19-.98.4-1.38.44-.79 1.04-1.33 1.57-1.71 1.08-.76 1.92-.85 1.93-.77.04.1-.71.36-1.63 1.16-.46.4-.96.93-1.3 1.61-.16.34-.28.72-.29 1.11-.01.4.07.81.32 1.01.23.21.56.16.84-.06.28-.21.42-.55.52-.93.15-.76.3-1.57.53-2.16.44-1.21.94-1.84 1.01-1.8z" fill="#813b57"/></g></g></g></svg>