<svg id="Layer_1" enable-background="new 0 0 512 512" viewBox="0 0 512 512" xmlns="http://www.w3.org/2000/svg"><g clip-rule="evenodd" fill-rule="evenodd"><path d="m36.48 121.98h275.78v355.18h-275.78z" fill="#dfc49c"/><path d="m312.26 124.73v352.43h-272.75c3-55.7 24.38-120.27 64.03-182.61 56.81-89.32 136.8-151.43 208.72-169.82z" fill="#ffe0b2"/><path d="m284.62 334.52 24.69-27.64 76.99 68.82-24.72 27.64z" fill="#0688ad"/><path d="m296.98 320.68 12.33-13.8 76.99 68.82-12.36 13.81z" fill="#04a0c8"/><path d="m459.86 466.36c10.4-11.65 9.38-29.68-2.24-40.08l-75.51-67.55-37.84 42.32 75.51 67.55c11.62 10.4 29.68 9.38 40.08-2.24z" fill="#fec01b"/><path d="m459.86 466.36c10.4-11.65 6.94-31.86-7.65-44.93l-70.1-62.67-18.94 21.15z" fill="#ffd11a"/><path d="m177.25 219.37c39.37-44.05 106.98-47.82 151.03-8.45 44.02 39.37 47.79 106.98 8.42 151.03-39.37 44.02-106.98 47.79-151.03 8.42-44.03-39.37-47.8-106.97-8.42-151z" fill="#04a0c8"/><path d="m177.25 219.37c39.37-44.05 106.98-47.82 151.03-8.45 21.06 18.85 32.91 44.14 35.21 70.24-3.91 16.89-12.05 33.08-24.43 46.91-39.37 44.05-106.98 47.82-151 8.45-21.06-18.85-32.91-44.14-35.23-70.24 3.92-16.89 12.03-33.07 24.42-46.91z" fill="#01d0fb"/><path d="m199.04 238.88c28.6-32 77.73-34.75 109.73-6.15 31.97 28.63 34.72 77.73 6.12 109.73-28.6 31.97-77.73 34.72-109.73 6.12-31.97-28.6-34.72-77.73-6.12-109.7z" fill="#eacb9b"/><path d="m278.1 215.89c11.03 3.09 21.54 8.7 30.67 16.84 31.97 28.63 34.72 77.73 6.12 109.73-15.02 16.78-35.69 25.51-56.55 25.88-11.03-3.12-21.54-8.7-30.67-16.87-31.97-28.6-34.72-77.73-6.12-109.7 15.02-16.78 35.69-25.51 56.55-25.88z" fill="#ffe6c1"/><path d="m256.98 57.43c46.35 0 83.93 37.59 83.93 83.96 0 31.27-27.89 58.96-42.46 97.37h-82.94c-14.6-38.41-42.49-66.1-42.49-97.37 0-46.37 37.59-83.96 83.96-83.96z" fill="#fec01b"/><path d="m268.69 58.25c40.82 5.73 72.23 40.76 72.23 83.14 0 31.27-27.89 58.96-42.46 97.37h-59.5c-14.6-38.41-42.46-66.1-42.46-97.37-.01-42.37 31.4-77.41 72.19-83.14z" fill="#ffd11a"/><path d="m281.42 291.37-3.83 14.12c-3.83 14.03-37.05 15.39-41.24 0l-3.83-14.12c.14 0 .26.03.4.03h48.1c.14 0 .26-.03.4-.03z" fill="#c0d6f2"/><path d="m281.42 291.4-3.83 14.09c-1.22 4.48-5.44 7.68-10.77 9.44-4.9-1.73-8.79-4.82-10.03-9.44l-3.83-14.09h.34 27.72.06z" fill="#e5eef9"/><path d="m232.92 291.4h48.1c8.59 0 15.65-7.62 15.65-16.95v-6.94c-.23 0-.43 0-.62 0h-78.15c-.2 0-.4 0-.62 0v6.94c-.01 9.33 7.05 16.95 15.64 16.95z" fill="#c0d6f2"/><path d="m253.36 291.4h27.67c8.59 0 15.65-7.62 15.65-16.95v-6.94h-.6-.03-57.75-.6v6.94c.01 9.33 7.07 16.95 15.66 16.95z" fill="#e5eef9"/><path d="m217.89 238.73h78.15c6.49 0 11.79 5.3 11.79 11.79v5.19c0 6.49-5.3 11.79-11.79 11.79h-78.15c-6.49 0-11.79-5.3-11.79-11.79v-5.19c0-6.48 5.3-11.79 11.79-11.79z" fill="#c0d6f2"/><path d="m238.33 238.73h57.71c6.49 0 11.79 5.3 11.79 11.79v5.19c0 6.49-5.3 11.79-11.79 11.79h-57.71c-6.49 0-11.79-5.3-11.79-11.79v-5.19c0-6.48 5.3-11.79 11.79-11.79z" fill="#e5eef9"/></g><path d="m65.08 173.91c-3.85 0-7-3.15-7-7 0-3.88 3.15-7 7-7h13.18c3.86 0 7 3.12 7 7 0 3.86-3.15 7-7 7zm42.63 0c-3.85 0-7-3.15-7-7 0-3.88 3.15-7 7-7h40.85c3.85 0 7 3.12 7 7 0 3.86-3.15 7-7 7zm-42.63 265.32c-3.85 0-7-3.15-7-7 0-3.88 3.15-7 7-7h121.01c3.88 0 7 3.12 7 7 0 3.86-3.12 7-7 7zm164.01 0c-3.86 0-7-3.15-7-7 0-3.88 3.15-7 7-7h39.77c3.86 0 7 3.12 7 7 0 3.86-3.15 7-7 7zm-164.01-53.07c-3.85 0-7-3.15-7-7 0-3.88 3.15-7 7-7h32.97c3.85 0 7 3.12 7 7 0 3.85-3.15 7-7 7zm65.62 0c-3.85 0-7-3.15-7-7 0-3.88 3.15-7 7-7h23.58c3.86 0 7 3.12 7 7 0 3.85-3.15 7-7 7zm-65.62-53.06c-3.85 0-7-3.15-7-7 0-3.88 3.15-7 7-7h63.35c3.88 0 7 3.12 7 7 0 3.85-3.12 7-7 7zm0-53.06c-3.85 0-7-3.15-7-7 0-3.88 3.15-7 7-7h17.35c3.85 0 7 3.12 7 7 0 3.86-3.15 7-7 7zm39.77 0c-3.88 0-7-3.15-7-7 0-3.88 3.12-7 7-7h23.58c3.88 0 7 3.12 7 7 0 3.86-3.12 7-7 7zm-39.77-53.07c-3.85 0-7-3.15-7-7 0-3.88 3.15-7 7-7h35.6c3.85 0 7 3.12 7 7 0 3.85-3.15 7-7 7zm59.3 0c-3.88 0-7-3.15-7-7 0-3.88 3.12-7 7-7h17.55c3.88 0 7 3.12 7 7 0 3.85-3.12 7-7 7zm145.93-185.58c0 3.88-3.15 7-7 7-3.88 0-7-3.12-7-7v-14.23c0-3.88 3.12-7 7-7 3.86 0 7 3.12 7 7zm-55.17 7.65c1.93 3.32.79 7.6-2.55 9.52-3.34 1.96-7.6.79-9.55-2.52l-7.11-12.36c-1.93-3.32-.79-7.6 2.55-9.52s7.6-.79 9.52 2.52zm-43.93 34.19c3.32 1.93 4.48 6.18 2.55 9.52-1.9 3.34-6.18 4.48-9.5 2.58l-12.36-7.14c-3.32-1.9-4.48-6.18-2.55-9.5 1.9-3.34 6.18-4.51 9.5-2.58zm192.47 78.18c-3.85 0-6.97-3.12-6.97-6.97s3.12-6.97 6.97-6.97h14.26c3.83 0 6.97 3.12 6.97 6.97s-3.15 6.97-6.97 6.97zm-7.63-55.14c-3.34 1.93-7.62.79-9.55-2.55-1.93-3.32-.79-7.6 2.55-9.52l12.33-7.14c3.34-1.93 7.6-.79 9.55 2.55 1.93 3.34.79 7.63-2.55 9.55zm-34.21-43.94c-1.9 3.34-6.18 4.48-9.52 2.58-3.32-1.93-4.48-6.18-2.55-9.52l7.11-12.33c1.93-3.34 6.18-4.51 9.52-2.58s4.48 6.18 2.55 9.52zm-101.62 169.4h13.52v-35.83l-17.69-16.19c-2.83-2.58-3.03-7-.43-9.84 2.61-2.83 7-3.03 9.84-.45l19.47 17.86c1.7 1.28 2.81 3.32 2.81 5.58v38.86h18.45v-38.86c0-2.27 1.11-4.31 2.81-5.58l19.47-17.86c2.83-2.58 7.23-2.38 9.84.45s2.41 7.26-.43 9.84l-17.68 16.19v35.83h13.52l2.95-6.72c5.47-11.68 10.6-20.61 16.67-31.07 10.8-18.62 20.58-35.46 20.58-52.55 0-42.49-34.44-76.96-76.93-76.96-42.52 0-76.96 34.47-76.96 76.96 0 17.09 9.78 33.93 20.58 52.55 7.11 12.25 14.05 24.33 19.61 37.79zm94.62 18.26c.23 7.43.11 13.38-5.5 19.02-1.64 1.62-3.54 2.95-5.67 3.88v1.56c0 10.6-6.77 20.21-16.67 23.07l-2.66 9.81c-5.67 20.83-48.67 22.34-54.74 0l-2.66-9.81c-9.89-2.86-16.67-12.47-16.67-23.07v-1.56c-6.66-2.98-11.17-9.64-11.17-17.18v-5.73c-9.41 13.35-13.61 29.11-12.73 44.62.99 18.08 8.9 35.77 23.44 48.78 14.57 12.98 33.02 18.88 51.11 17.86 17.89-.99 35.4-8.73 48.39-23.02.17-.26.4-.51.62-.74 12.84-14.48 18.65-32.82 17.63-50.8-.7-12.94-4.98-25.72-12.72-36.69zm-25.17 24.52h-65.4c.03 5.13 3.66 9.89 8.65 9.89h48.1c4.99 0 8.62-4.76 8.65-9.89zm6.38-28.77h-78.15c-2.64 0-4.79 2.15-4.79 4.79v5.19c0 2.64 2.18 4.79 4.79 4.79h78.15c2.61 0 4.79-2.15 4.79-4.79v-5.19c0-2.64-2.16-4.79-4.79-4.79zm-23.79 52.64h-30.59l1.45 5.27c1.22 4.51 8.99 5.92 13.55 5.9 4.59-.03 13.04-1.76 14.17-5.9zm-69.99-72.4c-2.32-4.71-4.79-9.3-7.31-13.78-3.51 2.78-9.52 8.22-12.1 11.37-.2.26-.43.51-.65.74h-.03c-18.2 20.52-26.45 46.49-25.03 71.92 1.42 25.37 12.44 50.2 32.74 68.57.26.2.51.4.74.65 20.52 18.23 46.49 26.45 71.92 25.03 26.5-1.47 51.22-13.32 68.97-33.17 18.4-20.58 26.7-46.69 25.28-72.23-1.56-27.78-14.57-54.45-37.84-72.88-2.49 4.48-4.96 9.07-7.28 13.8l2.04 1.79.2.2c17.12 15.53 26.42 36.51 27.61 57.94 1.22 21.63-5.84 43.74-21.43 61.17l-.26.28-.2.2c-15.53 17.12-36.51 26.42-57.94 27.61-21.63 1.22-43.71-5.84-61.17-21.43-17.43-15.59-26.87-36.77-28.09-58.39-1.22-21.63 5.84-43.71 21.43-61.14zm-14.31-25.99c-15.02-25.91-24.86-43.48-21.09-71.01h-123.39v341.18h261.81v-76.28c-13.29 6.21-27.55 9.72-41.98 10.54-29.08 1.62-58.82-7.85-82.29-28.86l-.28-.25v.03l-.2-.2c-23.13-20.95-35.72-49.24-37.33-78.15-1.62-29.08 7.88-58.82 28.86-82.26l.26-.31h-.03l.2-.17c3.06-3.4 6.29-6.55 9.61-9.47 1.91-1.71 3.87-3.29 5.85-4.79zm-18.03-85.02c11.45-37.79 46.46-64.54 87.05-64.54 50.2 0 90.94 40.73 90.94 90.96 0 20.47-10.35 38.64-21.94 58.59 43.99 33.68 57.23 93.32 32.83 141.82l16.16 14.43 1.93-2.13c2.58-2.89 6.97-3.12 9.86-.57l75.52 67.55c14.51 12.98 15.76 35.38 2.78 49.92-12.98 14.51-35.4 15.76-49.92 2.78l-75.52-67.55c-2.86-2.55-3.12-6.97-.57-9.84l1.93-2.15-14.71-13.15c-2.27 1.76-4.62 3.43-7 4.99v91.08c0 3.86-3.12 7-7 7h-275.79c-3.85 0-7-3.15-7-7v-355.18c0-3.88 3.15-7 7-7h133.45zm181.7 239.11c-4.28 6.38-9.24 12.36-14.77 17.8l13.41 11.99 15.42-17.23zm103.01 107.63c7.82-8.76 7.06-22.42-1.67-30.25l-70.33-62.87-28.54 31.92 70.33 62.87c8.73 7.82 22.39 7.06 30.21-1.67z"/></svg>