<svg id="Filled_Expand" height="512" viewBox="0 0 64 64" width="512" xmlns="http://www.w3.org/2000/svg" data-name="Filled Expand"><path d="m1 53h50a0 0 0 0 1 0 0v6a4 4 0 0 1 -4 4h-42a4 4 0 0 1 -4-4v-6a0 0 0 0 1 0 0z" fill="#1ee0d7"/><path d="m47 1h-42a4 4 0 0 0 -4 4v48h50v-48a4 4 0 0 0 -4-4z" fill="#4a9fff"/><path d="m41 7 10 12h-20z" fill="#ffbe2c"/><path d="m31.5 10 7.5 9h-15z" fill="#fff56e"/><path d="m31.5 10 7.5 9h-12z" fill="#ffdc28"/><path d="m1 19h50v17h-50z" fill="#a0f0ff"/><path d="m28 32-4-7-4 7h2.286l-2.286 4h8l-2.286-4z" fill="#23da7d"/><circle cx="13" cy="28" fill="#23da7d" r="4"/><path d="m1 36h50v17h-50z" fill="#fff56e"/><path d="m21 45h8v8h-8z" fill="#f98026"/><path d="m17 47v2h-4v-2h-4v2h-4v-2h-4v6h20v-6z" fill="#fa9537"/><path d="m25 40-4 5h8z" fill="#fa9537"/><rect fill="#00cabd" height="4" rx="2" width="8" x="22" y="56"/><path d="m48.717 37.218h4v11h-4z" fill="#50faf0" transform="matrix(.707 -.707 .707 .707 -15.351 48.374)"/><path d="m55.142 45.142h6a0 0 0 0 1 0 0v7a3 3 0 0 1 -3 3 3 3 0 0 1 -3-3v-7a0 0 0 0 1 0 0z" fill="#465064" transform="matrix(.707 -.707 .707 .707 -18.426 55.799)"/><circle cx="44" cy="36" fill="#f0f0f0" r="10" transform="matrix(.707 -.707 .707 .707 -12.569 41.657)"/><circle cx="45" cy="37" fill="#fff" r="8" transform="matrix(.707 -.707 .707 .707 -12.983 42.657)"/><path d="m30.75 5a.75.75 0 0 0 -.75-.75h-8a.75.75 0 0 0 0 1.5h8a.75.75 0 0 0 .75-.75z"/><circle cx="34" cy="5" r="1"/><path d="m34 58.75h4a.75.75 0 0 0 0-1.5h-4a.75.75 0 0 0 0 1.5z"/><path d="m14 58.75h4a.75.75 0 0 0 0-1.5h-4a.75.75 0 0 0 0 1.5z"/><path d="m24 60.75h4a2.75 2.75 0 0 0 0-5.5h-4a2.75 2.75 0 0 0 0 5.5zm0-4h4a1.25 1.25 0 0 1 0 2.5h-4a1.25 1.25 0 0 1 0-2.5z"/><path d="m62.208 48.905-4.95-4.95a.75.75 0 0 0 -1.061 0l-.176.177-2.736-2.732a10.759 10.759 0 0 0 -1.535-12.84v-23.56a4.756 4.756 0 0 0 -4.75-4.75h-42a4.756 4.756 0 0 0 -4.75 4.75v54a4.756 4.756 0 0 0 4.75 4.75h42a4.756 4.756 0 0 0 4.75-4.75v-10.2a.735.735 0 0 0 .2.455l4.95 4.95a3.75 3.75 0 0 0 5.3-5.3zm-60.458-43.905a3.254 3.254 0 0 1 3.25-3.25h42a3.254 3.254 0 0 1 3.25 3.25v11.929l-8.674-10.409a.749.749 0 0 0 -1.152 0l-5.424 6.509-2.924-3.509a.749.749 0 0 0 -1.152 0l-7.275 8.73h-21.899zm34.226 9.2 5.024-6.029 8.4 10.079h-10.049zm1.424 4.05h-11.8l5.9-7.079zm-35.65 1.5h48.5v7.518a10.722 10.722 0 0 0 -16.959 7.982h-4.856l-1.428-2.5h.993a.75.75 0 0 0 .651-1.122l-4-7a.75.75 0 0 0 -1.3 0l-4 7a.75.75 0 0 0 .649 1.122h.993l-1.428 2.5h-5.815v-2.576a4.75 4.75 0 1 0 -1.5 0v2.576h-10.5zm23.312 12.622 1.645 2.878h-5.414l1.645-2.878a.75.75 0 0 0 -.651-1.122h-.995l2.708-4.738 2.708 4.738h-.995a.75.75 0 0 0 -.651 1.122zm-12.062-2.122a.75.75 0 0 0 -.75.75v.154a3.25 3.25 0 1 1 1.5 0v-.154a.75.75 0 0 0 -.75-.75zm-11.25 17.5h2.5v1.25a.75.75 0 0 0 .75.75h4a.75.75 0 0 0 .75-.75v-1.25h2.5v1.25a.75.75 0 0 0 .75.75h4a.75.75 0 0 0 .75-.75v-1.25h2.5v4.5h-18.5zm48.5 11.25a3.254 3.254 0 0 1 -3.25 3.25h-42a3.254 3.254 0 0 1 -3.25-3.25v-5.25h48.5zm-22-13.25v6.5h-6.5v-6.5zm-5.689-1.5 2.439-3.05 2.439 3.049zm27.689 8h-20.5v-7.25a.756.756 0 0 0 -.164-.469l-4-5a.778.778 0 0 0 -1.172 0l-4 5a.756.756 0 0 0 -.164.469v1.25h-3.25a.75.75 0 0 0 -.75.75v1.25h-2.5v-1.25a.75.75 0 0 0 -.75-.75h-4a.75.75 0 0 0 -.75.75v1.25h-2.5v-1.25a.75.75 0 0 0 -.75-.75h-3.25v-9.5h31.541a10.72 10.72 0 0 0 16.1 8.534l.855.855zm-12.791-9.709a9.25 9.25 0 1 1 13.082 0 9.262 9.262 0 0 1 -13.082 0zm14.5 5.657a.735.735 0 0 0 -.2.455v-1.014l.382.382zm-1.298-3.768a10.007 10.007 0 0 0 1.769-1.769l2.53 2.531-1.768 1.768zm10.486 8.717a2.249 2.249 0 0 1 -3.181 0l-4.42-4.42 3.182-3.182 4.419 4.42a2.248 2.248 0 0 1 0 3.182z"/></svg>