<svg id="Layer_1" enable-background="new 0 0 512 512" height="512" viewBox="0 0 512 512" width="512" xmlns="http://www.w3.org/2000/svg"><g><path d="m136.5225 405.5865c-2.342-4.4654-4.8181-8.8663-7.0021-13.4077-8.0833-16.8081-14.1735-34.3917-19.7304-52.1496-4.2628-13.622-8.3581-27.3113-11.975-41.1156-2.8168-10.7508-5.2418-21.6476-5.2872-32.8917-.0101-2.4804.6731-4.9771-.8747-7.4328-.9392-1.4905.9409-3.4413 3.4185-3.852 3.6847-.6109 7.3747-1.1933 11.0685-1.7471 5.1269-.7688 4.7758-.7918 5.3411-5.8783 1.2122-10.9074 2.6171-21.8033 4.3338-32.6422 1.8552-11.7129 4.1508-23.3562 6.2705-35.027.1828-1.0072.4956-1.9903.732-2.9883 1.4663-6.1894 3.7441-8.3473 10.1016-9.2412 3.8301-.5384 7.6909-.8599 11.5509-1.2803 1.4442-11.7205 4.7629-23.0366 8.0182-34.3221 2.3247-8.059 5.6298-15.8412 8.6257-23.698 1.578-4.1384 4.7424-6.5043 9.1821-6.7812 10.5226-.6564 21.0529-1.1916 31.5806-1.7643.8613-.047 1.7273-.0062 2.6555-.0062-.7762-11.0739 2.0807-21.3855 4.544-31.77.8722-3.6769 2.8737-6.2865 6.0415-8.2294 10.7048-6.565 22.3413-10.5639 34.6645-12.6484 9.5634-1.6175 19.1789-2.5961 28.8813-1.4402 8.1385.9696 15.8919 2.855 21.5803 9.4665 4.0475 4.7042 5.9609 10.3685 7.3646 16.2487 2.2794 9.5477 3.0741 19.2254 2.3355 29.0225-.0537.7119-.007 1.4314-.007 2.1314 6.8251 1.0018 13.5836 1.8045 20.265 3.0274 6.6877 1.2241 13.3262 2.7539 19.9359 4.3571 7.8818 1.9118 12.2552 7.1731 13.3129 15.0964 1.4531 10.886 2.7726 21.7909 4.0407 32.7002.6588 5.6675 1.0545 11.3654 1.6584 17.04.0645.6064.6257 1.2681 1.1302 1.7025 3.8862 3.3461 7.7362 6.7422 11.7502 9.9306 5.8743 4.6662 8.771 10.7377 10.1729 18.0599 3.2 16.7129 6.0883 33.4371 6.5696 50.4916.0081.2877.079.5738.1516 1.0752 5.838 1.4859 11.7096 3.019 17.6015 4.4694 6.0138 1.4804 5.878 1.4488 6.0477 7.6854.2808 10.3217-2.0762 20.2432-4.514 30.1158-3.7378 15.1361-7.5671 30.2599-11.8492 45.2483-5.0298 17.6061-12.9911 34.0484-21.1454 50.3786-.3516.7043-.7049 1.4079-.7485 2.4986.7062-.3937 1.4257-.7659 2.117-1.1842 11.718-7.0917 23.434-14.1871 35.1461-21.2883 1.1895-.7212 2.3435-1.5002 3.5302-2.226 2.1378-1.3074 4.1791-1.2158 5.6632.2278 1.3908 1.3531 1.7094 3.4533.403 5.4701-2.9061 4.4865-5.9994 8.8515-8.9978 13.2788-7.106 10.4923-14.1418 21.0329-21.3252 31.4718-3.6911 5.3637-7.6379 10.5512-11.469 15.8184-.2103.262-.4208.5237-.6311.7855.0889.0773.178.1547.2671.232.2437-.1963.4876-.3925.7315-.5887 5.038-3.2537 9.9773-6.6741 15.1344-9.7265 11.1109-6.5762 22.683-12.236 34.8455-16.6201 1.1589-.4178 2.6625-.8068 3.7155-.4193 3.3493 1.2324 3.9086 2.376 2.523 5.7079-2.781 6.6878-5.9731 13.2059-8.7123 19.9097-2.6269 6.4293-4.9217 12.9953-7.2929 19.5265-.3638 1.0022-.353 2.1403-.5142 3.2166-.0468.0941-.0949.1867-.1429.2794.0848-.055.1696-.11.2545-.1652 2.9563-1.8515 6.0633-3.5021 8.8437-5.5883 14.5862-10.9438 29.0794-22.0117 43.6336-32.9983 2.0753-1.5667 4.3072-2.9259 6.4169-4.3475.5477 1.3489.9443 2.3261 1.3411 3.3033v1.3196c-1.0991 4.5191-2.1901 9.0402-3.2993 13.5568-2.824 11.4998-7.6187 22.2865-12.006 33.2226-2.5621 6.3869-5.008 12.8202-7.5468 19.2165-.5387 1.3572-1.2125 2.6665-1.8961 3.9598-2.3599 4.4648-6.0857 6.8037-11.1305 7.0027-19.6118.7736-39.2196 2.0162-58.837 2.1937-29.8997.2707-59.806-.34-89.7093-.319-42.2942.0298-84.5882.2864-126.8823.4626-14.0731.0587-28.1481.3542-42.2183.1979-11.8648-.1317-23.8072-.015-35.5692-1.3228-25.8157-2.8706-49.046-12.2736-68.3598-30.1165-5.1591-4.7661-9.4184-10.3222-10.7952-17.4723-.3034-1.5751.2156-3.3087.3886-5.3582 11.3943 4.029 22.0633 7.9847 32.8638 11.541 5.185 1.7073 10.5886 2.8073 15.9518 3.8927 2.774.5615 3.3965-.187 2.4394-2.7886-1.7671-4.8029-3.8716-9.4807-5.7735-14.2354-.7042-1.7602-1.4042-3.5529-1.8081-5.3961-.8807-4.0175 1.3114-7.2052 5.4318-7.2443 3.8444-.0365 7.7621.4041 11.5319 1.1895 8.8075 1.8346 17.5456 4.0029 26.3122 6.0339.4792.111.9628.2029 1.7925.3766-2.5748-3.8551-4.9853-7.4037-7.3344-10.9923-8.465-12.9312-16.9095-25.8759-25.36-38.8167-.1599-.2448-.2995-.503-.448-.7552-1.0979-1.8669-1.376-3.7699.1634-5.4938 1.495-1.674 3.39-1.5182 5.2632-.7043 5.8422 2.5384 11.6448 5.1698 17.51 7.6537 11.192 4.7401 22.4134 9.411 33.6351 14.0805.7673.3193 1.6384.3887 2.461.5743.0309.0883.0623.1765.0936.2646.0135-.0439.0511-.1132.0363-.1272-.048-.0456-.1154-.071-.1755-.1042zm259.4663-60.8261c-3.5307 2.3651-7.0613 4.7301-10.5919 7.0952-4.3535 2.218-8.7641 4.3318-13.0497 6.674-12.0305 6.5749-24.4648 12.2409-37.4202 16.7216-15.1937 5.255-30.6899 9.4137-46.5405 12.1375-4.4405.763-8.9704 1.0342-13.4694 1.4115-1.3147.1104-2.6641-.1921-3.8082-.2893-.5398 20.3404-1.0722 40.4005-1.6098 60.656.63-.3248 1.4024-.6598 2.1104-1.0984 4.9062-3.0391 9.8672-5.9966 14.6757-9.1841 4.3087-2.856 8.8718-5.5302 12.5496-9.0847 4.7028-4.5448 8.6005-9.9175 12.899-14.8868 5.3743-6.2129 11.0586-12.0624 18.3624-16.112 3.9866-2.2104 7.8929-.3824 7.839 4.1504-.0527 4.4307-.3702 8.9095-1.1389 13.2672-.884 5.0117-2.3906 9.9138-3.6264 14.8637-.0555.0656-.1112.1312-.1668.1967.0642-.0572.1283-.1143.1924-.1715 1.2871-.623 2.6992-1.0725 3.8415-1.8962 9.6057-6.9274 19.1619-13.9232 28.7331-20.8983 2.9934-1.5217 5.2336-3.605 5.7859-7.1543.1514-.9729.816-1.8679 1.256-2.7936 5.3105-11.1723 10.8181-22.2564 15.8596-33.5489 2.8833-6.4589 5.0087-13.2562 7.4745-19.9019.0497-.098.0995-.1962.1493-.2944-.1023.0468-.2044.0938-.3066.1406zm5.4712-17.2074c.2616-.7586.5728-1.504.7771-2.2778 2.13-8.0682 4.3686-16.1105 6.3279-24.2201 2.3369-9.6718 4.4313-19.4022 6.6283-29.1078.2566-1.1331.4144-1.9695-1.235-2.3891-16.8138-4.2777-33.6037-8.6493-50.3949-13.0154-8.0749-2.0996-16.1381-4.2436-24.2066-6.3675-.6206-.1779-1.2416-.3545-1.8618-.534-18.4907-5.3536-36.9885-10.6834-55.4679-16.0758-5.5984-1.6336-11.146-3.4404-16.8206-5.2002 4.1904 41.7388 4.0023 83.4736 5.3016 125.3845 10.8404-2.3257 18.2284-9.6264 26.113-17.154.2795 1.3245.72 2.3907.6869 3.4421-.1103 3.4973-1.4383 6.5556-3.8406 9.1046-5.7924 6.1459-12.8014 10.1779-21.0969 11.8322-1.4796.295-1.9065.8744-1.8417 2.308.1421 3.1461.1344 6.2991.1878 9.4492v10.6725c.6311.0674.9215.145 1.2032.121 1.8947-.162 3.7973-.2748 5.6795-.5328 20.2144-2.7706 39.7527-8.1996 58.9541-14.9746 18.1507-6.4043 34.5322-16.547 51.9583-24.4854 2.835-1.0998 5.6862-2.1609 8.4904-3.3342.5135-.2149 1.0498-.821 1.2121-1.3567 1.1353-3.7468 2.1752-7.5224 3.2458-11.2887zm-168.6315-268.2944c-4.8494 2.3572-9.7091 4.6938-14.534 7.1002-.5446.2716-1.1342.8671-1.2952 1.4293-1.3913 4.8572-2.689 9.7411-4.1232 15.0159 1.8761-1.0189 3.1626-1.8834 4.569-2.4508 4.5383-1.8308 9.1207-3.5523 13.6859-5.3158 4.5136-1.23 9.0032-2.5578 13.5452-3.6722 14.0284-3.4418 28.1686-4.4367 42.4216-1.5065 4.1917.8617 8.3346 1.9613 12.719 3.004-.9359-4.1748-2.16-8.1701-4.6215-11.7013-2.0386-2.9248-4.7435-5.1095-8.154-6.001-3.9443-1.0309-7.9815-1.9269-12.0312-2.2884-7.8368-.6995-15.7021-.1642-23.392 1.3828-6.3421 1.2759-12.5323 3.3073-18.7896 5.0038zm61.6144 16.8714c-6.7348-1.1796-13.4353-2.9962-20.2141-3.3619-6.9401-.3744-14.0477.1185-20.9163 1.2436-7.798 1.2773-15.4121 3.6768-23.1062 5.5885-5.4971 1.9357-11.0012 3.8524-16.481 5.836-.5616.2033-1.2898.7327-1.4123 1.2387-.9903 4.0916-1.7514 8.2228-1.3514 12.6303h19.2285c.2907.0309.5815.0895.8721.0891 21.4355-.0337 42.8661.1179 64.2615 1.6503 2.4284.1968 4.8569.3934 7.5839.6144-.3259-5.7619-.6223-11.1377-.9356-16.5125-.395-6.7697-.8448-7.3009-7.5291-9.0165zm-106.8851 338.2275c.0028-.513-.0566-1.0356.0197-1.5374.2823-1.856.3113-3.8252.9951-5.5268.8551-2.1275 2.1404-2.1119 3.5947-.3448.4064.4939.8347 1.0112 1.3576 1.3611 3.8822 2.5977 7.8614 5.0559 11.6763 7.7476 7.7825 5.4909 16.1938 9.8422 24.6534 14.156 9.5753 4.8826 19.0169 10.0284 28.4883 15.1122 2.6103 1.4013 5.12 2.9902 8.1356 4.7634-.3578-5.4202-.7695-10.3441-.989-15.2767-.3737-8.3948-.6656-16.7941-.9178-25.1936-.2041-6.7995-.3228-13.6019-.4201-20.4039-.0174-1.2144-.4002-1.6258-1.6423-1.687-7.8699-.3874-15.746-.7253-23.5997-1.3409-7.4047-.5804-14.848-1.1041-22.1585-2.3387-9.186-1.5512-18.3006-3.6086-27.3595-5.8047-8.2893-2.0096-16.4633-4.4944-24.6882-6.77-.3657-.0152-.754.0453-1.0936-.0568-5.7326-1.7234-11.4624-3.4565-17.186-5.2095-5.6533-1.7316-11.2943-3.5037-16.9551-5.2099-.5832-.1757-1.265-.0236-2.4409-.0236 1.7157 4.4861 3.2278 8.6605 4.905 12.7675 1.993 4.8808 3.826 9.8623 6.2703 14.5154 3.9263 7.4741 8.2717 14.7294 12.4983 22.0436 1.0803 1.8693 2.9169 2.375 5.5506 2.4475-.6205-2.7994-1.0084-5.2806-1.7465-7.653-.6163-1.9811-.4945-4.3926.6981-5.3086 1.4355-1.1029 4.1797-.7249 5.8207.7849.4818.4433.9813.8719 1.5051 1.264 3.1185 2.3341 6.4594 4.422 9.3257 7.0316 5.3724 4.8914 10.4829 10.0716 15.6676 15.167.476.4679.7021 1.19 1.0443 1.7942.2078-.1889.4158-.3777.6236-.5665 0-.4226.0594-.8551-.0094-1.2661-.527-3.1481-1.0792-6.2922-1.6234-9.4375zm-143.891 54.2092s-.0191-.0105-.0185-.0113c1.0733.8518 2.1056 1.7618 3.2261 2.5461 10.8368 7.5847 22.815 12.677 35.5083 16.1969 5.7594 1.6601 11.5157 3.3316 17.2802 4.974 2.1003.5984 4.2197 1.6093 6.3318 1.6124 18.3883.0289 36.7771-.0975 55.1652-.2417 12.2326-.0958 24.4644-.2941 36.6966-.4502 10.6193-.1355 21.2387-.4026 31.8578-.3911 35.9053.0385 71.8104.2288 107.7157.2538 20.6601.0144 41.3206-.1421 61.9805-.29 12.9645-.0928 25.9277-.3523 38.8922-.4502 3.8009-.0286 7.6035.3335 11.4062.3502 4.8964.0214 8.6367-1.9186 10.4865-6.7284.1838-.4777.4168-.9362.6083-1.4111 3.0931-7.6674 6.2056-15.3272 9.2662-23.0076 2.055-5.1573 4.0355-10.3444 6.0494-15.5181 2.3203-6.9106 4.6406-13.8211 6.9609-20.7316-.2957-.2087-.5913-.4174-.887-.626-.7543.9507-1.4468 1.959-2.2721 2.8437-12.134 13.0078-25.2307 24.9167-40.1046 34.7544-2.9828 1.9729-6.0524 3.9234-9.3209 5.3289-4.6139 1.9842-8.5194-.7662-8.5039-5.7635.0067-2.1734.2265-4.4177.8011-6.5055 3.0253-10.9918 7.6115-21.3669 12.771-31.503.3734-.7337.6807-1.5011 1.1368-2.5156-.6891.1367-.9824.1457-1.2349.252-17.8211 7.5099-34.7214 16.6656-50.2521 28.2447-1.7777 1.3255-3.4554 2.5114-6.1269.9358.3147-1.2289.4477-2.6971 1.046-3.9415 9.4023-19.5583 19.5105-38.7198 32.105-56.4654.477-.672.8751-1.3997 1.3098-2.1016-1.0116-.0166-1.7179.2886-2.3651.6895-13.0765 8.1003-26.2434 16.0599-39.185 24.3707-9.5504 6.1331-18.7259 12.8482-28.2348 19.0488-3.2746 2.1353-6.98 3.677-10.6244 5.1548-2.5188 1.0212-3.9164-.3452-3.6876-3.0473.0985-1.1625.0436-2.3381.055-3.508.0575-5.9256.0573-11.8525.2019-17.7761.049-2.0111.4619-4.0133.7789-6.5903-2.0063 1.5868-3.7605 2.681-5.1516 4.1251-5.9445 6.1713-11.8648 12.3704-17.6326 18.7062-4.7093 5.173-9.6835 9.9917-15.6277 13.7396-1.0502.6622-2.045 1.415-3.0449 2.1534-4.7609 3.5155-9.4275 7.167-14.2956 10.5269-4.8913 3.3759-9.6873 3.1631-14.9277-.0427-9.864-6.0343-19.9424-11.7476-30.1539-17.1762-9.7744-5.1961-19.6508-10.1665-28.4854-16.9221-1.6301-1.2465-3.255-2.4998-5.1499-3.9557.0739.6721.0899.8852.1214 1.0961.9832 6.5853 2.0709 13.1575 2.9043 19.7618.3552 2.8146-.8072 4.5817-2.7111 5.1968-1.964.6346-3.797-.1852-5.2726-2.57-5.4823-8.8604-12.4984-16.4295-19.9499-23.6097-2.9759-2.8676-6.2453-5.4304-9.3195-8.0787 0 2.7498-.0889 5.2784.0311 7.797.0813 1.708-.8845 2.0435-2.2224 2.2604-4.4328.7188-8.7783.4556-12.9563-1.2396-14.2467-5.78-28.4784-11.5969-42.7109-17.4118-4.3917-1.7943-8.7674-3.6275-13.1504-5.443-.0974-.0358-.1947-.0717-.2921-.1074.1007.0322.2012.0645.3019.0966.1929.5247.2993 1.104.5912 1.566 8.876 14.0486 17.7884 28.0739 26.6349 42.1408.959 1.5249 1.8077 3.2134 2.2573 4.9431.7443 2.8633-1.3036 4.85-4.2436 4.3776-.7199-.1157-1.4335-.2998-2.1325-.5104-11.0093-3.3178-22.1245-6.1843-33.5216-7.8372-2.3145-.3357-4.6456-.5572-7.316-.8725.5273 1.2414.8476 1.9713 1.1488 2.7092 2.1825 5.3465 4.7489 10.575 6.4431 16.0722 2.1264 6.8991-1.8595 11.7396-9.0519 11.7356-1.2398-.0009-2.5003-.0431-3.7163-.2606-12.6712-2.2665-24.5397-6.6547-35.4766-13.4959-.5659-.3539-1.273-.4821-1.9135-.7159-.0057-.1081-.0113-.2164-.017-.3245-.0649.0121-.1298.0243-.1947.0366.079.0898.1578.1795.2368.2693 2.951 5.3534 7.4088 9.263 12.2591 12.797.2961.1619.5925.3235.8887.485zm126.6735-304.0291c9.0747-.2676 18.1478-.6408 27.2245-.7767 11.6414-.1743 23.2876-.324 34.9281-.1846 17.5035.2095 35.0039.6655 52.5051 1.0468 4.6119.1004 9.2249.2462 13.8316.4825 17.614.9034 35.2257 1.8522 52.8383 2.784 2.5828.2803 5.1658.5607 7.9599.8641-.4843-4.2773-.8961-8.2625-1.3934-12.2371-1.2887-10.3008-2.6093-20.5977-3.9298-30.8947-.4773-3.7223-2.4203-6.1699-6.1673-7.0812-3.1953-.7771-6.3301-1.9189-9.5659-2.3937-12.6554-1.8567-25.3108-3.7883-38.0244-5.1491-8.8587-.9482-17.812-1.0112-26.723-1.4695-8.1914-.1712-16.3823-.3821-24.5744-.5028-8.927-.1315-17.8551-.2179-26.7831-.254-11.6346-.0468-23.2696-.0247-34.9045-.0323-5.5499.2298-11.1044.3889-16.6445.7626-.8747.059-2.0325.9025-2.4594 1.7032-1.4073 2.6399-2.8271 5.3354-3.726 8.173-3.4886 11.0137-6.8008 22.0838-10.13 33.1475-1.2585 4.1822-2.3855 8.4038-3.7038 13.0728 6.7761-.3697 13.1091-.7153 19.442-1.0608zm-12.2446 78.2422c.3638-.0258.7372-.0073 1.09-.0837 25.3571-5.481 50.2521-12.6678 75.0197-20.3258 5.3129-1.6428 10.567-3.5658 15.9799-4.7644 3.8555-.8537 7.8485-1.8551 11.9311-.6525 27.949 8.2324 55.8814 16.5241 83.8824 24.5769 12.5173 3.5999 25.1809 6.6918 37.778 10.0143 2.3704.6754 4.7409 1.3509 7.3447 2.0927 0-.9603.0548-1.6051-.008-2.2382-1.5776-15.9072-4.3106-31.6091-7.9269-47.1855-1.0076-4.3399-2.9886-7.6434-6.2793-10.4192-6.0465-5.1004-12.0356-10.2685-18.0814-15.3697-.4622-.39-1.1709-.6339-1.7841-.6772-8.9888-.6359-17.9765-1.3034-26.9733-1.8053-8.7049-.4855-17.4182-.8347-26.1309-1.1614-9.4452-.3541-18.894-.6132-28.3413-.9138-13.5395-.308-27.0796-.891-40.6181-.8593-20.1316.0471-40.2624.5166-60.3929.8407-2.557.0412-5.1106.2892-7.6658.4415-10.52.4539-21.048.7774-31.5558 1.4274-4.0677.2516-4.1037.5777-4.9678 5.1447-3.6407 19.2428-7.3001 38.4826-10.8154 57.7485-.7123 3.9036-.829 7.9159-1.2425 12.1025 7.7036-1.4471 14.9654-2.7519 22.2009-4.1889 5.8686-1.1656 11.7058-2.4902 17.5568-3.7443zm-36.548 102.0216c1.0255 3.0477 1.9795 6.123 3.1334 9.1214.2477.6437 1.1495 1.2755 1.8669 1.4609 6.2257 1.6099 12.4951 3.051 18.7189 4.6677 13.9367 3.6205 27.8422 7.3615 41.7838 10.9621 12.6065 3.2559 25.3251 5.9941 38.2927 7.3663 8.652.9156 17.3281 1.6026 25.9802 2.5161 4.1889.4423 8.3477 1.1705 12.646 1.7873 0-3.5595 0-6.9115 0-10.2634 0-3.3976 0-6.7952 0-9.713-5.304-.7189-10.0414-1.1215-14.6754-2.044-7.4574-1.4846-12.8221-6.162-17.1099-12.1942-1.4507-2.0406-1.3241-4.0789.1091-5.1423 1.4185-1.0529 3.0247-.6147 4.7955 1.2216 1.4213 1.4738 2.8175 2.99 4.373 4.3129 6.4396 5.477 14.1329 6.0008 22.2542 5.708 0-.9929.0133-1.7143-.0019-2.4352-.3958-18.9027-.6739-37.8088-1.2245-56.7071-.6506-22.3365-1.556-44.6655-2.2841-66.9999-.0561-1.7228-.7064-2.231-2.2423-1.9727-2.8842.4847-5.8652.6709-8.6314 1.5379-27.8791 8.7376-55.8256 17.253-84.5125 22.963-15.9986 3.1845-32.1053 5.8362-48.1885 8.5797-5.462.9317-11.0016 1.4099-16.655 2.1139 0 .5687-.0731 1.2213.0115 1.8527.6897 5.1458.9703 10.3957 2.2054 15.4095 3.0622 12.4299 6.3616 24.8108 9.9549 37.0976 2.8327 9.6856 6.2451 19.2017 9.4 28.7932z" fill="#1d3249"/><path d="m217.9226 7.8831c1.9175.3033 3.8459.5505 5.7501.9215 3.6876.7185 7.2833 1.6913 10.2782 4.1504 4.2702 3.5062 5.1367 8.6092 1.9437 13.0794-1.4329 2.0061-3.2844 3.7306-5.0547 5.4723-1.0361 1.019-1.5085 1.9011-.4592 3.176.4096.4976.6061 1.1661.9286 1.7406 4.7934 8.5386-2.7524 14.9847-9.1483 15.5415-6.0136.5234-10.0782-2.3631-13.4985-6.6639-1.5653-1.9683-1.6691-4.3283-.742-6.683.2618-.6652.5815-1.3076 1.0085-2.2582-3.863.4407-7.4019.8771-10.9483 1.2416-6.3463.6524-12.6045.5781-18.4374-2.5293-.7101-.3783-1.4221-.7691-2.0753-1.2351-4.1838-2.9854-4.7217-7.0415-1.3719-10.9043 5.6906-6.5617 12.6808-11.0703 21.2528-12.7999 4.0819-.8235 8.2462-1.2368 12.3703-1.8556.3988-.0598.7768-.2593 1.1644-.394zm4.4329 38.9534c2.4595-.5289 4.6801-1.7374 4.9409-4.318.1733-1.7148-.6192-3.7006-1.4638-5.311-2.1578-4.1143-2.0345-5.8277 1.193-9.1609 1.475-1.5235 3.0455-2.9832 4.3251-4.6607 1.9631-2.5732 1.556-4.9592-1.1693-6.7484-1.4416-.9464-3.0995-1.6813-4.7615-2.1532-7.6316-2.1661-15.3849-1.6548-23.1201-.7217-7.0093.8457-13.5613 2.9274-19.0391 7.6375-.7684.5553-1.5757 1.0643-2.2981 1.6743-2.5848 2.1824-2.3638 5.3419.718 6.6906 2.5033 1.0954 5.2393 2.1431 7.913 2.2578 4.5796.1964 9.1972-.2712 13.787-.6173 3.2025-.2414 6.3793-.9312 9.5798-1.0331 1.1495-.0366 2.7178.7765 3.4108 1.7098.9345 1.2585-.0423 2.569-1.0718 3.6512-.9511.9997-1.8674 2.0713-2.591 3.2402-1.463 2.3633-.9047 4.9784 1.3481 6.5337 2.5358 1.7504 5.2754 2.4953 8.299 1.3292z" fill="#1d3249"/><path d="m254.1994 42.2563c-4.5883-.0376-8.9065-.6963-12.8885-2.8081-5.0302-2.6676-5.3355-7.3178-.8949-10.8835 3.7427-3.0051 8.0029-3.7052 12.5992-3.4681 2.2567.1164 4.5513-.1511 6.7749.1508 2.1111.2866 4.5034.5916 6.1571 1.7594 4.6861 3.309 4.3125 9.108-.5406 12.4404-3.4156 2.3454-7.3482 2.7356-11.2072 2.8091zm2.4534-5.4194c1.8723-.5284 3.8292-.871 5.5798-1.667.822-.3737 1.8824-1.7993 1.7051-2.4314-.2785-.9928-1.3865-2.2307-2.3631-2.4708-5.4707-1.3447-10.9637-1.1881-16.3769.4962-.4835.14-1.1033.1386-1.4241.4476-.8508.8197-1.5725 1.7735-2.3456 2.6739.833.6377 1.574 1.5442 2.5152 1.8665 4.1267 1.4133 8.3651 1.997 12.7096 1.085z" fill="#1d3249"/><path d="m121.5477 344.8014c-3.155-9.5915-6.5674-19.1076-9.4-28.7932-3.5933-12.2869-6.8927-24.6677-9.9549-37.0976-1.2351-5.0138-1.5158-10.2637-2.2054-15.4095-.0845-.6314-.0115-1.284-.0115-1.8527 5.6535-.704 11.193-1.1821 16.655-2.1139 16.0833-2.7436 32.1899-5.3952 48.1885-8.5797 28.6869-5.7101 56.6335-14.2254 84.5125-22.963 2.7662-.867 5.7472-1.0531 8.6314-1.5379 1.5359-.2582 2.1862.25 2.2423 1.9727.7282 22.3344 1.6336 44.6635 2.2841 66.9999.5506 18.8983.8287 37.8044 1.2245 56.7071.0152.7209.0019 1.4423.0019 2.4352-8.1213.2928-15.8145-.231-22.2542-5.708-1.5555-1.323-2.9517-2.8392-4.373-4.3129-1.7707-1.8363-3.3769-2.2745-4.7955-1.2216-1.4332 1.0635-1.5598 3.1017-.1091 5.1423 4.2878 6.0321 9.6525 10.7096 17.1099 12.1942 4.634.9225 9.3713 1.325 14.6754 2.044 0 2.9178 0 6.3154.0002 9.7122-13.0659-2.5707-26.1289-5.1559-39.1987-7.7071-27.7189-5.4109-55.4388-10.8165-83.1639-16.1957-6.6753-1.2953-13.3724-2.4795-20.0595-3.7148zm70.2461-50.1419c.2218 1.3039.4356 3.7193 1.0904 6.0084.443 1.5486 1.7306 2.5369 3.5871 2.1244 1.7879-.3974 2.171-1.6853 2.2013-3.3051.0478-2.5574-.0098-5.1436.353-7.6635.9545-6.6309 3.478-12.3843 9.6758-15.8738 3.2863-1.8502 6.5554-1.6381 9.2697.9696 1.4079 1.3525 2.8351 2.8762 3.6654 4.605 3.1217 6.5008 7.6791 12.3448 9.119 19.6265.069.3491.2288.8938.4532.9548.48.1306 1.2697.207 1.4982-.0627.3916-.4619.497-1.1955.6423-1.8333 2.5065-10.9936-.644-20.452-8.1859-28.4752-6.3992-6.8075-14.6258-7.3277-22.1346-1.8825-8.0829 5.8617-10.8187 14.2008-11.2349 24.8074z" fill="#ccdcfa"/><path d="m270.7164 372.7318c-.0535-3.1501-.0457-6.3031-.1878-9.4492-.0648-1.4336.3621-2.013 1.8417-2.308 8.2955-1.6543 15.3045-5.6863 21.0969-11.8322 2.4024-2.549 3.7303-5.6073 3.8406-9.1046.0331-1.0514-.4074-2.1176-.6869-3.4421-7.8847 7.5276-15.2726 14.8282-26.113 17.154-1.2992-41.9109-1.1111-83.6457-5.3016-125.3845 5.6746 1.7598 11.2222 3.5667 16.8206 5.2002 18.4794 5.3924 36.9772 10.7222 55.4679 16.0758.6202.1795 1.2412.3562 1.8618.5343.7902.6192 1.4908 1.4566 2.3844 1.8243 10.8024 4.443 21.6238 8.8408 32.4599 13.2009 9.1434 3.6791 18.297 7.3348 27.4875 10.8933 1.3952.5401 1.5493 1.3597 1.4078 2.5221-.4129 3.3903-.7486 6.7939-1.2919 10.1636-1.3763 8.5369-2.6838 17.0908-4.3443 25.5742-1.0331 5.2784-2.6587 10.4407-4.0184 15.655-.2378.155-.4755.3099-.7133.4648-.4912.1402-.9906.2569-1.4724.4241-40.1806 13.9421-80.3601 27.8882-120.5395 41.834zm72.0477-64.7234c.3952-1.7403.9424-2.967.8913-4.1685-.1083-2.5452-.2672-5.1406-.8656-7.6037-2.6627-10.9629-8.3825-19.8579-18.6507-25.0554-5.8533-2.9629-11.9159-2.5186-17.112 1.7947-3.9952 3.3166-5.4474 8.103-5.8924 13.0906-.2176 2.4402.1199 4.9591.4535 7.4088.2219 1.6299 1.2665 2.9292 3.0904 2.8731 2.0088-.0619 2.6232-1.6131 2.8478-3.3254.1046-.7961-.0275-1.6326.1389-2.4098.6395-2.986 1.0192-6.0878 2.1239-8.8996 1.6268-4.1404 5.7902-5.7235 9.9904-4.1366 1.4834.5604 3.0507 1.2926 4.1577 2.3771 2.5986 2.5458 5.1414 5.1998 7.3476 8.0845 4.3952 5.7469 9.0236 11.4102 10.641 18.756.0534.2413.2951.441.8382 1.2142z" fill="#ccdcfa"/><path d="m383.7768 251.5446c-12.5972-3.3225-25.2607-6.4144-37.778-10.0143-28.001-8.0528-55.9333-16.3444-83.8824-24.5769-4.0826-1.2025-8.0756-.2012-11.9311.6525-5.4129 1.1986-10.6669 3.1216-15.9799 4.7644-24.7676 7.6579-49.6626 14.8448-75.0197 20.3258-.3528.0764-.7263.0579-1.09.0837.4387-3.8234.8743-7.6473 1.3166-11.4703.6346-5.4839 1.2305-10.9727 1.9245-16.449.6206-4.8968 1.3521-9.7794 2.0346-14.6683 3.8362-.2131 7.5986-.6535 10.9351-3.4842-3.1879-2.2551-6.5746-2.6893-10.0552-2.8026.2399-1.6489.4947-3.2959.7166-4.9471.6575-4.8885 1.3018-9.7788 1.9515-14.6685 2.5552-.1523 5.1088-.4003 7.6658-.4415 20.1305-.3241 40.2613-.7937 60.3929-.8407 13.5386-.0318 27.0786.5513 40.6181.8593.6046.3871 1.1624.9757 1.8213 1.1285 4.0994.9509 8.1828 2.1745 12.3445 2.6071 7.1029.7384 14.269.8449 21.3909 1.4307 7.4015.6089 14.7809 1.4833 22.1722 2.2192 7.391.7359 14.7923 1.3768 22.1731 2.2018 2.4761.2769 5.0266.075 6.838 2.8334 3.1579 4.8088 6.9037 9.2274 10.2705 13.9051 1.2807 1.7793 2.6911 3.7048 3.1787 5.7677 1.1523 4.8765 1.7849 9.8757 2.631 14.8247.7605 4.4487 1.5151 8.8985 2.291 13.3444 1.0137 5.8068 2.0456 11.6103 3.0694 17.4151zm-109.5959-56.0428c-1.7334-2.4877-4.8432-3.7535-8.8081-3.5091-7.9663.4909-15.9286 1.045-23.8938 1.5554-1.5158.0971-2.9812.5527-3.088 2.193-.1212 1.8627 1.5061 2.264 3.0161 2.5088.2167.0352.4369.0626.656.0657 7.8342.1142 15.6687.315 23.5024.2925 3.1561-.0089 6.2343-.7107 8.6154-3.1063zm33.1667 3.1349c-.0002.0286-.0003.0572-.0005.0858 2.7846 0 5.5952.233 8.3458-.0725 2.2725-.2523 4.6161-.8456 6.6686-1.8292 2.1596-1.035 2.0456-2.4507-.1718-3.3098-1.6592-.6427-3.5524-1.0845-5.3109-.9979-7.8267.385-15.643.9838-23.4617 1.5267-1.6378.1136-3.643.2973-3.6485 2.328-.0054 1.9182 2.0242 2.1915 3.5262 2.2276 4.6817.1126 9.3681.0413 14.0528.0413zm-83.7249-3.5243c-2.1507-1.875-4.6201-2.3783-6.8759-2.4115-5.1668-.0761-10.3471.2816-15.5102.6353-2.9061.1991-5.8243.5831-8.6604 1.223-.8554.1931-1.9173 1.475-2.0119 2.3524-.0664.6161 1.3038 1.4456 2.1181 2.0677.3009.2299.8481.1951 1.2809.186 6.8696-.1443 13.7464-.159 20.6045-.5249 3.182-.1698 6.1811-1.3813 9.0549-3.528zm132.7862 3.6798c2.1186-.2564 4.9688-.4268 7.7201-1.04.8387-.187 1.9454-1.5923 1.9471-2.4414.0018-.8753-1.0204-2.0995-1.9084-2.5442-1.1823-.592-2.6744-.8193-4.0221-.7827-5.9876.1623-11.9731.4419-17.9555.7536-1.6956.0884-3.9937-.0913-4.0527 2.2988-.0557 2.25 2.1808 2.2329 3.7977 2.4058 4.5723.489 9.1567.8632 14.4738 1.3501z" fill="#f5e7b0"/><path d="m476.1192 446.0005c-2.0139 5.1737-3.9944 10.3608-6.0494 15.5181-3.0607 7.6805-6.1731 15.3402-9.2662 23.0076-.1915.4749-.4245.9334-.6083 1.4111-1.8498 4.8098-5.5901 6.7498-10.4865 6.7284-3.8026-.0167-7.6053-.3788-11.4062-.3502-12.9645.0979-25.9277.3574-38.8922.4502-20.6599.1479-41.3204.3044-61.9805.29-35.9053-.025-71.8105-.2153-107.7157-.2538-10.619-.0115-21.2385.2556-31.8578.3911-12.2322.1561-24.464.3544-36.6966.4502-18.3881.1442-36.777.2705-55.1652.2417-2.1121-.0032-4.2315-1.014-6.3318-1.6124-5.7645-1.6424-11.5208-3.3139-17.28-4.9736.2145-.5238.2808-1.2353.6676-1.5409 1.9769-1.5616 2.5864-3.8126 3.3483-6.0335.7819-2.2792 1.6305-4.5446 2.6099-6.7448 2.1052-4.7296 5.6606-7.913 10.5819-9.5648 4.1255-1.385 8.2972-1.2412 12.5561-.6955 9.4018 1.2045 18.4972 3.4755 27.1355 7.4029 1.4698.6681 2.1434.4818 2.9012-.9606 4.7818-9.1017 15.3385-13.3382 25.4209-11.3094 6.6047 1.329 12.3 4.6961 17.2588 9.1334 2.6127 2.3377 4.7392 3.0111 8.2475 1.5184 5.6692-2.4122 11.8466-2.8736 18.0201-2.2282 4.2703.4465 8.6807.461 12.7626 1.6119 8.7058 2.4547 17.2346 5.5351 25.8456 8.3293 1.7273.5604 3.5151 1.4408 5.244 1.3739 2.737-.106 5.5062-.6785 8.1596-1.4189 11.4613-3.1988 22.8988-6.4854 34.3092-9.8609 1.7741-.5249 3.4981-1.4872 5.0149-2.5701 8.9264-6.3731 18.7762-9.9939 29.7859-10.1982 9.9646-.1851 19.2146 2.2779 27.6763 7.6306.7278.4604 1.8533.8012 2.6308.5917 5.0973-1.3732 10.2365-1.6822 15.4083-.749 6.2988 1.1365 12.7162 1.9519 18.8069 3.8093 5.7643 1.758 11.2574 4.5089 16.7116 7.1497 4.8507 2.3485 9.9198 3.5992 15.2073 3.4744 5.8926-.1392 11.8213-.4976 17.6424-1.3727 4.845-.7282 9.6037-2.3464 13.0294-6.2224 4.3748-4.9501 6.9554-10.9234 9.2401-17.0337 2.5045-1.6068 5.0092-3.2135 7.5137-4.8203z" fill="#5dcee8"/><path d="m351.6678 167.8897c-17.6126-.9319-35.2243-1.8806-52.8383-2.784-4.6067-.2363-9.2197-.3821-13.8316-.4825-17.5011-.3813-35.0016-.8373-52.5051-1.0468-11.6405-.1393-23.2867.0103-34.9281.1846-9.0766.1359-18.1498.509-27.2238.7765.1382-.8584.1993-1.7374.4251-2.5718 1.9932-7.3696 3.9555-14.7484 6.0555-22.0878.9936-3.4726 2.2667-6.8653 3.4132-10.2941 2.3565.369 4.7017.8773 7.0725 1.0729 3.1948.2635 6.4133.4204 9.6134.3302.9659-.0272 2.438-.8457 2.7056-1.6326.2675-.7867-.4048-2.3772-1.1625-2.9162-1.1673-.8305-2.7577-1.4716-4.1708-1.4759-4.2964-.0128-8.5937.318-12.8906.5151 2.0531-5.5793 4.1063-11.1587 6.1596-16.738 11.6349.0076 23.2699-.0145 34.9045.0323 8.928.036 17.856.1225 26.7831.254 8.1921.1207 16.383.3316 24.5741.5028 1.6395.5753 3.2386 1.4221 4.9267 1.6751 5.0407.7554 10.1444 1.1074 15.1721 1.9307 7.9061 1.2948 15.8252 2.6008 23.6386 4.3498 10.1064 2.2623 20.1091 4.9863 30.1696 7.458 1.7446.4287 2.2126 1.3474 2.2175 3.1068.0175 6.3638.1179 12.7322.4045 19.0891.3122 6.9229.8664 13.835 1.3152 20.7518zm-48.0433-40.4743c-.0023-.2087-.0049-.4173-.0072-.626-.5255-.2015-1.037-.5205-1.5789-.5854-3.9637-.4751-7.9294-1.2095-11.9025-1.263-5.331-.0721-10.6744.3182-16.001.6782-1.5307.1034-3.8607-.1641-3.8166 2.2735.0434 2.395 2.3249 2.1117 3.8777 2.1777 5.9194.2515 11.8471.4924 17.769.4358 4.1051-.0392 7.9811-1.3357 11.6595-3.0908zm-67.2816-.6836c-.0007-.0403-.0014-.0808-.0021-.1211-.6566-.0494-1.3205-.1867-1.9687-.134-3.7724.3069-7.5551.5592-11.2985 1.0848-.6883.0967-1.5865 1.3209-1.675 2.105-.0553.4891 1.18 1.554 1.9158 1.6349 6.541.7192 13.0936 1.3593 19.6562 1.8411 2.6987.1982 5.1274-1.3519 5.1356-2.8296.0093-1.6715-2.2531-3.398-4.9544-3.5542-2.2626-.1308-4.5387-.0269-6.8089-.0269zm93.1482 6.3742c1.7541-.2777 4.159-.4698 6.4336-1.1185.818-.2331 1.8806-1.604 1.8258-2.3852-.0651-.9283-1.0388-2.1255-1.936-2.5805-1.1781-.5973-2.6675-.8018-4.0203-.7925-4.1656.0286-8.3293.2734-12.4952.3638-1.8368.0398-3.344.6339-3.3932 2.6073-.0461 1.8511 1.4511 2.5609 3.1154 2.754 3.263.3785 6.5304.7206 10.4699 1.1516z" fill="#f4c8a0"/><path d="m476.1192 446.0005c-2.5045 1.6068-5.0092 3.2134-7.5133 4.8206-4.3407 2.4116-8.8104 4.6209-12.9911 7.2838-5.4183 3.4513-10.5382 7.3676-15.9083 10.8985-9.5152 6.2563-20.6764 1.4115-22.5023-9.854-.3657-2.2557.3197-4.7269.7513-7.0561.6848-3.6967 1.564-7.3575 2.4754-11.561-1.1191.532-1.7439.8402-2.3778 1.1285-5.0515 2.2984-10.1155 4.5694-15.1539 6.8958-4.3085 1.9894-8.8325 3.6577-12.8024 6.1879-3.0968 1.9738-6.1274 2.9005-9.6584 2.7375-6.3021-.2908-11.6666-6.3713-10.0713-12.0078 1.244-4.3951 3.1869-8.6165 5.0769-12.7985 2.1904-4.8466 4.6626-9.5656 7.0125-14.34.0505-.02.1083-.0308.1489-.0631.025-.02.0235-.073.0338-.1111-.0616.0574-.1232.1147-.1848.1721-7.1488 3.6477-14.4243 7.0702-21.4126 11.0031-7.8225 4.4023-15.4159 9.2173-23.0475 13.9516-3.7908 2.3517-7.759 3.9025-12.2516 3.0893-5.4167-.9805-9.3789-7.6996-8.2629-13.68.1305-.6998.1791-1.4146.2843-2.2753-5.5924 5.1502-10.8327 10.1413-16.2588 14.9213-4.3784 3.8571-8.7347 7.826-13.557 11.0665-4.385 2.9464-9.3256 5.102-14.1258 7.3868-9.3648 4.4572-18.2061 3.8031-26.827-2.37-4.1791-2.9925-9.0103-5.1084-13.6468-7.4197-6.0155-2.9989-12.1347-5.7897-18.2013-8.6866-1.6968-.8102-3.366-1.6784-5.1519-2.5721-.4421.8109-.8105 1.3525-1.05 1.9461-4.7127 11.6857-17.9814 11.4121-24.9206 5.0625-.5199-.4756-1.2096-.7621-1.8063-1.158-3.3229-2.2038-7.0771-3.974-9.8578-6.7267-4.0233-3.9829-7.3139-8.7016-10.9953-13.04-.4296-.5064-1.347-.8083-2.0509-.8319-1.8005-.0602-3.6331.3121-5.4081.1125-4.5542-.5121-9.0872-1.2195-13.6231-1.8876-6.4677-.9528-12.654-2.7825-18.508-5.7613-2.321-1.1812-4.8173-2.0179-7.2337-3.0114-.0632-.0342-.1264-.0686-.1896-.103.062.0355.124.0711.186.1066 2.4319 4.1302 4.7794 8.313 7.319 12.376 2.5536 4.0852 5.5366 7.9301 6.1724 12.9277.7093 5.5758-1.2336 11.7585-7.702 12.7703-3.134.4903-6.5132.5197-9.6108-.0981-6.1361-1.2238-12.1563-3.0325-18.2194-4.6188-2.6527-.6939-5.293-1.4354-8.3581-2.2692.6126 2.5866 1.0758 4.7693 1.6486 6.923 2.6582 9.9926-3.0486 16.328-10.6315 18.4405-6.8426 1.9063-13.6416.8456-20.2308-2.331-3.4443-1.6605-7.4988-2.0547-11.2778-3.0208l.0192.0101c-.2962-.1618-.5926-.323-.8889-.4844-4.8503-3.5339-9.3081-7.4436-12.2591-12.797l-.026.0192c.6413.2332 1.3484.3614 1.9143.7153 10.9369 6.8412 22.8055 11.2294 35.4766 13.4959 1.2161.2175 2.4765.2597 3.7163.2606 7.1924.004 11.1783-4.8365 9.0519-11.7356-1.6942-5.4973-4.2606-10.7258-6.4431-16.0722-.3012-.7379-.6216-1.4678-1.1488-2.7092 2.6704.3153 5.0015.5368 7.316.8725 11.3971 1.6529 22.5123 4.5194 33.5216 7.8372.6991.2106 1.4126.3947 2.1325.5104 2.94.4724 4.988-1.5143 4.2436-4.3776-.4496-1.7297-1.2984-3.4182-2.2573-4.9431-8.8465-14.0669-17.759-28.0923-26.6349-42.1408-.2919-.4621-.3983-1.0414-.5912-1.566l-.0098.0109c4.3829 1.8153 8.7587 3.6485 13.1504 5.4428 14.2325 5.8149 28.4642 11.6318 42.7109 17.4118 4.178 1.6951 8.5235 1.9583 12.9563 1.2396 1.3379-.2169 2.3038-.5524 2.2224-2.2604-.12-2.5186-.0311-5.0472-.0311-7.797 3.0742 2.6483 6.3437 5.2111 9.3195 8.0787 7.4515 7.1802 14.4675 14.7494 19.9499 23.6097 1.4756 2.3848 3.3085 3.2046 5.2726 2.57 1.904-.6151 3.0663-2.3822 2.7111-5.1968-.8334-6.6042-1.9211-13.1765-2.9043-19.7618-.0315-.2109-.0475-.424-.1214-1.0961 1.895 1.4558 3.5199 2.7092 5.1499 3.9557 8.8347 6.7556 18.711 11.726 28.4854 16.9221 10.2115 5.4286 20.2899 11.1419 30.1539 17.1762 5.2404 3.2058 10.0364 3.4186 14.9277.0427 4.8681-3.3599 9.5347-7.0114 14.2956-10.5269 1-.7384 1.9947-1.4912 3.0449-2.1534 5.9442-3.748 10.9184-8.5666 15.6277-13.7396 5.7678-6.3358 11.688-12.5349 17.6326-18.7062 1.3911-1.4441 3.1453-2.5384 5.1516-4.1251-.3169 2.5771-.7299 4.5792-.7789 6.5903-.1446 5.9236-.1444 11.8504-.2019 17.7761-.0113 1.1698.0435 2.3455-.055 3.508-.2288 2.702 1.1689 4.0685 3.6876 3.0473 3.6444-1.4778 7.3499-3.0195 10.6244-5.1548 9.5089-6.2006 18.6844-12.9157 28.2348-19.0488 12.9416-8.3107 26.1085-16.2704 39.185-24.3707.6471-.4009 1.3535-.7061 2.3651-.6895-.4347.7018-.8329 1.4296-1.3098 2.1016-12.5945 17.7456-22.7027 36.9071-32.105 56.4654-.5982 1.2444-.7312 2.7125-1.046 3.9415 2.6715 1.5757 4.3491.3897 6.1269-.9358 15.5307-11.5791 32.431-20.7348 50.2521-28.2447.2524-.1064.5457-.1153 1.2349-.252-.4561 1.0145-.7634 1.7819-1.1368 2.5156-5.1595 10.1361-9.7457 20.5113-12.771 31.503-.5746 2.0878-.7945 4.3321-.8011 6.5055-.0154 4.9973 3.8901 7.7477 8.5039 5.7635 3.2685-1.4055 6.3381-3.356 9.3209-5.3289 14.8738-9.8377 27.9706-21.7465 40.1046-34.7544.8253-.8847 1.5178-1.8931 2.2721-2.8437.2957.2086.5913.4173.887.626-2.3201 6.9109-4.6405 13.8214-6.9608 20.7319z" fill="#fcfcfd"/><path d="m382.4563 418.336c-2.3499 4.7743-4.8221 9.4934-7.0125 14.34-1.89 4.182-3.8329 8.4034-5.0769 12.7985-1.5953 5.6365 3.7692 11.7169 10.0713 12.0078 3.531.163 6.5616-.7637 9.6584-2.7375 3.9699-2.5302 8.4939-4.1984 12.8024-6.1879 5.0384-2.3264 10.1024-4.5974 15.1539-6.8958.6339-.2884 1.2586-.5966 2.3778-1.1285-.9114 4.2036-1.7906 7.8643-2.4754 11.561-.4315 2.3292-1.1169 4.8004-.7513 7.0561 1.8259 11.2655 12.9872 16.1102 22.5023 9.854 5.3701-3.5309 10.4901-7.4472 15.9083-10.8985 4.1808-2.6629 8.6504-4.8722 12.9911-7.2838-2.2853 6.1099-4.8659 12.0832-9.2407 17.0333-3.4257 3.876-8.1844 5.4942-13.0294 6.2224-5.8211.8751-11.7498 1.2335-17.6424 1.3727-5.2875.1248-10.3566-1.1259-15.2073-3.4744-5.4542-2.6408-10.9473-5.3918-16.7116-7.1497-6.0907-1.8574-12.5081-2.6728-18.8069-3.8093-5.1718-.9331-10.3109-.6242-15.4083.749-.7775.2095-1.903-.1313-2.6308-.5917-8.4617-5.3527-17.7117-7.8156-27.6763-7.6306-11.0097.2044-20.8596 3.8252-29.7859 10.1982-1.5167 1.0829-3.2407 2.0452-5.0149 2.5701-11.4103 3.3755-22.8479 6.6621-34.3092 9.8609-2.6534.7405-5.4227 1.3129-8.1596 1.4189-1.7289.0669-3.5167-.8135-5.244-1.3739-8.6109-2.7943-17.1397-5.8747-25.8456-8.3293-4.0819-1.1509-8.4923-1.1654-12.7626-1.6119-6.1735-.6454-12.3509-.184-18.0201 2.2282-3.5083 1.4927-5.6348.8193-8.2475-1.5184-4.9588-4.4372-10.6541-7.8043-17.2588-9.1334-10.0824-2.0288-20.6391 2.2076-25.4209 11.3094-.7577 1.4424-1.4314 1.6288-2.9012.9606-8.6383-3.9274-17.7337-6.1984-27.1355-7.4029-4.2589-.5457-8.4306-.6895-12.5561.6955-4.9213 1.6518-8.4767 4.8352-10.5819 9.5648-.9794 2.2002-1.828 4.4657-2.6099 6.7448-.7619 2.2209-1.3715 4.4719-3.3483 6.0335-.3868.3056-.4531 1.0171-.6676 1.5409-12.6934-3.5204-24.6716-8.6126-35.5084-16.1974-1.1205-.7843-2.1528-1.6943-3.2264-2.5457 3.7786.9664 7.8332 1.3607 11.2775 3.0212 6.5892 3.1765 13.3882 4.2372 20.2308 2.331 7.5828-2.1125 13.2897-8.4479 10.6315-18.4405-.5728-2.1536-1.036-4.3364-1.6486-6.923 3.0651.8338 5.7054 1.5753 8.3581 2.2692 6.063 1.5863 12.0833 3.395 18.2194 4.6188 3.0975.6177 6.4768.5883 9.6108.0981 6.4684-1.0118 8.4113-7.1945 7.702-12.7703-.6358-4.9976-3.6189-8.8425-6.1724-12.9277-2.5396-4.063-4.8871-8.2458-7.319-12.376l.0036-.0036c2.4164.9935 4.9127 1.8302 7.2337 3.0114 5.854 2.9788 12.0403 4.8086 18.508 5.7613 4.5358.6681 9.0689 1.3756 13.6231 1.8876 1.775.1996 3.6075-.1728 5.4081-.1125.7039.0236 1.6213.3255 2.0509.8319 3.6814 4.3385 6.972 9.0572 10.9953 13.04 2.7807 2.7527 6.5349 4.5229 9.8578 6.7267.5967.3958 1.2864.6823 1.8063 1.158 6.9391 6.3496 20.2078 6.6232 24.9206-5.0625.2395-.5935.6079-1.1352 1.05-1.9461 1.7859.8936 3.4551 1.7619 5.1519 2.5721 6.0666 2.8969 12.1857 5.6877 18.2013 8.6866 4.6365 2.3113 9.4677 4.4273 13.6468 7.4197 8.6209 6.1731 17.4622 6.8273 26.827 2.37 4.8001-2.2848 9.7407-4.4404 14.1258-7.3868 4.8224-3.2405 9.1786-7.2094 13.557-11.0665 5.4261-4.78 10.6664-9.7711 16.2588-14.9213-.1052.8607-.1538 1.5755-.2843 2.2753-1.116 5.9803 2.8462 12.6995 8.2629 13.68 4.4926.8133 8.4608-.7376 12.2516-3.0893 7.6317-4.7343 15.225-9.5493 23.0475-13.9516 6.9883-3.9329 14.2639-7.3554 21.4126-11.0031z" fill="#a1e5f3"/><path d="m333.1696 431.0818c1.2361-4.9497 2.7427-9.8517 3.6267-14.8635.7686-4.3577 1.0862-8.8365 1.1389-13.2672.0539-4.5328-3.8524-6.3608-7.839-4.1504-7.3038 4.0496-12.9881 9.8991-18.3624 16.112-4.2986 4.9693-8.1963 10.342-12.899 14.8868-3.6778 3.5545-8.241 6.2288-12.5496 9.0847-4.8084 3.1874-9.7695 6.145-14.6757 9.1841-.708.4386-1.4804.7736-2.1104 1.0984.5376-20.2555 1.07-40.3156 1.6098-60.656 1.1441.0972 2.4935.3997 3.8082.2893 4.499-.3773 9.0288-.6485 13.4694-1.4115 15.8506-2.7238 31.3468-6.8825 46.5405-12.1375 12.9554-4.4807 25.3897-10.1467 37.4202-16.7216 4.2856-2.3421 8.6962-4.456 13.0503-6.674-.2696.9072-.4981 1.829-.8157 2.719-5.5982 15.6879-11.1992 31.3748-16.8334 47.0498-.3643 1.0138-1.1765 1.8794-1.4691 2.903-.3462 1.2112-.3545 2.5193-.5092 3.7854-9.5712 6.9752-19.1274 13.9709-28.7331 20.8983-1.1422.8237-2.5544 1.2733-3.8415 1.8962z" fill="#578cc4"/><path d="m164.7036 371.2732c8.2248 2.2756 16.3988 4.7604 24.6882 6.77 9.0589 2.196 18.1735 4.2534 27.3595 5.8047 7.3105 1.2346 14.7538 1.7583 22.1585 2.3387 7.8536.6157 15.7298.9536 23.5997 1.3409 1.2421.0612 1.6249.4726 1.6423 1.687.0972 6.802.216 13.6044.4201 20.4039.2522 8.3995.5441 16.7988.9178 25.1936.2196 4.9326.6312 9.8564.989 15.2767-3.0156-1.7732-5.5253-3.3622-8.1356-4.7634-9.4714-5.0838-18.913-10.2296-28.4883-15.1122-8.4596-4.3138-16.8708-8.6651-24.6534-14.156-3.815-2.6917-7.7941-5.1498-11.6763-7.7476-.523-.3499-.9512-.8672-1.3576-1.3611-1.4543-1.7671-2.7396-1.7827-3.5947.3448-.6839 1.7016-.7129 3.6708-.9951 5.5268-.0764.5019-.017 1.0244-.0197 1.5377-2.5449-4.5105-5.1298-8.9994-7.6256-13.5373-3.7661-6.847-7.532-13.6954-11.1706-20.6103-1.5212-2.8903-2.7155-5.9527-4.0582-8.9369z" fill="#568cc4"/><path d="m166.9195 174.29c-.6496 4.8896-1.294 9.78-1.9515 14.6685-.2219 1.6512-.4767 3.2982-.7164 4.9472-5.4796.331-10.9629.6143-16.4365 1.0252-1.4158.1063-3.2628.289-3.2657 2.2162-.0026 1.7279 1.592 2.0869 3.0493 2.1721 5.2567.3073 10.515.5844 15.7728.873-.6825 4.8889-1.414 9.7715-2.0346 14.6683-.6941 5.4763-1.29 10.9651-1.9245 16.449-.4423 3.823-.8779 7.6469-1.3166 11.4703-5.8511 1.2541-11.6882 2.5787-17.5568 3.7442-7.2355 1.437-14.4972 2.7418-22.2009 4.1889.4135-4.1866.5302-8.1989 1.2425-12.1025 3.5153-19.2659 7.1747-38.5057 10.8154-57.7485.8641-4.567.9001-4.8931 4.9678-5.1447 10.5077-.6499 21.0357-.9733 31.5557-1.4272z" fill="#edd173"/><path d="m270.7164 372.7318c40.1794-13.9458 80.3588-27.8919 120.5396-41.8341.4818-.1672.9812-.2839 1.472-.4234-1.4064 4.3534-2.8125 8.7061-4.2188 13.0588-17.4238 7.9377-33.8052 18.0804-51.956 24.4847-19.2014 6.7751-38.7397 12.204-58.9541 14.9746-1.8823.258-3.7849.3708-5.6795.5328-.2817.024-.5721-.0536-1.2032-.121 0-3.5557 0-7.114 0-10.6724z" fill="#f04200"/><path d="m121.5477 344.8014c6.6871 1.2353 13.3842 2.4195 20.0597 3.7147 27.7251 5.3792 55.445 10.7848 83.1639 16.1957 13.0697 2.5512 26.1328 5.1364 39.1987 7.7071-.0002 3.3527-.0002 6.7048-.0002 10.2643-4.2983-.6168-8.4571-1.3449-12.646-1.7873-8.6521-.9135-17.3282-1.6006-25.9802-2.5161-12.9677-1.3721-25.6862-4.1104-38.2927-7.3663-13.9417-3.6006-27.8472-7.3416-41.7838-10.9621-6.2238-1.6167-12.4931-3.0578-18.7189-4.6677-.7174-.1855-1.6192-.8173-1.8669-1.4609-1.1541-2.9984-2.1081-6.0737-3.1336-9.1214z" fill="#ef4100"/><path d="m230.2063 79.6003c7.6941-1.9117 15.3083-4.3113 23.1062-5.5885 6.8686-1.1251 13.9762-1.618 20.9163-1.2436 6.7788.3657 13.4793 2.1822 20.2145 3.3617 1.1128 8.2759 2.0042 16.5599.8802 24.9148-21.3954-1.5323-42.8259-1.684-64.2615-1.6503-.2906.0004-.5814-.0581-.8714-.0887.0057-6.5682.0107-13.1368.0157-19.7054z" fill="#e75448"/><path d="m164.7036 371.2732c1.3427 2.9842 2.537 6.0466 4.058 8.937 3.6386 6.9149 7.4045 13.7632 11.1706 20.6103 2.4958 4.5379 5.0807 9.0268 7.6256 13.5373.5442 3.1451 1.0964 6.2891 1.6236 9.4373.0688.411.0094.8435.0094 1.2661-.2078.1888-.4158.3776-.6236.5665-.3422-.6042-.5683-1.3263-1.0443-1.7942-5.1847-5.0954-10.2952-10.2756-15.6676-15.167-2.8663-2.6096-6.2072-4.6975-9.3257-7.0316-.5238-.3921-1.0233-.8207-1.5051-1.264-1.641-1.5098-4.3851-1.8878-5.8207-.7849-1.1926.916-1.3144 3.3275-.6981 5.3086.7381 2.3724 1.1261 4.8536 1.7465 7.653-2.6337-.0725-4.4702-.5782-5.5506-2.4475-4.2266-7.3142-8.572-14.5695-12.4983-22.0436-2.4443-4.6531-4.2773-9.6346-6.2703-14.5154-1.6772-4.107-3.1892-8.2814-4.905-12.7675 1.1759 0 1.8577-.152 2.4409.0236 5.6608 1.7062 11.3018 3.4783 16.9551 5.2099 5.7236 1.753 11.4534 3.486 17.186 5.2095.3396.1019.7279.0414 1.0936.0566z" fill="#346dad"/><path d="m187.5619 108.7394c-2.0532 5.5793-4.1065 11.1587-6.1593 16.7374-1.6581 1.0077-2.4976 2.2488-1.1679 4.107-1.1465 3.4288-2.4196 6.8215-3.4132 10.2941-2.0999 7.3393-4.0623 14.7182-6.0555 22.0878-.2258.8344-.2868 1.7134-.4251 2.5718-6.3336.3457-12.6666.6912-19.4428 1.0609 1.3183-4.6689 2.4453-8.8906 3.7038-13.0728 3.3293-11.0637 6.6414-22.1338 10.13-33.1475.8989-2.8376 2.3187-5.5332 3.726-8.173.4269-.8007 1.5847-1.6442 2.4594-1.7032 5.5402-.3737 11.0948-.5328 16.6446-.7625z" fill="#ec9a5c"/><path d="m232.8285 59.2586c6.2574-1.6965 12.4476-3.728 18.7896-5.0038 7.6898-1.547 15.5552-2.0822 23.392-1.3828 4.0497.3615 8.0869 1.2575 12.0312 2.2884 3.4105.8916 6.1154 3.0763 8.154 6.001 2.4615 3.5312 3.6855 7.5265 4.6215 11.7013-4.3843-1.0428-8.5273-2.1423-12.719-3.004-14.2529-2.9302-28.3932-1.9353-42.4216 1.5065-4.542 1.1143-9.0316 2.4421-13.5449 3.6716.0827-.8657.1552-1.732.2495-2.596.4795-4.3943.9645-8.7882 1.4477-13.1822z" fill="#fcfdfd"/><path d="m383.7768 251.5446c-1.0239-5.8048-2.0557-11.6084-3.0691-17.4151-.776-4.4459-1.5305-8.8957-2.291-13.3444-.8461-4.949-1.4787-9.9482-2.631-14.8247-.4876-2.0629-1.898-3.9884-3.1787-5.7677-3.3668-4.6776-7.1126-9.0962-10.2705-13.9051-1.8114-2.7584-4.3619-2.5565-6.838-2.8334-7.3808-.825-14.7821-1.4659-22.1731-2.2018-7.3913-.7359-14.7707-1.6104-22.1722-2.2192-7.122-.5858-14.288-.6923-21.3909-1.4307-4.1617-.4326-8.2451-1.6562-12.3445-2.6071-.6589-.1529-1.2166-.7414-1.8213-1.1285 9.4473.3006 18.8961.5597 28.3413.9138 8.7127.3267 17.426.6759 26.1309 1.1614 8.9968.502 17.9845 1.1694 26.9733 1.8053.6132.0434 1.3219.2872 1.7841.6772 6.0458 5.1012 12.0349 10.2694 18.0814 15.3697 3.2907 2.7758 5.2717 6.0793 6.2793 10.4192 3.6164 15.5765 6.3493 31.2783 7.9269 47.1855.0628.633.008 1.2778.008 2.2382-2.604-.7417-4.9745-1.4171-7.3449-2.0926z" fill="#fbfaf4"/><path d="m393.4417 330.0088c1.3597-5.2143 2.9853-10.3766 4.0184-15.655 1.6605-8.4834 2.968-17.0373 4.3443-25.5742.5433-3.3697.879-6.7733 1.2919-10.1636.1415-1.1624-.0126-1.982-1.4078-2.5221-9.1906-3.5585-18.3441-7.2142-27.4875-10.8933-10.8361-4.3601-21.6575-8.7579-32.4599-13.2009-.8936-.3676-1.5942-1.205-2.3844-1.8243 8.0685 2.1237 16.1317 4.2676 24.2066 6.3673 16.7912 4.3661 33.5811 8.7377 50.3949 13.0154 1.6494.4196 1.4916 1.256 1.235 2.3891-2.197 9.7057-4.2914 19.436-6.6283 29.1078-1.9593 8.1096-4.1979 16.1519-6.3279 24.2201-.2043.7738-.5155 1.5192-.7773 2.2764-2.6728.8182-5.3454 1.6378-8.018 2.4573z" fill="#f6f7fc"/><path d="m351.6678 167.8897c-.4488-6.9168-1.003-13.8288-1.3152-20.7517-.2866-6.3569-.387-12.7253-.4045-19.0891-.0049-1.7594-.4729-2.6781-2.2175-3.1068-10.0605-2.4717-20.0632-5.1957-30.1696-7.458-7.8134-1.749-15.7325-3.055-23.6386-4.3498-5.0277-.8233-10.1314-1.1753-15.1721-1.9307-1.6881-.253-3.2871-1.0998-4.9267-1.6751 8.9113.4584 17.8646.5213 26.7233 1.4695 12.7136 1.3608 25.369 3.2924 38.0244 5.1491 3.2358.4748 6.3706 1.6166 9.5659 2.3937 3.747.9113 5.69 3.3589 6.1673 7.0812 1.3205 10.297 2.6411 20.5938 3.9298 30.8947.4973 3.9746.9091 7.9598 1.3934 12.2371-2.794-.3034-5.377-.5838-7.9599-.8641z" fill="#faf4f3"/><path d="m365.77 408.3127c.1547-1.2661.1629-2.5742.5092-3.7854.2926-1.0236 1.1048-1.8892 1.4691-2.903 5.6342-15.6749 11.2352-31.3619 16.8334-47.0498.3176-.89.5462-1.8119.8157-2.719 3.5301-2.3651 7.0607-4.7301 10.5914-7.0952.0514.0528.1041.1041.1578.1544-2.4666 6.645-4.5919 13.4423-7.4752 19.9012-5.0414 11.2925-10.549 22.3766-15.8596 33.5489-.44.9257-1.1046 1.8207-1.256 2.7936-.5522 3.5493-2.7924 5.6326-5.7858 7.1543z" fill="#afeef6"/><path d="m230.2063 79.6003c-.005 6.5686-.0099 13.1372-.0156 19.7055-6.3475-.0004-12.6944-.0004-19.2292-.0004-.3999-4.4075.3611-8.5387 1.3514-12.6303.1225-.506.8507-1.0355 1.4123-1.2387 5.4799-1.9837 10.9839-3.9004 16.4811-5.8361z" fill="#d22a20"/><path d="m232.8285 59.2586c-.4832 4.394-.9682 8.7878-1.4477 13.1823-.0943.8639-.1668 1.7302-.2495 2.596-4.5655 1.7641-9.1479 3.4856-13.6862 5.3163-1.4064.5674-2.6929 1.4319-4.569 2.4508 1.4341-5.2748 2.7319-10.1587 4.1232-15.0159.161-.5622.7506-1.1577 1.2952-1.4293 4.8249-2.4064 9.6845-4.743 14.534-7.1002z" fill="#c8eaf7"/><path d="m295.3235 101.0447c1.124-8.3549.2325-16.6389-.8802-24.9148 6.684 1.7157 7.1337 2.2468 7.5286 9.0167.3133 5.3748.6097 10.7506.9356 16.5125-2.7271-.221-5.1555-.4176-7.584-.6144z" fill="#fab4ac"/><path d="m393.4417 330.0088c2.6726-.8195 5.3452-1.6391 8.0181-2.4572-1.0704 3.7677-2.1103 7.5433-3.2457 11.2899-.1623.5357-.6986 1.1418-1.2121 1.3567-2.8042 1.1733-5.6554 2.2344-8.4915 3.3345 1.405-4.3523 2.8111-8.705 4.2175-13.0584.2382-.1556.4759-.3106.7137-.4655z" fill="#fc6c00"/><path d="m389.7515 438.0163c-.2439.1964-.4878.3926-.7315.5889-.0891-.0774-.1781-.1547-.2671-.232.2103-.2618.4208-.5235.6311-.7855.1223.1429.2448.2858.3675.4286z" fill="#fefefe"/><path d="m42.778 468.0818c.2964.1614.5927.3226.8888.4844-.2962-.161-.5926-.3226-.8888-.4844z" fill="#a1e5f3"/><path d="m90.7905 395.4515c-.1007-.0322-.2012-.0645-.3019-.0966.0974.0358.1947.0717.2921.1076z" fill="#fcfcfd"/><path d="m136.5225 405.5865c.0601.0331.1275.0586.1758.1043.0148.0139-.0228.0833-.0363.1272-.0313-.0881-.0627-.1763-.0936-.2646.0002 0-.0459.0331-.0459.0331z" fill="#fefefe"/><path d="m395.9888 344.7605c.1022-.0469.2043-.0939.3064-.1408-.0497.0982-.0995.1964-.149.2948-.0533-.05-.106-.1014-.1574-.154z" fill="#afeef6"/><path d="m333.1955 431.1073c-.0641.0572-.1282.1143-.1924.1717.0557-.0656.1113-.1312.1667-.1969z" fill="#578cc4"/><path d="m30.5189 455.2849c-.079-.0898-.1578-.1795-.2368-.2693.0649-.0123.1298-.0244.1947-.0366.0057.1081.0113.2164.0166.3248z" fill="#fcfcfd"/><path d="m429.5622 459.7254c-.0849.0551-.1697.1102-.2545.1652.0481-.0927.0961-.1853.1429-.2794-.0013-.0012.1116.1142.1116.1142z" fill="#fefefe"/><path d="m183.2607 21.4001c5.4778-4.7101 12.0298-6.7918 19.0391-7.6375 7.7351-.9331 15.4885-1.4444 23.1201.7217 1.662.4719 3.3199 1.2068 4.7615 2.1532 2.7252 1.7892 3.1323 4.1752 1.1693 6.7484-1.2796 1.6775-2.8501 3.1372-4.3251 4.6607-3.2275 3.3331-3.3508 5.0465-1.193 9.1609.8446 1.6104 1.6371 3.5962 1.4638 5.311-.2607 2.5806-2.4813 3.7891-4.9409 4.3175-1.4351-2.6654-3.3119-5.197-4.1688-8.0363-.7117-2.3584-.2397-5.0788-.2636-7.6392-.0399-4.246-2.5881-6.409-6.6602-5.5901-3.8506.7743-7.6617 1.8454-11.547 2.3236-6.0346.7427-11.7418.113-15.4146-5.7474-.2099-.3347-.6876-.5015-1.0406-.7465z" fill="#fcfdfd"/><path d="m183.2607 21.4001c.353.245.8307.4118 1.0406.7466 3.6729 5.8603 9.38 6.49 15.4146 5.7474 3.8854-.4782 7.6965-1.5493 11.547-2.3236 4.0721-.8189 6.6203 1.3441 6.6602 5.5901.0239 2.5603-.4481 5.2807.2636 7.6392.8569 2.8393 2.7336 5.3709 4.1688 8.0363-3.0237 1.1666-5.7632.4217-8.299-1.3288-2.2528-1.5553-2.8111-4.1704-1.3481-6.5337.7236-1.1689 1.6399-2.2405 2.591-3.2402 1.0295-1.0821 2.0063-2.3927 1.0718-3.6512-.693-.9333-2.2612-1.7464-3.4108-1.7098-3.2005.1019-6.3773.7917-9.5798 1.0331-4.5898.3461-9.2074.8137-13.787.6173-2.6737-.1146-5.4097-1.1624-7.913-2.2578-3.0818-1.3487-3.3027-4.5082-.718-6.6906.7224-.61 1.5298-1.119 2.2981-1.6743z" fill="#c8eaf7"/><path d="m245.1977 30.764c5.4132-1.6842 10.9061-1.8408 16.3769-.4962.9766.2402 2.0846 1.4781 2.3631 2.4708.1773.6321-.8831 2.0577-1.7051 2.4314-1.7507.796-3.7075 1.1386-5.58 1.667-.6676-.2645-1.3139-.641-2.0067-.7718-1.9175-.3621-3.966-.3265-5.7525-1.0034-1.8342-.695-3.8409-1.6943-3.6957-4.2978z" fill="#f6f7fc"/><path d="m245.1977 30.764c-.1453 2.6036 1.8614 3.6028 3.6958 4.2977 1.7864.677 3.835.6413 5.7525 1.0034.6928.1308 1.3391.5074 2.0067.7718-4.3444.912-8.5828.3283-12.7094-1.085-.9411-.3223-1.6822-1.2288-2.5152-1.8665.7731-.9004 1.4948-1.8541 2.3456-2.6739.3208-.3089.9406-.3075 1.424-.4475z" fill="#c8eaf7"/><g fill="#1d3249"><path d="m191.7938 294.6595c.4162-10.6066 3.1519-18.9456 11.2349-24.8075 7.5088-5.4452 15.7354-4.925 22.1346 1.8825 7.5419 8.0232 10.6924 17.4817 8.1859 28.4752-.1453.6377-.2506 1.3713-.6423 1.8333-.2286.2697-1.0182.1933-1.4982.0627-.2244-.061-.3842-.6057-.4532-.9548-1.4399-7.2816-5.9973-13.1256-9.119-19.6265-.8302-1.7289-2.2575-3.2525-3.6654-4.605-2.7143-2.6077-5.9834-2.8198-9.2697-.9696-6.1978 3.4895-8.7213 9.2429-9.6758 15.8738-.3628 2.5199-.3052 5.106-.353 7.6635-.0302 1.6198-.4133 2.9077-2.2013 3.3051-1.8564.4125-3.1441-.5757-3.5871-2.1244-.6548-2.2891-.8686-4.7044-1.0904-6.0083z"/><path d="m342.7641 308.0084c-.5432-.7732-.7848-.9729-.838-1.214-1.6174-7.3459-6.2458-13.0091-10.641-18.756-2.2063-2.8847-4.7491-5.5387-7.3476-8.0845-1.107-1.0845-2.6743-1.8167-4.1577-2.3771-4.2003-1.5869-8.3636-.0038-9.9904 4.1366-1.1048 2.8118-1.4844 5.9136-2.1239 8.8996-.1664.7772-.0344 1.6137-.1389 2.4098-.2247 1.7122-.8391 3.2635-2.8478 3.3254-1.8239.0561-2.8684-1.2432-3.0904-2.8731-.3336-2.4497-.6711-4.9686-.4535-7.4088.445-4.9875 1.8972-9.774 5.8924-13.0906 5.1961-4.3134 11.2587-4.7576 17.112-1.7947 10.2681 5.1974 15.988 14.0925 18.6507 25.0554.5984 2.4631.7573 5.0585.8656 7.6037.0509 1.2013-.4962 2.428-.8915 4.1683z"/><path d="m274.1809 195.5018c-2.3811 2.3956-5.4593 3.0974-8.6155 3.1064-7.8337.0225-15.6683-.1783-23.5024-.2925-.219-.0032-.4393-.0305-.656-.0657-1.51-.2448-3.1373-.6461-3.0161-2.5088.1068-1.6403 1.5723-2.0959 3.088-2.193 7.9652-.5104 15.9275-1.0645 23.8938-1.5554 3.9649-.2445 7.0748 1.0213 8.8082 3.509z"/><path d="m307.3476 198.6367c-4.6847 0-9.3711.0713-14.053-.0413-1.502-.0362-3.5316-.3095-3.5262-2.2276.0055-2.0307 2.0107-2.2144 3.6485-2.328 7.8187-.5429 15.635-1.1417 23.4617-1.5267 1.7585-.0866 3.6517.3552 5.3109.9979 2.2174.8591 2.3314 2.2747.1718 3.3098-2.0526.9837-4.3961 1.5769-6.6686 1.8292-2.7506.3055-5.5612.0725-8.3458.0725.0004-.0286.0005-.0572.0007-.0858z"/><path d="m223.6227 195.1124c-2.8738 2.1467-5.8729 3.3583-9.0549 3.528-6.8581.366-13.7349.3806-20.6045.5249-.4328.0091-.9799.0439-1.2809-.186-.8144-.6221-2.1846-1.4517-2.1181-2.0677.0946-.8773 1.1566-2.1593 2.0119-2.3524 2.8361-.6399 5.7543-1.0238 8.6604-1.223 5.1631-.3537 10.3434-.7113 15.5102-.6353 2.2559.0331 4.7252.5365 6.8759 2.4115z"/><path d="m356.4089 198.7922c-5.317-.4869-9.9015-.8612-14.4739-1.3502-1.6169-.1729-3.8533-.1558-3.7977-2.4058.0591-2.3901 2.3572-2.2104 4.0527-2.2988 5.9824-.3117 11.9678-.5913 17.9555-.7536 1.3477-.0366 2.8398.1907 4.0221.7827.888.4447 1.9102 1.6689 1.9084 2.5442-.0016.8492-1.1084 2.2545-1.9471 2.4414-2.7513.6133-5.6015.7837-7.72 1.0401z"/><path d="m163.3715 200.1923c-5.2578-.2886-10.5162-.5658-15.7728-.873-1.4574-.0852-3.052-.4443-3.0493-2.1721.0029-1.9272 1.85-2.1099 3.2657-2.2162 5.4736-.411 10.957-.6942 16.4365-1.0252 3.4805.1131 6.8672.5473 10.055 2.8024-3.3366 2.8306-7.0989 3.271-10.9351 3.4841z"/><path d="m303.6245 127.4154c-3.6784 1.7551-7.5544 3.0515-11.6595 3.0908-5.9219.0566-11.8496-.1844-17.769-.4358-1.5528-.066-3.8343.2174-3.8777-2.1777-.0441-2.4376 2.2859-2.1701 3.8166-2.2735 5.3266-.36 10.67-.7503 16.001-.6782 3.9731.0536 7.9388.788 11.9025 1.263.5419.0649 1.0534.3839 1.5789.5854.0023.2087.0048.4174.0072.626z"/><path d="m236.3429 126.7318c2.2702 0 4.5463-.104 6.8089.0269 2.7013.1562 4.9637 1.8827 4.9544 3.5542-.0081 1.4778-2.4369 3.0278-5.1356 2.8296-6.5625-.4818-13.1151-1.1219-19.6562-1.8411-.7358-.0809-1.9711-1.1458-1.9158-1.6349.0885-.7841.9867-2.0084 1.675-2.105 3.7434-.5256 7.526-.7779 11.2985-1.0848.6482-.0528 1.3121.0845 1.9687.134.0007.0404.0014.0808.0021.1211z"/><path d="m329.4911 133.106c-3.9395-.431-7.2069-.7731-10.47-1.1517-1.6642-.1931-3.1615-.9029-3.1154-2.754.0492-1.9734 1.5564-2.5675 3.3932-2.6073 4.166-.0903 8.3297-.3352 12.4952-.3638 1.3528-.0093 2.8422.1953 4.0203.7925.8972.455 1.8709 1.6522 1.936 2.5805.0548.7812-1.0078 2.1521-1.8258 2.3852-2.2745.6488-4.6794.8409-6.4335 1.1186z"/><path d="m180.2347 129.5838c-1.3297-1.8582-.4902-3.0993 1.1679-4.107 4.2966-.1965 8.594-.5274 12.8903-.5145 1.4131.0043 3.0035.6453 4.1708 1.4759.7578.539 1.43 2.1295 1.1625 2.9162-.2676.7869-1.7397 1.6054-2.7056 1.6326-3.2001.0902-6.4186-.0667-9.6134-.3302-2.3708-.1956-4.716-.704-7.0725-1.073z"/></g><path d="m114.5379 417.4565c-.062-.0355-.124-.0711-.186-.1066.0633.0344.1264.0688.1896.103z" fill="#a1e5f3"/><path d="m382.4543 418.3338c.0616-.0573.1232-.1146.1848-.1721-.0104.0381-.0089.0911-.0338.1111-.0406.0323-.0983.0431-.1489.0631z" fill="#a1e5f3"/></g></svg>