<?xml version="1.0" encoding="utf-8"?>
<!-- Generator: Adobe Illustrator 16.0.0, SVG Export Plug-In . SVG Version: 6.00 Build 0)  -->
<!DOCTYPE svg PUBLIC "-//W3C//DTD SVG 1.1//EN" "http://www.w3.org/Graphics/SVG/1.1/DTD/svg11.dtd">
<svg xmlns="http://www.w3.org/2000/svg" xmlns:xlink="http://www.w3.org/1999/xlink" version="1.1" id="snorkel" x="0px" y="0px" width="512" height="512" viewBox="0 0 512 512" enable-background="new 0 0 512 512" xml:space="preserve">
<g>
	<g>
		<path fill="#FFF6E6" d="M290.789,412.767c6.22-6.794,14.925-5.295,24.584-5.295h7.622c27.872,0,50.466-22.594,50.466-50.465    v-98.885c0-38.546-31.248-69.794-69.793-69.794h-80.554c-37.995,0-68.797,30.802-68.797,68.797v99.392    c0,28.142,22.813,50.955,50.956,50.955c0,0,6.881,0,6.883,0c10.855,0.002,19.94-0.725,25.848,7.31    c6.166,8.39,14.108,13.413,24.901,13.413c11.513,0,19.664-6.449,27.089-14.56C290.254,413.351,290.52,413.062,290.789,412.767z"/>
		<g>
			<path fill="#FFFFFF" d="M174.871,367.73c-10.064-50.003-6.416-109.672,18.957-152.558c5.66-9.567,12.985-17.469,21.933-23.749     c-34.536,3.671-61.443,32.891-61.443,68.401v99.391c0,14.403,20.382,37.172,29.991,46.44c-2.048-1.976-3.992-16.001-5.009-19.583     C177.617,380.147,176.137,374.015,174.871,367.73z"/>
		</g>
		<g>
			<path fill="#F2D0AF" d="M337.443,197.044c0,0,40.713,21.895,38.365,80.696s6.293,110.11-29.189,123.865     C346.619,401.605,373.875,242.652,337.443,197.044z"/>
		</g>
		<path fill="#C7F440" d="M145.139,326.014h-30.505c-5.298,0-9.634-4.335-9.634-9.633v-22.879c0-5.298,4.336-9.633,9.634-9.633    h30.505c5.299,0,9.633,4.335,9.633,9.633v22.879C154.771,321.679,150.438,326.014,145.139,326.014z"/>
		<path fill="#C7F440" d="M413.145,326.014H382.64c-5.298,0-9.634-4.335-9.634-9.633v-22.879c0-5.298,4.336-9.633,9.634-9.633    h30.505c5.298,0,9.633,4.335,9.633,9.633v22.879C422.777,321.679,418.442,326.014,413.145,326.014z"/>
		<path fill="#A2CA00" d="M292.402,250.383c-15.578,11.362-28.514,21.025-47.223,6.04c-9.957-7.975-23.052-12.727-36.445-12.727    h-52.637c-14.477,0-26.211,14.502-26.211,32.391v57.709c0,17.889,11.768,31.407,26.211,32.391    c25.932,1.765,56.494,8.787,77.239-7.39c9.038-7.047,15.881-22.349,30.552-22.35c23.052-0.001,14.745,30.233,63.699,30.965    c0.003,0,44.094-1.226,44.094-1.226c14.475,0,26.211-14.502,26.211-32.391v-57.709c0-17.889-11.736-32.391-26.211-32.391    c0,0-52.552,0-52.643,0C308.05,243.696,298.88,245.659,292.402,250.383z"/>
		<g>
			<path fill="#FFFFFF" d="M147.723,272.261c-0.083-10.098,2.03-19.677,5.813-28.564h-0.139c-14.476,0-26.212,14.502-26.212,32.391     v57.709c0,15.237,8.551,27.273,20.008,31.123C147.701,334.036,147.979,303.151,147.723,272.261z"/>
		</g>
		<g>
			<path fill="#809600" d="M377.158,244.1c1.871,6.598,2.892,13.385,2.892,20.062v92.271c0,2.856-0.003,5.714-0.005,8.571     c11.069-3.792,19.197-16.323,19.197-31.208v-57.709C399.242,259.935,389.673,246.546,377.158,244.1z"/>
		</g>
		<path fill="#FBFFEB" d="M295.496,270.115l-9.592,7.849c-3.902,3.194-8.841,4.946-13.943,4.946h-8.072h-8.072    c-5.102,0-10.04-1.752-13.943-4.946l-9.591-7.849c-3.902-3.194-8.841-4.946-13.943-4.946h-43.471    c-11.955,0-21.646,9.419-21.646,21.038v37.481c0,11.619,9.691,21.037,21.646,21.037h36.415c5.741,0,11.247-2.216,15.307-6.161    l15.031-14.608c4.033-3.92,9.495-6.134,15.198-6.162l7.069-0.034l7.07,0.034c5.703,0.028,11.165,2.242,15.198,6.162l15.031,14.608    c4.06,3.945,9.565,6.161,15.306,6.161h36.415c11.956,0,21.647-9.418,21.647-21.037v-37.481c0-11.619-9.691-21.038-21.647-21.038    h-43.47C304.337,265.169,299.398,266.921,295.496,270.115z"/>
		<path fill="#00B0DD" d="M373.182,494.949h-33.717c-10.154,0-18.385-8.231-18.385-18.385c0-10.154,8.23-18.385,18.385-18.385    h33.717c24.389,0,44.23-19.842,44.23-44.23V157.601c0-24.39-19.842-44.23-44.23-44.23c-10.154,0-18.386-8.231-18.386-18.385    c0-10.154,8.231-18.385,18.386-18.385c44.664,0,81,36.336,81,81v256.349C454.182,458.612,417.846,494.949,373.182,494.949z"/>
		<rect x="417.412" y="216.538" fill="#FF665A" width="36.77" height="61.283"/>
		<rect x="417.412" y="277.74" fill="#FFC826" width="36.77" height="61.283"/>
		<g>
			<path fill="#FFFFFF" d="M360.409,95.525c0,0,37.65-3.973,56.25,20.844c18.6,24.817,15.841,61.267,15.195,86.242v211.274     c0,0,5.979,74.461-109.721,55.455l8.021-9.848l42.274-2.114c0,0,44.23-3.792,44.23-44.229l-0.352-261.832     c0,0-0.06-36.314-43.879-38.748l-16.507-10.286L360.409,95.525z"/>
		</g>
		<circle fill="#ACF1FC" cx="109.315" cy="197.044" r="18.844"/>
		<circle fill="#61CCFB" cx="58.631" cy="145.11" r="27.941"/>
		<circle fill="#61CCFB" cx="129.458" cy="126.67" r="18.048"/>
		<circle fill="#ACF1FC" cx="85.923" cy="56.688" r="39.638"/>
		<g>
			<path fill="#FFFFFF" d="M64.143,69.521c-1.965,0-3.799-1.236-4.47-3.199C52.787,46.176,66.67,33.79,74.974,30.054     c2.373-1.068,5.176-0.01,6.247,2.372c1.066,2.372,0.015,5.161-2.352,6.238c-1.658,0.766-15.952,7.934-10.256,24.602     c0.846,2.47-0.473,5.155-2.942,5.999C65.165,69.438,64.649,69.521,64.143,69.521z"/>
		</g>
		<circle fill="#FFFFFF" cx="73.061" cy="76.601" r="5.755"/>
		<circle fill="#FFFFFF" cx="50.812" cy="156.911" r="4.302"/>
		<circle fill="#FFFFFF" cx="125.56" cy="122.62" r="4.302"/>
		<circle fill="#FFFFFF" cx="105.014" cy="192.742" r="4.302"/>
		<g>
			<path fill="#FFFFFF" d="M45.027,150.062c-1.707,0-3.17-1.288-3.354-3.021c-1.248-11.853,6.844-17.693,11.296-19.125     c1.776-0.572,3.676,0.405,4.247,2.18c0.568,1.767-0.396,3.658-2.156,4.238c-0.801,0.275-7.631,2.898-6.673,12     c0.194,1.854-1.149,3.515-3.004,3.71C45.264,150.056,45.145,150.062,45.027,150.062z"/>
		</g>
		<circle fill="#FF7F6E" cx="263.889" cy="386.336" r="15.27"/>
	</g>
	<g>
		<g>
			<path fill="#51423A" d="M481.303,343.729L481.303,343.729c3.729-0.002,6.751-3.024,6.75-6.752l-0.014-45.979     c-0.001-3.728-3.023-6.747-6.75-6.747c-0.001,0-0.001,0-0.003,0c-3.727,0.001-6.748,3.023-6.747,6.752l0.014,45.977     C474.554,340.708,477.575,343.729,481.303,343.729z"/>
			<path fill="#51423A" d="M488.059,359.454c-0.001-3.728-3.022-6.749-6.75-6.749h-0.001c-3.729,0.001-6.75,3.022-6.749,6.751     l0.002,7.293c0.001,3.728,3.022,6.749,6.75,6.749h0.001c3.729-0.001,6.75-3.022,6.749-6.751L488.059,359.454z"/>
			<path fill="#51423A" d="M481.289,272.935c3.729,0,6.75-3.021,6.75-6.75v-74.698c0-3.728-3.021-6.75-6.75-6.75     s-6.75,3.022-6.75,6.75v74.698C474.539,269.913,477.561,272.935,481.289,272.935z"/>
		</g>
		<g>
			<path fill="#51423A" d="M352.91,258.42h-43.471c-6.648,0-13.119,2.298-18.219,6.472l-9.592,7.85     c-2.693,2.204-6.127,3.418-9.668,3.418h-16.145c-3.541,0-6.974-1.214-9.667-3.418l-9.593-7.85     c-5.1-4.174-11.57-6.472-18.219-6.472h-43.47c-15.658,0-28.396,12.465-28.396,27.787v37.48c0,15.322,12.737,27.789,28.396,27.789     h36.416c7.549,0,14.655-2.866,20.011-8.071l15.029-14.608c2.761-2.684,6.598-4.233,10.529-4.252l7.001-0.036l7.071,0.036     c3.931,0.019,7.767,1.568,10.527,4.252l15.029,14.607c5.355,5.206,12.463,8.072,20.012,8.072h36.416     c15.658,0,28.396-12.467,28.396-27.789v-37.48C381.306,270.885,368.568,258.42,352.91,258.42z M367.806,323.688     c0,7.879-6.683,14.289-14.896,14.289h-36.416c-3.958,0-7.822-1.551-10.602-4.253l-15.031-14.609     c-5.316-5.166-12.373-8.032-19.868-8.069l-7.139-0.036l-7.069,0.036c-7.496,0.037-14.552,2.903-19.868,8.069l-15.032,14.61     c-2.779,2.701-6.644,4.252-10.601,4.252h-36.416c-8.214,0-14.896-6.41-14.896-14.289v-37.48c0-7.879,6.682-14.287,14.896-14.287     h43.47c3.542,0,6.977,1.214,9.669,3.419l9.592,7.849c5.098,4.175,11.568,6.472,18.218,6.472h16.145     c6.65,0,13.121-2.297,18.219-6.472l9.59-7.849c2.695-2.205,6.129-3.419,9.67-3.419h43.471c8.213,0,14.896,6.408,14.896,14.287     V323.688z"/>
			<path fill="#51423A" d="M201.747,289.783c2.819-2.438,3.128-6.701,0.69-9.521c-2.44-2.821-6.702-3.13-9.521-0.691l-22.061,19.078     c-2.82,2.439-3.129,6.701-0.691,9.521c1.336,1.544,3.217,2.335,5.108,2.335c1.565,0,3.137-0.541,4.413-1.645L201.747,289.783z"/>
			<path fill="#51423A" d="M212.905,290.852l-33.011,28.545c-2.819,2.439-3.128,6.701-0.69,9.521     c1.335,1.544,3.217,2.335,5.108,2.335c1.565,0,3.137-0.541,4.413-1.645l33.011-28.545c2.819-2.439,3.128-6.701,0.69-9.521     C219.986,288.721,215.723,288.414,212.905,290.852z"/>
			<path fill="#51423A" d="M338.333,289.783c2.819-2.438,3.128-6.701,0.69-9.521c-2.441-2.821-6.703-3.13-9.521-0.691     l-22.063,19.078c-2.82,2.439-3.129,6.701-0.69,9.521c1.335,1.544,3.217,2.335,5.108,2.335c1.564,0,3.137-0.541,4.412-1.645     L338.333,289.783z"/>
			<path fill="#51423A" d="M349.49,290.852l-33.011,28.545c-2.819,2.439-3.128,6.701-0.69,9.521     c1.335,1.544,3.217,2.335,5.108,2.335c1.565,0,3.137-0.541,4.412-1.645l33.011-28.545c2.82-2.439,3.129-6.701,0.691-9.521     C356.569,288.721,352.308,288.414,349.49,290.852z"/>
			<path fill="#51423A" d="M263.889,364.317c-12.142,0-22.02,9.877-22.02,22.019c0,12.143,9.878,22.02,22.02,22.02     c12.143,0,22.02-9.877,22.02-22.02C285.908,374.194,276.031,364.317,263.889,364.317z M263.889,394.855     c-4.697,0-8.52-3.822-8.52-8.52s3.822-8.519,8.52-8.519s8.52,3.821,8.52,8.519S268.586,394.855,263.889,394.855z"/>
			<path fill="#51423A" d="M373.182,69.85c-13.859,0-25.135,11.276-25.135,25.136c0,13.858,11.275,25.135,25.135,25.135     c20.666,0,37.48,16.813,37.48,37.479v52.188v61.202v6.129h-6.02v-1.032c0-19.274-11.797-35.328-27.266-38.543     c-9.012-32.24-38.633-55.966-73.709-55.966h-80.555c-34.904,0-64.343,23.8-72.973,56.021     c-15.34,3.341-27.005,19.322-27.005,38.488v1.032h-8.502c-9.034,0-16.384,7.349-16.384,16.382v22.879     c0,9.033,7.35,16.384,16.384,16.384h8.502v1.032c0,18.717,11.058,34.082,26.541,38.141c6.764,24.354,29.119,42.285,55.597,42.285     l9.416-0.008c9.787-0.058,14.609,0.123,17.875,4.566c7.886,10.726,18.094,16.164,30.341,16.164     c14.826,0,24.927-8.952,32.077-16.761l0.785-0.859c3.033-3.313,7.22-3.374,14.992-3.176c1.509,0.037,3.049,0.073,4.612,0.073     h7.623c26.298,0,48.495-17.84,55.159-42.05c15.086-3.582,26.488-19.425,26.488-38.376v-1.032h6.02v13.01v68.176     c0,20.667-16.814,37.479-37.48,37.479h-5.27v-5.685h8.372c8.651,0,15.688-7.702,15.688-17.168c0-3.728-3.021-6.75-6.75-6.75     s-6.75,3.022-6.75,6.75c0,2.239-1.295,3.668-2.188,3.668h-30.245c-0.893,0-2.189-1.429-2.189-3.668c0-3.728-3.021-6.75-6.75-6.75     c-3.728,0-6.75,3.022-6.75,6.75c0,9.466,7.038,17.168,15.689,17.168h8.373v5.685h-14.947c-13.859,0-25.135,11.276-25.135,25.135     c0,13.859,11.275,25.136,25.135,25.136h33.717c48.385,0,87.75-39.365,87.75-87.75v-68.176v-61.202V270.99v-61.202V157.6     C460.932,109.215,421.566,69.85,373.182,69.85z M123.136,319.264h-8.502c-1.563,0-2.884-1.321-2.884-2.884v-22.879     c0-1.562,1.321-2.882,2.884-2.882h8.502V319.264z M223.113,195.078h80.555c27.335,0,50.653,17.492,59.373,41.868h-44.002     c-13.234,0-23.248,2.611-30.614,7.982l-0.368,0.27c-16.289,11.885-24.74,17.105-38.656,5.957     c-11.273-9.03-26.096-14.209-40.666-14.209h-44.28C172.849,212.613,195.965,195.078,223.113,195.078z M322.995,400.722h-7.623     c-1.451,0-2.881-0.035-4.28-0.069c-8.417-0.21-17.958-0.441-25.281,7.556l-0.793,0.869c-8.045,8.783-14.451,12.367-22.112,12.367     c-7.931,0-14.116-3.389-19.464-10.662c-6.938-9.438-16.768-10.076-26.524-10.076c-0.766,0-1.533,0.004-2.296,0.008l-9.348,0.008     c-18.291,0-34.023-11.167-40.737-27.042c1.655,0.161,3.327,0.327,5.042,0.5c8.593,0.866,17.617,1.775,26.554,1.775     c14.811,0,29.383-2.498,41.356-11.836c3.287-2.563,6.159-5.854,8.937-9.036c6.452-7.396,10.849-11.886,17.464-11.886     c5.992,0,8.437,2.644,13.395,8.62c7.653,9.228,18.136,21.865,50.304,22.344c0.091,0,0.112,0,36.016-0.998     C357.162,389.291,341.394,400.722,322.995,400.722z M391.143,277.119v13.5v28.645v13.5v1.032     c0,10.104-4.471,18.836-10.932,23.011c-2.58,1.667-5.469,2.63-8.53,2.63l-0.188,0.003c0,0-1.886,0.052-4.864,0.135     c-10.978,0.305-36.918,1.025-39.083,1.086c-25.732-0.415-32.921-9.081-39.871-17.461c-5.25-6.329-11.199-13.502-23.786-13.502     c-13.23,0.001-21.219,9.154-27.637,16.51c-2.468,2.827-4.799,5.499-7.064,7.267c-14.932,11.644-36.958,9.425-58.255,7.273     c-3.208-0.323-6.486-0.649-9.729-0.93c-1.562-0.134-3.116-0.261-4.646-0.365c-3.28-0.224-6.314-1.324-8.989-3.08     c-6.587-4.321-10.932-12.724-10.932-22.576v-1.032v-13.5v-28.645v-13.5v-1.032c0-10.164,4.523-18.94,11.049-23.086     c2.55-1.62,5.397-2.555,8.413-2.555h5.335h47.302c11.558,0,23.303,4.099,32.226,11.246c22.59,18.093,39.837,5.512,55.052-5.588     l0.368-0.268c4.904-3.576,12.528-5.391,22.659-5.391h47.188h5.454c2.985,0,5.805,0.916,8.336,2.506     c6.566,4.124,11.126,12.93,11.126,23.135V277.119z M354.412,488.199h-14.947c-6.416,0-11.635-5.219-11.635-11.636     c0-6.415,5.219-11.635,11.635-11.635h14.947V488.199z M404.643,319.264v-28.645h6.02v28.645H404.643z M447.432,413.949     c0,40.941-33.309,74.25-74.25,74.25h-5.27v-23.271h5.27c28.11,0,50.98-22.869,50.98-50.979v-68.176h23.27V413.949z      M447.432,332.273h-23.27v-3.804v-43.898h2.699h20.57V332.273z M447.432,270.99h-23.27v-47.702h23.27V270.99z M447.432,209.788     h-23.27V157.6c0-28.11-22.87-50.979-50.98-50.979c-6.416,0-11.635-5.22-11.635-11.635c0-6.416,5.219-11.636,11.635-11.636     c40.941,0,74.25,33.309,74.25,74.25V209.788z"/>
		</g>
		<g>
			<path fill="#51423A" d="M109.315,171.45c-14.113,0-25.595,11.481-25.595,25.594s11.481,25.595,25.595,25.595     c14.112,0,25.593-11.482,25.593-25.595S123.428,171.45,109.315,171.45z M109.315,209.139c-6.67,0-12.095-5.426-12.095-12.095     s5.425-12.094,12.095-12.094c6.668,0,12.093,5.425,12.093,12.094S115.983,209.139,109.315,209.139z"/>
			<path fill="#51423A" d="M58.631,110.419c-19.129,0-34.691,15.563-34.691,34.691c0,19.13,15.563,34.691,34.691,34.691     s34.691-15.562,34.691-34.691C93.322,125.981,77.76,110.419,58.631,110.419z M58.631,166.302     c-11.685,0-21.191-9.506-21.191-21.191c0-11.685,9.507-21.191,21.191-21.191s21.191,9.507,21.191,21.191     C79.822,156.796,70.315,166.302,58.631,166.302z"/>
			<path fill="#51423A" d="M129.459,101.871c-13.675,0-24.799,11.124-24.799,24.799c0,13.674,11.124,24.798,24.799,24.798     c13.674,0,24.798-11.124,24.798-24.798C154.257,112.995,143.133,101.871,129.459,101.871z M129.459,137.968     c-6.23,0-11.299-5.067-11.299-11.298s5.068-11.299,11.299-11.299s11.298,5.068,11.298,11.299S135.689,137.968,129.459,137.968z"/>
			<path fill="#51423A" d="M85.922,103.076c25.579,0,46.389-20.809,46.389-46.388s-20.81-46.388-46.389-46.388     c-25.578,0-46.388,20.809-46.388,46.388S60.344,103.076,85.922,103.076z M85.922,23.801c18.135,0,32.889,14.754,32.889,32.888     s-14.754,32.888-32.889,32.888c-18.134,0-32.888-14.754-32.888-32.888S67.788,23.801,85.922,23.801z"/>
		</g>
	</g>
</g>
</svg>
