<svg id="Capa_1" enable-background="new 0 0 512 512" height="512" viewBox="0 0 512 512" width="512" xmlns="http://www.w3.org/2000/svg"><g><path d="m144 128.386-81.094 10.292-20.604-10.292 3.351-10.043c11.349-34.04 52.863-37.15 57.8-35.72 17.211 4.985 31.326 18.128 37.196 35.72z" fill="#efefef"/><path d="m103.453 82.624c-4.937-1.43-10.128-2.189-15.453-2.189-23.888 0-45.095 15.27-52.649 37.909l-3.351 10.042 15.453 10.292 15.453-10.292 3.351-10.043c5.87-17.592 19.985-30.735 37.196-35.719z" fill="#ddd"/><path d="m154.302 208.798-112-6.185v-63.936l20.604-10.291h81.094l16.108 28.414z" fill="#ffbc42"/><path d="m32 128.386-21.698 70.562 37.151 3.665 15.453-10.291v-63.936z" fill="#ff9e43"/><g><g><path d="m104 200.041c-4.267 0-7.726-3.455-7.726-7.719v-31.968c0-4.263 3.459-7.719 7.726-7.719s7.726 3.455 7.726 7.719v31.968c0 4.263-3.459 7.719-7.726 7.719z" fill="#c0873a"/></g><g><path d="m72 200.041c-4.267 0-7.726-3.455-7.726-7.719v-31.968c0-4.263 3.459-7.719 7.726-7.719s7.726 3.455 7.726 7.719v31.968c0 4.263-3.459 7.719-7.726 7.719z" fill="#c0873a"/></g></g><path d="m480 128.386-81.094 10.292-20.604-10.292 3.351-10.043c7.554-22.639 27.682-33.748 42.347-35.851 5.325 0 10.516-1.3 15.453.13 17.211 4.985 31.326 18.128 37.196 35.721z" fill="#efefef"/><path d="m439.453 82.624c-4.937-1.43-10.128-2.189-15.453-2.189-23.888 0-45.095 15.27-52.649 37.909l-3.351 10.042 15.453 10.292 15.453-10.292 3.351-10.043c5.87-17.592 19.985-30.735 37.196-35.719z" fill="#ddd"/><path d="m488.273 206.908-109.971-4.295v-63.936l20.604-10.291h81.094l16.291 30.104z" fill="#ffbc42"/><path d="m368 128.386-10.302 24.249-7.8 56.163 49.008-6.185v-74.227z" fill="#ff9e43"/><g><g><path d="m440 200.041c-4.267 0-7.726-3.455-7.726-7.719v-31.968c0-4.263 3.459-7.719 7.726-7.719s7.726 3.455 7.726 7.719v31.968c0 4.263-3.459 7.719-7.726 7.719z" fill="#c0873a"/></g><g><path d="m408 200.041c-4.267 0-7.726-3.455-7.726-7.719v-31.968c0-4.263 3.459-7.719 7.726-7.719s7.726 3.455 7.726 7.719v31.968c.001 4.263-3.459 7.719-7.726 7.719z" fill="#c0873a"/></g></g><g><path d="m496 79.373c-4.267 0-7.726-3.455-7.726-7.719v-63.935c-.001-4.264 3.459-7.719 7.726-7.719s7.726 3.455 7.726 7.719v63.936c0 4.263-3.459 7.718-7.726 7.718z" fill="#efefef"/></g><path d="m512 192.322-16 20.583-16-20.583v-120.668c0-3.979 3.229-7.204 7.211-7.204h17.577c3.983 0 7.211 3.225 7.211 7.204v120.668z" fill="#ff9e43"/><path d="m368 96.418-193.094 20.583-20.604-20.583 9.6-12.787c24.173-32.199 59.218-46.306 91.24-49.585 0 0 10.894-1.267 15.834-.686 34.582 4.067 66.272 22.097 87.424 50.271z" fill="#efefef"/><path d="m271.453 33.417c-5.095-.619-10.255-.935-15.453-.935-40.289 0-78.227 18.95-102.4 51.148l-9.6 12.788 15.453 10.292 15.453-10.292 9.6-12.787c21.054-28.044 52.55-46.037 86.947-50.214z" fill="#ddd"/><path d="m368 192.322-213.698 10.291v-95.903l20.604-10.292h193.094z" fill="#ffbc42"/><path d="m144 96.418v95.904l15.453 10.291 15.453-10.291v-95.904z" fill="#ff9e43"/><g><path d="m192 200.041c-4.267 0-7.726-3.455-7.726-7.719v-31.968c0-4.263 3.459-7.719 7.726-7.719s7.726 3.455 7.726 7.719v31.968c0 4.263-3.459 7.719-7.726 7.719z" fill="#c0873a"/></g><g><path d="m224 200.041c-4.267 0-7.726-3.455-7.726-7.719v-31.968c0-4.263 3.459-7.719 7.726-7.719s7.726 3.455 7.726 7.719v31.968c.001 4.263-3.459 7.719-7.726 7.719z" fill="#c0873a"/></g><g><path d="m256 200.041c-4.267 0-7.726-3.455-7.726-7.719v-31.968c0-4.263 3.459-7.719 7.726-7.719s7.726 3.455 7.726 7.719v31.968c0 4.263-3.459 7.719-7.726 7.719z" fill="#c0873a"/></g><g><path d="m288 200.041c-4.267 0-7.726-3.455-7.726-7.719v-31.968c0-4.263 3.459-7.719 7.726-7.719s7.726 3.455 7.726 7.719v31.968c0 4.263-3.459 7.719-7.726 7.719z" fill="#c0873a"/></g><g><path d="m320 200.041c-4.267 0-7.726-3.455-7.726-7.719v-31.968c0-4.263 3.459-7.719 7.726-7.719s7.726 3.455 7.726 7.719v31.968c0 4.263-3.459 7.719-7.726 7.719z" fill="#c0873a"/></g><g><path d="m16 79.373c-4.267 0-7.726-3.455-7.726-7.719v-63.935c0-4.264 3.459-7.719 7.726-7.719s7.726 3.455 7.726 7.719v63.936c.001 4.263-3.459 7.718-7.726 7.718z" fill="#efefef"/></g><path d="m32 192.322-16 10.292-16-10.292v-120.668c0-3.979 3.229-7.204 7.211-7.204h17.577c3.983 0 7.211 3.225 7.211 7.204v120.668z" fill="#ff9e43"/><path d="m512 384.129-501.698 20.583v-191.807l21.698-20.583h480z" fill="#ffdc78"/><path d="m0 192.322v191.807l16 10.291 16-10.291v-191.807z" fill="#ffbc42"/><g fill="#c0873a"><path d="m96 384.129-16 10.291-16-10.292v-56.732c0-3.979 3.229-7.204 7.211-7.204h17.577c3.983 0 7.211 3.225 7.211 7.204v56.733z"/><path d="m88.792 288.225h-17.584c-3.981 0-7.208-3.227-7.208-7.208v-49.52c0-3.981 3.227-7.208 7.208-7.208h17.585c3.981 0 7.208 3.227 7.208 7.208v49.52c-.001 3.981-3.228 7.208-7.209 7.208z"/><path d="m448 384.129h-32v-56.728c0-3.981 3.227-7.208 7.208-7.208h17.585c3.981 0 7.208 3.227 7.208 7.208v56.728z"/><path d="m440.792 288.225h-17.585c-3.981 0-7.208-3.227-7.208-7.208v-49.52c0-3.981 3.227-7.208 7.208-7.208h17.585c3.981 0 7.208 3.227 7.208 7.208v49.52c0 3.981-3.227 7.208-7.208 7.208z"/></g><path d="m128 512h-32l-16.274-10.292-15.726 10.292h-32l-21.698-63.936 21.698-63.935h96l20.604 63.935z" fill="#ffbc42"/><path d="m0 384.129v120.667c0 3.979 3.229 7.204 7.211 7.204h24.789v-127.871z" fill="#ff9e43"/><path d="m504.789 512h-56.789l-16-10.292-16.273 10.292-21.425-63.936 21.698-63.935h96v120.667c0 3.979-3.229 7.204-7.211 7.204z" fill="#ffbc42"/><path d="m384 384.129-20.604 63.935 20.604 63.936h31.727v-127.871z" fill="#ff9e43"/><path d="m96 512h-32v-56.728c0-3.981 3.227-7.208 7.208-7.208h17.585c3.981 0 7.208 3.227 7.208 7.208v56.728z" fill="#c0873a"/><path d="m448 512h-32v-56.728c0-3.981 3.227-7.208 7.208-7.208h17.585c3.981 0 7.208 3.227 7.208 7.208v56.728z" fill="#c0873a"/><path d="m336 288.225-74.849 10.292-54.245-10.292h-20.604l10.489-20.998c13.143-26.312 38.838-38.026 59.181-40.88 5.253 0 10.425-1.529 15.453-.509 23.09 4.682 43.138 19.7 53.955 41.239z" fill="#efefef"/><path d="m271.425 225.839c-5.028-1.019-10.2-1.549-15.453-1.549-29.435 0-56.34 16.626-69.483 42.938l-10.489 20.997 16 10.292 14.906-10.292 10.489-20.998c10.797-21.616 30.883-36.695 54.03-41.388z" fill="#ddd"/><path d="m336 352.161-149.698 10.291v-63.935l20.604-10.292h129.094z" fill="#ffbc42"/><path d="m176 288.225v63.936l30.906 10.291v-74.227z" fill="#ff9e43"/><g><path d="m224 359.879c-4.267 0-7.726-3.455-7.726-7.719v-31.968c0-4.263 3.459-7.719 7.726-7.719s7.726 3.455 7.726 7.719v31.968c.001 4.264-3.459 7.719-7.726 7.719z" fill="#c0873a"/></g><g><path d="m288 359.879c-4.267 0-7.726-3.455-7.726-7.719v-31.968c0-4.263 3.459-7.719 7.726-7.719s7.726 3.455 7.726 7.719v31.968c0 4.264-3.459 7.719-7.726 7.719z" fill="#c0873a"/></g><g><path d="m256 359.879c-4.267 0-7.726-3.455-7.726-7.719v-31.968c0-4.263 3.459-7.719 7.726-7.719s7.726 3.455 7.726 7.719v31.968c0 4.264-3.459 7.719-7.726 7.719z" fill="#c0873a"/></g><path d="m384 512h-64l-16-10.292-16 10.292h-64l-17.094-10.292-14.906 10.292h-33.094l-20.604-79.92 20.604-79.92h217.883c3.983 0 7.211 3.225 7.211 7.204z" fill="#ffbc42"/><path d="m128 359.365v152.635h30.906v-159.839h-23.694c-3.983 0-7.212 3.225-7.212 7.204z" fill="#ff9e43"/><path d="m224 512h-32v-56.728c0-3.981 3.227-7.208 7.208-7.208h17.585c3.981 0 7.208 3.227 7.208 7.208v56.728z" fill="#c0873a"/><path d="m216.792 416.096h-17.585c-3.981 0-7.208-3.227-7.208-7.208v-17.552c0-3.981 3.227-7.208 7.208-7.208h17.585c3.981 0 7.208 3.227 7.208 7.208v17.552c0 3.981-3.227 7.208-7.208 7.208z" fill="#c0873a"/><path d="m320 512h-32v-56.728c0-3.981 3.227-7.208 7.208-7.208h17.585c3.981 0 7.208 3.227 7.208 7.208v56.728z" fill="#c0873a"/><path d="m312.792 416.096h-17.585c-3.981 0-7.208-3.227-7.208-7.208v-17.552c0-3.981 3.227-7.208 7.208-7.208h17.585c3.981 0 7.208 3.227 7.208 7.208v17.552c0 3.981-3.227 7.208-7.208 7.208z" fill="#c0873a"/></g></svg>