<?xml version="1.0" standalone="no"?>
<svg xmlns="http://www.w3.org/2000/svg" version="1.1" xmlns:xlink="http://www.w3.org/1999/xlink" width="512" height="512" x="0" y="0" viewBox="0 0 500 500" style="enable-background:new 0 0 512 512" xml:space="preserve" class=""><g><g fill-rule="evenodd" clip-rule="evenodd"><path fill="#2193b0" d="M178.51 320.82c-77.53-.29-140.3-63.22-140.3-140.82 0-77.78 63.05-140.83 140.83-140.83 67.67 0 124.18 47.73 137.73 111.36l-38.46 8.26c-4.71 1.01-8.37 3.68-10.78 7.85z" opacity="1" data-original="#fcb13c" class=""/><path fill="#ed2224" d="m278.3 158.79 112.29-24.11a32.761 32.761 0 0 1 38.29 22.46L462 264.87c1.39 4.52.89 8.94-1.48 13.04L340.79 485.3c-4.52 7.83-14.6 10.53-22.43 6.01l-164.49-94.97c-7.83-4.52-10.53-14.6-6.01-22.43l119.67-207.28c2.41-4.17 6.07-6.83 10.77-7.84z" opacity="1" data-original="#ed2224" class=""/><path fill="#2193b0" d="m198.432 383.68 21.205-36.726 108.597 62.7-21.205 36.727z" opacity="1" data-original="#fcb13c" class=""/><path fill="#e6e6e5" d="M380.89 193.07c13.7 7.91 18.39 25.43 10.48 39.12-7.91 13.7-25.43 18.39-39.12 10.48-13.7-7.91-18.39-25.43-10.48-39.12 7.9-13.69 25.42-18.39 39.12-10.48z" opacity="1" data-original="#e6e6e5" class=""/><path fill="#ffffff" d="M167.63 327.35C90.73 321.47 31.22 257.18 31.22 180c0-81.64 66.19-147.83 147.83-147.83 67.39 0 126.48 45.78 143.2 111.06l23.93-5.14c-3.96-33.1-1.86-70.3 8.6-101.86C362.09 14.16 373.13.5 386.15.5s24.06 13.65 31.37 35.73c10.65 32.15 12.13 70.49 9.5 104.65-.01.19-.04.38-.07.57a39.01 39.01 0 0 1 7.67 13.93l33.12 107.73c.94 3.07 1.24 6.11.91 9.09-.34 3.01-1.32 5.92-2.92 8.7L345.98 488.3c-.07.13-.15.25-.23.37a22.37 22.37 0 0 1-13.37 10.06c-5.53 1.48-11.63.85-16.98-2.24l-.02-.01-.01.01-164.49-94.97c-.13-.07-.25-.15-.37-.23a22.37 22.37 0 0 1-10.06-13.37 22.292 22.292 0 0 1 2.2-16.92c8.32-14.53 16.64-29.08 24.98-43.65zm192.26-192.2 29.48-6.33a38.66 38.66 0 0 1 24.24 2.62c1.54-29.48-.07-62.71-9.39-90.83-5.34-16.13-11.79-26.1-18.08-26.1s-12.74 9.97-18.08 26.1c-9.59 28.95-11.69 64.08-8.17 94.54zm28.63 88.39c-9.83-.39-17.51-6.8-23.5-16.59-1.96-3.2-3.74-6.78-5.35-10.64-11.5 3.68-18.09 15.75-14.96 27.43 3.24 12.1 15.66 19.25 27.74 16.01a22.71 22.71 0 0 0 16.07-16.21zm-32.94-38.5a179.78 179.78 0 0 1-2.95-10.57c-2.03-8.14-3.61-16.56-4.82-24.48l-68.24 14.65c-1.54.33-2.87.9-3.98 1.71s-2.07 1.9-2.86 3.28l-.01-.01-119.67 207.27c-1.43 2.48-1.72 5.33-1.02 7.94.67 2.51 2.25 4.76 4.58 6.19l.27.15 164.49 94.97-.01.01c2.48 1.42 5.32 1.7 7.92 1.01 2.51-.67 4.76-2.25 6.19-4.58l.15-.27 119.74-207.4c.76-1.32 1.22-2.66 1.37-4.02.16-1.38.01-2.81-.44-4.26L423.18 158.9c-2.06-6.69-6.47-12.02-12.07-15.3s-12.4-4.53-19.26-3.06l-30.38 6.52c1.17 7.75 2.71 16.05 4.71 24.08 1.05 4.22 2.22 8.34 3.53 12.24 14.37 1.3 26.55 11.46 30.32 25.54 4.94 18.45-6.05 37.47-24.49 42.41-18.47 4.95-37.47-6.03-42.41-24.49-4.74-17.67 5.15-36.01 22.45-41.8zm19.84 11.97c.49.92 1 1.81 1.52 2.66 3.17 5.19 6.72 8.78 10.63 9.67-2.28-5.62-6.62-9.98-12.15-12.33zm-152.29 143.9a6.97 6.97 0 0 0-9.52 2.57l-21.2 36.73a6.97 6.97 0 0 0 2.57 9.52l108.21 62.48c.12.08.24.15.36.22 3.34 1.93 7.61.79 9.54-2.54l21.2-36.73-.01-.01.01-.02a6.97 6.97 0 0 0-2.57-9.52zm95.6 71.28-96.51-55.72-14.23 24.66 96.51 55.72zm-50.35-149.65 19.14 11.05c2.86 1.66 6.52.68 8.18-2.18s.68-6.52-2.18-8.18l-19.14-11.05c-2.86-1.66-6.52-.68-8.18 2.18-1.65 2.86-.68 6.53 2.18 8.18zm38.18 22.03L377 325.24c2.86 1.64 6.51.66 8.16-2.2 1.64-2.86.66-6.51-2.2-8.16l-70.45-40.67a5.983 5.983 0 0 0-8.16 2.2 5.981 5.981 0 0 0 2.21 8.16zm-65.55 25.38 72.04 41.59c2.86 1.66 6.52.68 8.18-2.18s.68-6.52-2.18-8.18l-72.04-41.59c-2.86-1.66-6.52-.68-8.18 2.18a5.994 5.994 0 0 0 2.18 8.18zm92.93 53.65 15.67 9.05c2.86 1.66 6.52.68 8.18-2.18s.68-6.52-2.18-8.18l-15.67-9.05c-2.86-1.66-6.52-.68-8.18 2.18s-.68 6.53 2.18 8.18zm-79.22-77.35 108.6 62.7c2.86 1.64 6.51.66 8.16-2.2 1.64-2.86.66-6.51-2.2-8.16l-108.6-62.7c-2.86-1.64-6.51-.66-8.16 2.2s-.66 6.51 2.2 8.16zm53.85-140.08c-15.34-58.93-68.63-100-129.52-100-73.91 0-133.83 59.92-133.83 133.83 0 72.47 57.71 131.86 130.17 133.8 2.67-4.66 5.34-9.32 8.01-13.97-1.52.06-2.97.09-4.34.09-66.23 0-119.91-53.69-119.91-119.91 0-66.23 53.69-119.92 119.91-119.92 54.29 0 101.91 36.55 115.86 89.02zm-31.49 6.76 4.17-.9c-12.56-46.02-54.5-77.95-102.2-77.95-58.5 0-105.91 47.42-105.91 105.91S120.56 285.9 179.05 285.9c2.24 0 4.28-.05 6.11-.16 1.95-.11 3.97-.29 6.08-.53.19-.02.37-.03.55-.04 5.82-10.14 70.57-121.55 70.57-121.55 3.24-5.59 8.4-9.34 14.72-10.69zm-91.03 96.31a38.362 38.362 0 0 0 20.18-10.62c6.96-6.96 11.26-16.57 11.26-27.18 0-29.48-18.41-33.86-36.83-38.25-13.03-3.1-26.05-6.2-26.05-24.63 0-6.75 2.74-12.86 7.16-17.28s10.53-7.16 17.28-7.16 12.86 2.74 17.28 7.16 7.16 10.53 7.16 17.28c0 3.87 3.13 7 7 7s7-3.13 7-7c0-10.61-4.3-20.22-11.26-27.18-5.39-5.39-12.37-9.19-20.18-10.62V96.19c0-3.87-3.13-7-7-7s-7 3.13-7 7v14.56a38.362 38.362 0 0 0-20.18 10.62c-6.96 6.96-11.26 16.57-11.26 27.18 0 29.48 18.41 33.86 36.83 38.25 13.03 3.1 26.05 6.2 26.05 24.63 0 6.75-2.74 12.86-7.16 17.28s-10.53 7.16-17.28 7.16-12.86-2.74-17.28-7.16-7.16-10.53-7.16-17.28c0-3.87-3.13-7-7-7s-7 3.13-7 7c0 10.61 4.3 20.22 11.26 27.18 5.39 5.39 12.37 9.19 20.18 10.62v14.56c0 3.87 3.13 7 7 7s7-3.13 7-7z" opacity="1" data-original="#010101" class=""/></g></g></svg>