<svg version="1.1" id="Capa_1" xmlns="http://www.w3.org/2000/svg" xmlns:xlink="http://www.w3.org/1999/xlink" x="0px" y="0px" viewBox="0 0 512 512" style="enable-background:new 0 0 512 512;" xml:space="preserve">
<g>
	<g>
		<path style="fill:#E2DEE2;" d="M231.094,176.175l0.219,1.182c0.373,2.017,0.562,4.055,0.562,6.059v235.27&#10;&#9;&#9;&#9;c0,8.299-3.068,15.89-8.119,21.717H489.5c8.284,0,15-6.716,15-15V177.175l-7.814-1H231.094z"/>
		<path style="fill:#CBC4CC;" d="M467.094,177.175v97.722h2.468c2.761,0,5,2.239,5,5v125.567c0,2.761-2.239,5-5,5H231.874v8.221&#10;&#9;&#9;&#9;c0,8.299-3.068,15.89-8.119,21.717H489.5c8.284,0,15-6.716,15-15V177.175H467.094z"/>
		<path style="fill:#FD6930;" d="M489.5,107.323H177.406v42.89h21.267c16.174,0,29.676,11.628,32.605,26.962H504.5v-54.852&#10;&#9;&#9;&#9;C504.5,114.039,497.784,107.323,489.5,107.323z"/>
		<path style="fill:#FD5426;" d="M489.5,107.323h-22.406v30.529c0,5.523-4.477,10-10,10H177.406v2.361h21.267&#10;&#9;&#9;&#9;c16.174,0,29.676,11.628,32.605,26.962H504.5v-54.852C504.5,114.039,497.784,107.323,489.5,107.323z"/>
		<path style="fill:#FFFFFF;" d="M469.562,274.897H231.874v135.567h237.688c2.761,0,5-2.239,5-5V279.897&#10;&#9;&#9;&#9;C474.562,277.135,472.323,274.897,469.562,274.897z"/>
		<path style="fill:#F3F0F3;" d="M469.562,274.897H452V383c0,2.761-2.239,5-5,5H231.874v22.464h237.688c2.761,0,5-2.239,5-5V279.897&#10;&#9;&#9;&#9;C474.562,277.135,472.323,274.897,469.562,274.897z"/>
		<path style="fill:#7A6D79;" d="M41.702,451.887c-1.906,0-3.772-0.17-5.591-0.48c-2.504,3.822-3.964,8.389-3.964,13.3&#10;&#9;&#9;&#9;c0,13.427,10.885,24.313,24.313,24.313c13.427,0,24.312-10.885,24.312-24.313c0-4.706-1.341-9.097-3.656-12.82H41.702z"/>
		<path style="fill:#685E68;" d="M64.912,451.887c0.158,1.121,0.257,2.261,0.257,3.426c0,13.427-10.885,24.312-24.313,24.312&#10;&#9;&#9;&#9;c-1.302,0-2.578-0.105-3.825-0.302c4.437,5.888,11.487,9.696,19.427,9.696c13.427,0,24.312-10.885,24.312-24.313&#10;&#9;&#9;&#9;c0-4.709-1.352-9.096-3.67-12.82H64.912z"/>
		<path style="fill:#7A6D79;" d="M198.673,451.887h-35.414c-2.315,3.722-3.656,8.114-3.656,12.82&#10;&#9;&#9;&#9;c0,13.427,10.885,24.313,24.313,24.313s24.312-10.885,24.312-24.313c0-4.91-1.461-9.477-3.964-13.3&#10;&#9;&#9;&#9;C202.445,451.716,200.579,451.887,198.673,451.887z"/>
		<path style="fill:#685E68;" d="M198.673,451.887h-6.305c0.158,1.121,0.257,2.261,0.257,3.426&#10;&#9;&#9;&#9;c0,13.427-10.885,24.312-24.313,24.312c-1.302,0-2.578-0.105-3.825-0.302c4.437,5.888,11.487,9.696,19.427,9.696&#10;&#9;&#9;&#9;c13.427,0,24.312-10.885,24.312-24.313c0-4.914-1.476-9.473-3.983-13.296C202.432,451.718,200.572,451.887,198.673,451.887z"/>
		<path style="fill:#B5ADB6;" d="M187.548,22.981H52.826c-2.756,0-4.99,2.234-4.99,4.99v21.955c0,2.756,2.234,4.99,4.99,4.99&#10;&#9;&#9;&#9;h134.722c2.756,0,4.99-2.234,4.99-4.99V27.971C192.538,25.215,190.304,22.981,187.548,22.981z"/>
		<path style="fill:#A79BA7;" d="M187.548,22.981h-23.033v12.371c0,2.756-2.234,4.99-4.99,4.99H47.836v9.584&#10;&#9;&#9;&#9;c0,2.756,2.234,4.99,4.99,4.99h134.722c2.756,0,4.99-2.234,4.99-4.99V27.971C192.538,25.215,190.304,22.981,187.548,22.981z"/>
		<path style="fill:#FFE177;" d="M7.5,418.685v-235.27c0-18.889,15.313-34.202,34.202-34.202h156.971&#10;&#9;&#9;&#9;c18.889,0,34.202,15.313,34.202,34.202v235.27c0,18.889-15.313,34.202-34.202,34.202H41.702&#10;&#9;&#9;&#9;C22.813,452.887,7.5,437.574,7.5,418.685z"/>
		<path style="fill:#FFD15B;" d="M203.275,149.53v259.051c0,8.267-6.702,14.969-14.969,14.969H7.851&#10;&#9;&#9;&#9;c2.363,16.583,16.615,29.336,33.851,29.336h156.971c18.889,0,34.202-15.313,34.202-34.202v-235.27&#10;&#9;&#9;&#9;C232.874,166.088,219.986,151.779,203.275,149.53z"/>
		<g>
			<path style="fill:#E2DEE2;" d="M248.953,125h-15c-2.761,0-5-2.239-5-5V84c0-2.761,2.239-5,5-5h15c2.761,0,5,2.239,5,5v36&#10;&#9;&#9;&#9;&#9;C253.953,122.761,251.714,125,248.953,125z"/>
			<path style="fill:#E2DEE2;" d="M447.953,125h-15c-2.761,0-5-2.239-5-5V84c0-2.761,2.239-5,5-5h15c2.761,0,5,2.239,5,5v36&#10;&#9;&#9;&#9;&#9;C452.953,122.761,450.714,125,447.953,125z"/>
			<path style="fill:#CBC4CC;" d="M447.953,79H440v29c0,2.761-2.239,5-5,5h-7.047v7c0,2.761,2.239,5,5,5h15c2.761,0,5-2.239,5-5V84&#10;&#9;&#9;&#9;&#9;C452.953,81.239,450.714,79,447.953,79z"/>
			<path style="fill:#CBC4CC;" d="M248.953,79H241v29c0,2.761-2.239,5-5,5h-7.047v7c0,2.761,2.239,5,5,5h15c2.761,0,5-2.239,5-5V84&#10;&#9;&#9;&#9;&#9;C253.953,81.239,251.714,79,248.953,79z"/>
		</g>
	</g>
	<g>
		
			<polyline style="fill:none;stroke:#000000;stroke-width:15;stroke-linecap:round;stroke-linejoin:round;stroke-miterlimit:10;" points="&#10;&#9;&#9;&#9;288.948,224.735 304.507,241.177 326.153,213.104 &#9;&#9;"/>
		
			<polyline style="fill:none;stroke:#000000;stroke-width:15;stroke-linecap:round;stroke-linejoin:round;stroke-miterlimit:10;" points="&#10;&#9;&#9;&#9;355.753,224.735 371.311,241.177 392.958,213.104 &#9;&#9;"/>
		
			<polyline style="fill:none;stroke:#000000;stroke-width:15;stroke-linecap:round;stroke-linejoin:round;stroke-miterlimit:10;" points="&#10;&#9;&#9;&#9;422.557,224.735 438.116,241.177 459.762,213.104 &#9;&#9;"/>
		<path style="fill:none;stroke:#000000;stroke-width:15;stroke-linejoin:round;stroke-miterlimit:10;" d="M35.554,452.325&#10;&#9;&#9;&#9;c-2.155,3.628-3.408,7.855-3.408,12.382c0,13.427,10.885,24.313,24.313,24.313c13.427,0,24.312-10.885,24.312-24.313&#10;&#9;&#9;&#9;c0-4.294-1.126-8.319-3.08-11.82"/>
		<path style="fill:none;stroke:#000000;stroke-width:15;stroke-linejoin:round;stroke-miterlimit:10;" d="M162.683,452.887&#10;&#9;&#9;&#9;c-1.954,3.5-3.08,7.526-3.08,11.82c0,13.427,10.885,24.313,24.313,24.313s24.312-10.885,24.312-24.313&#10;&#9;&#9;&#9;c0-4.526-1.253-8.753-3.408-12.382"/>
		
			<rect x="62.969" y="54.915" style="fill:none;stroke:#000000;stroke-width:15;stroke-linecap:round;stroke-linejoin:round;stroke-miterlimit:10;" width="114.437" height="94.298"/>
		<path style="fill:none;stroke:#000000;stroke-width:15;stroke-linecap:round;stroke-linejoin:round;stroke-miterlimit:10;" d="&#10;&#9;&#9;&#9;M151.123,149.213v-2.478c0-16.928-13.723-30.651-30.651-30.651h-0.57c-16.928,0-30.651,13.723-30.651,30.651v2.478H151.123z"/>
		
			<line style="fill:none;stroke:#000000;stroke-width:15;stroke-linecap:round;stroke-linejoin:round;stroke-miterlimit:10;" x1="54.761" y1="211.339" x2="54.761" y2="387.233"/>
		
			<line style="fill:none;stroke:#000000;stroke-width:15;stroke-linecap:round;stroke-linejoin:round;stroke-miterlimit:10;" x1="98.378" y1="211.339" x2="98.378" y2="387.233"/>
		
			<line style="fill:none;stroke:#000000;stroke-width:15;stroke-linecap:round;stroke-linejoin:round;stroke-miterlimit:10;" x1="141.996" y1="211.339" x2="141.996" y2="387.233"/>
		
			<line style="fill:none;stroke:#000000;stroke-width:15;stroke-linecap:round;stroke-linejoin:round;stroke-miterlimit:10;" x1="185.614" y1="211.339" x2="185.614" y2="387.233"/>
		<path style="fill:none;stroke:#000000;stroke-width:15;stroke-linecap:round;stroke-linejoin:round;stroke-miterlimit:10;" d="&#10;&#9;&#9;&#9;M7.5,336.372v82.313c0,18.889,15.313,34.202,34.202,34.202h156.971c18.889,0,34.202-15.313,34.202-34.202v-235.27&#10;&#9;&#9;&#9;c0-18.889-15.312-34.202-34.202-34.202H41.702c-18.889,0-34.202,15.313-34.202,34.202v117.957"/>
		<path style="fill:none;stroke:#000000;stroke-width:15;stroke-linecap:round;stroke-linejoin:round;stroke-miterlimit:10;" d="&#10;&#9;&#9;&#9;M248.953,125h-15c-2.761,0-5-2.239-5-5V84c0-2.761,2.239-5,5-5h15c2.761,0,5,2.239,5,5v36&#10;&#9;&#9;&#9;C253.953,122.761,251.714,125,248.953,125z"/>
		<path style="fill:none;stroke:#000000;stroke-width:15;stroke-linecap:round;stroke-linejoin:round;stroke-miterlimit:10;" d="&#10;&#9;&#9;&#9;M447.953,125h-15c-2.761,0-5-2.239-5-5V84c0-2.761,2.239-5,5-5h15c2.761,0,5,2.239,5,5v36&#10;&#9;&#9;&#9;C452.953,122.761,450.714,125,447.953,125z"/>
		<path style="fill:none;stroke:#000000;stroke-width:15;stroke-linejoin:round;stroke-miterlimit:10;" d="M232.296,177.175H504.5&#10;&#9;&#9;&#9;v-54.852c0-8.284-6.716-15-15-15h-36.547"/>
		
			<line style="fill:none;stroke:#000000;stroke-width:15;stroke-linecap:round;stroke-linejoin:round;stroke-miterlimit:10;" x1="225.094" y1="440.402" x2="423.66" y2="440.402"/>
		<path style="fill:none;stroke:#000000;stroke-width:15;stroke-linecap:round;stroke-linejoin:round;stroke-miterlimit:10;" d="&#10;&#9;&#9;&#9;M458.66,440.402h30.84c8.284,0,15-6.716,15-15V177.175"/>
		<path style="fill:none;stroke:#000000;stroke-width:15;stroke-linecap:round;stroke-linejoin:round;stroke-miterlimit:10;" d="&#10;&#9;&#9;&#9;M80.267,22.981H52.826c-2.756,0-4.99,2.234-4.99,4.99v21.955c0,2.756,2.234,4.99,4.99,4.99h134.722c2.756,0,4.99-2.234,4.99-4.99&#10;&#9;&#9;&#9;V27.971c0-2.756-2.234-4.99-4.99-4.99h-72.281"/>
		
			<line style="fill:none;stroke:#000000;stroke-width:15;stroke-linejoin:round;stroke-miterlimit:10;" x1="228.953" y1="107.323" x2="177.406" y2="107.323"/>
		
			<line style="fill:none;stroke:#000000;stroke-width:15;stroke-linejoin:round;stroke-miterlimit:10;" x1="427.953" y1="107.323" x2="253.953" y2="107.323"/>
		
			<rect x="232.874" y="274.897" style="fill:none;stroke:#000000;stroke-width:15;stroke-linecap:round;stroke-linejoin:round;stroke-miterlimit:10;" width="41.274" height="67.783"/>
		
			<rect x="274.148" y="274.897" style="fill:none;stroke:#000000;stroke-width:15;stroke-linecap:round;stroke-linejoin:round;stroke-miterlimit:10;" width="66.805" height="67.783"/>
		
			<rect x="340.953" y="274.897" style="fill:none;stroke:#000000;stroke-width:15;stroke-linecap:round;stroke-linejoin:round;stroke-miterlimit:10;" width="66.805" height="67.783"/>
		<path style="fill:none;stroke:#000000;stroke-width:15;stroke-linecap:round;stroke-linejoin:round;stroke-miterlimit:10;" d="&#10;&#9;&#9;&#9;M407.757,274.897h61.805c2.761,0,5,2.239,5,5v62.783h-66.805V274.897z"/>
		
			<rect x="232.874" y="342.68" style="fill:none;stroke:#000000;stroke-width:15;stroke-linecap:round;stroke-linejoin:round;stroke-miterlimit:10;" width="41.274" height="67.783"/>
		
			<rect x="274.148" y="342.68" style="fill:none;stroke:#000000;stroke-width:15;stroke-linecap:round;stroke-linejoin:round;stroke-miterlimit:10;" width="66.805" height="67.783"/>
		
			<rect x="340.953" y="342.68" style="fill:none;stroke:#000000;stroke-width:15;stroke-linecap:round;stroke-linejoin:round;stroke-miterlimit:10;" width="66.805" height="67.783"/>
		<path style="fill:none;stroke:#000000;stroke-width:15;stroke-linecap:round;stroke-linejoin:round;stroke-miterlimit:10;" d="&#10;&#9;&#9;&#9;M407.757,342.68h66.805v62.783c0,2.761-2.239,5-5,5h-61.805V342.68z"/>
	</g>
</g>
<g>
</g>
<g>
</g>
<g>
</g>
<g>
</g>
<g>
</g>
<g>
</g>
<g>
</g>
<g>
</g>
<g>
</g>
<g>
</g>
<g>
</g>
<g>
</g>
<g>
</g>
<g>
</g>
<g>
</g>
</svg>