<svg id="Layer_1" enable-background="new 0 0 512 512" height="512" viewBox="0 0 512 512" width="512" xmlns="http://www.w3.org/2000/svg"><g id="_x33_8_Burj_Arab"><g><g><path d="m196.589 478.23h152.075c34.116-112.878 13.033-214.909-40.486-310.568-5.72-10.224-16.617-16.465-28.332-16.465h-83.258v327.033z" fill="#dbdddb"/></g><g opacity=".1"><g><path d="m348.671 478.231h-13.08c26.76-105.709 5.159-201.959-45.493-292.503-5.706-10.215-16.598-16.467-28.323-16.467h-65.192v-18.056h83.274c11.7 0 22.591 6.227 28.323 16.467 53.518 95.649 74.598 197.685 40.491 310.559z"/></g></g><g><path d="m180.294 151.183h16.296v327.058h-16.296z" fill="#eef0ee"/></g><g><path d="m365.224 488.44v20.301h-199.384v-20.301c0-5.642 4.573-10.215 10.215-10.215h178.955c5.641 0 10.214 4.574 10.214 10.215z" fill="#878787"/></g><g><path d="m352.746 164.405c0 7.291-5.911 13.202-13.202 13.202h-182.41c-7.291 0-13.202-5.911-13.202-13.202 0-7.291 5.911-13.202 13.202-13.202h182.41c7.291 0 13.202 5.911 13.202 13.202z" fill="#65c5ef"/></g><g><path d="m278.807 441.977v36.275h-38.125v-36.275c0-4.98 4.037-9.018 9.018-9.018h20.09c4.98 0 9.017 4.037 9.017 9.018z" fill="#f8664f"/></g><g><g><path d="m388.913 505.485h-20.43v-17.046c0-7.428-6.043-13.471-13.473-13.471h-2.013c13.128-45.118 17.919-89.782 14.308-134.455.001-.03.018-.056.018-.086 0-.068-.034-.124-.038-.19-4.62-56.612-22.394-109.575-48.31-159.371h20.57c9.074 0 16.458-7.384 16.458-16.461s-7.384-16.461-16.458-16.461c-3.604 0-58.897-.004-69.9-.005-18.024-35.098-41.209-68.169-69.798-99.032v-45.649c0-1.799-1.458-3.257-3.257-3.257s-3.257 1.458-3.257 3.257v144.669c-3.701.002 13.408-.006-36.198.018-9.075 0-16.459 7.384-16.459 16.461s7.384 16.461 16.459 16.461h19.901v294.103h-.981c-7.429 0-13.472 6.043-13.472 13.471v17.046h-22.713c-1.799 0-3.257 1.458-3.257 3.257s1.458 3.257 3.257 3.257h249.045c1.799 0 3.257-1.458 3.257-3.257-.002-1.8-1.46-3.259-3.259-3.259zm-169.939-424.175c16.636 21.135 31.018 43.352 43.138 66.629h-43.138zm-19.127-22.767c4.347 4.836 8.521 9.756 12.613 14.715v74.681h-12.613zm12.613 122.322v294.103h-12.613v-294.103zm143.4 254.012h-43.898c1.145-8.745 2.131-17.426 2.908-26.018h44.867c-.968 8.663-2.271 17.335-3.877 26.018zm-45.293-65.119h-91.595v-26.074h91.597c.212 8.599.204 17.293-.002 26.074zm6.619-26.074h43.811c.638 8.691.939 17.381.931 26.074h-44.794c.223-8.784.238-17.474.052-26.074zm-98.212 32.587h91.409c-.301 8.607-.792 17.297-1.489 26.074h-89.92zm0-39.101v-26.01h89.762c.761 8.575 1.31 17.242 1.634 26.01zm0-32.524v-26.074h85.756c1.362 8.587 2.487 17.28 3.385 26.074zm0-32.588v-26.074h79.362c2.019 8.581 3.794 17.271 5.32 26.074zm0-32.588v-26.012h70.35c2.734 8.551 5.205 17.223 7.416 26.012zm0-32.526v-26.074h58.425c3.543 8.561 6.802 17.253 9.781 26.074zm56.576 268.024h-31.61v-32.993c0-3.175 2.585-5.76 5.76-5.76h20.089c3.175 0 5.76 2.585 5.76 5.76v32.993zm6.513 0v-32.993c0-6.769-5.506-12.275-12.275-12.275h-20.088c-6.769 0-12.275 5.506-12.275 12.275v32.993h-18.452v-66.109h89.356c-1.94 21.534-5.041 43.568-9.349 66.109zm33.339-72.623c.701-8.773 1.222-17.468 1.536-26.074h44.92c-.169 8.687-.65 17.377-1.463 26.074zm1.63-65.175c-.295-8.773-.826-17.437-1.55-26.01h41.6c1.44 8.673 2.569 17.342 3.368 26.01zm-2.111-32.524c-.86-8.801-1.944-17.495-3.261-26.074h38.52c2.249 8.699 4.161 17.389 5.764 26.074zm-4.348-32.588c-1.483-8.814-3.206-17.508-5.18-26.074h34.851c3.046 8.703 5.782 17.394 8.185 26.074zm-6.723-32.588c-.229-.926-.427-1.868-.661-2.791-1.989-7.835-4.269-15.559-6.698-23.221h30.922c3.823 8.688 7.31 17.357 10.497 26.012zm-9.411-32.526c-2.954-8.813-6.236-17.492-9.756-26.074h26.922c4.603 8.712 8.899 17.403 12.868 26.074zm11.138 268.024c2.142-11.31 3.977-22.5 5.534-33.577h43.481c-2.269 11.17-5.033 22.36-8.353 33.577zm-158.388-310.563c0-5.483 4.462-9.946 9.945-9.946h182.41c5.484 0 9.944 4.464 9.944 9.946s-4.46 9.946-9.944 9.946h-182.41c-5.484 0-9.945-4.462-9.945-9.946zm36.361 16.46h9.783v294.103h-9.783zm-14.453 324.62v-17.046c0-3.837 3.121-6.957 6.958-6.957 27.418.021-2.02.017 178.955 0 3.837 0 6.959 3.12 6.959 6.957v17.046z"/></g><g><path d="m385.582 389.427c1.846.084 3.33-1.328 3.418-3.087.239-4.705.372-9.435.397-14.061.01-1.799-1.44-3.265-3.239-3.275-.005 0-.012 0-.018 0-1.791 0-3.247 1.446-3.257 3.239-.025 4.529-.155 9.16-.387 13.765-.092 1.801 1.289 3.33 3.086 3.419z"/></g><g><path d="m377.564 449.582c1.731.358 3.479-.75 3.844-2.537 3.059-14.898 5.26-29.98 6.542-44.826.155-1.791-1.171-3.369-2.964-3.524-1.756-.125-3.372 1.171-3.524 2.964-1.262 14.595-3.427 29.425-6.435 44.079-.361 1.759.774 3.483 2.537 3.844z"/></g><g><path d="m160.391 130.356c0-1.799-1.458-3.257-3.257-3.257-20.57 0-37.304 16.736-37.304 37.305 0 1.799 1.458 3.257 3.257 3.257s3.257-1.458 3.257-3.257c0-16.979 13.813-30.791 30.79-30.791 1.799.001 3.257-1.457 3.257-3.257z"/></g><g><path d="m171.102 133.614h6.278c1.799 0 3.257-1.458 3.257-3.257s-1.458-3.257-3.257-3.257h-6.278c-1.799 0-3.257 1.458-3.257 3.257s1.458 3.257 3.257 3.257z"/></g></g><g><path d="m220.078 167.662h-2.18c-1.799 0-3.257-1.458-3.257-3.257s1.458-3.257 3.257-3.257h2.18c1.799 0 3.257 1.458 3.257 3.257s-1.459 3.257-3.257 3.257z" fill="#fff"/></g><g><path d="m206.883 167.662h-15.833c-1.799 0-3.257-1.458-3.257-3.257s1.458-3.257 3.257-3.257h15.833c1.799 0 3.257 1.458 3.257 3.257s-1.458 3.257-3.257 3.257z" fill="#fff"/></g></g></g></svg>