<svg clip-rule="evenodd" fill-rule="evenodd" stroke-linejoin="round" stroke-miterlimit="2" viewBox="0 0 64 64" xmlns="http://www.w3.org/2000/svg"><g transform="translate(-1928 -168)"><g transform="translate(1260)"><circle cx="700" cy="201" fill="#f51e1e" r="15"/></g><g transform="translate(840)"><path d="m1103 175.079c-8.43 5.543-14 15.087-14 25.921 0 17.109 13.89 31 31 31s31-13.891 31-31c0-10.834-5.57-20.378-14-25.921v-2.079c0-2.761-2.24-5-5-5-6.15 0-17.85 0-24 0-2.76 0-5 2.239-5 5zm34 2.43v1.491c0 2.761-2.24 5-5 5-6.15 0-17.85 0-24 0-2.76 0-5-2.239-5-5v-1.491c-7.27 5.272-12 13.833-12 23.491 0 16.006 12.99 29 29 29s29-12.994 29-29c0-9.658-4.73-18.219-12-23.491z" fill="#f51e1e"/></g><g transform="translate(1260)"><g><path d="m696.208 193.117c-.273-.157-.608-.156-.88.003s-.439.452-.439.769v14.222c0 .317.167.61.439.769s.607.16.88.003l12.348-7.111c.274-.158.444-.453.444-.772s-.17-.614-.444-.772z" fill="#fff"/></g><g><path d="m709 175v-1h2c.552 0 1-.448 1-1s-.448-1-1-1h-3c-.552 0-1 .448-1 1v6c0 .552.448 1 1 1h3c.552 0 1-.448 1-1s-.448-1-1-1h-2v-1h2c.552 0 1-.448 1-1s-.448-1-1-1z" fill="#fff"/></g><g><path d="m703.051 172.684-1.051 3.154s-1.051-3.154-1.051-3.154c-.175-.524-.742-.807-1.265-.633-.524.175-.807.742-.633 1.265l2 6c.136.409.519.684.949.684s.813-.275.949-.684l2-6c.174-.523-.109-1.09-.633-1.265-.523-.174-1.09.109-1.265.633z" fill="#fff"/></g><g><path d="m697 179v-6c0-.552-.448-1-1-1s-1 .448-1 1v6c0 .552.448 1 1 1s1-.448 1-1z" fill="#fff"/></g><g><path d="m688 173v6c0 .552.448 1 1 1h3c.552 0 1-.448 1-1s-.448-1-1-1h-2v-5c0-.552-.448-1-1-1s-1 .448-1 1z" fill="#fff"/></g></g></g></svg>