<svg height="50" viewBox="0 0 32 32" fill="#1A303C" width="50" xmlns="http://www.w3.org/2000/svg"><g id="phone_chat"><path d="m2 31c-.2597656 0-.515625-.1015625-.7070313-.2929688-.2890625-.2890625-.3730469-.7250977-.2119141-1.1010742l2.3374023-5.4541016c-1.5839842-2.4360351-2.4184569-5.2421874-2.4184569-8.1518554 0-8.2709961 6.7290039-15 15-15 8.2714844 0 15 6.7290039 15 15s-6.7285156 15-15 15c-2.9091797 0-5.715332-.8344727-8.1518555-2.418457l-5.4541015 2.3374023c-.1269532.0546875-.2612305.0810547-.394043.0810547zm5.9560547-4.5527344c.203125 0 .4042969.0615234.5756836.1821289 2.203125 1.5507813 4.7856445 2.3706055 7.4682617 2.3706055 7.1679688 0 13-5.831543 13-13s-5.8320312-13-13-13c-7.168457 0-13 5.831543-13 13 0 2.6835938.8198242 5.265625 2.3706055 7.4682617.199707.2836914.237793.6508789.1010742.9697266l-1.5678711 3.6582031 3.6582031-1.5678711c.1264649-.0541992.2607422-.0810547.394043-.0810547zm11.8085937-1.7607422c-2.4921875 0-5.3041992-1.4941406-8.1308594-4.3203125-5.0244141-5.0249023-4.6000977-8.609375-3.9003906-10.2993164.4399414-1.0639648 2.4628906-2.6948242 3.0722656-3.1694336.3979492-.309082.9648438-.2739258 1.3212891.0820313l3.2236328 3.2236328c.1875.1875.2929688.4418945.2929688.7070313s-.1054688.5195313-.2929688.7070313l-1.5761719 1.5756836c.0693359.3398438.3876953 1.347168 2.0366211 2.9960938 1.6157227 1.6157227 2.6118164 1.9541016 3.0102539 2.0219727l1.5615234-1.5615234c.375-.375 1.0390625-.375 1.4140625 0l3.2236328 3.2236328c.3564453.3569336.3916016.9233398.0820313 1.3217773-.4746094.609375-2.1064453 2.6313477-3.1689453 3.0717773-.6728515.2788085-1.4023437.4199217-2.1689453.4199217zm-8.4140625-15.6547851c-.8896484.7543945-1.6479492 1.5161133-1.7695313 1.800293-.8657227 2.0908203.3979492 5.050293 3.4667969 8.1201172 3.0869141 3.0864258 5.3564453 3.734375 6.7167969 3.734375.5029297 0 .9746094-.090332 1.4033203-.2675781.2841797-.121582 1.0458984-.8798828 1.7998047-1.7700195l-1.8779297-1.8779297-1.1347656 1.1347656c-.109375.1098633-.2431641.1923828-.390625.2416992-.0898438.0297852-.2841797.0800781-.5751953.0800781-.8984375 0-2.4238281-.4555664-4.5922852-2.6245117-2.9697266-2.96875-2.6982422-4.7055664-2.5444336-5.1674805.0493164-.1469727.1318359-.2807617.2416992-.390625l1.1347656-1.1347656z"/></g></svg>