<svg height="512pt" viewBox="0 0 512.01314 512" width="512pt" xmlns="http://www.w3.org/2000/svg"><path d="m477.867188 443.738281v25.601563h-443.734376v-25.601563c0-4.714843 3.820313-8.535156 8.535157-8.535156h426.664062c4.714844 0 8.535157 3.820313 8.535157 8.535156zm0 0" fill="#ffb301"/><path d="m452.265625 443.738281v25.601563h-418.132813v-25.601563c0-4.714843 3.820313-8.535156 8.535157-8.535156h401.066406c4.710937 0 8.53125 3.820313 8.53125 8.535156zm0 0" fill="#fec108"/><path d="m477.867188 119.472656v42.664063c0 4.714843-3.820313 8.535156-8.535157 8.535156h-426.664062c-4.714844 0-8.535157-3.820313-8.535157-8.535156v-42.664063zm0 0" fill="#ffb301"/><path d="m452.265625 119.472656v42.664063c0 4.714843-3.820313 8.535156-8.53125 8.535156h-401.066406c-4.714844 0-8.535157-3.820313-8.535157-8.535156v-42.664063zm0 0" fill="#fec108"/><path d="m42.667969 170.671875h51.199219c4.710937 0 8.53125 3.820313 8.53125 8.53125v17.066406c0 4.714844-3.820313 8.535157-8.53125 8.535157h-51.199219c-4.714844 0-8.535157-3.820313-8.535157-8.535157v-17.066406c0-4.710937 3.820313-8.53125 8.535157-8.53125zm0 0" fill="#bfa885"/><path d="m418.132812 170.671875h51.199219c4.714844 0 8.535157 3.820313 8.535157 8.53125v17.066406c0 4.714844-3.820313 8.535157-8.535157 8.535157h-51.199219c-4.710937 0-8.53125-3.820313-8.53125-8.535157v-17.066406c0-4.710937 3.820313-8.53125 8.53125-8.53125zm0 0" fill="#bfa885"/><path d="m290.132812 170.671875h51.199219c4.714844 0 8.535157 3.820313 8.535157 8.53125v17.066406c0 4.714844-3.820313 8.535157-8.535157 8.535157h-51.199219c-4.710937 0-8.53125-3.820313-8.53125-8.535157v-17.066406c0-4.710937 3.820313-8.53125 8.53125-8.53125zm0 0" fill="#bfa885"/><path d="m170.667969 170.671875h51.199219c4.710937 0 8.53125 3.820313 8.53125 8.53125v17.066406c0 4.714844-3.820313 8.535157-8.53125 8.535157h-51.199219c-4.714844 0-8.535157-3.820313-8.535157-8.535157v-17.066406c0-4.710937 3.820313-8.53125 8.535157-8.53125zm0 0" fill="#bfa885"/><path d="m17.066406 469.339844h477.867188c4.710937 0 8.53125 3.820312 8.53125 8.53125v17.066406c0 4.714844-3.820313 8.535156-8.53125 8.535156h-477.867188c-4.710937 0-8.53125-3.820312-8.53125-8.535156v-17.066406c0-4.710938 3.820313-8.53125 8.53125-8.53125zm0 0" fill="#f57c00"/><path d="m17.066406 469.339844h452.265625c4.714844 0 8.535157 3.820312 8.535157 8.53125v17.066406c0 4.714844-3.820313 8.535156-8.535157 8.535156h-452.265625c-4.710937 0-8.53125-3.820312-8.53125-8.535156v-17.066406c0-4.710938 3.820313-8.53125 8.53125-8.53125zm0 0" fill="#ff9801"/><path d="m497.066406 119.472656h-482.132812c-3.03125-.074218-5.617188-2.21875-6.246094-5.183594-.628906-2.96875.859375-5.980468 3.601562-7.277343l215.039063-89.515625 15.019531-6.226563c8.730469-3.671875 18.574219-3.671875 27.304688 0l230.058594 95.742188c2.742187 1.296875 4.230468 4.308593 3.601562 7.277343-.628906 2.964844-3.214844 5.109376-6.246094 5.183594zm0 0" fill="#fdd834"/><path d="m468.992188 119.472656h-454.058594c-3.03125-.074218-5.617188-2.21875-6.246094-5.183594-.628906-2.96875.859375-5.980468 3.601562-7.277343l215.039063-89.515625c2.8125.441406 5.5625 1.214844 8.191406 2.304687l230.058594 95.746094c1.679687.71875 2.933594 2.164063 3.414063 3.925781zm0 0" fill="#ffeb3a"/><path d="m358.828125 85.339844h-205.65625l80.128906-33.367188 22.1875-9.214844h1.023438zm0 0" fill="#4e342e"/><path d="m313.34375 85.339844h-160.171875l80.128906-33.367188zm0 0" fill="#795548"/><path d="m93.867188 435.203125h-51.199219c0-196.265625 8.53125-230.398437 8.53125-230.398437h34.132812s8.535157 34.132812 8.535157 230.398437zm0 0" fill="#bfa885"/><path d="m221.867188 435.203125h-51.199219c0-196.265625 8.53125-230.398437 8.53125-230.398437h34.132812s8.535157 34.132812 8.535157 230.398437zm0 0" fill="#bfa885"/><path d="m341.332031 435.203125h-51.199219c0-196.265625 8.535157-230.398437 8.535157-230.398437h34.132812s8.53125 34.132812 8.53125 230.398437zm0 0" fill="#bfa885"/><path d="m469.332031 435.203125h-51.199219c0-196.265625 8.535157-230.398437 8.535157-230.398437h34.132812s8.53125 34.132812 8.53125 230.398437zm0 0" fill="#bfa885"/><g fill="#ffe0b2"><path d="m42.667969 170.671875h25.597656c4.714844 0 8.535156 3.820313 8.535156 8.53125v17.066406c0 4.714844-3.820312 8.535157-8.535156 8.535157h-25.597656c-4.714844 0-8.535157-3.820313-8.535157-8.535157v-17.066406c0-4.710937 3.820313-8.53125 8.535157-8.53125zm0 0"/><path d="m418.132812 170.671875h25.601563c4.710937 0 8.53125 3.820313 8.53125 8.53125v17.066406c0 4.714844-3.820313 8.535157-8.53125 8.535157h-25.601563c-4.710937 0-8.53125-3.820313-8.53125-8.535157v-17.066406c0-4.710937 3.820313-8.53125 8.53125-8.53125zm0 0"/><path d="m290.132812 170.671875h25.601563c4.710937 0 8.53125 3.820313 8.53125 8.53125v17.066406c0 4.714844-3.820313 8.535157-8.53125 8.535157h-25.601563c-4.710937 0-8.53125-3.820313-8.53125-8.535157v-17.066406c0-4.710937 3.820313-8.53125 8.53125-8.53125zm0 0"/><path d="m170.667969 170.671875h25.597656c4.714844 0 8.535156 3.820313 8.535156 8.53125v17.066406c0 4.714844-3.820312 8.535157-8.535156 8.535157h-25.597656c-4.714844 0-8.535157-3.820313-8.535157-8.535157v-17.066406c0-4.710937 3.820313-8.53125 8.535157-8.53125zm0 0"/><path d="m68.265625 435.203125h-25.597656c0-196.265625 8.53125-230.398437 8.53125-230.398437h8.535156s8.53125 34.132812 8.53125 230.398437zm0 0"/><path d="m196.265625 435.203125h-25.597656c0-196.265625 8.53125-230.398437 8.53125-230.398437h8.535156s8.53125 34.132812 8.53125 230.398437zm0 0"/><path d="m315.734375 435.203125h-25.601563c0-196.265625 8.535157-230.398437 8.535157-230.398437h8.53125s8.535156 34.132812 8.535156 230.398437zm0 0"/><path d="m443.734375 435.203125h-25.601563c0-196.265625 8.535157-230.398437 8.535157-230.398437h8.53125s8.535156 34.132812 8.535156 230.398437zm0 0"/></g><path d="m477.867188 477.871094h-443.734376c-4.710937 0-8.53125-3.820313-8.53125-8.53125v-25.601563c0-9.425781 7.640626-17.066406 17.066407-17.066406h426.664062c9.425781 0 17.066407 7.640625 17.066407 17.066406v25.601563c0 4.710937-3.820313 8.53125-8.53125 8.53125zm-435.199219-17.066406h426.664062v-17.066407h-426.664062zm0 0"/><path d="m477.867188 179.203125h-443.734376c-4.710937 0-8.53125-3.820313-8.53125-8.53125v-51.199219c0-4.714844 3.820313-8.535156 8.53125-8.535156h443.734376c4.710937 0 8.53125 3.820312 8.53125 8.535156v51.199219c0 4.710937-3.820313 8.53125-8.53125 8.53125zm-435.199219-17.066406h426.664062v-34.132813h-426.664062zm0 0"/><path d="m93.867188 213.339844h-51.199219c-9.425781 0-17.066407-7.644532-17.066407-17.070313v-17.066406c0-9.425781 7.640626-17.066406 17.066407-17.066406h51.199219c9.425781 0 17.066406 7.640625 17.066406 17.066406v17.066406c0 9.425781-7.640625 17.070313-17.066406 17.070313zm-51.199219-34.136719v17.066406h51.199219v-17.066406zm0 0"/><path d="m469.332031 213.339844h-51.199219c-9.425781 0-17.066406-7.644532-17.066406-17.070313v-17.066406c0-9.425781 7.640625-17.066406 17.066406-17.066406h51.199219c9.425781 0 17.066407 7.640625 17.066407 17.066406v17.066406c0 9.425781-7.640626 17.070313-17.066407 17.070313zm-51.199219-34.136719v17.066406h51.199219v-17.066406zm0 0"/><path d="m341.332031 213.339844h-51.199219c-9.425781 0-17.066406-7.644532-17.066406-17.070313v-17.066406c0-9.425781 7.640625-17.066406 17.066406-17.066406h51.199219c9.425781 0 17.066407 7.640625 17.066407 17.066406v17.066406c0 9.425781-7.640626 17.070313-17.066407 17.070313zm-51.199219-34.136719v17.066406h51.199219v-17.066406zm0 0"/><path d="m221.867188 213.339844h-51.199219c-9.425781 0-17.066407-7.644532-17.066407-17.070313v-17.066406c0-9.425781 7.640626-17.066406 17.066407-17.066406h51.199219c9.425781 0 17.066406 7.640625 17.066406 17.066406v17.066406c0 9.425781-7.640625 17.070313-17.066406 17.070313zm-51.199219-34.136719v17.066406h51.199219v-17.066406zm0 0"/><path d="m494.933594 512.003906h-477.867188c-9.425781 0-17.066406-7.640625-17.066406-17.066406v-17.066406c0-9.425782 7.640625-17.066406 17.066406-17.066406h477.867188c9.425781 0 17.066406 7.640624 17.066406 17.066406v17.066406c0 9.425781-7.640625 17.066406-17.066406 17.066406zm-477.867188-34.132812v17.066406h477.867188v-17.066406zm0 0"/><path d="m497.09375 128.003906h-482.1875c-7.015625-.003906-13.070312-4.929687-14.503906-11.800781-1.585938-6.925781 1.902344-14.015625 8.363281-16.980469l230.320313-95.804687c10.816406-4.546875 23.011718-4.546875 33.828124 0l230.058594 95.703125c.101563.035156.199219.078125.296875.125 6.457031 2.964844 9.949219 10.054687 8.363281 16.984375-1.445312 6.871093-7.515624 11.789062-14.539062 11.773437zm-472.109375-17.066406h462.03125l-220.648437-91.792969c-6.632813-2.765625-14.101563-2.765625-20.734376 0zm0 0"/><path d="m358.828125 93.871094h-205.65625c-4.066406-.003906-7.5625-2.875-8.359375-6.863282-.796875-3.984374 1.332031-7.980468 5.085938-9.546874l102.296874-42.546876c1.035157-.433593 2.152344-.65625 3.277344-.65625h1.054688c1.125 0 2.242187.222657 3.277344.65625l102.296874 42.546876c3.753907 1.566406 5.882813 5.5625 5.085938 9.546874-.796875 3.988282-4.292969 6.859376-8.359375 6.863282zm-162.917969-17.066406h120.179688l-60.089844-25.003907zm0 0"/><path d="m93.867188 443.738281h-51.199219c-4.714844 0-8.535157-3.820312-8.535157-8.535156 0-195.070313 8.429688-231.03125 8.789063-232.464844.949219-3.796875 4.363281-6.464843 8.277344-6.46875h34.132812c3.917969.003907 7.332031 2.671875 8.277344 6.46875.359375 1.433594 8.789063 37.394531 8.789063 232.464844 0 4.714844-3.820313 8.535156-8.53125 8.535156zm-42.667969-17.066406h34.132812c-.179687-144.453125-5.015625-196.898437-7.226562-213.332031h-19.625c-2.246094 16.363281-7.09375 68.792968-7.28125 213.332031zm0 0"/><path d="m221.867188 443.738281h-51.199219c-4.714844 0-8.535157-3.820312-8.535157-8.535156 0-195.070313 8.429688-231.03125 8.789063-232.464844.949219-3.796875 4.363281-6.464843 8.277344-6.46875h34.132812c3.917969.003907 7.332031 2.671875 8.277344 6.46875.359375 1.433594 8.789063 37.394531 8.789063 232.464844 0 4.714844-3.820313 8.535156-8.53125 8.535156zm-42.667969-17.066406h34.132812c-.179687-144.453125-5.015625-196.898437-7.226562-213.332031h-19.625c-2.246094 16.363281-7.09375 68.792968-7.28125 213.332031zm0 0"/><path d="m341.332031 443.738281h-51.199219c-4.710937 0-8.53125-3.820312-8.53125-8.535156 0-195.070313 8.429688-231.03125 8.789063-232.464844.945313-3.796875 4.359375-6.464843 8.277344-6.46875h34.132812c3.914063.003907 7.328125 2.671875 8.277344 6.46875.359375 1.433594 8.789063 37.394531 8.789063 232.464844 0 4.714844-3.820313 8.535156-8.535157 8.535156zm-42.664062-17.066406h34.132812c-.179687-144.453125-5.019531-196.898437-7.226562-213.332031h-19.628907c-2.242187 16.363281-7.089843 68.792968-7.277343 213.332031zm0 0"/><path d="m469.332031 443.738281h-51.199219c-4.710937 0-8.53125-3.820312-8.53125-8.535156 0-195.070313 8.429688-231.03125 8.789063-232.464844.945313-3.796875 4.359375-6.464843 8.277344-6.46875h34.132812c3.914063.003907 7.328125 2.671875 8.277344 6.46875.359375 1.433594 8.789063 37.394531 8.789063 232.464844 0 4.714844-3.820313 8.535156-8.535157 8.535156zm-42.664062-17.066406h34.132812c-.179687-144.453125-5.019531-196.898437-7.226562-213.332031h-19.628907c-2.242187 16.363281-7.089843 68.792968-7.277343 213.332031zm0 0"/></svg>