<svg id="Layer_1" height="512" viewBox="0 0 512 512" width="512" xmlns="http://www.w3.org/2000/svg" data-name="Layer 1"><path d="m-.001 54.91h365.414v441.354h-365.414z" fill="#60b7ff"/><path d="m42.603 15.735h365.414v441.383h-365.414z" fill="#eaf6ff"/><path d="m85.208 416.611a7.243 7.243 0 1 1 0-14.485h183.685a7.243 7.243 0 1 1 0 14.485zm0-172.8a7.243 7.243 0 1 1 0-14.485h42.208a7.243 7.243 0 1 1 0 14.485zm72.737 0a7.243 7.243 0 1 1 0-14.485h207.468a7.243 7.243 0 1 1 0 14.485zm-72.737 57.6a7.243 7.243 0 1 1 0-14.485h42.208a7.243 7.243 0 1 1 0 14.485zm72.737 0a7.243 7.243 0 1 1 0-14.485h89.155a7.243 7.243 0 1 1 0 14.485zm-72.737 57.6a7.243 7.243 0 1 1 0-14.485h42.208a7.243 7.243 0 1 1 0 14.485zm72.737 0a7.243 7.243 0 1 1 0-14.485h89.155a7.243 7.243 0 1 1 0 14.485z" fill="#60b7ff"/><path d="m85.208 63.471h280.205v110.948h-36v27.127l-46.999-27.127h-197.206z" fill="#e62e6b" fill-rule="evenodd"/><path d="m112.449 89.011h20.324a18.563 18.563 0 0 1 17.093 25.88 17.675 17.675 0 0 1 2.778 2.268 18.582 18.582 0 0 1 -13.153 31.72h-27.042a7.253 7.253 0 0 1 -7.257-7.257v-45.354a7.253 7.253 0 0 1 7.257-7.257zm207.751 37.189a7.257 7.257 0 0 1 0-14.514h17.972a7.27 7.27 0 0 1 7.256 7.257 29.945 29.945 0 1 1 -29.928-29.932 29.39 29.39 0 0 1 7.511.992 28.726 28.726 0 0 1 7.03 2.806 7.233 7.233 0 1 1 -7.03 12.643 14.972 14.972 0 0 0 -3.628-1.474 15.459 15.459 0 1 0 7.03 25.88 15.646 15.646 0 0 0 2.687-3.658zm-75.231-37.189a29.905 29.905 0 1 1 -21.175 8.759 29.839 29.839 0 0 1 21.175-8.759zm10.913 19.021a15.466 15.466 0 1 0 4.507 10.913 15.428 15.428 0 0 0 -4.507-10.913zm-85.408-11.764a7.257 7.257 0 0 1 14.514 0v38.126h19.133a7.243 7.243 0 0 1 0 14.485h-26.39a7.253 7.253 0 0 1 -7.257-7.257zm-37.7 29.934h-13.068v8.192h19.785a4.112 4.112 0 0 0 4.082-4.111 4.05 4.05 0 0 0 -1.19-2.862 3.978 3.978 0 0 0 -2.892-1.219zm0-22.678h-13.068v8.164h13.067a4.063 4.063 0 0 0 4.082-4.082 4.119 4.119 0 0 0 -1.19-2.891 4.173 4.173 0 0 0 -2.892-1.191z" fill="#eaf6ff"/><g fill-rule="evenodd"><path d="m496.175 142.416a31.75 31.75 0 0 1 11.594 43.284l-116.7 202.138-54.853 31.662v-63.352l116.7-202.139a31.767 31.767 0 0 1 43.257-11.593z" fill="#fb3"/><path d="m496.175 142.416-159.959 277.084v-63.352l116.7-202.139a31.767 31.767 0 0 1 43.257-11.593z" fill="#f93"/><path d="m391.066 387.839-54.85 31.663v-63.354z" fill="#4f5c6f"/><path d="m336.216 419.502v-63.354l27.439 15.846z" fill="#404b5a"/><path d="m496.175 142.416a31.75 31.75 0 0 1 11.594 43.284l-54.851-31.692a31.767 31.767 0 0 1 43.257-11.593z" fill="#f66"/><path d="m496.175 142.416-15.817 27.439-27.44-15.846a31.767 31.767 0 0 1 43.257-11.593z" fill="#e62e6b"/><path d="m64.373 457.118v-402.208-39.175h-21.77v39.175 402.208z" fill="#bed4e6"/></g><path d="m85.208 63.471h15.534v110.948h-15.534z" fill="#cf2960"/></svg>