<svg height="512" viewBox="0 0 512 512" width="512" xmlns="http://www.w3.org/2000/svg"><g id="flat"><path d="m484.6 144.3 11.06 14.21a13.993 13.993 0 0 1 -2.45 19.64l-344.04 267.83a14 14 0 0 1 -19.65-2.45l-11.05-14.2-88.46-113.63-11.06-14.21a13.993 13.993 0 0 1 2.45-19.64l344.04-267.83a14 14 0 0 1 19.65 2.45l11.06 14.2z" fill="#85a2ff"/><path d="m495.66 158.51a13.993 13.993 0 0 1 -2.45 19.64l-344.04 267.83a14 14 0 0 1 -19.65-2.45l-11.05-14.2 366.13-285.03z" fill="#5b83fe"/><path d="m396.15 30.67-366.14 285.03-11.06-14.21a13.993 13.993 0 0 1 2.45-19.64l344.04-267.83a14 14 0 0 1 19.65 2.45z" fill="#5b83fe"/><path d="m412.727 240.809-9.827-12.626 6.313-4.914 9.828 12.626zm-19.658-25.251-9.828-12.626 6.313-4.914 9.828 12.626zm-19.657-25.251-9.828-12.625 6.312-4.914 9.829 12.625zm-19.656-25.251-9.829-12.625 6.312-4.914 9.829 12.625zm-19.656-25.251-9.83-12.625 6.312-4.914 9.829 12.625zm-19.658-25.251-9.828-12.625 6.313-4.914 9.828 12.625zm-19.658-25.254-9.828-12.626 6.313-4.914 9.831 12.63z" fill="#96bbff"/><g fill="#5b83fe"><path d="m70.007 318.979a4 4 0 0 1 -2.46-7.156l227.258-176.912a4 4 0 0 1 4.914 6.313l-227.258 176.912a3.987 3.987 0 0 1 -2.454.843z"/><path d="m77.702 281.401h160v32h-160z" transform="matrix(.789 -.614 .614 .789 -149.426 159.598)"/><path d="m221.644 188.03h112v32h-112z" transform="matrix(.789 -.614 .614 .789 -66.773 213.583)"/><path d="m341.453 107.667a4 4 0 0 1 -2.46-7.156l50.507-39.311a4 4 0 0 1 4.914 6.313l-50.5 39.314a3.983 3.983 0 0 1 -2.461.84z"/><path d="m356.2 126.605a4 4 0 0 1 -2.46-7.156l50.5-39.313a4 4 0 1 1 4.914 6.312l-50.5 39.314a3.983 3.983 0 0 1 -2.454.843z"/><path d="m370.938 145.544a4 4 0 0 1 -2.459-7.156l50.5-39.314a4 4 0 1 1 4.915 6.312l-50.5 39.314a3.983 3.983 0 0 1 -2.456.844z"/><path d="m405.339 189.733a3.993 3.993 0 0 1 -3.159-1.543l-19.658-25.251a4 4 0 0 1 6.313-4.914l19.657 25.251a4 4 0 0 1 -3.153 6.457z"/><path d="m413.05 173.592a3.993 3.993 0 0 1 -3.159-1.543l-14.744-18.939a4 4 0 0 1 6.313-4.914l14.74 18.939a4 4 0 0 1 -3.153 6.457z"/><path d="m430.589 170.076a3.991 3.991 0 0 1 -3.159-1.543l-19.657-25.251a4 4 0 0 1 6.313-4.914l19.656 25.251a4 4 0 0 1 -3.153 6.457z"/><path d="m433.387 147.622a3.993 3.993 0 0 1 -3.159-1.543l-9.83-12.625a4 4 0 1 1 6.313-4.914l9.829 12.625a4 4 0 0 1 -3.153 6.457z"/><path d="m455.84 150.419a3.991 3.991 0 0 1 -3.159-1.543l-19.657-25.251a4 4 0 0 1 6.313-4.914l19.656 25.251a4 4 0 0 1 -3.153 6.457z"/><path d="m128.978 394.732a4 4 0 0 1 -2.46-7.156l50.5-39.314a4 4 0 0 1 4.914 6.313l-50.5 39.313a3.982 3.982 0 0 1 -2.454.844z"/><path d="m192.1 345.59a4 4 0 0 1 -2.459-7.156l37.876-29.486a4 4 0 1 1 4.915 6.313l-37.877 29.485a3.989 3.989 0 0 1 -2.455.844z"/></g><path d="m224 308h-64a4 4 0 0 1 -4-4v-26a18.021 18.021 0 0 1 18-18h36a18.021 18.021 0 0 1 18 18v26a4 4 0 0 1 -4 4zm-60-8h56v-22a10.011 10.011 0 0 0 -10-10h-36a10.011 10.011 0 0 0 -10 10z" fill="#0f995d"/><path d="m48 296h288v184h-288z" fill="#00d498"/><rect fill="#00b377" height="192" rx="4" width="32" x="100" y="292"/><rect fill="#00b377" height="192" rx="4" width="32" x="252" y="292"/><circle cx="168" cy="336" fill="#ffa54f" r="16"/><path d="m155.01 382.509h40v24h-40z" fill="#f2444e" transform="matrix(.93 -.367 .367 .93 -132.706 91.893)"/><path d="m200 336h32v32h-32z" fill="#5b83fe"/><path d="m48 456h8a24 24 0 0 1 24 24 0 0 0 0 1 0 0h-32a0 0 0 0 1 0 0v-24a0 0 0 0 1 0 0z" fill="#00b377"/><path d="m48 296h32a0 0 0 0 1 0 0 24 24 0 0 1 -24 24h-8a0 0 0 0 1 0 0v-24a0 0 0 0 1 0 0z" fill="#00b377"/><path d="m328 456h8a0 0 0 0 1 0 0v24a0 0 0 0 1 0 0h-32a0 0 0 0 1 0 0 24 24 0 0 1 24-24z" fill="#00b377"/><path d="m304 296h32a0 0 0 0 1 0 0v24a0 0 0 0 1 0 0h-8a24 24 0 0 1 -24-24 0 0 0 0 1 0 0z" fill="#00b377"/><path d="m136 372h-40a4 4 0 0 1 -4-4v-28a4 4 0 0 1 4-4h40a4 4 0 0 1 4 4v28a4 4 0 0 1 -4 4zm-36-8h32v-20h-32z" fill="#0f995d"/><path d="m288 372h-40a4 4 0 0 1 -4-4v-28a4 4 0 0 1 4-4h40a4 4 0 0 1 4 4v28a4 4 0 0 1 -4 4zm-36-8h32v-20h-32z" fill="#0f995d"/><path d="m116 356a4 4 0 0 1 -4-4v-24a4 4 0 0 1 8 0v24a4 4 0 0 1 -4 4z" fill="#56ebb4"/><path d="m268 356a4 4 0 0 1 -4-4v-24a4 4 0 0 1 8 0v24a4 4 0 0 1 -4 4z" fill="#56ebb4"/><path d="m179.782 96h-55.009a161.645 161.645 0 0 1 -83.165-23.035l-1.608-.965v-8h148.292a47.579 47.579 0 0 1 33.643 13.935 7.049 7.049 0 0 1 2.065 4.985 7.049 7.049 0 0 1 -4.82 6.687 124.6 124.6 0 0 1 -39.398 6.393z" fill="#d6d7d2"/><path d="m60 64h-20l-8-24h12z" fill="#b3b2ad"/><path d="m168 64h-48l-16-32h24z" fill="#8f8f87"/><path d="m168 80h-48l-24 64h24z" fill="#b3b2ad"/><rect fill="#f07f35" height="24" rx="12" width="112" x="376" y="456"/><rect fill="#f07f35" height="24" rx="12" width="112" x="376" y="432"/><rect fill="#f07f35" height="24" rx="12" width="112" x="376" y="408"/><rect fill="#f07f35" height="24" rx="12" width="112" x="376" y="384"/><rect fill="#e86d3c" height="8" rx="4" width="88" x="388" y="452"/><rect fill="#e86d3c" height="8" rx="4" width="88" x="388" y="404"/><rect fill="#e86d3c" height="8" rx="4" width="88" x="388" y="428"/><circle cx="368" cy="424" fill="#ffa54f" r="56"/><circle cx="368" cy="424" fill="#ffc682" r="40"/><path d="m378 418.557a4 4 0 0 0 4-4v-.557a14.02 14.02 0 0 0 -10-13.41v-4.59a4 4 0 0 0 -8 0v4.59a14.02 14.02 0 0 0 -10 13.41 12.8 12.8 0 0 0 8.086 11.942l8.857 3.543a4.84 4.84 0 0 1 3.057 4.515 6 6 0 0 1 -12 0v-2a4 4 0 0 0 -4-4 4 4 0 0 0 -4 4v2a14.02 14.02 0 0 0 10 13.4v4.6a4 4 0 0 0 8 0v-4.589a14.02 14.02 0 0 0 10-13.411 12.8 12.8 0 0 0 -8.086-11.942l-8.857-3.543a4.84 4.84 0 0 1 -3.057-4.515 6 6 0 0 1 12 0v.557a4 4 0 0 0 4 4z" fill="#f07f35"/><circle cx="432" cy="328" fill="#ffa54f" r="56"/><circle cx="432" cy="328" fill="#ffc682" r="40"/><path d="m442 322.557a4 4 0 0 0 4-4v-.557a14.02 14.02 0 0 0 -10-13.41v-4.59a4 4 0 0 0 -8 0v4.59a14.02 14.02 0 0 0 -10 13.41 12.8 12.8 0 0 0 8.086 11.942l8.857 3.543a4.84 4.84 0 0 1 3.057 4.515 6 6 0 0 1 -12 0v-2a4 4 0 0 0 -4-4 4 4 0 0 0 -4 4v2a14.02 14.02 0 0 0 10 13.4v4.6a4 4 0 0 0 8 0v-4.589a14.02 14.02 0 0 0 10-13.411 12.8 12.8 0 0 0 -8.086-11.942l-8.857-3.543a4.84 4.84 0 0 1 -3.057-4.515 6 6 0 0 1 12 0v.557a4 4 0 0 0 4 4z" fill="#f07f35"/></g></svg>