<svg id="Layer_1" height="512" viewBox="0 0 256 256" width="512" xmlns="http://www.w3.org/2000/svg"><g><g><g><g><g><g><path d="m185.809 243.158c-10.097-.001-18.282-8.186-18.283-18.283v-10.284c0-4.418-3.582-8-8-8h-136.153c-4.418 0-8 3.582-8 8v10.284c0 10.097 8.186 18.283 18.283 18.283z" fill="#d1ab86"/></g><g><path d="m222.343 47.711c10.098 0 18.284 8.186 18.284 18.284v10.287c0 4.418-3.582 8-8 8h-28.567v-18.287c0-10.097 8.185-18.283 18.283-18.284z" fill="#d1ab86"/></g><g><path d="m204.092 84.282v140.6c-.001 10.097-8.186 18.282-18.283 18.283-10.097-.001-18.282-8.186-18.283-18.283v-10.291c0-4.418-3.582-8-8-8h-107.586v-140.596c0-10.098 8.186-18.284 18.284-18.284h152.119c-10.098.001-18.283 8.186-18.283 18.284v18.287z" fill="#fedbb0"/></g><g><g><path d="m164.983 184.682h-36.983c-1.654 0-3 1.346-3 3s1.346 3 3 3h36.983c1.654 0 3-1.346 3-3s-1.346-3-3-3z" fill="#e59a5c"/></g><g><path d="m116.421 184.682h-35.691c-1.654 0-3 1.346-3 3s1.346 3 3 3h35.691c1.654 0 3-1.346 3-3s-1.346-3-3-3z" fill="#e59a5c"/></g><g><path d="m164.983 165.762h-50.835c-1.654 0-3 1.346-3 3s1.346 3 3 3h50.835c1.654 0 3-1.346 3-3s-1.346-3-3-3z" fill="#e59a5c"/></g><g><path d="m80.73 171.762h21.839c1.654 0 3-1.346 3-3s-1.346-3-3-3h-21.839c-1.654 0-3 1.346-3 3s1.346 3 3 3z" fill="#e59a5c"/></g><g><path d="m164.983 146.848h-34.53c-1.654 0-3 1.346-3 3s1.346 3 3 3h34.53c1.654 0 3-1.346 3-3s-1.346-3-3-3z" fill="#e59a5c"/></g><g><path d="m80.73 152.848h38.145c1.654 0 3-1.346 3-3s-1.346-3-3-3h-38.145c-1.654 0-3 1.346-3 3s1.346 3 3 3z" fill="#e59a5c"/></g><g><path d="m141.749 133.934h23.234c1.654 0 3-1.346 3-3s-1.346-3-3-3h-23.234c-1.654 0-3 1.346-3 3s1.346 3 3 3z" fill="#e59a5c"/></g><g><path d="m80.73 133.934h49.44c1.654 0 3-1.346 3-3s-1.346-3-3-3h-49.44c-1.654 0-3 1.346-3 3s1.346 3 3 3z" fill="#e59a5c"/></g></g></g></g></g><g><g><g><g><g><g><path d="m133.637 109.874h-74.494c-2.323 0-3.676-2.622-2.331-4.516l37.247-52.426c1.14-1.605 3.522-1.605 4.662 0l37.247 52.426c1.345 1.893-.009 4.516-2.331 4.516z" fill="#c77b61"/></g></g></g></g><g><g><g><g><path d="m135.968 105.358-37.248-52.428c-.696-.978-1.853-1.359-2.908-1.143l-15.721 58.087h53.546c2.322 0 3.676-2.623 2.331-4.516z" fill="#a86654"/></g></g></g></g><g><g><g><g><path d="m75.8 78.631h41.179l-3.331-4.689h-34.517z" fill="#a86654"/></g></g></g></g><g><g><g><g><path d="m88.546 78.631h28.433l-3.331-4.689h-23.833z" fill="#725246"/></g></g></g></g><g><g><g><g><path d="m67.298 90.598h58.183l-3.33-4.688h-51.522z" fill="#a86654"/></g></g></g></g><g><g><g><g><path d="m85.307 90.598h40.174l-3.33-4.688h-35.575z" fill="#725246"/></g></g></g></g><g><g><g><g><path d="m58.795 102.566h75.189l-3.331-4.689h-68.527z" fill="#a86654"/></g></g></g></g><g><g><g><g><path d="m82.068 102.566h51.916l-3.331-4.689h-47.316z" fill="#725246"/></g></g></g></g><g><g><g><g><path d="m84.303 66.663h24.173l-3.331-4.688h-17.511z" fill="#a86654"/></g></g></g></g><g><g><g><g><path d="m91.785 66.663h16.691l-3.331-4.688h-12.091z" fill="#725246"/></g></g></g></g></g><g><g><g><g><g><path d="m196.935 109.874h-116.844l58.861-82.848c1.14-1.605 3.522-1.605 4.662 0l55.653 78.332c1.345 1.893-.009 4.516-2.332 4.516z" fill="#e59a5c"/></g></g></g></g><g><g><g><g><path d="m102.288 78.631h77.99l-3.331-4.689h-71.328z" fill="#c68254"/></g></g></g></g><g><g><g><g><path d="m93.785 90.598h94.995l-3.331-4.688h-88.333z" fill="#c68254"/></g></g></g></g><g><g><g><g><path d="m199.266 105.358-55.653-78.332c-.68-.958-1.803-1.343-2.84-1.158l-20.14 84.006h76.302c2.323 0 3.677-2.623 2.331-4.516z" fill="#c77b61"/></g></g></g></g><g><g><g><g><path d="m85.283 102.566h112l-3.331-4.689h-105.339z" fill="#c68254"/></g></g></g></g><g><g><g><g><path d="m122.386 102.566h74.897l-3.331-4.689h-70.442z" fill="#a86654"/></g></g></g></g><g><g><g><g><path d="m125.255 90.598h63.525l-3.331-4.688h-59.07z" fill="#a86654"/></g></g></g></g><g><g><g><g><path d="m128.124 78.631h52.154l-3.331-4.689h-47.699z" fill="#a86654"/></g></g></g></g><g><g><g><g><path d="m110.79 66.663h60.985l-3.331-4.688h-54.323z" fill="#c68254"/></g></g></g></g><g><g><g><g><path d="m130.993 66.663h40.782l-3.331-4.688h-36.327z" fill="#a86654"/></g></g></g></g><g><g><g><g><path d="m119.293 54.696h43.98l-3.331-4.689h-37.318z" fill="#c68254"/></g></g></g></g><g><g><g><g><path d="m133.862 54.696h29.411l-3.331-4.689h-24.956z" fill="#a86654"/></g></g></g></g><g><g><g><g><path d="m127.795 42.728h26.975l-3.331-4.688h-20.313z" fill="#c68254"/></g></g></g></g><g><g><g><g><path d="m137.855 38.04-1.124 4.688h18.039l-2.559-3.602-.772-1.086z" fill="#a86654"/></g></g></g></g></g></g></g><path d="m222.343 43.711h-61.968l-2.344-3.3-1.198-1.687-2.133-3.002-7.825-11.014c-.723-1.02-1.711-1.823-2.854-2.319-.88-.378-1.798-.568-2.742-.568-2.211 0-4.299 1.077-5.585 2.882l-7.828 11.019-5.675 7.988h-51.967c-12.287 0-22.284 9.997-22.284 22.284v136.596h-24.567c-6.617 0-12 5.383-12 12v10.284c0 12.287 9.996 22.283 22.283 22.283.069 0 .138-.002.207-.005.619-.014 5.139-.03 22.786-.03 18.129 0 44.278.016 68.313.031 20.441.013 39.353.025 50.504.025 7.637 0 9.687-.004 10.343-.015v.001c12.286 0 22.282-9.996 22.283-22.282v-136.6h24.535c6.617 0 12-5.383 12-12v-10.287c0-12.287-9.997-22.284-22.284-22.284zm18.284 32.571c0 4.418-3.582 8-8 8h-28.535v140.6c-.001 10.097-8.186 18.282-18.283 18.283-.11.01-3.945.014-10.342.014-24.261 0-85.269-.056-118.817-.056-13.675 0-22.794.009-22.994.036-10.097 0-18.283-8.186-18.283-18.283v-10.284c0-4.418 3.582-8 8-8h28.567v-140.597c0-10.098 8.186-18.284 18.284-18.284h54.031c.364-.512 6.781-9.545 6.871-9.671l7.825-11.014c.564-.792 1.437-1.203 2.327-1.203.389 0 .781.078 1.151.238.474.205.886.544 1.184.965l7.825 11.014c.523.735 2.763 3.889 3.331 4.688l3.54 4.983h64.033c10.098 0 18.284 8.186 18.284 18.284v10.287z" fill="#422618"/></g></svg>