<?xml version="1.0" encoding="iso-8859-1"?>
<!-- Generator: Adobe Illustrator 19.0.0, SVG Export Plug-In . SVG Version: 6.00 Build 0)  -->
<svg version="1.1" id="Capa_1" xmlns="http://www.w3.org/2000/svg" xmlns:xlink="http://www.w3.org/1999/xlink" x="0px" y="0px"
	 viewBox="0 0 466.948 466.948" style="enable-background:new 0 0 466.948 466.948;" xml:space="preserve">
<path style="fill:#45CAFF;" d="M93.623,390.366h291.474c44.251-39.863,71.68-97.28,71.68-161.28c0-119.954-97.28-217.6-217.6-217.6
	c-119.954,0-217.6,97.28-217.6,217.6C21.577,293.085,49.371,350.503,93.623,390.366z"/>
<path style="fill:#3D99F4;" d="M21.577,229.085c0,64,27.794,121.783,71.68,161.28h291.474c44.251-39.863,71.68-97.28,71.68-161.28"
	/>
<path style="fill:#33363A;" d="M385.097,395.851H93.623c-1.463,0-2.56-0.366-3.657-1.463
	c-46.811-42.057-73.509-102.4-73.509-165.669c0-122.88,100.206-223.086,223.086-223.086S462.629,105.84,462.629,228.72
	c0,62.903-26.697,123.246-73.509,165.669C387.657,395.485,386.194,395.851,385.097,395.851z M95.817,384.88h287.086
	c43.52-40.229,68.389-96.914,68.389-155.794c0-117.029-95.086-212.114-212.114-212.114S27.063,112.057,27.063,229.085
	C27.063,287.965,52.297,344.651,95.817,384.88z"/>
<circle style="fill:#FFBF31;" cx="119.223" cy="129.977" r="58.88"/>
<path style="fill:#F4AB0B;" d="M119.223,71.097c32.549,0,58.88,26.331,58.88,58.88s-26.331,58.88-58.88,58.88"/>
<path style="fill:#33363A;" d="M119.223,194.343c-35.474,0-64.366-28.891-64.366-64.366s28.891-64.366,64.366-64.366
	s64.366,28.891,64.366,64.366S154.697,194.343,119.223,194.343z M119.223,76.583c-29.623,0-53.394,24.137-53.394,53.394
	s24.137,53.394,53.394,53.394s53.394-24.137,53.394-53.394S148.48,76.583,119.223,76.583z"/>
<path style="fill:#FFB000;" d="M119.223,231.646L119.223,231.646c-10.971,0-21.211-1.829-31.451-4.754
	c-2.926-1.097-4.389-4.023-3.657-6.949c1.097-2.926,4.023-4.389,6.949-3.657c9.143,2.926,18.286,4.389,27.794,4.389
	c2.926,0,5.486,2.56,5.486,5.486S122.149,231.646,119.223,231.646z M148.846,226.891c-2.194,0-4.389-1.463-5.12-3.657
	c-1.097-2.926,0.731-5.851,3.657-6.949c9.143-2.926,17.554-7.314,25.234-12.8c2.56-1.829,5.851-1.097,7.68,1.097
	c1.829,2.56,1.097,5.851-1.097,7.68c-8.777,6.217-18.286,11.337-28.526,14.629C150.309,226.891,149.577,226.891,148.846,226.891z
	 M62.537,213.36c-1.097,0-2.194-0.366-3.291-1.097c-8.777-6.217-16.091-13.897-22.674-22.309c-1.829-2.56-1.097-5.851,1.097-7.68
	c2.56-1.829,5.851-1.097,7.68,1.097c5.486,7.68,12.434,14.629,20.114,20.114c2.56,1.829,2.926,5.12,1.097,7.68
	C65.829,212.628,64.366,213.36,62.537,213.36z M197.12,191.783c-1.097,0-2.194-0.366-3.291-1.097c-2.56-1.829-2.926-5.12-1.097-7.68
	c5.486-7.68,9.874-16.091,12.8-25.234c1.097-2.926,4.023-4.389,6.949-3.657c2.926,1.097,4.389,4.023,3.657,6.949
	c-3.291,10.24-8.046,19.749-14.263,28.526C200.411,191.051,198.949,191.783,197.12,191.783z M27.429,165.451
	c-2.194,0-4.389-1.463-5.12-3.657c-3.291-10.24-5.12-20.846-5.12-31.451c0-2.926,2.56-5.486,5.486-5.486l0,0
	c2.926,0,5.486,2.56,5.486,5.486c0,9.509,1.463,19.017,4.389,28.16c1.097,2.926-0.731,5.851-3.657,6.949
	C28.526,165.451,28.16,165.451,27.429,165.451z M215.406,135.097c-2.926,0-5.486-2.56-5.486-5.486c0-9.509-1.463-19.017-4.389-28.16
	c-1.097-2.926,0.731-5.851,3.657-6.949c2.926-1.097,5.851,0.731,6.949,3.657c3.291,10.24,5.12,20.846,5.12,31.451
	C220.891,132.903,218.331,135.097,215.406,135.097L215.406,135.097z M27.429,105.84c-0.731,0-1.097,0-1.829-0.366
	c-2.926-1.097-4.389-4.023-3.657-6.949C25.234,88.285,29.989,78.777,36.206,70c1.829-2.56,5.12-2.926,7.68-1.097
	c2.56,1.829,2.926,5.12,1.097,7.68c-5.486,7.68-9.874,16.457-12.8,25.234C31.817,104.377,29.623,105.84,27.429,105.84z
	 M197.12,78.777c-1.829,0-3.291-0.731-4.389-2.194c-5.486-7.68-12.434-14.629-20.114-20.114c-2.56-1.829-2.926-5.12-1.097-7.68
	s5.12-2.926,7.68-1.097c8.777,6.217,16.091,13.897,22.674,22.674c1.829,2.56,1.097,5.851-1.097,7.68
	C199.314,78.411,198.217,78.777,197.12,78.777z M62.171,57.565c-1.829,0-3.291-0.731-4.389-2.194
	c-1.829-2.56-1.097-5.851,1.097-7.68c8.777-6.217,18.286-11.337,28.16-14.629c2.926-1.097,5.851,0.731,6.949,3.657
	c1.097,2.926-0.731,5.851-3.657,6.949c-9.143,2.926-17.554,7.314-25.234,13.166C64.366,57.2,63.269,57.565,62.171,57.565z
	 M148.846,43.668c-0.731,0-1.097,0-1.829-0.366c-9.143-2.926-18.651-4.389-28.16-4.389h-0.366c-2.926,0-5.486-2.56-5.486-5.486
	c0-2.926,2.56-5.486,5.486-5.486h0.366c10.971,0,21.577,1.829,31.451,5.12c2.926,1.097,4.389,4.023,3.657,6.949
	C153.234,42.205,151.04,43.668,148.846,43.668z"/>
<g>
	<path style="fill:#33363A;" d="M119.223,47.325c-2.926,0-5.486-2.56-5.486-5.486v-25.6c0-2.926,2.56-5.486,5.486-5.486
		c2.926,0,5.486,2.56,5.486,5.486v25.6C124.709,44.765,122.149,47.325,119.223,47.325z"/>
	<path style="fill:#33363A;" d="M119.223,58.663c-2.926,0-5.486-2.56-5.486-5.486V52.08c0-2.926,2.56-5.486,5.486-5.486
		c2.926,0,5.486,2.56,5.486,5.486v1.097C124.709,56.468,122.149,58.663,119.223,58.663z"/>
</g>
<g>
	<path style="fill:#33363A;" d="M119.223,249.2c-2.926,0-5.486-2.56-5.486-5.486v-25.6c0-2.926,2.56-5.486,5.486-5.486
		c2.926,0,5.486,2.56,5.486,5.486v25.6C124.709,246.64,122.149,249.2,119.223,249.2z"/>
	<path style="fill:#33363A;" d="M119.223,212.994c-2.926,0-5.486-2.56-5.486-5.486v-1.097c0-2.926,2.56-5.486,5.486-5.486
		c2.926,0,5.486,2.56,5.486,5.486v1.097C124.709,210.434,122.149,212.994,119.223,212.994z"/>
	<path style="fill:#33363A;" d="M181.394,72.925c-1.463,0-2.926-0.366-4.023-1.463c-2.194-2.194-2.194-5.486,0-7.68l18.286-18.286
		c2.194-2.194,5.486-2.194,7.68,0c2.194,2.194,2.194,5.486,0,7.68l-18.286,18.286C184.32,72.56,182.857,72.925,181.394,72.925z"/>
	<path style="fill:#33363A;" d="M173.349,81.337c-1.463,0-2.926-0.366-4.023-1.463c-2.194-2.194-2.194-5.486,0-7.68l0.731-0.731
		c2.194-2.194,5.486-2.194,7.68,0s2.194,5.486,0,7.68l-0.731,0.731C175.909,80.605,174.446,81.337,173.349,81.337z"/>
	<path style="fill:#33363A;" d="M38.766,215.92c-1.463,0-2.926-0.366-4.023-1.463c-2.194-2.194-2.194-5.486,0-7.68l18.286-18.286
		c2.194-2.194,5.486-2.194,7.68,0c2.194,2.194,2.194,5.486,0,7.68l-18.286,18.286C41.326,215.188,39.863,215.92,38.766,215.92z"/>
	<path style="fill:#33363A;" d="M64,190.32c-1.463,0-2.926-0.366-4.023-1.463c-2.194-2.194-2.194-5.486,0-7.68l0.731-0.731
		c2.194-2.194,5.486-2.194,7.68,0c2.194,2.194,2.194,5.486,0,7.68l-0.731,0.731C66.926,189.588,65.463,190.32,64,190.32z"/>
	<path style="fill:#33363A;" d="M232.96,135.463h-25.6c-2.926,0-5.486-2.56-5.486-5.486c0-2.926,2.56-5.486,5.486-5.486h25.6
		c2.926,0,5.486,2.56,5.486,5.486C238.446,132.903,235.886,135.463,232.96,135.463z"/>
	<path style="fill:#33363A;" d="M196.754,135.463h-1.097c-2.926,0-5.486-2.56-5.486-5.486c0-2.926,2.56-5.486,5.486-5.486h1.097
		c2.926,0,5.486,2.56,5.486,5.486C202.24,132.903,199.68,135.463,196.754,135.463z"/>
	<path style="fill:#33363A;" d="M31.086,135.463h-25.6c-2.926,0-5.486-2.56-5.486-5.486c0-2.926,2.56-5.486,5.486-5.486h25.6
		c2.926,0,5.486,2.56,5.486,5.486C36.571,132.903,34.011,135.463,31.086,135.463z"/>
	<path style="fill:#33363A;" d="M42.423,135.463h-1.097c-2.926,0-5.486-2.56-5.486-5.486c0-2.926,2.56-5.486,5.486-5.486h1.097
		c2.926,0,5.486,2.56,5.486,5.486C47.909,132.903,45.714,135.463,42.423,135.463z"/>
	<path style="fill:#33363A;" d="M199.314,215.92c-1.463,0-2.926-0.366-4.023-1.463l-18.286-18.286c-2.194-2.194-2.194-5.486,0-7.68
		s5.486-2.194,7.68,0l18.286,18.286c2.194,2.194,2.194,5.486,0,7.68C202.24,215.188,200.777,215.92,199.314,215.92z"/>
	<path style="fill:#33363A;" d="M174.08,190.32c-1.463,0-2.926-0.366-4.023-1.463l-0.731-0.731c-2.194-2.194-2.194-5.486,0-7.68
		s5.486-2.194,7.68,0l0.731,0.731c2.194,2.194,2.194,5.486,0,7.68C176.64,189.588,175.543,190.32,174.08,190.32z"/>
	<path style="fill:#33363A;" d="M56.686,72.925c-1.463,0-2.926-0.366-4.023-1.463L34.377,53.177c-2.194-2.194-2.194-5.486,0-7.68
		c2.194-2.194,5.486-2.194,7.68,0l18.286,18.286c2.194,2.194,2.194,5.486,0,7.68C59.611,72.56,58.149,72.925,56.686,72.925z"/>
	<path style="fill:#33363A;" d="M65.097,81.337c-1.463,0-2.926-0.366-4.023-1.463l-0.731-0.731c-2.194-2.194-2.194-5.486,0-7.68
		s5.486-2.194,7.68,0l0.731,0.731c2.194,2.194,2.194,5.486,0,7.68C67.657,80.605,66.194,81.337,65.097,81.337z"/>
</g>
<polygon style="fill:#D6A545;" points="389.851,461.314 402.286,395.12 76.069,395.12 "/>
<polygon style="fill:#FFC757;" points="119.223,243.714 17.189,390 220.891,390 "/>
<g>
	<polygon style="fill:#F4AB0B;" points="119.223,243.714 96.183,390 220.891,390 	"/>
	<polygon style="fill:#F4AB0B;" points="119.223,243.714 96.183,390 220.891,390 	"/>
</g>
<path style="fill:#33363A;" d="M220.891,395.485H17.189c-2.194,0-4.023-1.097-4.754-2.926c-1.097-1.829-0.731-4.023,0.366-5.851
	l102.034-146.651c2.194-2.926,6.949-2.926,9.143,0l102.034,146.651c1.097,1.829,1.463,4.023,0.366,5.851
	C224.914,394.388,223.086,395.485,220.891,395.485z M27.794,384.514h182.857l-91.429-131.291L27.794,384.514z"/>
<polygon style="fill:#FFC757;" points="359.497,243.714 257.463,390 461.166,390 "/>
<g>
	<polygon style="fill:#F4AB0B;" points="359.497,243.714 336.823,390 461.166,390 	"/>
	<polygon style="fill:#F4AB0B;" points="359.497,243.714 336.823,390 461.166,390 	"/>
</g>
<path style="fill:#33363A;" d="M461.166,395.485H257.463c-2.194,0-4.023-1.097-4.754-2.926c-1.097-1.829-0.731-4.023,0.366-5.851
	l102.034-146.651c1.097-1.463,2.56-2.194,4.389-2.194l0,0c1.829,0,3.657,0.731,4.389,2.194L465.92,386.708
	c1.097,1.829,1.463,4.023,0.366,5.851C465.189,394.388,463.36,395.485,461.166,395.485z M268.069,384.514h182.857l-91.429-131.291
	L268.069,384.514z"/>
<polygon style="fill:#FCFCB9;" points="239.177,155.577 76.069,390 402.286,390 "/>
<polygon style="fill:#FFC757;" points="239.177,155.577 129.097,390 402.286,390 "/>
<polygon style="fill:#F4AB0B;" points="239.177,155.577 202.606,390 402.286,390 "/>
<polygon style="fill:#F2790C;" points="239.177,155.577 202.606,390 300.983,390 "/>
<g>
	<path style="fill:#33363A;" d="M402.286,395.485h-199.68c-1.463,0-3.291-0.731-4.023-1.829c-1.097-1.097-1.463-2.926-1.097-4.389
		l36.571-234.789c0.366-2.194,1.829-4.023,4.023-4.389c2.194-0.366,4.389,0.366,5.851,2.194L407.04,387.074
		c1.097,1.829,1.463,4.023,0.366,5.851C406.309,394.388,404.48,395.485,402.286,395.485z M209.189,384.514h182.857L242.834,169.84
		L209.189,384.514z"/>
	<path style="fill:#33363A;" d="M402.286,395.485H76.069c-2.194,0-4.023-1.097-4.754-2.926c-1.097-1.829-0.731-4.023,0.366-5.851
		L234.789,151.92c2.194-2.926,6.949-2.926,9.143,0L407.04,386.708c1.097,1.829,1.463,4.023,0.366,5.851
		C406.309,394.388,404.48,395.485,402.286,395.485z M86.674,384.514h305.371L239.543,165.085L86.674,384.514z"/>
	<path style="fill:#33363A;" d="M374.126,357.817H267.337c-2.926,0-5.486-2.56-5.486-5.486c0-2.926,2.56-5.486,5.486-5.486h106.789
		c2.926,0,5.486,2.56,5.486,5.486C379.611,355.257,377.051,357.817,374.126,357.817z"/>
	<path style="fill:#33363A;" d="M242.834,357.817h-7.314c-2.926,0-5.486-2.56-5.486-5.486c0-2.926,2.56-5.486,5.486-5.486h7.314
		c2.926,0,5.486,2.56,5.486,5.486C248.32,355.257,245.76,357.817,242.834,357.817z"/>
	<path style="fill:#33363A;" d="M327.68,297.108h-53.394c-2.926,0-5.486-2.56-5.486-5.486c0-2.926,2.56-5.486,5.486-5.486h53.394
		c2.926,0,5.486,2.56,5.486,5.486C333.166,294.548,330.606,297.108,327.68,297.108z"/>
	<path style="fill:#33363A;" d="M249.783,297.108h-7.314c-2.926,0-5.486-2.56-5.486-5.486c0-2.926,2.56-5.486,5.486-5.486h7.314
		c2.926,0,5.486,2.56,5.486,5.486C255.269,294.548,252.709,297.108,249.783,297.108z"/>
	<path style="fill:#33363A;" d="M289.28,237.497h-7.68c-2.926,0-5.486-2.56-5.486-5.486c0-2.926,2.56-5.486,5.486-5.486h7.68
		c2.926,0,5.486,2.56,5.486,5.486C294.766,234.937,292.206,237.497,289.28,237.497z"/>
	<path style="fill:#33363A;" d="M257.097,237.497h-7.314c-2.926,0-5.486-2.56-5.486-5.486c0-2.926,2.56-5.486,5.486-5.486h7.314
		c2.926,0,5.486,2.56,5.486,5.486C262.583,234.937,260.023,237.497,257.097,237.497z"/>
	<path style="fill:#33363A;" d="M294.4,326h-77.531c-2.926,0-5.486-2.56-5.486-5.486c0-2.926,2.56-5.486,5.486-5.486H294.4
		c2.926,0,5.486,2.56,5.486,5.486C299.886,323.44,297.691,326,294.4,326z"/>
	<path style="fill:#33363A;" d="M323.291,326h-5.12c-2.926,0-5.486-2.56-5.486-5.486c0-2.926,2.56-5.486,5.486-5.486h5.12
		c2.926,0,5.486,2.56,5.486,5.486C328.777,323.44,326.217,326,323.291,326z"/>
	<path style="fill:#33363A;" d="M258.56,265.657h-30.72c-2.926,0-5.486-2.56-5.486-5.486c0-2.926,2.56-5.486,5.486-5.486h30.72
		c2.926,0,5.486,2.56,5.486,5.486C264.046,263.097,261.486,265.657,258.56,265.657z"/>
	<path style="fill:#33363A;" d="M287.086,265.657h-5.12c-2.926,0-5.486-2.56-5.486-5.486c0-2.926,2.56-5.486,5.486-5.486h5.12
		c2.926,0,5.486,2.56,5.486,5.486C292.571,263.097,290.011,265.657,287.086,265.657z"/>
</g>
<path style="fill:#FFFFFF;" d="M326.217,162.891c1.463-21.211,19.383-37.669,40.594-37.669c22.309,0,40.594,18.286,40.96,40.594
	c10.606,4.754,17.92,15.36,17.92,27.794v2.56c0,17.189-13.897,30.72-30.72,30.72h-66.194c-17.189,0-30.72-13.897-30.72-30.72v-2.56
	C297.691,177.154,310.491,163.988,326.217,162.891z"/>
<path style="fill:#D5E2CC;" d="M367.177,138.388c22.309,0,40.594,18.286,40.96,40.594c8.777,4.023,15.36,12.434,17.189,22.674
	c-2.56,14.263-14.994,25.234-30.354,25.234h-66.194c-14.994,0-27.794-10.971-30.354-25.234c2.56-13.531,13.897-24.137,28.16-25.234
	C328.046,155.211,345.6,138.388,367.177,138.388z"/>
<path style="fill:#33363A;" d="M394.971,232.377h-66.194c-20.114,0-36.206-16.457-36.206-36.206v-2.56
	c0-17.554,12.434-32.183,29.257-35.474c3.657-21.943,23.04-38.4,45.714-38.4c24.137,0,44.251,19.017,46.08,42.789
	c10.971,6.583,17.92,18.286,17.92,31.086v2.56C431.177,215.92,415.086,232.377,394.971,232.377z M367.177,130.708
	c-18.286,0-34.011,14.263-35.109,32.549c-0.366,2.56-2.194,4.754-5.12,5.12c-13.166,1.097-23.406,12.069-23.406,25.234v2.56
	c0,13.897,11.337,25.234,25.234,25.234h66.194c13.897,0,25.234-11.337,25.234-25.234v-2.56c0-9.874-5.851-18.651-14.629-23.04
	c-1.829-0.731-3.291-2.926-3.291-4.754C402.286,146.434,386.56,130.708,367.177,130.708z"/>
<path style="fill:#FFFFFF;" d="M331.703,55.737c-1.463-17.554-15.726-31.086-33.646-31.086c-18.651,0-33.646,14.994-33.646,33.28
	c-8.777,4.023-14.629,12.8-14.629,23.04v2.194c0,13.897,11.337,25.234,25.234,25.234h54.491c13.897,0,25.234-11.337,25.234-25.234
	v-2.194C355.109,67.44,344.869,56.468,331.703,55.737z"/>
<path style="fill:#D5E2CC;" d="M298.057,35.623c-18.651,0-33.646,14.994-33.646,33.28c-7.314,3.291-12.8,10.24-14.263,18.651
	c2.194,11.703,12.434,20.846,24.869,20.846h54.491c12.434,0,22.674-9.143,24.869-20.846c-2.194-11.337-11.337-19.749-23.04-20.846
	C330.24,49.154,315.977,35.623,298.057,35.623z"/>
<g>
	<path style="fill:#33363A;" d="M329.874,113.885h-54.491c-17.189,0-30.72-13.897-30.72-30.72v-2.194
		c0-10.606,5.851-20.846,14.629-26.331c1.829-19.749,18.651-35.474,39.131-35.474c18.651,0,34.743,13.531,38.4,31.817
		c13.897,3.291,24.137,15.726,24.137,29.989v2.194C360.594,99.988,347.063,113.885,329.874,113.885z M298.057,30.137
		c-15.36,0-28.16,12.434-28.16,27.794c0,2.194-1.097,4.023-3.291,4.754c-6.949,3.291-11.337,10.24-11.337,17.92V82.8
		c0,10.971,8.777,19.749,19.749,19.749h54.491c10.971,0,19.749-8.777,19.749-19.749v-2.194c0-10.24-8.046-19.017-18.286-19.749
		c-2.56-0.366-4.754-2.194-5.12-5.12C325.12,41.474,312.686,30.137,298.057,30.137z"/>
	<path style="fill:#33363A;" d="M145.189,424.377h-23.406c-2.926,0-5.486-2.56-5.486-5.486c0-2.926,2.56-5.486,5.486-5.486h23.406
		c2.926,0,5.486,2.56,5.486,5.486C150.674,421.817,148.48,424.377,145.189,424.377z"/>
	<path style="fill:#33363A;" d="M394.971,424.377H191.269c-2.926,0-5.486-2.56-5.486-5.486c0-2.926,2.56-5.486,5.486-5.486h203.703
		c2.926,0,5.486,2.56,5.486,5.486C400.457,421.817,398.263,424.377,394.971,424.377z"/>
	<path style="fill:#33363A;" d="M170.789,424.377H166.4c-2.926,0-5.486-2.56-5.486-5.486c0-2.926,2.56-5.486,5.486-5.486h4.389
		c2.926,0,5.486,2.56,5.486,5.486C176.274,421.817,173.714,424.377,170.789,424.377z"/>
	<path style="fill:#33363A;" d="M410.697,451.805h-23.406c-2.926,0-5.486-2.56-5.486-5.486s2.56-5.486,5.486-5.486h23.406
		c2.926,0,5.486,2.56,5.486,5.486S413.623,451.805,410.697,451.805z"/>
	<path style="fill:#33363A;" d="M341.211,451.805H137.509c-2.926,0-5.486-2.56-5.486-5.486s2.56-5.486,5.486-5.486h203.703
		c2.926,0,5.486,2.56,5.486,5.486S344.137,451.805,341.211,451.805z"/>
	<path style="fill:#33363A;" d="M366.08,451.805h-4.389c-2.926,0-5.486-2.56-5.486-5.486s2.56-5.486,5.486-5.486h4.389
		c2.926,0,5.486,2.56,5.486,5.486S369.006,451.805,366.08,451.805z"/>
</g>
<g>
</g>
<g>
</g>
<g>
</g>
<g>
</g>
<g>
</g>
<g>
</g>
<g>
</g>
<g>
</g>
<g>
</g>
<g>
</g>
<g>
</g>
<g>
</g>
<g>
</g>
<g>
</g>
<g>
</g>
</svg>
