<svg id="Layer_3" height="512" viewBox="0 0 64 64" width="512" xmlns="http://www.w3.org/2000/svg" data-name="Layer 3"><path d="m14 26h36v28h-36z" fill="#fff"/><path d="m26 42h12v12h-12z" fill="#eecc61"/><path d="m28 42h4a0 0 0 0 1 0 0v10a0 0 0 0 1 0 0h-2a2 2 0 0 1 -2-2v-8a0 0 0 0 1 0 0z" fill="#fce79c"/><path d="m34 42h4a0 0 0 0 1 0 0v10a0 0 0 0 1 0 0h-2a2 2 0 0 1 -2-2v-8a0 0 0 0 1 0 0z" fill="#fce79c"/><path d="m48 26h10v4h-10z" fill="#f3a845"/><path d="m52 28h6v-2h-8a2 2 0 0 0 2 2z" fill="#eecc61"/><path d="m48 50h10v4h-10z" fill="#f3a845"/><path d="m52 52h6v-2h-8a2 2 0 0 0 2 2z" fill="#eecc61"/><path d="m50 30h6v20h-6z" fill="#e3e8f6"/><path d="m52 46a2 2 0 0 0 2 2h2v-18h-4z" fill="#f8f7fe"/><path d="m2 22h60v4h-60z" fill="#e3e8f6"/><path d="m6 24h56v-2h-58a2 2 0 0 0 2 2z" fill="#f8f7fe"/><path d="m2 58h60v4h-60z" fill="#e3e8f6"/><path d="m6 60h56v-2h-58a2 2 0 0 0 2 2z" fill="#f8f7fe"/><path d="m4 54h56v4h-56z" fill="#e3e8f6"/><path d="m8 56h52v-2h-54a2 2 0 0 0 2 2z" fill="#f8f7fe"/><path d="m32 2-28 14v6h56v-6z" fill="#f3a845"/><path d="m7 14.5v1.5a3 3 0 0 0 3 3h50v-3l-28-14z" fill="#eecc61"/><path d="m6 26h10v4h-10z" fill="#f3a845"/><path d="m10 28h6v-2h-8a2 2 0 0 0 2 2z" fill="#eecc61"/><path d="m6 50h10v4h-10z" fill="#f3a845"/><path d="m10 52h6v-2h-8a2 2 0 0 0 2 2z" fill="#eecc61"/><path d="m8 30h6v20h-6z" fill="#e3e8f6"/><path d="m10 46a2 2 0 0 0 2 2h2v-18h-4z" fill="#f8f7fe"/><path d="m24 38h16v4h-16z" fill="#f3a845"/><path d="m28 40h12v-2h-14a2 2 0 0 0 2 2z" fill="#eecc61"/><path d="m27 30h10v4h-10z" fill="#f3a845"/><path d="m31 32h6v-2h-8a2 2 0 0 0 2 2z" fill="#eecc61"/><circle cx="32" cy="13" fill="#e3e8f6" r="5"/><ellipse cx="33.5" cy="13" fill="#f8f7fe" rx="3.5" ry="4.746"/><path d="m59.732 22.991a10.5 10.5 0 0 0 -7.863-16.963q-.43-.028-.869-.028t-.869.028a10.5 10.5 0 0 0 -7.863 16.963l8.732 11.009z" fill="#aa2b24"/><path d="m52 6.045a10.5 10.5 0 0 0 -7.732 16.946l7.732 9.748 7.732-9.748a10.5 10.5 0 0 0 -7.732-16.946z" fill="#d24034"/><circle cx="51" cy="17" fill="#e3e8f6" r="7"/><ellipse cx="52" cy="17" fill="#f8f7fe" rx="6" ry="6.92"/><path d="m62 57h-1v-3a1 1 0 0 0 -1-1h-1v-3a1 1 0 0 0 -1-1h-1v-18h1a1 1 0 0 0 1-1v-4.478l1.515-1.909a11.187 11.187 0 0 0 1.492-11.676 11.608 11.608 0 0 0 -10.073-6.907 14.539 14.539 0 0 0 -1.867 0 12.005 12.005 0 0 0 -5.882 1.945l-11.738-5.87a1 1 0 0 0 -.894 0l-28 14a1 1 0 0 0 -.553.895v5h-1a1 1 0 0 0 -1 1v4a1 1 0 0 0 1 1h3v3a1 1 0 0 0 1 1h1v18h-1a1 1 0 0 0 -1 1v3h-1a1 1 0 0 0 -1 1v3h-1a1 1 0 0 0 -1 1v4a1 1 0 0 0 1 1h60a1 1 0 0 0 1-1v-4a1 1 0 0 0 -1-1zm-13-4v-2h8v2zm-24-12v-2h14v2zm6 2v10h-4v-10zm2 0h4v10h-4zm6 0h1a1 1 0 0 0 1-1v-4a1 1 0 0 0 -1-1h-16a1 1 0 0 0 -1 1v4a1 1 0 0 0 1 1h1v10h-8v-3a1 1 0 0 0 -1-1h-1v-18h1a1 1 0 0 0 1-1v-3h27.172l4.828 6.087v15.913h-1a1 1 0 0 0 -1 1v3h-8zm16 6h-4v-14a1 1 0 0 0 .783-.379l2.872-3.621h.345zm2-20h-.758l.758-.956zm-6.8-21.974q.394-.026.8-.026c.271 0 .539.009.806.026a9.642 9.642 0 0 1 8.373 5.724 9.217 9.217 0 0 1 -1.231 9.62l-7.948 10.021-7.948-10.021a9.217 9.217 0 0 1 -1.231-9.62 9.641 9.641 0 0 1 8.379-5.724zm-45.2 9.592 27-13.5 10.486 5.243a11.62 11.62 0 0 0 -2.493 3.576 11.151 11.151 0 0 0 -.075 9.063h-34.918zm-2 6.382h38.062c.142.2.267.415.423.613l1.101 1.387h-39.586zm12 4v2h-8v-2zm-6 4h4v18h-4zm-2 20h8v2h-8zm-2 4h54v2h-54zm56 6h-58v-2h58z"/><path d="m37 29h-10a1 1 0 0 0 -1 1v4a1 1 0 0 0 1 1h10a1 1 0 0 0 1-1v-4a1 1 0 0 0 -1-1zm-1 4h-8v-2h8z"/><path d="m32 7a6 6 0 1 0 6 6 6.006 6.006 0 0 0 -6-6zm0 10a4 4 0 1 1 4-4 4 4 0 0 1 -4 4z"/><path d="m51 25a8 8 0 1 0 -8-8 8.009 8.009 0 0 0 8 8zm0-14a6 6 0 1 1 -6 6 6.006 6.006 0 0 1 6-6z"/></svg>