<svg id="Capa_1" enable-background="new 0 0 511.997 511.997" height="512" viewBox="0 0 511.997 511.997" width="512" xmlns="http://www.w3.org/2000/svg"><g><g><g><path d="m453.545 18.12h-126.652c-26.887 0-48.682 21.796-48.682 48.682v63.215c0 26.887 21.796 48.682 48.682 48.682h63.644l30.466 34.813c9.037 10.326 26.044 3.935 26.044-9.787v-25.025h6.498c26.887 0 48.682-21.796 48.682-48.682v-63.216c.001-26.886-21.795-48.682-48.682-48.682z" fill="#9dc6fb"/><path d="m350.027 178.699h-23.135c-26.884 0-48.682-21.798-48.682-48.682v-63.217c0-26.884 21.798-48.682 48.682-48.682h23.135c-26.884 0-48.682 21.798-48.682 48.682v63.218c0 26.883 21.798 48.681 48.682 48.681z" fill="#80b4fb"/></g><g><path d="m69.61 238.091h161.585c34.302 0 62.11 27.807 62.11 62.11v80.651c0 34.302-27.807 62.11-62.11 62.11h-81.198l-38.869 44.415c-11.529 13.174-33.228 5.02-33.228-12.486v-31.928h-8.291c-34.302 0-62.11-27.807-62.11-62.11v-80.653c.001-34.302 27.808-62.109 62.111-62.109z" fill="#e27a66"/><path d="m110.389 488.18c-11.697 12.015-32.487 3.845-32.487-13.289v-31.931h-8.293c-34.299 0-62.109-27.81-62.109-62.109v-80.654c0-34.299 27.81-62.109 62.109-62.109h27.116c-34.307 0-62.109 27.81-62.109 62.109v80.654c0 34.299 27.802 62.109 62.109 62.109h8.293v31.932c0 5.46 2.114 10.015 5.371 13.288z" fill="#dd636e"/></g><g><path d="m360.757 277.144h103.832c22.042 0 39.911 17.869 39.911 39.911v51.825c0 22.042-17.869 39.911-39.911 39.911h-52.177l-24.977 28.54c-7.408 8.465-21.352 3.226-21.352-8.024v-20.517h-5.327c-22.042 0-39.911-17.869-39.911-39.911v-51.825c.001-22.041 17.87-39.91 39.912-39.91z" fill="#ffe07d"/><path d="m386.961 437.848c-7.516 7.721-20.876 2.47-20.876-8.539v-20.519h-5.329c-22.04 0-39.91-17.87-39.91-39.91v-51.827c0-22.04 17.87-39.91 39.91-39.91h17.424c-22.045 0-39.91 17.87-39.91 39.91v51.827c0 22.04 17.865 39.91 39.91 39.91h5.329v20.519c.001 3.509 1.359 6.436 3.452 8.539z" fill="#ffd064"/></g><path d="m339.134 118.087h-179.128c-38.026 0-68.853 30.827-68.853 68.853v89.407c0 38.026 30.827 68.853 68.853 68.853h90.013l43.089 49.237c12.781 14.604 36.835 5.565 36.835-13.842v-35.395h9.191c38.026 0 68.853-30.827 68.853-68.853v-89.407c0-38.027-30.826-68.853-68.853-68.853z" fill="#f9f6f9"/><path d="m192.725 345.199h-32.72c-38.023 0-68.852-30.829-68.852-68.852v-89.411c0-38.023 30.829-68.852 68.852-68.852h32.72c-38.023 0-68.852 30.829-68.852 68.852v89.411c0 38.023 30.829 68.852 68.852 68.852z" fill="#dddaec"/><g><path d="m157.509 18.119h-100.167c-21.264 0-38.502 17.238-38.502 38.502v49.996c0 21.264 17.238 38.502 38.502 38.502h50.335l24.095 27.533c7.147 8.166 20.598 3.112 20.598-7.74v-19.792h5.139c21.264 0 38.502-17.238 38.502-38.502v-49.997c0-21.264-17.238-38.502-38.502-38.502z" fill="#b3e59f"/><path d="m75.638 145.118h-18.297c-21.262 0-38.501-17.239-38.501-38.501v-49.998c0-21.262 17.239-38.501 38.501-38.501h18.297c-21.262 0-38.501 17.239-38.501 38.501v49.997c0 21.263 17.239 38.502 38.501 38.502z" fill="#95d6a4"/></g></g><g><path d="m464.591 269.641h-49.101v-51.045c4.35 4.885 10.378 7.517 16.611 7.517 2.653 0 5.344-.477 7.956-1.458 8.805-3.31 14.493-11.524 14.493-20.927v-17.534c30.519-.54 55.177-25.533 55.177-56.178v-63.209c0-30.981-25.205-56.187-56.187-56.187h-126.647c-30.98 0-56.186 25.205-56.186 56.187v43.785h-67.377c.113-1.312.181-2.635.181-3.976v-49.995c0-25.366-20.637-46.002-46.002-46.002h-100.167c-25.365 0-46.002 20.636-46.002 46.002v49.996c0 25.366 20.637 46.002 46.002 46.002h34.446c-5.337 10.561-8.127 22.207-8.127 34.314v43.66h-14.061c-38.377 0-69.6 31.227-69.6 69.61v80.65c0 38.383 31.223 69.61 69.6 69.61h.8v24.43c0 11.128 6.732 20.848 17.152 24.762 3.088 1.16 6.268 1.723 9.405 1.723 7.447 0 14.651-3.173 19.805-9.065l36.64-41.851h32.527c4.143 0 7.5-3.358 7.5-7.5s-3.357-7.5-7.5-7.5h-35.929c-2.162 0-4.219.933-5.643 2.56l-38.883 44.413c-4.843 5.537-10.904 3.833-12.647 3.178-1.742-.655-7.427-3.362-7.427-10.72v-31.93c0-4.142-3.357-7.5-7.5-7.5h-8.3c-30.106 0-54.6-24.498-54.6-54.61v-80.65c0-30.112 24.493-54.61 54.6-54.61h14.06v30.75c0 42.105 34.25 76.36 76.35 76.36h86.606l37.257 42.571c-6.411 23.488-28.007 40.188-52.683 40.188h-15.68c-4.143 0-7.5 3.358-7.5 7.5s3.357 7.5 7.5 7.5h15.681c28.979 0 54.634-18.076 64.882-44.347 3.891 1.988 8.193 3.041 12.65 3.041 1.039 0 2.086-.057 3.138-.172 5.79-.633 11.146-2.954 15.446-6.535 8.29 8.278 19.379 13.248 31.277 13.787v13.075c0 8.279 5.008 15.51 12.759 18.423 2.299.864 4.665 1.283 7 1.283 5.54 0 10.901-2.361 14.737-6.744l22.734-25.987h48.777c26.14 0 47.406-21.267 47.406-47.407v-51.822c0-26.145-21.267-47.416-47.406-47.416zm-438.251-163.024v-49.996c0-17.095 13.907-31.002 31.002-31.002h100.167c17.095 0 31.002 13.907 31.002 31.002v49.996c0 17.095-13.907 31.002-31.002 31.002h-5.14c-4.143 0-7.5 3.358-7.5 7.5v19.792c0 2.658-1.928 3.67-2.757 3.981s-2.945.821-4.697-1.18l-24.095-27.532c-1.424-1.627-3.481-2.561-5.644-2.561h-50.334c-17.095 0-31.002-13.908-31.002-31.002zm283.89 287.456c-2.545.277-7.424.053-11.493-4.599l-43.074-49.211c-1.424-1.627-3.481-2.561-5.644-2.561h-90.01c-33.828 0-61.35-27.526-61.35-61.36v-89.41c0-11.092 2.899-21.705 8.439-31.085l19.029 21.743c3.752 4.289 8.996 6.598 14.415 6.598 2.283 0 4.599-.41 6.846-1.254 7.581-2.849 12.48-9.923 12.48-18.023v-12.353c17.593-.893 32.602-11.72 39.535-26.966h139.737c.708 0 1.415.007 2.115.042.124.006.248.009.371.009 3.975 0 7.289-3.122 7.485-7.134.202-4.137-2.988-7.655-7.126-7.857-.839-.041-1.717-.059-2.846-.059h-53.433v-43.786c0-22.71 18.476-41.187 41.186-41.187h126.648c22.71 0 41.187 18.476 41.187 41.187v63.209c0 22.71-18.477 41.187-41.187 41.187h-6.49c-4.143 0-7.5 3.358-7.5 7.5v25.025c0 4.725-3.652 6.465-4.771 6.886-1.12.421-5.018 1.52-8.134-2.039l-11.155-12.751v-8.891c0-29.171-16.234-55.371-42.369-68.375-3.709-1.845-8.21-.334-10.056 3.374-1.845 3.708-.335 8.211 3.374 10.056 21.003 10.451 34.051 31.505 34.051 54.945v89.41c0 .179.002.351-.005.529-.002.062-.004.125-.004.187-.374 33.439-27.892 60.644-61.342 60.644h-9.199c-4.143 0-7.5 3.358-7.5 7.5v35.39c0 2.405-.545 4.611-1.629 6.578-2.064 3.769-6.119 6.414-10.581 6.902zm186.767-25.194c0 17.869-14.537 32.407-32.406 32.407h-52.181c-2.163 0-4.221.934-5.645 2.562l-24.975 28.548c-1.927 2.202-4.259 1.641-5.173 1.298-.912-.343-3.035-1.457-3.035-4.381v-20.526c0-4.142-3.357-7.5-7.5-7.5h-5.325c-9.646 0-18.653-4.25-24.777-11.527.966-2.899 1.46-5.964 1.46-9.167v-27.89h1.699c20.237 0 39.306-7.84 53.694-22.076 12.604-12.471 20.336-28.585 22.205-45.985h49.552c17.869 0 32.406 14.542 32.406 32.417v51.82z"/><path d="m232.573 191.765c-.025-.069-.053-.138-.081-.206-1.452-3.531-4.878-5.846-8.678-5.807-3.818.004-7.221 2.29-8.667 5.825-.023.057-.046.114-.067.171l-31.05 81.524c-1.475 3.871.469 8.204 4.339 9.678 3.871 1.472 8.204-.469 9.679-4.339l5.893-15.473h39.535l5.832 15.452c1.133 3.003 3.987 4.854 7.018 4.854.88 0 1.775-.156 2.647-.485 3.875-1.463 5.831-5.79 4.368-9.665zm-22.919 56.372 14.145-37.139 14.016 37.139z"/><path d="m175.785 186.832h-33.269c-4.143 0-7.5 3.358-7.5 7.5v82.083c0 4.142 3.357 7.5 7.5 7.5s7.5-3.358 7.5-7.5v-34.319h23.126c4.143 0 7.5-3.358 7.5-7.5s-3.357-7.5-7.5-7.5h-23.126v-25.265h25.769c4.143 0 7.5-3.358 7.5-7.5s-3.357-7.499-7.5-7.499z"/><path d="m351.319 281.688c1.465 1.465 3.384 2.197 5.304 2.197 1.919 0 3.839-.732 5.303-2.197 2.93-2.929 2.93-7.677.001-10.606l-7.282-7.283c5.757-8.014 9.16-17.826 9.16-28.424 0-26.933-21.912-48.845-48.845-48.845s-48.845 21.912-48.845 48.845 21.912 48.844 48.845 48.844c10.933 0 21.039-3.611 29.187-9.703zm-36.359-12.47c-18.662 0-33.845-15.183-33.845-33.844 0-18.662 15.183-33.845 33.845-33.845s33.845 15.183 33.845 33.845c0 6.452-1.816 12.486-4.962 17.622l-8.368-8.368c-2.929-2.929-7.678-2.929-10.606 0-2.93 2.929-2.93 7.677-.001 10.606l8.511 8.511c-5.306 3.456-11.629 5.473-18.419 5.473z"/></g></g></svg>