<svg id="Capa_1" enable-background="new 0 0 512 512" height="512" viewBox="0 0 512 512" width="512" xmlns="http://www.w3.org/2000/svg"><g><path d="m467.321 202.74v294.56c0 8.118-6.583 14.701-14.701 14.701h-189.12l-7.467-1.903-7.533 1.902h-34.594c-85.077-117.12-85.077-367.312-6.737-500.627l35.047 94.725c1.287 3.474 3.563 5.997 6.284 7.585 4.156 4.264 10.606 3.981 15 .003 2.723-1.587 4.999-4.112 6.284-7.588l35.706-96.497c2.132-5.769 7.634-9.601 13.784-9.601h71.907c8.118 0 14.701 6.583 14.701 14.701v126.599c0 25.816 20.923 46.739 46.739 46.739 8.117 0 14.7 6.583 14.7 14.701z" fill="#ffca8b"/><path d="m213.907 512h-154.527c-8.118 0-14.701-6.583-14.701-14.701v-294.559c0-8.118 6.583-14.701 14.701-14.701 25.816 0 46.739-20.923 46.739-46.739v-126.599c0-8.118 6.583-14.701 14.701-14.701h71.907c6.15 0 11.651 3.832 13.784 9.601l.659 1.772c-61.77 142.629-55.981 365.972 6.737 500.627z" fill="#ffbe73"/><path d="m248.5 113.683v398.317h15v-398.314c-4.577 2.668-10.421 2.667-15-.003z" fill="#fff8e6"/><path d="m366.775 159.73v64.242c0 9.045-7.325 16.37-16.37 16.37h-17.853c-16.032-23.503-17.932-71.781-.082-96.981h17.935c9.046-.001 16.37 7.324 16.37 16.369z" fill="#fff8e6"/><path d="m332.553 240.341h-20.15c-9.045 0-16.37-7.325-16.37-16.37v-64.241c0-9.045 7.325-16.37 16.37-16.37h20.068c-11.436 27.784-10.818 69.548.082 96.981z" fill="#ffeab7"/><path d="m216.379 159.73v64.242c0 9.045-7.325 16.37-16.37 16.37h-17.853c-16.032-23.503-17.932-71.781-.083-96.981h17.936c9.046-.001 16.37 7.324 16.37 16.369z" fill="#fff8e6"/><path d="m182.157 240.341h-20.15c-9.045 0-16.37-7.325-16.37-16.37v-64.241c0-9.045 7.325-16.37 16.37-16.37h20.068c-11.436 27.784-10.818 69.548.082 96.981z" fill="#ffeab7"/><path d="m428.215 353.548v95.343c0 8.118-6.572 14.701-14.69 14.701h-57.772c-28.207-35.014-28.587-102.679-6.449-124.745h64.221c8.118 0 14.69 6.583 14.69 14.701z" fill="#fff8e6"/><path d="m355.753 463.592h-45.029c-8.118 0-14.69-6.583-14.69-14.701v-95.343c0-8.118 6.573-14.701 14.69-14.701h38.58c-16.092 33.924-13.702 88.73 6.449 124.745z" fill="#ffeab7"/><path d="m216.379 353.548v95.343c0 8.118-6.572 14.701-14.69 14.701h-57.772c-28.207-35.014-28.587-102.679-6.449-124.745h64.221c8.118 0 14.69 6.583 14.69 14.701z" fill="#fff8e6"/><path d="m143.916 463.592h-45.029c-8.118 0-14.69-6.583-14.69-14.701v-95.343c0-8.118 6.573-14.701 14.69-14.701h38.58c-16.091 33.924-13.701 88.73 6.449 124.745z" fill="#ffeab7"/></g></svg>