<svg clip-rule="evenodd" fill-rule="evenodd" height="173.397mm" image-rendering="optimizeQuality" shape-rendering="geometricPrecision" text-rendering="geometricPrecision" viewBox="0 0 173.397 173.397" width="173.397mm" xmlns="http://www.w3.org/2000/svg"><g id="Layer_x0020_1"><g id="_317764000"><g><g fill="#5eabcc"><path id="_317766712" d="m61.6993 26.0255c.0006.9418-.7625 1.7059-1.7043 1.7065-.9419.0007-1.7059-.7624-1.7066-1.7043l.0197-13.8112c-.0007-.9419.7624-1.7059 1.7043-1.7066.0244-.0001.0485.0006.0727.0016l8.8288-.0127c.7121-.0032 1.3241.4311 1.5814 1.0504l6.2373 13.7565c.3861.8577.004 1.8661-.8537 2.2522s-1.8661.004-2.2522-.8537z"/><path id="_317766592" d="m88.2231 41.298c.3886-.8555 1.3973-1.234 2.2527-.8453.8554.3886 1.234 1.3973.8453 2.2527l13.2474-1.0329c.6598-.6687 1.737-.676 2.4058-.0162.6687.6598.676 1.737.0162 2.4058l-13.2822 13.4328c-.3125.3635-.7756.5939-1.2926.5943l-9.2069.0002v-.0037c-.236.0003-.4759-.0487-.7048-.1527-.8555-.3887-1.234-1.3974-.8454-2.2528z"/><path id="_317766856" d="m107.218 24.7629c.6599.6699.652 1.7481-.0179 2.4081-.6698.6599-1.748.652-2.408-.0179l-13.75-1.8793c.3897.8567.0111 1.8672-.8456 2.2569s-1.8671.0112-2.2568-.8455l-6.2526-13.6989c-.1182-.2318-.1851-.4943-.1853-.7724-.0006-.9419.7624-1.7059 1.7043-1.7066l9.2069.0002v.0027c.4404-.0003.8806.1691 1.2141.5076z"/></g><path id="_317766664" d="m60.0837 35.1606-1.7604-8.8056c-.1863-.9226.4108-1.8216 1.3334-2.0078.1313-.0265.2622-.0371.3907-.0332l65.4428-.085c1.9913-.0023 8.4351 5.4084 11.7065 10.4571.8754 1.3509 1.5615 2.7034 1.9292 3.9598.4375 1.4949.4301 2.8875-.1987 4.0657-.8286 1.5525-2.5753 2.5083-5.5778 2.5126-.061.0002-.1213-.0028-.1806-.0087-1.1883-.0691-3.9363-.1128-7.627-.1713-19.2351-.3051-63.6826-1.0102-65.4581-9.8836z" fill="#76bedd"/><path id="_317766736" d="m122.444 33.1542c.9409-.0043 1.7071.7552 1.7113 1.6961.0043.9409-.7552 1.707-1.6961 1.7113l-8.38.0121c-.9409.0043-1.707-.7552-1.7113-1.6961-.0042-.9409.7553-1.707 1.6962-1.7113z" fill="#fff" fill-rule="nonzero"/></g><path id="_317766976" d="m127.295 110.235c-.335.4909-.8823.7507-1.4352.7402l-2.065 9.0844c-.0313.167-.1619.3057-.3389.3389-.0687.0129-23.9868 4.5423-25.5132 4.0244-1.3886-.4712-8.2535-19.5669-10.1783-24.9894-.7922-.0095-1.494-.5759-1.6453-1.3843-2.0723-11.0372 1.456-23.5241 6.504-31.8464 1.8678-3.0795 3.9501-5.6131 6.048-7.3277 2.3161-1.893 4.7158-2.8532 6.9878-2.5758 1.1941.1459 2.3148.6198 3.3295 1.4617 1.8263-1.541 3.9559-1.8574 6.2094-1.1905 2.0761.6145 4.2028 2.1222 6.2139 4.2907 1.917 2.0669 3.76 4.754 5.3681 7.8403 5.9 11.3234 8.5564 29.7231.5152 41.5335z" fill="#6e555e"/><path id="_317766088" d="m103.204 123.921c-2.7851.4111-4.8473.6423-5.2612.5019-1.3886-.4712-8.2535-19.5669-10.1783-24.9894-.7922-.0095-1.494-.5759-1.6453-1.3843-.3249-1.7302-.5119-3.496-.5773-5.2758 3.13-.3268 6.3473-.0957 9.2988.8918 1.8357.6142 3.5665 1.5081 5.0837 2.7155 6.9859 5.5598 6.4688 14.7925 4.0318 22.51-.0889 1.7061-.3357 3.3982-.7522 5.0303z" fill="#634d55"/><path id="_317765728" d="m79.5089 144.339h60.2474v-18.2338c0-10.0287-8.2052-18.2339-18.2338-18.2339h-23.7798c-10.0286 0-18.2338 8.2052-18.2338 18.2339z" fill="#b08cd2"/><path id="_317766064" d="m79.5089 144.339h32.4294c-.3376-.9703-.7377-1.8989-1.2117-2.7705-2.6318-4.8381-7.0315-7.3829-11.9149-9.2125 3.2712-3.5908 4.8839-8.4691 5.1443-13.465 1.1121-3.5221 1.8239-7.3595 1.6058-11.0196h-7.8192c-10.0286 0-18.2337 8.2051-18.2337 18.2336z" fill="#9e7ebd"/><path id="_317766160" d="m121.738 144.339h3.0867v-17.2904c0-.8523-.691-1.5433-1.5434-1.5433-.8522 0-1.5433.691-1.5433 1.5433z" fill="#9e7ebd"/><path id="_317766208" d="m117.317 104.478c-2.5347 1.7387-5.1986 2.6082-7.877 2.6082-2.6974 0-5.3798-.8818-7.9302-2.6449-.2196-.1517-.3876-.3503-.4997-.5731l-.0006.0003-8.3496-16.6013c-.3809-.7551-.081-1.6751.6692-2.0616l-.0001-.0002c11.0083-5.6657 14.6836-14.6485 14.6944-14.6744.3296-.7823 1.2312-1.1493 2.0136-.8198.3849.1623.6692.463.8196.8199l.0001-.0001c.0109.0259 3.6861 9.0087 14.6944 14.6744.7517.3875 1.0494 1.3082.6692 2.0618l-.0061.012-.0006.0012-8.3427 16.5881c-.1307.2592-.3248.4655-.5539.6095z" fill="#f2c397"/><path id="_317765704" d="m105.425 106.427c-1.3285-.4409-2.6386-1.1028-3.9157-1.9856-.2196-.1517-.3876-.3502-.4997-.5731l-.0007.0003-4.8896-9.722c1.3608.5717 2.6452 1.3114 3.8049 2.2342 3.3753 2.6863 4.9988 6.2302 5.5008 10.0462z" fill="#f3b088"/><path id="_317766328" d="m101.335 107.443c.9196-.6317 1.4919-1.4873 1.3124-2.6297-.0704-.4483-.295-1.0321-.5706-1.4015-.0143-.0192-.025-.0367-.0358-.0581l-.0061-.0122c-.0798-.1597-.0427-.347.0922-.464s.3256-.1274.4724-.0257c4.4371 3.0714 9.2424 3.0711 13.6796-.0001.147-.1018.3383-.0911.4731.0266.1349.1177.1714.3057.0905.4653l-.0062.0122c-.0105.0206-.021.0374-.0349.056-.2756.3694-.5001.9532-.5706 1.4015-.1794 1.1424.3927 1.998 1.3124 2.6297.1664.1143.2167.336.1157.5109l-7.8858 13.6584c-.0708.1227-.1925.1929-.3341.1929s-.2633-.0702-.3341-.1929l-7.8858-13.6584c-.101-.1749-.0508-.3966.1157-.5109z" fill="#f2c397"/><path id="_317764984" d="m101.335 107.443c.9197-.6317 1.492-1.4873 1.3126-2.6297-.0704-.4481-.295-1.032-.5706-1.4014-.0144-.0192-.0251-.0367-.036-.0582l-.006-.0122c-.0799-.1596-.0426-.3469.0922-.4639.1349-.1169.3256-.1274.4724-.0257.7862.5441 1.584.9915 2.3892 1.3428.8688 3.2961.7402 6.9026.0652 10.4009l-3.8346-6.6417c-.101-.1748-.0507-.3966.1156-.5109z" fill="#f3b088"/><path id="_317765560" d="m101.22 107.954.6616 1.1458c.3195.0737.65.13.9894.1705 4.5758.5458 10.7759-1.7782 13.5917-2.9751-.1749-.3325-.2702-.702-.2635-1.1116-2.195 1.2683-4.4719 1.9025-6.7594 1.9025-2.2877 0-4.5645-.6342-6.7591-1.9024.0148.9213-.4852 1.6388-1.2489 2.1916-.0316.0228-.0636.0455-.0961.0678-.1665.1143-.2167.336-.1157.5109z" fill="#f3b088"/><path id="_317765680" d="m101.22 107.954.6615 1.1459c.3196.0738.6502.13.9895.1705.8634.1029 1.7846.1037 2.73.0292.0036-.9683-.0516-1.9289-.1757-2.8728-.9254-.3072-1.842-.7215-2.7446-1.2431.0148.9214-.4852 1.6389-1.2489 2.1916-.0317.0229-.0635.0456-.0962.0678-.1663.1143-.2166.3361-.1156.5109z" fill="#f49e7a"/><path id="_317765392" d="m72.3545 100.378c-2.3545 1.1899-4.8863 1.7828-7.4218 1.7783-2.6998-.0048-5.397-.6888-7.8824-2.0515v4.3224l7.6519 8.4125 6.3192-6.9474c.361-.8753.809-1.7226 1.3331-2.5376z" fill="#f9c5b8" fill-rule="nonzero"/><path id="_317765344" d="m72.3545 100.378c-1.2593.6364-2.5694 1.102-3.9035 1.3967-2.3399 3.1578-3.1701 6.5554-2.6914 9.9024l5.2617-5.7848c.3611-.8753.8092-1.7226 1.3332-2.5376z" fill="#fab1a6" fill-rule="nonzero"/><path id="_317765104" d="m69.5244 143.42c-.2807.5532-.8548.9323-1.5175.9323h-32.6653c-.9393 0-1.7008-.7615-1.7008-1.7008v-20.6224c0-4.987 2.0391-9.5198 5.324-12.8047 3.285-3.285 7.8177-5.3241 12.8047-5.3241h4.9562c.5217 0 .9884.235 1.3004.6048l6.6761 6.8163 5.4984-5.6139c.6568-.6677 1.7307-.6767 2.3984-.02.2561.2519.4152.5651.4771.8933l9.971-.4153.013-.0012c.2338-.0183.4385.1565.4568.3903l2.8685 36.3878c.0021.0172.0032.0346.0032.0524 0 .2348-.1904.4252-.4252.4252z" fill="#71c285"/><path id="_317765368" d="m69.5244 143.42c-.2807.5532-.8548.9323-1.5175.9323h-6.5529c.3387-.9752.7401-1.9084 1.2163-2.784 2.6684-4.9056 7.1475-7.4584 12.1123-9.2898-2.9792-3.308-4.5635-7.6896-4.9938-12.2452-2.5689-3.021-4.0164-6.3386-4.1493-9.6688l4.5611-4.657c.6568-.6677 1.7307-.6767 2.3984-.02.2561.2519.4152.5651.4771.8933l9.971-.4153.013-.0012c.2338-.0183.4385.1565.4568.3903l2.8685 36.3878c.0021.0172.0032.0346.0032.0524 0 .2348-.1904.4252-.4252.4252z" fill="#66b47d"/><path id="_317764168" d="m48.839 144.352h-3.4016v-16.5449c0-.9393.7615-1.7008 1.7008-1.7008s1.7008.7615 1.7008 1.7008z" fill="#66af78"/><path id="_317764696" d="m48.3069 104.235c1.1216-.2191 2.2793-.3341 3.4626-.3341h4.9562c.5217 0 .9884.235 1.3004.6048l6.6761 6.8163 5.4984-5.6139c.6568-.6677 1.7307-.6767 2.3984-.02.2561.2519.4152.5651.4771.8933l3.8978-.1623-3.8828 12.7559c-.4513.8219-1.4835 1.1223-2.3054.6711-.0721-.0397-.1401-.0838-.204-.1317l-5.8795-3.9296-5.8796 3.9295c-.0639.0479-.1318.0921-.2039.1317-.8219.4512-1.8541.1508-2.3054-.6711z" fill="#8cce9c"/><path id="_317764384" d="m65.6395 110.365 4.5611-4.657c.6568-.6677 1.7307-.6767 2.3984-.02.2561.2519.4152.5651.4771.8933l3.8978-.1623-3.8828 12.7559c-.4513.8219-1.4835 1.1223-2.3054.6711-.0721-.0397-.1401-.0838-.204-.1317l-2.1255-1.4205c-1.7353-2.5336-2.7089-5.227-2.8167-7.9288z" fill="#7ebf92"/><path id="_317764528" d="m78.5614 82.8292c.1311-.0291.2679-.0431.4083-.0398.9356.022 1.6763.7984 1.6543 1.734-.2106 8.7653-4.1337 14.4601-9.1315 17.0528-2.0741 1.0759-4.3359 1.6121-6.6013 1.6084-2.2649-.0037-4.5278-.5488-6.6047-1.6348-4.9941-2.6117-8.9053-8.3292-9.0907-17.1208-.0105-.5344.2278-1.0158.6083-1.3339-.6696-3.0017-1.7497-10.7529 4.6243-11.8456 7.4727-1.281 17.5318-1.1746 17.5609-1.1743.1025.0008.1962.038.269.0992l5.5708 4.4036c.0972.0768.1516.1877.1598.3023l.0013-.0001z" fill="#f9c5b8" fill-rule="nonzero"/><path id="_317764480" d="m78.2889 94.5589c-1.6588 3.2607-4.0673 5.6015-6.7964 7.0173-1.2191.6323-2.5031 1.0783-3.8145 1.3377.6703-1.0855 1.5093-2.1478 2.527-3.1751 2.2339-2.2553 5.0805-3.9922 8.0839-5.1799z" fill="#fab1a6" fill-rule="nonzero"/><path id="_317764264" d="m79.7502 66.3388c7.3558 6.0338 1.1345 18.1152.6997 18.9364-.2699.5433-.8234.9235-1.4721.9413-.9356.0256-1.715-.712-1.7406-1.6476-.2004-6.7497-1.5694-9.5568-2.399-10.6491-6.9179 3.8088-12.3623 1.7518-16.3012.2631-1.5517-.5865-2.7495-1.0391-3.3271-.8393-.0976 5.822-2.4219 10.9982-2.7527 11.7064-.1161.279-.3082.5306-.5709.7209-.7594.5504-1.8214.3808-2.3717-.3786-5.0457-6.9595-4.0822-13.967-.3198-19.3985 2.2011-3.1774 5.3756-5.7919 8.8473-7.5024 3.5146-1.7315 7.3623-2.5554 10.8586-2.1264 4.967.6095 9.1913 3.6333 10.8495 9.9738z" fill="#6e555e"/><path id="_317764336" d="m64.8912 103.185c-2.2649-.0037-4.5278-.5488-6.6047-1.6348-.4202-.2198-.8328-.4616-1.2362-.7253v2.692c5.4186 4.01 10.0183 3.3239 13.5021 1.2377.4976-.8232 1.1047-1.6074 1.8021-2.3457v-1.317c-.2833.172-.5708.3336-.862.4847-2.0741 1.0759-4.3359 1.6121-6.6013 1.6084z" fill="#fab1a6" fill-rule="nonzero"/><path id="_317764888" d="m66.1348 106.342c1.6216-.2099 3.0995-.7985 4.4176-1.5878.4976-.8232 1.1047-1.6074 1.8021-2.3457v-1.317c-.2833.172-.5708.3336-.862.4847-1.2191.6323-2.5031 1.0783-3.8145 1.3377-.6925 1.1218-1.2047 2.2685-1.5432 3.4281z" fill="#fb9f95" fill-rule="nonzero"/><g><path id="_317764096" d="m93.9356 135.209v-5.6887c-2.2289 1.1467-4.6572 1.7182-7.0899 1.7142-2.4495-.004-4.8959-.5932-7.1414-1.7675-.0972-.0508-.194-.1028-.2904-.1558v5.7886l3.984 6.9004.0629.1172 3.2407 5.6132 3.3085-5.7304.0665-.1071z" fill="#f9c5b8" fill-rule="nonzero"/><path id="_317763784" d="m99.1013 116.305c.8535.1057 1.5046.8434 1.484 1.7214-.1836 7.6397-3.6138 12.6087-7.9841 14.8759-1.818.943-3.801 1.413-5.7878 1.4098-1.9865-.0033-3.9705-.4811-5.7916-1.4335-4.3668-2.2836-7.7864-7.2721-7.9479-14.9342-.0132-.6752.3703-1.2659.9364-1.5493.1733-1.1439 1.1737-2.7632 4.9007-4.0952 6.0635-2.1669 15.0275-4.2777 15.0533-4.2837.1541-.0359.3082.0171.4084.1256l4.0042 3.8824c.0696.0676.1109.1534.1239.2426l.0007-.0001z" fill="#f9c5b8" fill-rule="nonzero"/><path id="_317764072" d="m93.7612 96.891c6.6944 2.2398 11.0032 8.7626 6.7763 21.5158-.1647.6441-.7015 1.1586-1.4005 1.2608-.9282.1357-1.7909-.5068-1.9266-1.4351-.6724-4.5151-2.513-6.8832-3.857-8.0478-1.9357 3.6042-6.5685 3.7409-10.8967 3.868-1.7457.0512-3.4314.1007-4.6465.4127-1.1919.3059-1.8808 1.0585-1.4222 2.9433.1793.5802.0405 1.2378-.4175 1.6984-.6603.6641-1.7342.6672-2.3983.0068-6.4569-6.396-5.3363-12.5537-.9506-16.9814 2.4793-2.503 6.0567-4.3899 9.844-5.359 3.7968-.9717 7.8574-1.0328 11.2956.1175z" fill="#6e555e"/><g fill-rule="nonzero"><path id="_317763904" d="m63.0341 161.198c0-8.5495.4482-14.0037 2.6242-18.004 2.2454-4.128 6.1185-6.4506 12.9155-8.6146.7716-.2444 1.5884.0926 1.9772.7656l.0026-.0015 3.4637 5.9992c.0182.0313.035.0629.051.095l2.6282 4.5523 2.6831-4.6473c.0172-.0298.0353-.0586.0539-.0869l3.4097-5.9057c.4087-.7112 1.2554-1.0135 2.0045-.7627 6.7816 2.1616 10.6481 4.4836 12.8909 8.6066 2.1761 4.0004 2.6243 9.4545 2.6243 18.004 0 .9393-.7616 1.7008-1.7009 1.7008h-43.927c-.9393 0-1.7009-.7615-1.7009-1.7008z" fill="#fcd462"/><path id="_317763400" d="m76.7121 162.899h-3.4017v-11.3012c0-.9393.7615-1.7008 1.7009-1.7008.9393 0 1.7008.7615 1.7008 1.7008z" fill="#fcbf58"/><path id="_317763880" d="m100.087 162.899h-3.4017v-11.3012c0-.9393.7615-1.7008 1.7008-1.7008.9394 0 1.7009.7615 1.7009 1.7008z" fill="#fcbf58"/><path id="_317763712" d="m86.8134 134.312c-1.9865-.0033-3.9705-.4811-5.7916-1.4335-.5527-.2891-1.0903-.6214-1.6079-.9971v2.2935c7.7841 2.0595 12.2862.4002 14.5217-1.0652v-1.0052c-.4329.2953-.8785.5612-1.3344.7977-1.818.943-3.801 1.413-5.7878 1.4098z" fill="#fab1a6"/></g></g></g></g></svg>