<svg id="Layer_1" enable-background="new 0 0 512 512" viewBox="0 0 512 512" xmlns="http://www.w3.org/2000/svg"><g><g><path d="m243.6 177.8c-2.1-4.8-7.7-6.9-12.4-4.8l-66.5 29.6c-12.3-13.2-21.3-28.8-28.8-45.2-3.6-7.8-10.8-13.9-20-15.5-14.9-2.7-29.2 7.2-31.9 22.1l-16 87.9c-3 15.7 8.7 31.3 24.9 32.2v.1c15.2 1.9 48.3 6.1 63.7 8l42.3 63 26.5-17.8-46.3-69c-1.9-2.8-4.8-5.1-8.3-6.2l-1.6-.5-44.7-14.3 6.8-37.5 21.8 16.6c3.7 3.4 9 4.6 13.8 2.1 0 0 72.5-38.6 72.5-38.6 4.3-2.4 6.2-7.7 4.2-12.2z" fill="#ffcb80"/></g><g><path d="m266.8 363.6.2-.1-5-9.6c-3.5-6.3-10.6-9.6-17.6-8.3l-11.8 2.2-8.9-9.3-22.3 15 10.6 28.5c13.6.5 42.9-8.7 54.8-18.4z" fill="#8e8e8e"/></g><g><path d="m95.5 425.2c-2.1-5-8.7-8.5-13-11.3l-.2.3c-6.9-4-20.8-12-27.7-16l-21.2 25.2 19.9 9.4c0-.1 22.7 8.2 42.2-7.6z" fill="#8e8e8e"/></g><g><path d="m507.8 199.7v253.4h-503.6v-16.6s79.2-3.2 100.4-15c21.2-11.7 41.5-29.2 86.4-36 44.9-6.7 55.9-13.5 85.5-26.2 29.5-12.7 77.1-17.5 87.6-43.8l34.1-16.5c5.1-4.9 36.4-34.8 40.7-39 0 0 21.9-2.9 32.9-17.6 9.8-13 26.8-32.3 36-42.7z" fill="#f2f1eb"/></g><g><path d="m124 342.2c-.3.4-41.5 71.6-41.7 72-6.9-4-20.8-12-27.7-16l38.1-65.7-20.8-60.8c4.4 6.8 12.3 12 20.9 12.4v.1l26.5 3.3 6.4 42.9c.8 4.1.3 8.4-1.7 11.8z" fill="#ffb534"/></g><g><path d="m159.8 114.1c-1.2 40.4-59.9 40.4-61.1 0 1.3-40.4 59.9-40.4 61.1 0z" fill="#ffb534"/></g><g><g><path d="m316.8 350.3c-1.5 0-2.9-.8-3.6-2.1l-85.5-151.8c-1.1-2-.4-4.6 1.6-5.7s4.6-.4 5.7 1.6l85.4 151.7c1.6 2.7-.5 6.3-3.6 6.3z" fill="#88ab8e"/></g></g><g><g><path d="m221.7 181.5c-1.5 0-2.9-.8-3.6-2.1l-20.2-35.8c-2.7-4.8 4.6-8.8 7.3-4.1 0 0 20.2 35.8 20.2 35.8 1.5 2.6-.6 6.2-3.7 6.2z" fill="#88ab8e"/></g></g><g><g><path d="m125.8 243.4-15.7-5c-5.2-1.6-7.7 6.3-2.5 7.9.3 0 17.3 5.7 17 5.2 4.5.2 5.7-6.8 1.2-8.1z" fill="#ffb534"/></g><g><path d="m134.1 206.8-22.6-20.3c-4-3.6-9.6 2.5-5.6 6.2 0 0 22.6 20.3 22.6 20.3 4.1 3.7 9.7-2.5 5.6-6.2z" fill="#ffb534"/></g></g><g><path d="m489.5 58.9-106.7 41.9 106.7 26.4z" fill="#ffcb80"/></g><g><g><g><path d="m489.5 224.9c-2.3 0-4.2-1.9-4.2-4.2v-161.8c0-2.3 1.9-4.2 4.2-4.2s4.2 1.9 4.2 4.2v161.8c0 2.3-1.9 4.2-4.2 4.2z" fill="#88ab8e"/></g></g></g><g><path d="m507.8 201.9v251.3h-503.6v-16.6c131.2 9.6 401.5-24.7 440-59.7 29.5-26.8 2.1-84.6-12.3-110l7.1-6.8s21.9-2.9 32.9-17.6c8.2-11 24.2-29.2 31.8-37.9z" fill="#eee7da"/></g><g><path d="m509.3 195.9c-1.6-.6-3.4-.2-4.6 1.1-.4.5-5 5.6-11 12.5-.4-38.3.8-114.5-.4-152.4-1-1.9-3.3-2.8-5.3-2.1 0 0-106.7 41.9-106.7 41.9-3.7 1.3-3.4 7.1.5 7.9 0 0 103.6 25.6 103.6 25.6v88.7c-6.2 7.3-12.6 15-16.9 20.8-9.7 13.1-29.9 16-30.1 16-.9.1-1.7.5-2.3 1.1l-40.2 38.6-33.5 16.2c-.9.5-1.7 1.2-2 2.2-5.4 13.4-22.5 20.9-41.5 27.1l-81.9-145.1 4.4-2.3c15-8.6 4.1-31-11.9-24.4 0 0-6 2.7-6 2.7l-18.3-32.5c-1.1-2-3.7-2.7-5.7-1.6s-2.7 3.7-1.6 5.7l17.9 31.8-50.1 22.2c-9.5-10.6-17.8-23.9-26-41.9-1.3-2.7-2.9-5.2-4.8-7.4 41.6-7.6 37-68-5.6-69-30.2-.4-46.1 37.5-25 58.7-12.1 2.7-22 12.3-24.3 25.2l-16 87.9c-1.4 7.7.1 15.5 4.1 22l20 58.9-36.9 63.7-21 24.9c-1.8 2-1 5.4 1.4 6.5 0 0 6.4 3 6.4 3-18.6 1.7-33.7 2.3-34 2.3-2.2.1-4 1.9-4 4.2v16.6c0 2.3 1.9 4.2 4.2 4.2h503.7c2.3 0 4.2-1.9 4.2-4.2v-253.4c-.1-1.8-1.2-3.3-2.8-3.9zm-112.8-96 88.9-34.9v56.8zm-85.9 243.7c-14.5 4.3-28.8 8.4-41.5 14.4l-3.4-6.1c-4.3-7.8-13.2-12-22-10.4l-9.6 1.8-3.9-4.1 1-.7-48.6-72.5c-2.4-3.7-6.2-6.5-10.5-7.9l-42.8-13.7 4.9-27.2 16.4 12.5c5 4.5 12.3 5.7 18.3 2.5 0 0 60.7-32.4 60.7-32.4zm-95.9 33.5-8.2-22c3.8-2.6 12.9-8.7 16.6-11.2 3.3 3 6.9 9 10.2 8 0 0 11.8-2.2 11.8-2.2 5.3-1 10.6 1.5 13.2 6.2l3 5.4c-15 6.7-26.5 11.5-46.6 15.8zm-117.4 43.1c-2.2-3.2-5.9-5.7-9.2-7.7l39.5-68.2c2.2-3.9 3.1-8.4 2.4-12.8l-5.8-39.2 29.9 3.8 43.6 64.9 1.7-1.1 7 18.9c-4.9.9-10.1 1.8-16.1 2.7-36.9 5.5-57.4 18.1-75.4 29.1-6.1 3.5-11 7.2-17.6 9.6zm32-332.5c34.9 1.1 34.9 51.7 0 52.8-34.8-1.3-35-51.6 0-52.8zm-57.2 164.9 16-87.9c3.8-22.1 34.8-25.9 44-5.5 9.8 21.3 18.8 34.9 31.5 48.5l69.3-30.8c6-2.7 10.4 6.2 4.6 9.4 0 0-72.5 38.7-72.5 38.7-2.5 1.4-5.6 1.1-7.9-.6l-23-17.6-22.5-20.3-5.6 6.2 20.8 18.8-5.5 30.5-11.2-3.6c-5.2-1.6-7.7 6.2-2.5 7.9 0 0 15.7 5 15.7 5l44.7 14.2 1.6.5c2.5.8 4.7 2.4 6.1 4.6l44 65.6-.6.4-19 12.8-41-61.2s-39.1-4.9-39.2-4.9c-4.7-.6-24.7-3.2-29-3.7-12.5-1.9-21.3-14.7-18.8-27zm24.5 78.4-15.7-45.9c2.7 1.2 5.5 2.2 8.4 2.7.4.1.7.1 1.1.2 0 0 25.2 3.2 25.2 3.2l5.9 39.8.2 1.7c.4 2.6-.1 5.2-1.4 7.4l-39.6 68.3-20.5-11.8 36-62.1c.7-1.1.8-2.3.4-3.5zm-56.5 90.8 15.5-18.3 24.7 14.3c.4.2.9.4 1.3.4 1.1.7 6 3.7 6.8 4.6-9.7 2.4-22 4.2-34.2 5.6zm463.6 27.2h-495.4v-8.4c16.6-.8 79-4.7 98.3-15.3 26.5-15.1 41.7-28.6 85-35.5 34.4-4.5 57.2-12.9 86.5-26.5 27.9-12.2 76.8-17.3 89.2-44.6l32.7-15.9c.4-.2.7-.4 1.1-.7l39.8-38.1c5.3-1 23.9-5.2 34.3-19.1 7.1-9.5 20.3-24.7 28.5-34.1z" fill="#47684b"/></g></g></svg>