<svg id="Layer_1" enable-background="new 0 0 512 512" height="512" viewBox="0 0 512 512" width="512" xmlns="http://www.w3.org/2000/svg"><g><path d="m508 512h-504c-2.209 0-4-1.791-4-4v-379.348c0-2.209 1.791-4 4-4h504c2.209 0 4 1.791 4 4v379.348c0 2.209-1.791 4-4 4z" fill="#f3f3f3"/><path d="m481.095 124.652v387.348h26.905c2.209 0 4-1.791 4-4v-379.348c0-2.209-1.791-4-4-4z" fill="#e4e4e4"/><path d="m30.905 477.095v-317.538c0-2.209 1.791-4 4-4h442.189c2.209 0 4 1.791 4 4v317.537c0 2.209-1.791 4-4 4h-442.189c-2.209.001-4-1.79-4-3.999z" fill="#29cef6"/><path d="m450.189 155.557v325.537h26.905c2.209 0 4-1.791 4-4v-317.537c0-2.209-1.791-4-4-4z" fill="#22b5ed"/><path d="m481.095 251.207c-19.042-7.172-38.696-12.646-56.652-17.528-166.95-26.894-144.174 91.295-245.961 129.878-39.818 10.335-84.077-11.142-122.74 2.569-9.976 4.496-18.19 9.939-24.836 16.067v94.901c0 2.209 1.791 4 4 4h442.189c2.209 0 4-1.791 4-4z" fill="#ffd54f"/><g><path d="m450.189 240.942v240.152h26.905c2.209 0 4-1.791 4-4v-225.887c-10.246-3.86-20.663-7.217-30.905-10.265z" fill="#ffc328"/></g><path d="m30.905 159.557v111.313c19.525-1.501 39.327.203 58.806 1.239 125.849 12.363 113.903-74.667 203.701-116.552h-258.507c-2.209 0-4 1.791-4 4z" fill="#9ccc65"/><g><path d="m262.507 155.557c-79.635 37.145-79.267 109.782-165.933 117.129 118.563 8.555 108.71-76.022 196.839-117.129z" fill="#8bc34a"/></g><path d="m462.498 112.94c0 68.662-47.97 85.706-71.361 126.938s-22.205 69.177-40.929 69.177c-18.051 0-18.07-29.997-40.929-69.177-24.561-42.098-71.361-58.276-71.361-126.938.001-62.375 50.275-112.94 112.291-112.94s112.289 50.565 112.289 112.94z" fill="#f75632"/><path d="m350.209 0c-5.244 0-10.4.37-15.453 1.069 54.702 7.574 96.837 54.769 96.837 111.87 0 68.662-47.97 85.706-71.361 126.938-14.104 24.86-19.274 44.877-25.259 56.864 3.957 7.795 8.242 12.313 15.236 12.313 18.723 0 17.537-27.945 40.928-69.177 23.392-41.232 71.361-58.276 71.361-126.938 0-62.374-50.273-112.939-112.289-112.939z" fill="#e33629"/><g fill="#546e7a"><path d="m360.815 342.971 11.125-11.125c2.929-2.929 2.929-7.677-.001-10.606-2.928-2.928-7.677-2.929-10.606.001l-11.124 11.125-11.124-11.125c-2.929-2.93-7.678-2.929-10.606-.001-2.93 2.93-2.93 7.678-.001 10.606l11.125 11.125-11.125 11.125c-2.929 2.929-2.929 7.677.001 10.606 1.464 1.464 3.384 2.196 5.303 2.196s3.839-.732 5.304-2.197l11.124-11.125 11.124 11.125c1.465 1.465 3.384 2.197 5.304 2.197 1.919 0 3.839-.732 5.303-2.196 2.93-2.93 2.93-7.678.001-10.606z"/><path d="m355.339 377.842c-3.637-1.982-8.192-.638-10.173 3.001-.945 1.736-1.892 3.442-2.847 5.115-2.054 3.597-.802 8.178 2.796 10.231 1.173.669 2.45.987 3.711.987 2.604 0 5.137-1.358 6.521-3.783 1.004-1.759 1.999-3.553 2.993-5.379 1.98-3.637.637-8.192-3.001-10.172z"/><path d="m179.173 411.797c-3.854-.033-7.768.012-11.677.144-4.14.142-7.382 3.611-7.241 7.751.139 4.054 3.467 7.245 7.491 7.245.086 0 .173-.001.26-.004 3.692-.126 7.386-.17 11.026-.136h.072c4.108 0 7.459-3.313 7.498-7.43.039-4.142-3.288-7.531-7.429-7.57z"/><path d="m138.405 414.527c-3.888.563-7.772 1.216-11.545 1.94-4.068.781-6.731 4.713-5.95 8.78.689 3.59 3.832 6.086 7.356 6.086.47 0 .946-.044 1.424-.136 3.548-.682 7.202-1.296 10.863-1.825 4.1-.593 6.941-4.397 6.349-8.497-.593-4.099-4.401-6.947-8.497-6.348z"/><path d="m98.443 423.796c-3.801 1.258-7.536 2.62-11.103 4.051-3.845 1.541-5.712 5.907-4.17 9.752 1.175 2.93 3.989 4.711 6.963 4.711.93 0 1.874-.174 2.789-.541 3.281-1.315 6.725-2.571 10.233-3.732 3.933-1.301 6.065-5.544 4.764-9.477-1.3-3.931-5.539-6.066-9.476-4.764z"/><path d="m296.066 422.929c-3.242.574-6.729.961-10.362 1.15-4.137.217-7.315 3.744-7.1 7.881.209 4.004 3.521 7.109 7.483 7.109.132 0 .265-.003.397-.01 4.247-.222 8.351-.68 12.196-1.361 4.079-.722 6.8-4.614 6.077-8.692-.72-4.079-4.611-6.804-8.691-6.077z"/><path d="m326.921 407.31c-2.446 2.453-4.946 4.551-7.643 6.415-3.407 2.355-4.259 7.027-1.903 10.435 1.456 2.105 3.796 3.235 6.176 3.235 1.471 0 2.957-.432 4.259-1.332 3.403-2.354 6.677-5.098 9.73-8.157 2.925-2.933 2.92-7.682-.012-10.607-2.933-2.927-7.681-2.921-10.607.011z"/><path d="m258.732 422.693c-3.38-.433-6.973-.961-10.982-1.614-4.089-.666-7.942 2.108-8.608 6.196s2.107 7.942 6.196 8.608c4.18.682 7.938 1.233 11.49 1.688.323.041.644.062.962.062 3.718 0 6.945-2.764 7.43-6.549.525-4.107-2.378-7.864-6.488-8.391z"/><path d="m219.881 416.114c-4.292-.755-8.017-1.37-11.389-1.879-4.079-.616-7.918 2.2-8.535 6.297-.618 4.096 2.201 7.917 6.297 8.535 3.249.49 6.855 1.086 11.025 1.82.44.077.878.114 1.31.114 3.572 0 6.736-2.561 7.378-6.2.718-4.079-2.007-7.968-6.086-8.687z"/><path d="m60.809 441.471c-1.804 1.18-3.573 2.405-5.261 3.643-3.34 2.449-4.062 7.143-1.612 10.483 1.47 2.004 3.746 3.065 6.054 3.065 1.539 0 3.093-.473 4.43-1.453 1.473-1.08 3.021-2.152 4.603-3.188 3.466-2.268 4.438-6.916 2.169-10.382-2.268-3.465-6.919-4.438-10.383-2.168z"/></g><circle cx="350.209" cy="112.237" fill="#f3f3f3" r="51.164"/></g></svg>