<svg clip-rule="evenodd" fill-rule="evenodd" height="256" image-rendering="optimizeQuality" shape-rendering="geometricPrecision" text-rendering="geometricPrecision" viewBox="0 0 366876 366876" width="256" xmlns="http://www.w3.org/2000/svg"><g id="Layer_x0020_1"><path d="m53641 335064h18398c21042 0 21042-31812 0-31812h-49837c-21042 0-21042-31811 0-31811h48823c21042 0 21044-31812 0-31812h-17534c-21042 0-21042-31811 0-31811h87340 31070 47362c21042 0 21042 31811 0 31811h-8767c-21043 0-21041 31812 0 31812h23905c21043 0 21043 31811 0 31811h-24918c-21042 0-21042 31812 0 31812h7659c21043 0 21043 31811 0 31811h-45241-31070-87190c-21043 0-21043-31811 0-31811z" fill="#ebebeb"/><path d="m148822 207817h163815c21042 0 21039 31812 0 31812h-16336c-22233 0-24196 31811 2435 31811h45938c21043 0 21040 31813 0 31813h-66177c-21042 0-21042 31811 0 31811h16014c21041 0 21040 31812 0 31812h-145689l-8777-1c-21041 0-21041-31811 0-31811h8777c21180 0 22063-31812 0-31812h-37466c-21040 0-21041-31811 0-31811h27152c23299 717 26056-31812 0-31812h-16588c-21043 0-21043-31811 0-31811h26902zm184327 127247h-94c-8748 0-15906 7156-15906 15905v1c0 8749 7158 15905 15906 15905h94c8748 0 15905-7156 15905-15905v-1c0-8749-7157-15905-15905-15905z" fill="#d6d6d6"/><path d="m12651 342823 3407 3408m9288-3408-3408 3408m-5880 5880-3407 3408m9287-3408 3408 3408" fill="none" stroke="#105286" stroke-width="5732.39"/><path d="m83782 47457h195315c10872 0 19768 8896 19768 19769v232773h-234851v-232773c0-10873 8896-19769 19768-19769z" fill="#e6e6e6"/><path d="m64014 153253v-86027c0-10873 8896-19769 19768-19769h195315c10872 0 19768 8896 19768 19769v136114m-100604 96659h-134247v-39047" fill="none" stroke="#105286" stroke-width="5732.39"/><path d="m245558 212196h13378v13378h-13378z" fill="#00dcab"/><path d="m245558 254923h13378v13378h-13378z" fill="#00dcab"/><path d="m83782 47457h195315c10872 0 19768 8896 19768 19769v26839h-234851v-26839c0-10873 8896-19769 19768-19769z" fill="#fff"/><path d="m72946 85133h216987v-17907c0-5942-4894-10837-10836-10837h-195315c-5942 0-10836 4894-10836 10837z" fill="#53b4ed"/><path d="m83782 47457h195315c10872 0 19768 8896 19768 19769v26839h-234851v-26839c0-10873 8896-19769 19768-19769z" fill="none" stroke="#105286" stroke-width="5732.39"/><path d="m289933 102465v189948h-216987v-189948z" fill="#fff"/><path d="m97406 120205h26451v26451h-26451z" fill="none" stroke="#105286" stroke-width="5732.39"/><path d="m144611 120205h26451v26451h-26451z" fill="none" stroke="#105286" stroke-width="5732.39"/><path d="m191816 120205h26451v26451h-26451z" fill="none" stroke="#105286" stroke-width="5732.39"/><path d="m239021 120205h26451v26451h-26451z" fill="none" stroke="#105286" stroke-width="5732.39"/><g id="_362893488" fill="none" stroke="#105286" stroke-width="5732.39"><path d="m97406 162933h26451v26451h-26451z"/><path d="m144611 162933h26451v26451h-26451z"/><path d="m191816 162933h26451v26451h-26451z"/><path d="m239021 162933h26451v26451h-26451z"/></g><g id="_362871000" fill="none" stroke="#105286" stroke-width="5732.39"><path d="m97406 205660h26451v26451h-26451z"/><path d="m144611 205660h26451v26451h-26451z"/><path d="m191816 205660h26451v26451h-26451z"/><path d="m239021 205660h26451v26451h-26451z"/></g><path d="m103942 212196h13378v13378h-13378z" fill="#00dcab"/><g id="_362866824" fill="none" stroke="#105286" stroke-width="5732.39"><path d="m97406 248387h26451v26451h-26451z"/><path d="m144611 248387h26451v26451h-26451z"/><path d="m191816 248387h26451v26451h-26451z"/><path d="m239021 248387h26451v26451h-26451z"/></g><path d="m198352 254923h13378v13378h-13378z" fill="#00dcab"/><g id="_362876688" fill="none" stroke="#105286" stroke-width="5732.39"><g><path d="m108563 26533v45136"/><path d="m130661 26533v45136"/></g><g><path d="m232218 26533v45136"/><path d="m254316 26533v45136"/></g></g><circle cx="63545" cy="206319" fill="#fff" r="41993"/><circle cx="271594" cy="274078" fill="#fff" r="63943"/><circle cx="271594" cy="274078" fill="none" r="63943" stroke="#105286" stroke-width="5732.39"/><circle cx="271595" cy="274078" fill="#ffd027" r="54282"/><g fill="none" stroke="#105286" stroke-width="5732.39"><path d="m323016 121036 25314 25314"/><path d="m348330 121036-25314 25314"/><path d="m46546 122326-20713 24253-9948-8496"/><path d="m243574 257632 17453 10243m19027-2661 24415-25585"/><circle cx="271595" cy="274078" r="10667"/><path d="m271595 219797v6436"/><path d="m325876 274078h-6437"/><path d="m271595 328360v-6437"/><path d="m217313 274078h6437"/><path d="m12651 11044 3407 3407m9288-3407-3408 3408m-5880 5880-3407 3408m9287-3408 3408 3408"/><path d="m339214 11044 3407 3407m9288-3407-3408 3408m-5879 5880-3408 3408m9287-3408 3408 3408"/><path d="m326518 171839 3408 3407m9288-3407-3408 3408m-5880 5880-3408 3408m9288-3408 3408 3408"/><path d="m339214 320596 3407 3407m9288-3407-3408 3408m-5879 5880-3408 3408m9287-3408 3408 3408"/><circle cx="345562" cy="70481" r="7144"/><circle cx="345562" cy="223760" r="7144"/><circle cx="19918" cy="85857" r="7144"/><path d="m179794 11044 3407 3407m9289-3407-3408 3408m-5880 5880-3408 3408m9288-3408 3408 3408"/><circle cx="72124" cy="21956" r="7144"/><circle cx="284511" cy="21956" r="7144"/><circle cx="84336" cy="326944" r="7144"/><path d="m174877 320596 3408 3407m9288-3407-3408 3408m-5880 5880-3408 3408m9288-3408 3408 3408"/><path d="m12651 262153 3407 3408m9288-3408-3408 3408m-5880 5880-3407 3408m9287-3408 3408 3408"/></g><g id="_362882376"><path d="m51142 216627h3001v-5947c-1880-1875-3713-3607-4229-6385-561-3019-1032-9243-1095-16836-150-18205 29602-18205 29452 0-63 7593-534 13817-1095 16836-516 2778-2349 4510-4230 6385v5947h3002c9065 0 16482 7416 16482 16481v3691c-7528 7135-17695 11513-28885 11513s-21357-4378-28885-11513v-3691c0-9065 7417-16481 16482-16481z" fill="#ffb861"/><path d="m51142 216627c8388 11685 16385 12054 24806 0 9065 0 16482 7416 16482 16481v3691c-7528 7135-17695 11513-28885 11513s-21357-4378-28885-11513v-3691c0-9065 7417-16481 16482-16481z" fill="#53b4ed"/><path d="m34660 236799v-3691c0-9065 7417-16481 16482-16481h3001v-5947c-1880-1875-3713-3607-4229-6385-561-3019-1032-9243-1095-16836-150-18205 29602-18205 29452 0-63 7593-534 13817-1095 16836-516 2778-2349 4510-4230 6385v5947h3002c9065 0 16482 7416 16482 16481v3691" fill="none" stroke="#105286" stroke-width="5732.39"/></g><circle cx="63545" cy="206319" fill="none" r="41993" stroke="#105286" stroke-width="5732.39"/><circle cx="271595" cy="274078" fill="#fff" r="4756"/><path d="m245558 126742h13378v13378h-13378z" fill="#00dcab"/><path d="m198352 126742h13378v13378h-13378z" fill="#00dcab"/><path d="m151147 126742h13378v13378h-13378z" fill="#00dcab"/><path d="m103942 126742h13378v13378h-13378z" fill="#00dcab"/><path d="m245558 169469h13378v13378h-13378z" fill="#00dcab"/><path d="m198352 169469h13378v13378h-13378z" fill="#00dcab"/><path d="m151147 169469h13378v13378h-13378z" fill="#00dcab"/><path d="m103942 169469h13378v13378h-13378z" fill="#00dcab"/><path d="m198352 212196h13378v13378h-13378z" fill="#00dcab"/><path d="m151147 212196h13378v13378h-13378z" fill="#00dcab"/><path d="m151147 254923h13378v13378h-13378z" fill="#00dcab"/><path d="m103942 254923h13378v13378h-13378z" fill="#00dcab"/></g><g id="Layer_x0020_2"><path d="m0 0h366876v366876h-366876z" fill="none"/></g></svg>