<svg id="Capa_1" enable-background="new 0 0 512 512" height="512" viewBox="0 0 512 512" width="512" xmlns="http://www.w3.org/2000/svg"><g><g><path d="m256 350.021c-141.387 0-243.753-183.594-222.328-221.022 44.12-77.07 127.158-128.999 222.328-128.999s178.208 51.929 222.328 128.999c21.425 37.427-80.941 221.022-222.328 221.022z" fill="#f4d346"/><path d="m512 256c0 26.051-3.891 51.191-11.129 74.871-5.031 16.469-11.672 32.231-19.75 47.109-8.25 15.2-147.391 62.659-225.121 62.659s-216.871-47.459-225.109-62.659c-3.289-6.031-6.332-12.21-9.121-18.531-14-31.629-21.77-66.629-21.77-103.449 0-46.219 12.25-89.57 33.68-127 44.121 77.07 127.16 129 222.32 129s178.211-51.93 222.32-129c21.43 37.43 33.68 80.781 33.68 127zm0 0" fill="#eebb67"/><path d="m481.262 377.699c-7.16 13.223-15.434 25.742-24.723 37.43-8.437 10.633-17.719 20.57-27.719 29.723-27.177 24.885-59.743 43.983-95.744 55.338-24.325 7.672-109.197 10.298-124.596 7.407-47.77-8.969-90.863-31.21-125.301-62.745-10-9.153-19.282-19.09-27.719-29.723-9.289-11.688-17.563-24.207-24.723-37.43zm0 0" fill="#e69022"/></g><g><path d="m410.629 380.367v-274.367h-71.367v274.367c0 32.791-26.681 60.266-59.473 60.266h-23.789l-11.895 23.789v23.789l11.895 23.789c27.717 0 54.398-4.422 79.396-12.57 44.416-21.171 75.233-66.79 75.233-119.063z" fill="#282b3d"/><path d="m296.343 238.376h-40.343-40.308c-18.035 20.707-23.849 45.31-15.355 67.836 8.689 23.011 31.061 38.471 55.663 38.471 24.718 0 46.486-14.891 55.442-37.925 8.786-22.594 3.08-47.507-15.099-68.382z" fill="#575e85"/><path d="m311.442 306.758c8.786-22.594 3.08-47.507-15.099-68.382h-40.343v106.307c24.718.001 46.486-14.891 55.442-37.925z" fill="#282b3d"/><path d="m376.467 166.568c-28.122-5.564-71.855-12.197-120.467-12.197s-92.345 6.633-120.467 12.197c-33.581 6.656-57.951 36.543-57.951 71.065 0 59.031 48.02 107.051 107.051 107.051 19.352 0 36.473-12.336 42.595-30.7l8.735-26.228c2.881-8.63 10.93-14.438 20.037-14.438s17.156 5.808 20.026 14.438l8.747 26.228c6.121 18.365 23.243 30.7 42.595 30.7 59.031 0 107.051-48.02 107.051-107.051-.001-34.522-24.371-64.41-57.952-71.065z" fill="#71d2ef"/><path d="m276.026 287.755 8.747 26.228c6.121 18.365 23.243 30.7 42.595 30.7 59.031 0 107.051-48.02 107.051-107.051 0-34.522-24.37-64.409-57.951-71.065-28.122-5.564-71.855-12.197-120.467-12.197v118.945c9.106.001 17.155 5.809 20.025 14.44z" fill="#42a9fc"/><path d="m371.844 189.915c-27.076-5.367-69.16-11.755-115.844-11.755s-88.768 6.389-115.844 11.755c-22.477 4.437-38.785 24.509-38.785 47.717 0 45.906 37.356 83.262 83.262 83.262 9.095 0 17.145-5.796 20.026-14.438l8.735-26.228c6.133-18.365 23.255-30.701 42.607-30.701s36.473 12.336 42.595 30.701l8.747 26.228c2.869 8.63 10.919 14.438 20.026 14.438 45.905 0 83.262-37.356 83.262-83.262-.002-23.208-16.311-43.28-38.787-47.717z" fill="#e9f6ff"/><path d="m298.595 280.228 8.747 26.228c2.869 8.63 10.919 14.438 20.026 14.438 45.905 0 83.262-37.356 83.262-83.262 0-23.208-16.309-43.28-38.785-47.717-27.076-5.367-69.16-11.755-115.844-11.755v71.367c19.351 0 36.472 12.336 42.594 30.701z" fill="#d2e4fd"/><path d="m208.422 440.633v66.936c15.418 2.898 31.318 4.431 47.578 4.431v-71.367z" fill="#71d2ef"/></g><g fill="#fff"><path d="m243.219 73.75h-1.524c-6.754 0-12.226-5.477-12.226-12.227v-1.523h-8.715v1.523c0 6.75-5.477 12.227-12.227 12.227h-1.527v8.715h1.527c6.75 0 12.227 5.472 12.227 12.226v1.528h8.715v-1.528c0-6.754 5.472-12.226 12.226-12.226h1.524zm0 0"/><path d="m132.219 116.75h-1.524c-6.754 0-12.226-5.477-12.226-12.227v-1.523h-8.715v1.523c0 6.75-5.477 12.227-12.227 12.227h-1.527v8.715h1.527c6.75 0 12.227 5.472 12.227 12.226v1.528h8.715v-1.528c0-6.754 5.472-12.226 12.226-12.226h1.524zm0 0"/></g></g></svg>