<svg enable-background="new 0 0 512 512" viewBox="0 0 512 512" xmlns="http://www.w3.org/2000/svg"><g id="_x32_0_Pyramid"><g><g><path d="m16.846 499.901h460.143l-230.071-374.38z" fill="#f3cb83"/></g><g><path d="m313.807 234.366-66.889-108.845-66.89 108.845z" fill="#8a8f95"/></g><g><path d="m208.49 418.329h76.855v81.572h-76.855z" fill="#f4feff"/></g><g><circle cx="408.171" cy="99.079" fill="#fcdc49" r="41.342"/></g><path d="m252.115 122.33c-2.22-3.611-8.175-3.611-10.394 0l-230.074 374.38c-1.153 1.882-1.2 4.24-.124 6.169 1.077 1.925 3.111 3.12 5.321 3.12h460.146c2.21 0 4.244-1.196 5.321-3.12 1.077-1.929 1.029-4.287-.124-6.169-38.302-62.326-213.773-347.858-230.072-374.38zm-5.198 14.839 55.983 91.096h-111.965zm32.332 356.635h-64.663v-69.379h64.663zm12.195 0v-69.379h4.125c3.368 0 6.098-2.73 6.098-6.098s-2.73-6.098-6.098-6.098c-36.266 0-60.891 0-97.304 0-3.368 0-6.098 2.73-6.098 6.098s2.73 6.098 6.098 6.098h4.125v69.379h-174.641l95.461-155.335h47.446c3.368 0 6.098-2.73 6.098-6.098s-2.73-6.098-6.098-6.098h-39.951l52.736-85.813h126.955l82.003 133.436h-68.379c-3.368 0-6.098 2.73-6.098 6.098s2.73 6.098 6.098 6.098h75.874l66.194 107.712z"/><path d="m227.134 284.744c0-3.368-2.73-6.098-6.098-6.098h-41.006c-3.368 0-6.098 2.73-6.098 6.098s2.73 6.098 6.098 6.098h41.006c3.368 0 6.098-2.73 6.098-6.098z"/><path d="m264.043 290.842h41.011c3.368 0 6.098-2.73 6.098-6.098s-2.73-6.098-6.098-6.098h-41.011c-3.368 0-6.098 2.73-6.098 6.098s2.73 6.098 6.098 6.098z"/><path d="m246.917 338.469c3.368 0 6.098-2.73 6.098-6.098s-2.73-6.098-6.098-6.098h-39.396c-3.368 0-6.098 2.73-6.098 6.098s2.73 6.098 6.098 6.098z"/><path d="m337.676 332.372c0-3.368-2.73-6.098-6.098-6.098h-51.596c-3.368 0-6.098 2.73-6.098 6.098s2.73 6.098 6.098 6.098h51.596c3.368-.001 6.098-2.73 6.098-6.098z"/><path d="m180.03 373.897h-60.232c-3.368 0-6.098 2.73-6.098 6.098s2.73 6.098 6.098 6.098h60.232c3.368 0 6.098-2.73 6.098-6.098s-2.73-6.098-6.098-6.098z"/><path d="m279.982 373.897h-67.321c-3.368 0-6.098 2.73-6.098 6.098s2.73 6.098 6.098 6.098h67.321c3.368 0 6.098-2.73 6.098-6.098s-2.73-6.098-6.098-6.098z"/><path d="m408.169 51.637c-26.158 0-47.437 21.284-47.437 47.442s21.28 47.437 47.437 47.437c26.158 0 47.442-21.279 47.442-47.437s-21.285-47.442-47.442-47.442zm0 82.684c-19.431 0-35.242-15.811-35.242-35.242 0-19.436 15.811-35.247 35.242-35.247 19.436 0 35.247 15.811 35.247 35.247 0 19.431-15.811 35.242-35.247 35.242z"/><path d="m414.267 32.101v-20.003c0-3.368-2.73-6.098-6.098-6.098s-6.098 2.73-6.098 6.098v20.003c0 3.368 2.73 6.098 6.098 6.098 3.368-.001 6.098-2.73 6.098-6.098z"/><path d="m402.071 166.056v20.003c0 3.368 2.73 6.098 6.098 6.098s6.098-2.73 6.098-6.098v-20.003c0-3.368-2.73-6.098-6.098-6.098-3.368.001-6.098 2.73-6.098 6.098z"/><path d="m473.989 33.263c-2.382-2.382-6.24-2.382-8.622 0l-14.148 14.143c-2.382 2.382-2.382 6.24 0 8.622s6.24 2.382 8.622 0l14.148-14.143c2.382-2.381 2.382-6.24 0-8.622z"/><path d="m350.981 164.899 14.143-14.148c2.382-2.382 2.382-6.24 0-8.622s-6.24-2.382-8.622 0l-14.143 14.148c-2.382 2.382-2.382 6.24 0 8.622s6.24 2.382 8.622 0z"/><path d="m495.154 92.981h-20.008c-3.368 0-6.098 2.73-6.098 6.098s2.73 6.098 6.098 6.098h20.008c3.368 0 6.098-2.73 6.098-6.098s-2.73-6.098-6.098-6.098z"/><path d="m315.096 99.083c0 3.368 2.73 6.098 6.098 6.098h20.003c3.368 0 6.098-2.73 6.098-6.098s-2.73-6.098-6.098-6.098h-20.003c-3.369.001-6.098 2.73-6.098 6.098z"/><path d="m451.223 142.133c-2.382 2.382-2.382 6.24 0 8.622l14.143 14.143c2.382 2.382 6.24 2.382 8.622 0s2.382-6.24 0-8.622l-14.143-14.143c-2.381-2.382-6.24-2.382-8.622 0z"/><path d="m356.497 56.034c2.382 2.382 6.24 2.382 8.622 0s2.382-6.24 0-8.622l-14.143-14.143c-2.382-2.382-6.24-2.382-8.622 0s-2.382 6.24 0 8.622z"/></g></g><g id="Layer_1"/></svg>