<svg id="icons" height="512" viewBox="0 0 64 64" width="512" xmlns="http://www.w3.org/2000/svg"><path d="m55.19 28.05h5v3h-2z" fill="#ccd1d9"/><path d="m60.19 21.06v2.99h-5l3-2.99z" fill="#ccd1d9"/><path d="m60.19 24.05025v4h-25.96a2 2 0 0 1 0-4z" fill="#e6e9ed"/><path d="m51.19 12.04-1.99 11.99v.02h-9v-.02l8-11.99z" fill="#5d9cec"/><path d="m49.2 28.05 1.99 11.99h-2.99l-8-11.99z" fill="#5d9cec"/><path d="m22.54 34 .46 6h-6l.46-6z" fill="#844747"/><path d="m22.08 28 .46 6h-5.08l.46-6h4.15z" fill="#965353"/><path d="m19 14h1 1l.61 8h-3.23z" fill="#965353"/><path d="m21.61 22 .47 6h-.01-4.15l.46-6z" fill="#844747"/><path d="m52 59h-4l2-2z" fill="#5d9cec"/><path d="m46 57 2 2h-4z" fill="#5d9cec"/><path d="m42 57 2 2h-4z" fill="#5d9cec"/><path d="m4.01 46.00025a5.98983 5.98983 0 0 1 5.99-6h20a5.992 5.992 0 0 1 6 6h.01v2.01l-.01-.01-2 2-2-2-2 2-2-2-2 2-2-2-2 2-2-2-2 2-2-2-2 2-2-2-2 2-2-2-2 2-2-2v-2z" fill="#ffce54"/><path d="m18 50 2-2 2 2 2-2 2 2 2-2 2 2 2-2 2 2 2-2 .01.01 1.99 1.99 2-2 2 2 2-2 2 2 2-2 2 2h.02l1.99-1.99 1.99 1.99 2-2 2 2 2-2 2 2 1-1v10h-11l-2-2-2 2-2-2-2 2-2-2-2 2h-39v-10l1 1 2-2 2 2 2-2 2 2 2-2 2 2 2-2z" fill="#5d9cec"/><g fill="#87bcf4"><path d="m62 51.001a1 1 0 0 1 -.707-1.707l1-1a.99989.99989 0 1 1 1.414 1.414l-1 1a.99676.99676 0 0 1 -.707.293z"/><path d="m62 51.001a.99676.99676 0 0 1 -.707-.293l-2-2a.99989.99989 0 1 1 1.414-1.414l2 2a1 1 0 0 1 -.707 1.707z"/><path d="m58 51.001a1 1 0 0 1 -.707-1.707l2-2a.99989.99989 0 1 1 1.414 1.414l-2 2a.99676.99676 0 0 1 -.707.293z"/><path d="m58 51.001a.99676.99676 0 0 1 -.707-.293l-2-2a.99989.99989 0 1 1 1.414-1.414l2 2a1 1 0 0 1 -.707 1.707z"/><path d="m54 51.001a1 1 0 0 1 -.707-1.707l2-2a.99989.99989 0 1 1 1.414 1.414l-2 2a.99676.99676 0 0 1 -.707.293z"/><path d="m54 51.001a.99676.99676 0 0 1 -.707-.293l-2-2a.99989.99989 0 1 1 1.414-1.414l2 2a1 1 0 0 1 -.707 1.707z"/><path d="m50 51.001a.99676.99676 0 0 1 -.707-.293l-2-2a.99989.99989 0 1 1 1.414-1.414l2 2a1 1 0 0 1 -.707 1.707z"/><path d="m46 51.001a1 1 0 0 1 -.707-1.707l2-2a.99989.99989 0 1 1 1.414 1.414l-2 2a.99676.99676 0 0 1 -.707.293z"/><path d="m50.01563 51.001a1 1 0 0 1 -.707-1.707l2-2a.99989.99989 0 1 1 1.41403 1.414l-2 2a.9968.9968 0 0 1 -.70703.293z"/><path d="m46 51.001a.99676.99676 0 0 1 -.707-.293l-2-2a.99989.99989 0 1 1 1.414-1.414l2 2a1 1 0 0 1 -.707 1.707z"/><path d="m42 51.001a1 1 0 0 1 -.707-1.707l2-2a.99989.99989 0 1 1 1.414 1.414l-2 2a.99676.99676 0 0 1 -.707.293z"/><path d="m42 51.001a.99676.99676 0 0 1 -.707-.293l-2-2a.99989.99989 0 1 1 1.414-1.414l2 2a1 1 0 0 1 -.707 1.707z"/><path d="m38 51.001a1 1 0 0 1 -.707-1.707l2-2a.99989.99989 0 1 1 1.414 1.414l-2 2a.99676.99676 0 0 1 -.707.293z"/><path d="m38 51.001a.99676.99676 0 0 1 -.707-.293l-2-2a.99989.99989 0 1 1 1.414-1.414l2 2a1 1 0 0 1 -.707 1.707z"/><path d="m34 51.001a1 1 0 0 1 -.707-1.707l2-2a.99989.99989 0 1 1 1.414 1.414l-2 2a.99676.99676 0 0 1 -.707.293z"/><path d="m34 51.001a.99676.99676 0 0 1 -.707-.293l-2-2a.99989.99989 0 1 1 1.414-1.414l2 2a1 1 0 0 1 -.707 1.707z"/><path d="m30 51.001a1 1 0 0 1 -.707-1.707l2-2a.99989.99989 0 1 1 1.414 1.414l-2 2a.99676.99676 0 0 1 -.707.293z"/><path d="m30 51.001a.99676.99676 0 0 1 -.707-.293l-2-2a.99989.99989 0 1 1 1.414-1.414l2 2a1 1 0 0 1 -.707 1.707z"/><path d="m26 51.001a1 1 0 0 1 -.707-1.707l2-2a.99989.99989 0 1 1 1.414 1.414l-2 2a.99676.99676 0 0 1 -.707.293z"/><path d="m26 51.001a.99676.99676 0 0 1 -.707-.293l-2-2a.99989.99989 0 1 1 1.414-1.414l2 2a1 1 0 0 1 -.707 1.707z"/><path d="m22 51.001a1 1 0 0 1 -.707-1.707l2-2a.99989.99989 0 1 1 1.414 1.414l-2 2a.99676.99676 0 0 1 -.707.293z"/><path d="m22 51.001a.99676.99676 0 0 1 -.707-.293l-2-2a.99989.99989 0 1 1 1.414-1.414l2 2a1 1 0 0 1 -.707 1.707z"/><path d="m18 51.001a1 1 0 0 1 -.707-1.707l2-2a.99989.99989 0 1 1 1.414 1.414l-2 2a.99676.99676 0 0 1 -.707.293z"/><path d="m18 51.001a.99676.99676 0 0 1 -.707-.293l-2-2a.99989.99989 0 1 1 1.414-1.414l2 2a1 1 0 0 1 -.707 1.707z"/><path d="m14 51.001a1 1 0 0 1 -.707-1.707l2-2a.99989.99989 0 1 1 1.414 1.414l-2 2a.99676.99676 0 0 1 -.707.293z"/><path d="m26 58.001a.99676.99676 0 0 1 -.707-.293l-2-2a.99989.99989 0 1 1 1.414-1.414l2 2a1 1 0 0 1 -.707 1.707z"/><path d="m22 58.001a1 1 0 0 1 -.707-1.707l2-2a.99989.99989 0 1 1 1.414 1.414l-2 2a.99676.99676 0 0 1 -.707.293z"/><path d="m22 58.001a.99676.99676 0 0 1 -.707-.293l-2-2a.99989.99989 0 1 1 1.414-1.414l2 2a1 1 0 0 1 -.707 1.707z"/><path d="m18 58.001a1 1 0 0 1 -.707-1.707l2-2a.99989.99989 0 1 1 1.414 1.414l-2 2a.99676.99676 0 0 1 -.707.293z"/><path d="m18 58.001a.99676.99676 0 0 1 -.707-.293l-2-2a.99989.99989 0 1 1 1.414-1.414l2 2a1 1 0 0 1 -.707 1.707z"/><path d="m14 58.001a1 1 0 0 1 -.707-1.707l2-2a.99989.99989 0 1 1 1.414 1.414l-2 2a.99676.99676 0 0 1 -.707.293z"/><path d="m14 58.001a.99676.99676 0 0 1 -.707-.293l-2-2a.99989.99989 0 1 1 1.414-1.414l2 2a1 1 0 0 1 -.707 1.707z"/><path d="m10 58.001a1 1 0 0 1 -.707-1.707l2-2a.99989.99989 0 1 1 1.414 1.414l-2 2a.99676.99676 0 0 1 -.707.293z"/><path d="m52 60.001a.99676.99676 0 0 1 -.707-.293l-2-2a.99989.99989 0 1 1 1.414-1.414l2 2a1 1 0 0 1 -.707 1.707z"/><path d="m48 60.001a1 1 0 0 1 -.707-1.707l2-2a.99989.99989 0 1 1 1.414 1.414l-2 2a.99676.99676 0 0 1 -.707.293z"/><path d="m48 60.001a.99676.99676 0 0 1 -.707-.293l-2-2a.99989.99989 0 1 1 1.414-1.414l2 2a1 1 0 0 1 -.707 1.707z"/><path d="m44 60.001a1 1 0 0 1 -.707-1.707l2-2a.99989.99989 0 1 1 1.414 1.414l-2 2a.99676.99676 0 0 1 -.707.293z"/><path d="m44 60.001a.99676.99676 0 0 1 -.707-.293l-2-2a.99989.99989 0 1 1 1.414-1.414l2 2a1 1 0 0 1 -.707 1.707z"/><path d="m40 60.001a1 1 0 0 1 -.707-1.707l2-2a.99989.99989 0 1 1 1.414 1.414l-2 2a.99676.99676 0 0 1 -.707.293z"/><path d="m14 51.001a.99676.99676 0 0 1 -.707-.293l-2-2a.99989.99989 0 1 1 1.414-1.414l2 2a1 1 0 0 1 -.707 1.707z"/><path d="m10 51.001a1 1 0 0 1 -.707-1.707l2-2a.99989.99989 0 1 1 1.414 1.414l-2 2a.99676.99676 0 0 1 -.707.293z"/><path d="m10 51.001a.99676.99676 0 0 1 -.707-.293l-2-2a.99989.99989 0 1 1 1.414-1.414l2 2a1 1 0 0 1 -.707 1.707z"/><path d="m6 51.001a1 1 0 0 1 -.707-1.707l2-2a.99989.99989 0 1 1 1.414 1.414l-2 2a.99676.99676 0 0 1 -.707.293z"/><path d="m6 51.001a.99676.99676 0 0 1 -.707-.293l-2-2a.99989.99989 0 1 1 1.414-1.414l2 2a1 1 0 0 1 -.707 1.707z"/><path d="m2 51.001a1 1 0 0 1 -.707-1.707l2-2a.99989.99989 0 1 1 1.414 1.414l-2 2a.99676.99676 0 0 1 -.707.293z"/><path d="m2 51.001a.99676.99676 0 0 1 -.707-.293l-1-1a.99989.99989 0 1 1 1.414-1.414l1 1a1 1 0 0 1 -.707 1.707z"/></g><path d="m37.99805 14.999a.99942.99942 0 0 1 -1-1 8 8 0 0 0 -16 0 1 1 0 1 1 -2 0 10 10 0 0 1 20 0 .99942.99942 0 0 1 -1 1z" fill="#a0d468"/><path d="m31.99805 14.999a.99942.99942 0 0 1 -1-1 5 5 0 0 0 -10 0 1 1 0 1 1 -2 0 7 7 0 0 1 14 0 .99942.99942 0 0 1 -1 1z" fill="#a0d468"/><path d="m25.99805 14.999a.99942.99942 0 0 1 -1-1 2 2 0 0 0 -4 0 1 1 0 1 1 -2 0 4 4 0 0 1 8 0 .99942.99942 0 0 1 -1 1z" fill="#a0d468"/><path d="m19.99805 14.999a.99942.99942 0 0 1 -1-1 8 8 0 0 0 -16 0 1 1 0 0 1 -2 0 10 10 0 0 1 20 0 .99942.99942 0 0 1 -1 1z" fill="#a0d468"/><path d="m19.99805 14.999a.99942.99942 0 0 1 -1-1 5 5 0 0 0 -10 0 1 1 0 0 1 -2 0 7 7 0 0 1 14 0 .99942.99942 0 0 1 -1 1z" fill="#a0d468"/><path d="m19.99805 14.999a.99942.99942 0 0 1 -1-1 2 2 0 0 0 -4 0 1 1 0 1 1 -2 0 4 4 0 0 1 8 0 .99942.99942 0 0 1 -1 1z" fill="#a0d468"/></svg>