<?xml version="1.0" encoding="UTF-8"?>
<svg xmlns="http://www.w3.org/2000/svg" xmlns:xlink="http://www.w3.org/1999/xlink" version="1.1" id="Capa_1" x="0px" y="0px" viewBox="0 0 512 512" style="enable-background:new 0 0 512 512;" xml:space="preserve" width="512" height="512">
<g>
	<g>
		<g>
			<g>
				<path style="fill:#FFF8E6;" d="M504.5,167.119v267.33c0,13.23-8.67,24.89-21.33,28.72l-91.29,27.55&#10;&#9;&#9;&#9;&#9;&#9;c-103.19-12.32-191.47-105.13-191.47-202.32c0-49.04,28.14-96.77,80.22-129.24l43.76,13.21c2.29,0.69,4.62,1.21,6.97,1.57&#10;&#9;&#9;&#9;&#9;&#9;c0,0,4.973,20.562,7.47,20.562s7.47-20.562,7.47-20.562c2.35-0.35,4.68-0.88,6.98-1.57l112.55-33.97&#10;&#9;&#9;&#9;&#9;&#9;C485.09,132.589,504.5,146.999,504.5,167.119z"/>
				<path style="fill:#FFEAB7;" d="M391.88,490.719l-38.6,11.65c-2.29,0.69-4.61,1.21-6.95,1.57c0,0-4.993-9.081-7.5-9.083&#10;&#9;&#9;&#9;&#9;&#9;c-2.508-0.001-7.5,9.073-7.5,9.073c-2.34-0.35-4.66-0.87-6.94-1.56l-136.78-41.28c-2.29-0.7-4.62-1.22-6.97-1.58&#10;&#9;&#9;&#9;&#9;&#9;c0,0-4.97-10.56-7.47-10.56s-7.47,10.56-7.47,10.56c-2.35,0.36-4.68,0.88-6.98,1.58l-112.55,33.97&#10;&#9;&#9;&#9;&#9;&#9;c-19.26,5.81-38.67-8.61-38.67-28.72v-267.33c0-13.23,8.67-24.9,21.33-28.72l129.89-39.2c2.29-0.69,4.61-1.22,6.95-1.57&#10;&#9;&#9;&#9;&#9;&#9;c0,0,4.99,9.43,7.5,9.43s7.5-9.43,7.5-9.43c2.34,0.35,4.66,0.88,6.94,1.57l93.02,28.07c-28.35,35.59-45.3,80.67-45.3,129.71&#10;&#9;&#9;&#9;&#9;&#9;c0,73.69,38.26,138.45,96,175.48c4.86,3.12,9.86,6.05,15,8.76C360.61,480.679,375.87,486.629,391.88,490.719z"/>
			</g>
			<g>
				<path style="fill:#C2EAFB;" d="M464.5,383.549v36.04c0,4.41-2.89,8.3-7.11,9.57l-118.56,35.79l-12.16-3.67&#10;&#9;&#9;&#9;&#9;&#9;c-68.6-35.88-106.43-100.71-106.43-172.4c0-24.7,3.77-49.02,17.49-70.9c0.44,0.63,0.9,1.21,1.38,1.75&#10;&#9;&#9;&#9;&#9;&#9;c11.83,13.3,140.017,28.557,155.647,36.376C428.727,273.105,464.5,383.549,464.5,383.549z"/>
				<path style="fill:#91D4F2;" d="M326.67,461.279l-61.63-18.6c-51.36-32.44-194.12-91.63-217.54-137.4v-91.42&#10;&#9;&#9;&#9;&#9;&#9;c0-4.4,2.89-8.29,7.11-9.57l118.56-35.78l54.27,16.38c0,0,15.152,19.029,21.582,26.259c1.91,2.15-3.882,14.371-3.882,14.371&#10;&#9;&#9;&#9;&#9;&#9;c-6.37,19.98-9.81,41.26-9.81,63.35C235.33,360.559,271.54,423.799,326.67,461.279z"/>
				<path style="fill:#55D47B;" d="M265.04,442.677l-91.87-27.73l-112.78,34.04c-6.42,1.938-12.889-2.868-12.889-9.573V305.276&#10;&#9;&#9;&#9;&#9;&#9;c11.33-3.28,32.24-6.86,42.83,6.98c14.98,19.57,21.83,31.08,38.46,28.75c16.63-2.34,77.56-22.81,88.22,16.73&#10;&#9;&#9;&#9;&#9;&#9;C229.2,402.916,279.53,403.077,265.04,442.677z"/>
				<path style="fill:#8CE09F;" d="M464.5,194.039v189.51c-7.74-1.21-16.06-3.93-24.32-8.59c-28.83-16.27-18.51-83.99-52.48-100.99&#10;&#9;&#9;&#9;&#9;&#9;c-15.63-7.82-47.31,17.45-70.23,18.19c-22.92,0.74-41.4-11.82-45.83-33.93c-3.72-18.52-15.74-23.7-26.49-32.71&#10;&#9;&#9;&#9;&#9;&#9;c-1.752-12.156,0.667-23.104,12.92-31.38l80.76,24.37l112.78-34.04C458.03,182.529,464.5,187.339,464.5,194.039z"/>
				<path style="fill:#55D47B;" d="M258.07,194.139c-5.13,10.02-9.46,20.5-12.92,31.38c-2.09-1.74-4.12-3.63-6.04-5.79&#10;&#9;&#9;&#9;&#9;&#9;c-6.43-7.23-9.87-22.45-11.67-34.84L258.07,194.139z"/>
				<path style="fill:#55D47B;" d="M110.529,226.999c7.181-4.49,20.014-0.929,17.947,11.849c-2.202,13.615,7.975,9.729,7.331,20.635&#10;&#9;&#9;&#9;&#9;&#9;c-0.479,8.103-24.405,11.144-32.873-1.086C96.167,248.622,99.537,233.872,110.529,226.999z"/>
			</g>
		</g>
		<g>
			<path style="fill:#FD7A6E;" d="M396.087,7.506c-42.695-0.56-76.557,35.521-75.31,78.202&#10;&#9;&#9;&#9;&#9;c1.655,56.644,39.576,100.132,60.594,119.979c7.696,7.267,19.728,7.29,27.425,0.024c21.484-20.281,60.675-65.299,60.675-123.836&#10;&#9;&#9;&#9;&#9;C469.471,41.194,436.643,8.039,396.087,7.506z"/>
			<circle style="fill:#F9EE80;" cx="395.097" cy="81.875" r="40"/>
		</g>
	</g>
	<g>
		<path style="fill:none;stroke:#000000;stroke-width:15;stroke-linecap:round;stroke-linejoin:round;stroke-miterlimit:10;" d="&#10;&#9;&#9;&#9;M464.5,383.547c-7.74-1.21-16.06-3.93-24.32-8.59c-28.83-16.27-18.51-83.99-52.48-100.99c-15.63-7.82-47.31,17.45-70.23,18.19&#10;&#9;&#9;&#9;c-22.92,0.74-41.4-11.82-45.83-33.93c-4.44-22.11-20.7-25.2-32.53-38.5c-6.43-7.23-9.87-22.45-11.67-34.84"/>
		<path style="fill:none;stroke:#000000;stroke-width:15;stroke-linecap:round;stroke-linejoin:round;stroke-miterlimit:10;" d="&#10;&#9;&#9;&#9;M47.5,305.277c11.33-3.28,32.24-6.86,42.83,6.98c14.98,19.57,21.83,31.08,38.46,28.75c16.63-2.34,77.56-22.81,88.22,16.73&#10;&#9;&#9;&#9;c12.19,45.18,62.52,45.34,48.03,84.94"/>
		
			<line style="fill:none;stroke:#000000;stroke-width:15;stroke-linecap:round;stroke-linejoin:round;stroke-miterlimit:10;" x1="173.17" y1="248.79" x2="173.17" y2="128.96"/>
		
			<line style="fill:none;stroke:#000000;stroke-width:15;stroke-linecap:round;stroke-linejoin:round;stroke-miterlimit:10;" x1="173.17" y1="458.96" x2="173.17" y2="321.79"/>
		
			<line style="fill:none;stroke:#000000;stroke-width:15;stroke-linecap:round;stroke-linejoin:round;stroke-miterlimit:10;" x1="338.83" y1="317.5" x2="338.83" y2="174.5"/>
		
			<line style="fill:none;stroke:#000000;stroke-width:15;stroke-linecap:round;stroke-linejoin:round;stroke-miterlimit:10;" x1="338.83" y1="504.5" x2="338.83" y2="389.5"/>
		<g>
			<path style="fill:none;stroke:#000000;stroke-width:15;stroke-linecap:round;stroke-linejoin:round;" d="M93.549,376.722&#10;&#9;&#9;&#9;&#9;c0,0,0.283-1.803,0.973-4.901"/>
			
				<path style="fill:none;stroke:#000000;stroke-width:15;stroke-linecap:round;stroke-linejoin:round;stroke-dasharray:9.6208,0,0,0;" d="&#10;&#9;&#9;&#9;&#9;M103.381,344.394c1.217-2.849,2.571-5.771,4.073-8.717"/>
			
				<path style="fill:none;stroke:#000000;stroke-width:15;stroke-linecap:round;stroke-linejoin:round;stroke-dasharray:9.6208,28.8625,9.6208,0,0,0;" d="&#10;&#9;&#9;&#9;&#9;M107.454,335.676c14.151-27.752,41.488-57.599,92.236-47.16c41.398,8.515,104.999,79.765,143.664,66.509&#10;&#9;&#9;&#9;&#9;c44.247-15.17,45.035-75.337,44.265-93.16"/>
			<path style="fill:none;stroke:#000000;stroke-width:15;stroke-linecap:round;stroke-linejoin:round;" d="M387.618,261.851&#10;&#9;&#9;&#9;&#9;c-0.137-3.161-0.323-4.985-0.323-4.985"/>
		</g>
		<path style="fill:none;stroke:#000000;stroke-width:15;stroke-linecap:round;stroke-linejoin:round;stroke-miterlimit:10;" d="&#10;&#9;&#9;&#9;M110.529,227c7.181-4.49,20.014-0.929,17.947,11.849c-2.202,13.615,7.975,9.729,7.331,20.635&#10;&#9;&#9;&#9;c-0.479,8.103-24.405,11.144-32.873-1.086C96.167,248.624,99.537,233.873,110.529,227z"/>
		<path style="fill:none;stroke:#000000;stroke-width:15;stroke-linecap:round;stroke-linejoin:round;stroke-miterlimit:10;" d="&#10;&#9;&#9;&#9;M396.087,7.506c-42.695-0.56-76.557,35.521-75.31,78.202c1.655,56.644,39.576,100.132,60.594,119.979&#10;&#9;&#9;&#9;c7.696,7.267,19.728,7.29,27.425,0.024c21.484-20.281,60.675-65.299,60.675-123.836C469.471,41.194,436.643,8.039,396.087,7.506z"/>
		<path style="fill:none;stroke:#000000;stroke-width:15;stroke-linecap:round;stroke-linejoin:round;stroke-miterlimit:10;" d="&#10;&#9;&#9;&#9;M431.06,64.36c2.59,5.29,4.04,11.23,4.04,17.51c0,22.06-17.95,40-40,40c-22.06,0-40-17.94-40-40c0-22.05,17.94-40,40-40&#10;&#9;&#9;&#9;c2.88,0,5.7,0.31,8.41,0.89"/>
		<path style="fill:none;stroke:#000000;stroke-width:15;stroke-linecap:round;stroke-linejoin:round;stroke-miterlimit:10;" d="&#10;&#9;&#9;&#9;M455.96,141.38l9.87-2.98c19.26-5.81,38.67,8.6,38.67,28.72v267.33c0,13.23-8.67,24.89-21.33,28.72l-129.89,39.2&#10;&#9;&#9;&#9;c-9.42,2.84-19.47,2.84-28.89,0l-136.78-41.28c-9.42-2.85-19.47-2.85-28.89,0L46.17,495.06c-19.26,5.81-38.67-8.61-38.67-28.72&#10;&#9;&#9;&#9;V199.01c0-13.23,8.67-24.9,21.33-28.72l129.89-39.2c9.42-2.85,19.47-2.85,28.89,0l136.78,41.28c9.14,2.76,18.87,2.84,28.05,0.24"/>
		
			<polyline style="fill:none;stroke:#000000;stroke-width:15;stroke-linecap:round;stroke-linejoin:round;stroke-miterlimit:10;" points="&#10;&#9;&#9;&#9;295.53,205.44 338.83,218.51 381.35,205.68 &#9;&#9;"/>
		<path style="fill:none;stroke:#000000;stroke-width:15;stroke-linecap:round;stroke-linejoin:round;stroke-miterlimit:10;" d="&#10;&#9;&#9;&#9;M47.5,367.72V213.86c0-4.4,2.89-8.29,7.11-9.57l118.56-35.78l88.85,26.82"/>
		<path style="fill:none;stroke:#000000;stroke-width:15;stroke-linecap:round;stroke-linejoin:round;stroke-miterlimit:10;" d="&#10;&#9;&#9;&#9;M420.47,193.87l31.14-9.4c6.42-1.94,12.89,2.87,12.89,9.58v225.54c0,4.41-2.89,8.3-7.11,9.57l-118.56,35.79l-165.66-50&#10;&#9;&#9;&#9;L60.39,448.98c-6.42,1.94-12.89-2.86-12.89-9.57v-36.69"/>
	</g>
</g>















</svg>
