<svg width="22" height="22" viewBox="0 0 22 22" fill="none" xmlns="http://www.w3.org/2000/svg">
  <path d="M17.5797 2.72534C15.8223 0.967873 13.4856 0 11.0002 0C8.51481 0 6.17808 0.967873 4.42065 2.72534C2.66319 4.48285 1.69531 6.8195 1.69531 9.30486C1.69531 14.3327 6.4493 18.5147 9.00332 20.7613C9.35825 21.0735 9.66474 21.3432 9.90893 21.5713C10.2149 21.857 10.6076 22 11.0002 22C11.3929 22 11.7855 21.857 12.0915 21.5713C12.3356 21.3431 12.6421 21.0735 12.9971 20.7613C15.5511 18.5146 20.3051 14.3327 20.3051 9.30486C20.305 6.8195 19.3372 4.48285 17.5797 2.72534ZM12.1458 19.7938C11.7831 20.1128 11.4699 20.3884 11.2117 20.6296C11.0931 20.7403 10.9073 20.7403 10.7886 20.6296C10.5304 20.3883 10.2171 20.1128 9.85445 19.7937C7.45335 17.6816 2.98395 13.75 2.98395 9.3049C2.98395 4.88478 6.57997 1.28876 11.0001 1.28876C15.4202 1.28876 19.0163 4.88478 19.0163 9.3049C19.0163 13.75 14.5469 17.6816 12.1458 19.7938Z" fill="#fff"></path>
   <path d="M11.0009 4.85352C8.73989 4.85352 6.90039 6.69297 6.90039 8.95403C6.90039 11.2151 8.73989 13.0545 11.0009 13.0545C13.262 13.0545 15.1015 11.2151 15.1015 8.95403C15.1015 6.69297 13.262 4.85352 11.0009 4.85352ZM11.0009 11.7658C9.45051 11.7658 8.18911 10.5044 8.18911 8.95399C8.18911 7.40359 9.45051 6.14219 11.0009 6.14219C12.5514 6.14219 13.8127 7.40359 13.8127 8.95399C13.8127 10.5044 12.5514 11.7658 11.0009 11.7658Z" fill="#fff"></path>
    </svg>