<svg version="1.1" id="Capa_1" xmlns="http://www.w3.org/2000/svg" xmlns:xlink="http://www.w3.org/1999/xlink" x="0px" y="0px" viewBox="0 0 512 512" style="enable-background:new 0 0 512 512;" xml:space="preserve">
<g>
	<g>
		<polygon style="fill:#C3846A;" points="174.619,412.214 91.564,403.138 91.798,504.5 257.908,478.126 257.908,475.727 &#10;&#9;&#9;&#9;257.908,420.905 &#9;&#9;"/>
		<ellipse style="fill:#F3D98A;" cx="94.043" cy="453.626" rx="30.876" ry="50.874"/>
		<polygon style="fill:#A4634B;" points="257.908,478.127 424.017,504.5 424.017,402.752 257.908,420.905 &#9;&#9;"/>
		<ellipse style="fill:#F3D98A;" cx="421.772" cy="453.626" rx="30.876" ry="50.874"/>
		<path style="fill:#E69246;" d="M411.458,178.134c-3.814-10.727-18.801-10.887-23.056-0.327&#10;&#9;&#9;&#9;c-5.227,12.968-14.981,23.934-33.05,23.64c-43.717-0.711-52.826-42.04-39.783-113.019c8.271-45.006-22.924-68.82-47.298-80.313&#10;&#9;&#9;&#9;c-5.467-2.578-11.071,3.446-8.062,8.689c17.31,30.158,12.494,83.274-18.526,94.975c-29.371,11.078-45.148-2.852-53.315-17.056&#10;&#9;&#9;&#9;c-5.168-8.989-18.305-8.127-22.187,1.488c-25.637,63.486,44.162,123.354,1.31,160.863c-23.511,20.579-45.419,9.572-60.233-4.251&#10;&#9;&#9;&#9;c-7.966-7.432-20.89-1.512-20.656,9.38C89.529,398.648,193.658,429.58,254.506,429.58l0,0&#10;&#9;&#9;&#9;c87.563,3.491,142.606-29.146,167.094-103.74C437.658,276.928,425.451,217.49,411.458,178.134z"/>
		<path style="fill:#F6DE44;" d="M334.683,303.983c-1.907-5.364-9.4-5.443-11.528-0.164c-2.613,6.484-7.491,11.967-16.525,11.82&#10;&#9;&#9;&#9;c-21.859-0.356-26.413-21.02-19.891-56.509c4.135-22.503-11.462-34.41-23.649-40.157c-2.734-1.289-5.536,1.723-4.031,4.345&#10;&#9;&#9;&#9;c8.655,15.079,6.247,41.637-9.263,47.487c-14.685,5.539-22.574-1.426-26.657-8.528c-2.584-4.494-9.152-4.064-11.094,0.744&#10;&#9;&#9;&#9;c-12.819,31.743,22.081,61.677,0.655,80.432c-11.755,10.29-22.709,4.786-30.117-2.126c-3.983-3.716-10.445-0.756-10.328,4.69&#10;&#9;&#9;&#9;c1.464,68.222,53.529,83.688,83.953,83.688l0,0c43.781,1.745,71.303-14.573,83.547-51.87&#10;&#9;&#9;&#9;C347.783,353.38,341.679,323.661,334.683,303.983z"/>
		<path style="fill:#E37E25;" d="M264.083,24.822c15.413,13.787,26.897,34.16,21.486,63.607&#10;&#9;&#9;&#9;c-13.044,70.979-3.935,112.308,39.783,113.019c5.404,0.088,10.059-0.837,14.077-2.516c-29.854-9.974-35.131-49.164-23.859-110.503&#10;&#9;&#9;&#9;c8.271-45.006-22.924-68.82-47.298-80.313c-5.468-2.578-11.071,3.446-8.062,8.689C261.657,19.328,262.947,22.015,264.083,24.822z"/>
		<path style="fill:#E37E25;" d="M411.458,178.134c-3.814-10.727-18.801-10.887-23.057-0.327c-1.169,2.901-2.567,5.7-4.231,8.296&#10;&#9;&#9;&#9;c12.755,39.115,22.438,94.021,7.43,139.736c-22.015,67.061-68.73,100.204-141.562,103.679c1.51,0.037,3.005,0.061,4.467,0.061&#10;&#9;&#9;&#9;c87.563,3.491,142.606-29.146,167.094-103.74C437.658,276.928,425.451,217.49,411.458,178.134z"/>
		<path style="fill:#F3D300;" d="M255.399,267.334c-4.337,30.445,1.117,47.979,21.23,48.306c6.548,0.106,10.905-2.751,13.806-6.797&#10;&#9;&#9;&#9;c-7.453-8.817-8.068-25.929-3.697-49.713c4.135-22.503-11.462-34.41-23.649-40.156c-2.734-1.289-5.536,1.723-4.031,4.345&#10;&#9;&#9;&#9;C266.535,236.344,265.747,257.924,255.399,267.334z"/>
		<path style="fill:#F3D300;" d="M334.683,303.983c-1.907-5.364-9.4-5.444-11.528-0.164c-2.445,6.066-6.873,11.255-14.832,11.778&#10;&#9;&#9;&#9;c5.105,18.678,8.004,42.22,1.432,62.238c-10.289,31.341-31.37,47.864-63.817,51.307c3.607,0.388,7.06,0.563,10.27,0.563&#10;&#9;&#9;&#9;c43.781,1.745,71.303-14.573,83.547-51.87C347.783,353.38,341.679,323.661,334.683,303.983z"/>
	</g>
	<g>
		
			<line style="fill:none;stroke:#000000;stroke-width:15;stroke-linecap:round;stroke-linejoin:round;stroke-miterlimit:10;" x1="94.043" y1="402.752" x2="172.252" y2="411.53"/>
		
			<line style="fill:none;stroke:#000000;stroke-width:15;stroke-linecap:round;stroke-linejoin:round;stroke-miterlimit:10;" x1="257.908" y1="478.127" x2="101.677" y2="502.932"/>
		
			<ellipse style="fill:none;stroke:#000000;stroke-width:15;stroke-linecap:round;stroke-linejoin:round;stroke-miterlimit:10;" cx="94.043" cy="453.626" rx="30.876" ry="50.874"/>
		
			<line style="fill:none;stroke:#000000;stroke-width:15;stroke-linecap:round;stroke-linejoin:round;stroke-miterlimit:10;" x1="416.063" y1="403.621" x2="356.253" y2="410.157"/>
		
			<polyline style="fill:none;stroke:#000000;stroke-width:15;stroke-linecap:round;stroke-linejoin:round;stroke-miterlimit:10;" points="&#10;&#9;&#9;&#9;257.908,431.921 257.908,478.127 418.919,504.5 &#9;&#9;"/>
		<path style="fill:none;stroke:#000000;stroke-width:15;stroke-linecap:round;stroke-linejoin:round;stroke-miterlimit:10;" d="&#10;&#9;&#9;&#9;M446.948,424.167c-5.596-12.961-14.787-21.416-25.176-21.416c-17.052,0-30.876,22.777-30.876,50.874&#10;&#9;&#9;&#9;c0,28.097,13.823,50.874,30.876,50.874c16.003,0,29.162-20.06,30.721-45.752"/>
		<path style="fill:none;stroke:#000000;stroke-width:15;stroke-linecap:round;stroke-linejoin:round;stroke-miterlimit:10;" d="&#10;&#9;&#9;&#9;M168.198,170.414c10.431,34.164,24.766,64.363-0.708,86.661c-23.511,20.579-45.419,9.572-60.233-4.251&#10;&#9;&#9;&#9;c-7.966-7.432-20.89-1.512-20.656,9.38C89.529,398.648,193.658,429.58,254.506,429.58l0,0&#10;&#9;&#9;&#9;c87.563,3.491,142.606-29.146,167.094-103.74c16.057-48.912,3.851-108.35-10.143-147.706&#10;&#9;&#9;&#9;c-3.814-10.727-18.801-10.887-23.056-0.327c-5.227,12.968-14.981,23.934-33.05,23.64c-43.717-0.711-52.826-42.04-39.783-113.019&#10;&#9;&#9;&#9;c8.271-45.006-22.924-68.82-47.298-80.313c-5.467-2.578-11.071,3.446-8.062,8.689c17.31,30.158,12.494,83.274-18.526,94.975&#10;&#9;&#9;&#9;c-29.371,11.078-45.148-2.852-53.315-17.056c-5.168-8.989-18.305-8.127-22.187,1.488c-6.181,15.306-6.815,30.403-4.817,45.026"/>
		<path style="fill:none;stroke:#000000;stroke-width:15;stroke-linecap:round;stroke-linejoin:round;stroke-miterlimit:10;" d="&#10;&#9;&#9;&#9;M334.683,303.983c-1.907-5.364-9.4-5.443-11.528-0.164c-2.613,6.484-7.491,11.967-16.525,11.82&#10;&#9;&#9;&#9;c-21.859-0.356-26.413-21.02-19.891-56.509c4.135-22.503-11.462-34.41-23.649-40.157c-2.734-1.289-5.536,1.723-4.031,4.345&#10;&#9;&#9;&#9;c8.655,15.079,6.247,41.637-9.263,47.487c-14.685,5.539-22.574-1.426-26.657-8.528c-2.584-4.494-9.152-4.064-11.094,0.744&#10;&#9;&#9;&#9;c-12.819,31.743,22.081,61.677,0.655,80.432c-11.755,10.29-22.709,4.786-30.117-2.126c-3.983-3.716-10.445-0.756-10.328,4.69&#10;&#9;&#9;&#9;c1.464,68.222,53.529,83.688,83.953,83.688l0,0c43.781,1.745,71.303-14.573,83.547-51.87&#10;&#9;&#9;&#9;C347.783,353.38,341.679,323.661,334.683,303.983z"/>
		
			<line style="fill:none;stroke:#000000;stroke-width:15;stroke-linecap:round;stroke-linejoin:round;stroke-miterlimit:10;" x1="83.173" y1="141.237" x2="83.173" y2="146.699"/>
		
			<line style="fill:none;stroke:#000000;stroke-width:15;stroke-linecap:round;stroke-linejoin:round;stroke-miterlimit:10;" x1="106.839" y1="164.903" x2="101.377" y2="164.903"/>
		
			<line style="fill:none;stroke:#000000;stroke-width:15;stroke-linecap:round;stroke-linejoin:round;stroke-miterlimit:10;" x1="83.173" y1="188.569" x2="83.173" y2="183.108"/>
		
			<line style="fill:none;stroke:#000000;stroke-width:15;stroke-linecap:round;stroke-linejoin:round;stroke-miterlimit:10;" x1="59.507" y1="164.903" x2="64.968" y2="164.903"/>
		
			<line style="fill:none;stroke:#000000;stroke-width:15;stroke-linecap:round;stroke-linejoin:round;stroke-miterlimit:10;" x1="391.562" y1="42.519" x2="391.562" y2="47.981"/>
		
			<line style="fill:none;stroke:#000000;stroke-width:15;stroke-linecap:round;stroke-linejoin:round;stroke-miterlimit:10;" x1="415.228" y1="66.185" x2="409.767" y2="66.185"/>
		
			<line style="fill:none;stroke:#000000;stroke-width:15;stroke-linecap:round;stroke-linejoin:round;stroke-miterlimit:10;" x1="391.562" y1="89.851" x2="391.562" y2="84.39"/>
		
			<line style="fill:none;stroke:#000000;stroke-width:15;stroke-linecap:round;stroke-linejoin:round;stroke-miterlimit:10;" x1="367.896" y1="66.185" x2="373.358" y2="66.185"/>
	</g>
</g>
<g>
</g>
<g>
</g>
<g>
</g>
<g>
</g>
<g>
</g>
<g>
</g>
<g>
</g>
<g>
</g>
<g>
</g>
<g>
</g>
<g>
</g>
<g>
</g>
<g>
</g>
<g>
</g>
<g>
</g>
</svg>