<svg id="Layer_1" height="512" viewBox="0 0 64 64" width="512" xmlns="http://www.w3.org/2000/svg" data-name="Layer 1"><path d="m37.564 11.429h-11.128l2.12-7.224h6.888z" fill="#83718c"/><path d="m34.458 11.429h3.106l-2.12-7.224h-3.006z" fill="#776780"/><path d="m36.336 25.25 13.488 3.622-2.919-9.227h-29.811l-2.919 9.227 13.489-3.622a16 16 0 0 1 8.672 0z" fill="#b2def7"/><path d="m45.102 27.604 4.722 1.268-2.918-9.227h-4.321z" fill="#9cd6f7"/><path d="m50.473 18.645h-3.755v-3.606h-2v3.606h-2.572v-3.606h-2v3.606h-2.574v-3.606h-2v3.606h-2.572v-3.606h-2v3.606h-2.573v-3.606h-2v3.606h-2.573v-3.606h-2v3.606h-2.572v-3.606h-2v3.606h-3.755a1 1 0 0 0 0 2h36.946a1 1 0 0 0 0-2z" fill="#83718c"/><path d="m45.739 54.267h-27.478l-7.653-22.593a2 2 0 0 1 1.352-2.567l15.7-4.421a16 16 0 0 1 8.672 0l15.7 4.421a2 2 0 0 1 1.352 2.567z" fill="#e7f1f7"/><path d="m11.484 34.259 6.777 20.008h27.478l6.777-20.008-17.806-5.013a10 10 0 0 0 -5.42 0z" fill="#ff4a4a"/><path d="m52.039 29.107-1.551-.437-8.354 25.6h3.6l7.653-22.593a2 2 0 0 0 -1.348-2.57z" fill="#d9e2e8"/><path d="m48.995 33.268-6.861 20.999h3.605l6.777-20.008z" fill="#f23535"/><path d="m57.88 49.96v6.89a.981.981 0 0 1 -.83 1c-2.44.31-2.71 1.95-5.64 1.95-3.24 0-3.24-2-6.48-2s-3.24 2-6.47 2-3.24-2-6.47-2-3.23 2-6.47 2-3.23-2-6.47-2-3.23 2-6.46 2c-2.93 0-3.21-1.64-5.64-1.95a.981.981 0 0 1 -.83-1v-6.89a.96.96 0 0 1 1.09-.99c2.2.39 2.56 1.91 5.38 1.91 3.23 0 3.23-2 6.46-2s3.24 2 6.47 2 3.24-2 6.47-2 3.23 2 6.47 2 3.23-2 6.47-2 3.24 2 6.48 2c2.82 0 3.18-1.52 5.38-1.91a.96.96 0 0 1 1.09.99z" fill="#73cae6"/><path d="m46.621 15.706h-29.242a2 2 0 0 1 -1.7-.95l-2.149-3.484h36.943l-2.149 3.484a2 2 0 0 1 -1.703.95z" fill="#ff4a4a"/><path d="m48.031 11.272-1.249 2.028a2 2 0 0 1 -1.7.95h-29.245a2 2 0 0 1 -.517-.069l.356.578a2 2 0 0 0 1.7.95h29.245a2 2 0 0 0 1.7-.95l2.149-3.484z" fill="#f23535"/><path d="m57.881 56.854a.982.982 0 0 1 -.836.992c-2.431.31-2.708 1.95-5.64 1.95-3.238 0-3.238-2-6.476-2s-3.236 2-6.472 2-3.233-2-6.466-2-3.235 2-6.47 2-3.234-2-6.468-2-3.234 2-6.468 2c-2.928 0-3.2-1.64-5.632-1.95a.982.982 0 0 1 -.836-.992v-3.388c3.234 0 3.234 2 6.468 2s3.234-2 6.468-2 3.234 2 6.468 2 3.235-2 6.47-2 3.233 2 6.466 2 3.236-2 6.472-2 3.238 2 6.476 2 3.238-2 6.476-2z" fill="#41bee6"/><path d="m31.99 48.88a6.277 6.277 0 0 1 1.01.078v-20.017a9.982 9.982 0 0 0 -2 0v20.015a6.283 6.283 0 0 1 .99-.076z" fill="#f23535"/><path d="m16.75 45.176a1.043 1.043 0 1 0 1.043-1.043 1.043 1.043 0 0 0 -1.043 1.043zm-1.11-6.3a1 1 0 0 1 1.268.626l.812 2.4a1 1 0 0 1 -1.895.643l-.812-2.4a1 1 0 0 1 .627-1.271z" fill="#ff8a8a"/><path d="m18.8 33.2a1.012 1.012 0 1 1 1.012-1.012 1.012 1.012 0 0 1 -1.012 1.012zm40.08 16.757v6.895a1.986 1.986 0 0 1 -1.709 1.983 4.571 4.571 0 0 0 -2 .809 6.737 6.737 0 0 1 -7.527 0 4.746 4.746 0 0 0 -5.423 0 6.725 6.725 0 0 1 -7.521 0 4.736 4.736 0 0 0 -5.416 0 6.725 6.725 0 0 1 -7.521 0 4.388 4.388 0 0 0 -2.708-.851 4.388 4.388 0 0 0 -2.708.851 6.315 6.315 0 0 1 -3.76 1.149 6.315 6.315 0 0 1 -3.76-1.149 4.568 4.568 0 0 0 -2-.809 1.986 1.986 0 0 1 -1.709-1.983v-6.893a2.018 2.018 0 0 1 .715-1.553 1.894 1.894 0 0 1 1.553-.418 6.588 6.588 0 0 1 2.491 1.044 4.391 4.391 0 0 0 2.708.85 4.388 4.388 0 0 0 2.708-.851l.114-.07-5.746-16.961a3 3 0 0 1 2.028-3.85l1.83-.515 2.209-6.985h-2.2a1 1 0 0 1 0-2h3.754v-1.944h-1.019a1 1 0 0 1 -.851-.475l-2.736-4.431a1.012 1.012 0 0 1 .851-1.525h12.207l1.866-6.352a1 1 0 0 1 .959-.718h6.889a1 1 0 0 1 .959.719l1.862 6.348h12.204a1.011 1.011 0 0 1 .851 1.525l-2.736 4.433a1 1 0 0 1 -.851.475h-1.019v1.939h3.754a1 1 0 0 1 0 2h-2.2l2.208 6.986 1.83.515a3 3 0 0 1 2.029 3.855l-5.75 16.974.1.063a4.751 4.751 0 0 0 5.425 0 6.608 6.608 0 0 1 2.5-1.045 1.905 1.905 0 0 1 1.552.42 2.016 2.016 0 0 1 .715 1.547zm-12.114-1.84 4.465-13.181-16.792-4.728a8.995 8.995 0 0 0 -1.439-.267v18.012a6.47 6.47 0 0 1 2.75 1.079 4.738 4.738 0 0 0 5.417 0 6.322 6.322 0 0 1 3.762-1.149 6.716 6.716 0 0 1 1.837.234zm-2.048-31.411h-2.572v1.939h2.573zm-20.864 0v1.939h2.573v-1.939zm4.573 1.939h2.573v-1.939h-2.573zm4.573 0h2.573v-1.939h-2.573zm4.573 0h2.573v-1.939h-2.573zm-9.755-8.374h8.364l-1.482-5.071h-5.4zm-11 4.434h30.361l1.5-2.434h-33.36zm2.461 3.939h2.573v-1.938h-2.57zm-3.459 8.336 11.57-3.257a16.991 16.991 0 0 1 9.214 0l11.57 3.257-2-6.336h-28.347zm1.41 21.132a6.718 6.718 0 0 1 1.822-.23 6.315 6.315 0 0 1 3.76 1.149 4.738 4.738 0 0 0 5.417 0 6.474 6.474 0 0 1 2.771-1.08v-18.01a8.995 8.995 0 0 0 -1.439.268l-7.448 2.1a1 1 0 1 1 -.542-1.925l7.448-2.1a11 11 0 0 1 5.962 0l16.892 4.756.571-1.686a1.012 1.012 0 0 0 -.676-1.284l-15.7-4.421a15.007 15.007 0 0 0 -8.13 0l-15.7 4.421a1.015 1.015 0 0 0 -.676 1.284l.571 1.686 3.177-.895a1 1 0 1 1 .542 1.925l-3.077.866zm-10.192 1.846.062 2.575a6.462 6.462 0 0 1 2.781 1.083 4.388 4.388 0 0 0 2.708.851 4.388 4.388 0 0 0 2.708-.851 6.315 6.315 0 0 1 3.76-1.149 6.315 6.315 0 0 1 3.76 1.149 4.738 4.738 0 0 0 5.417 0 6.724 6.724 0 0 1 7.52 0 4.738 4.738 0 0 0 5.417 0 6.733 6.733 0 0 1 7.525 0 4.75 4.75 0 0 0 5.425 0 6.481 6.481 0 0 1 2.763-1.08v-2.577a4.92 4.92 0 0 0 -1.712.774 6.738 6.738 0 0 1 -7.527 0 4.746 4.746 0 0 0 -5.423 0 6.725 6.725 0 0 1 -7.521 0 4.736 4.736 0 0 0 -5.416 0 6.725 6.725 0 0 1 -7.521 0 4.388 4.388 0 0 0 -2.708-.851 4.388 4.388 0 0 0 -2.708.851 6.315 6.315 0 0 1 -3.76 1.149 6.312 6.312 0 0 1 -3.76-1.149 4.729 4.729 0 0 0 -1.79-.775zm49.88 6.9h-.037v-2.3a4.825 4.825 0 0 0 -1.712.763 6.737 6.737 0 0 1 -7.527 0 4.746 4.746 0 0 0 -5.423 0 6.725 6.725 0 0 1 -7.521 0 4.736 4.736 0 0 0 -5.416 0 6.725 6.725 0 0 1 -7.521 0 4.388 4.388 0 0 0 -2.708-.851 4.388 4.388 0 0 0 -2.708.851 6.315 6.315 0 0 1 -3.76 1.149 6.315 6.315 0 0 1 -3.76-1.149 4.815 4.815 0 0 0 -1.708-.762v2.3a6.453 6.453 0 0 1 2.76 1.091 4.387 4.387 0 0 0 2.708.851 4.388 4.388 0 0 0 2.708-.851 6.315 6.315 0 0 1 3.76-1.149 6.315 6.315 0 0 1 3.76 1.149 4.738 4.738 0 0 0 5.417 0 6.724 6.724 0 0 1 7.52 0 4.738 4.738 0 0 0 5.417 0 6.733 6.733 0 0 1 7.525 0 4.75 4.75 0 0 0 5.425 0 6.447 6.447 0 0 1 2.801-1.096z"/></svg>