<?xml version="1.0" standalone="no"?>
<svg xmlns="http://www.w3.org/2000/svg" version="1.1" xmlns:xlink="http://www.w3.org/1999/xlink" width="512" height="512" x="0" y="0" viewBox="0 0 508.011 508.011" style="enable-background:new 0 0 512 512" xml:space="preserve" class=""><g><path d="M508.004 252.404c-.8-140.2-115.4-253.2-255.6-252.4s-253.2 115.4-252.4 255.6c.2 26.8 4.4 52.6 12.4 76.8h483.4c8-25.2 12.4-52.2 12.2-80z" style="" fill="#ededed" data-original="#f89f6a" class="" opacity="1"/><path d="M12.404 332.404c33.2 102.4 129.6 176.4 243.2 175.6 112.4-.8 207.2-74.4 240-175.6h-483.2z" style="" fill="#1f84ab" data-original="#1f84ab"/><path d="m373.604 204.204-33 17.6-16.6-23.4zM135.804 204.204l59.2 22.6-12-30.2z" style="" fill="#2c424f" data-original="#2c424f"/><path d="m368.804 256.804-5.8-10.6h-54.2v-24.4h41.4l-3.6-6.6-2.6-5h-175.8l-4 11.6h37.8v24.4h-46.4l-13.4 37.6 17.4 20.2 218.8-29.2z" style="" fill="#bcbfc2" data-original="#bcbfc2"/><path d="M202.004 221.804h-37.8l-8.6 24.4h46.4zM308.804 246.204h54.2l-12.8-24.4h-41.4z" style="" fill="#2792b8" data-original="#2792b8"/><path d="M321.604 168.004h-138.4l-10.8 30.4h165.2z" style="" fill="#bcbfc2" data-original="#bcbfc2"/><path d="M337.604 198.404h-165.2l-4.2 11.8h175.8z" style="" fill="#9da5ab" data-original="#9da5ab"/><path d="M135.804 192.804h237.8v11.4h-237.8z" style="" fill="#edf0f2" data-original="#edf0f2" class=""/><path d="M423.004 254.204h-166.8l-18.8 8.6h180.8z" style="" fill="#5a3d1b" data-original="#5a3d1b"/><path d="M248.804 124.404h3v43.6h-3z" style="" fill="#527f99" data-original="#527f99" class=""/><path d="M405.204 262.804h-167.8l-47 21.8h-101l35.4 44.6h240.6z" style="" fill="#f16254" data-original="#f16254" class=""/><path d="m405.204 262.804-39.8 66.4h-240.6l24.4 30.6h215.4l53.6-97z" style="" fill="#bc4d4a" data-original="#bc4d4a" class=""/><path d="M244.604 274.204h15.8v16.4h-15.8zM272.804 274.204h15.8v16.4h-15.8zM301.004 274.204h15.8v16.4h-15.8zM329.204 274.204h15.8v16.4h-15.8zM221.204 221.804h24.4v24.4h-24.4zM265.004 221.804h24.4v24.4h-24.4zM357.404 274.204h15.8v16.4h-15.8z" style="" fill="#2792b8" data-original="#2792b8"/><path d="M216.804 348.204c1 .6 1.6 1.4 2.4 2 3.4 2.4 8 1.6 12 1.4 6.2-.4 12.6.4 18.8 1.2l42.6 6c-3 3.4-8 5.2-12.6 4.4.2 3-2.6 5.8-5.4 5.6-1 0-2.2-.4-3.2-.4-1.4 0-2.6.8-3.8 1.6-5 2.8-11 3.4-16.4 2-1.8 4-6.8 5-11 5.4-8.8 1-17.8 2.2-26.6 1.6-2.4-.2-5-.4-7.4-.2-3 .2-5.8 1-8.6 1.4-6.2.6-12.6-1-17.6-4.8-12.6 11.6-32.4 10.6-48.6 5.2-6-2-12.2-4.4-18.2-3-2.6.6-5 2-7.6 2.6-1.8.4-3.8.6-5.6.6-10.4.4-20.8 1-31.4 1.4-7.2.4-14.6.6-20.8-3-2.8-1.6-5.2-5.2-3.2-7.6 10-1.8 20.4-2.6 30.6-2.2-11-1-22-3-32.8-5.6 3.4-4.4 9.4-6 15-6s11 1.4 16.6 2c0-1.4.2-3 .2-4.4 2.8-.4 5.6-.2 8.4.4 1.6-3-2.4-5.8-5.8-6.2-10.8-1.4-23.6 4-31.6-3.4 7.8-3.6 17.4 1.4 25.2-2.2 4.2-1.8 7-5.8 10.6-8.6 3.8-2.6 9.8-3.6 12.2.2-.4-2.6 1.8-5.2 4.2-6 2.6-1 5.2-.8 8-.4 4 .4 8 .8 11.4 2.6 3.6 1.8 6.4 5.4 6.4 9.2 1.8-2.4 3-5.4 3-8.4 4.8.8 8.8 5.2 9 10.2.4-1.2.6-2.2 1-3.4 1.8-2.8 6.4-2.2 8.4.6 2 2.6 1.8 6.4 1 9.6 3.4-3.6 9.8-3.6 13.4-.2 7.8-2 15.8-3.4 23.8-4 7.8-.6 17.2.4 21.4 7 3.8-3.2 8.6-6.6 12.6-4.2z" style="" fill="#edf0f2" data-original="#edf0f2" class=""/><path d="M394.804 361.004c-.6 4.2-5 6.4-8.8 8-13.8 5.6-28.6 8.6-43.4 11.2-22.6 4-45.4 6.6-68.2 9.4-32.2 3.8-64.2 7.8-96.4 11.6 72.6-.4 146.8-1 215.8-23.8 4-1.4 8.2-2.8 11.6-5.6 3.2-2.8 5.4-7.2 4.4-11.4-1.2-5-6.4-7.8-11.2-9.2-4.6-1.2-9.2-1.6-14-1.2 5.2 1.6 11 5.4 10.2 11z" style="opacity:0.31;enable-background:new ;" fill="#edf0f2" data-original="#edf0f2" class=""/><path d="M401.204 397.604c-1.6 3.6-6 5-9.8 5.8-17.8 3.8-37.4 2.2-52.6 12.2.8 1.8 2.6 3 4.4 3.2 1 2.8-.6 6-3 8-2.4 1.8-5.4 2.6-8.4 3.4-35.8 8.4-72.6 12.6-109.2 16.8-10.6 1.2-21 2.4-31.6 3.6 52.8-1.8 105.8-4 157.2-16.4 5-1.2 10.6-3.2 12.2-8-3.2-.4-3.8-5.6-1.4-7.8 2.4-2.4 6-2.6 9.2-2.8 14.8-1.2 29.4-5 43-11 1.6-.8 3.4-1.8 3.6-3.6 0-1.6-1.2-2.8-1.6-4.4-.4-2.6 2.2-4.6 4.6-5.8 5-2.6 10.2-5.4 15.2-8 4.6-2.4 9.2-4.8 12.4-8.8 3.2-4 4.4-10 1.8-14.2-2.6-4-7.6-5.4-12.2-6.4l-10.2-2.4c3.8.6 8 1.2 11.2 3.4 3.2 2.2 5.4 6.4 4 10.2-.6 1.6-2 3-3.2 4.2-8.6 8.4-18.4 15.4-29 20.8-2 1-4.2 2-5.2 4-.6 1.2-.8 2.8-1.4 4z" style="opacity:0.31;enable-background:new ;" fill="#edf0f2" data-original="#edf0f2" class=""/></g></svg>