<svg height="512" viewBox="0 0 512 512" width="512" xmlns="http://www.w3.org/2000/svg"><path d="m148.581 254.717-20.54-57.533h27.264l39.141 57.533z" fill="#eb5764"/><path d="m124.426 370.362c.988-47.776-6.388-94.968-57.524-95.051l-.651-23.287h200.699c57.594.664 84.138 33.156 108.338 68.561 2.924 4.277 8.876 12.397 11.782 16.709l-68.619 21.376z" fill="#e2f2f6"/><path d="m27.142 446.168s5.248-25.232 7.762-34.907c8.721-33.556 33.903-40.853 67.885-42.657 38.58-2.048 78.807-4.238 117.655-6.383 13.356-.737 44.015-20.876 56.922-21.595 105.55-5.88 191.967-10.896 191.967-10.896-5.818 36.808-22.303 73.663-54.111 93.382 0 0-42.923 34.016-150.843 38.052-120.864 4.521-237.237-14.996-237.237-14.996z" fill="#f3fafc"/><path d="m504.242 445.267c-64.129 1.101-87.405-30.899-127.28-30.67-45.176.26-62.734 30.799-119.924 30.8-55.341.001-79.131-29.09-125.142-30.242-47.594-1.192-60.527 31.698-124.139 31.44v57.648h496.485zm-167.869-169.873h-266.786c28.772 1.023 43.04 17.606 49.68 40.706h252.924c-10.518-15.102-21.696-29.438-35.818-40.706z" fill="#a8deee"/><path d="m220.444 362.222a56240.955 56240.955 0 0 1 -117.655 6.383c-29.833 1.584-52.879 7.407-63.964 31.507l415.227-21.264c7.64-15.275 12.605-32.19 15.281-49.116 0 0-86.417 5.016-191.967 10.896-12.907.718-43.565 20.856-56.922 21.594z" fill="#bbcbca"/><circle cx="85.333" cy="85.333" fill="#ffcd58" r="29.091"/><path d="m459.428 102.961a34.498 34.498 0 0 0 7.676-21.74c0-19.138-15.514-34.652-34.652-34.652-16.608 0-30.48 11.686-33.859 27.283-10.179-5.537-21.847-8.684-34.25-8.684-39.642 0-71.778 32.136-71.778 71.778 0 1.738.084 3.455.205 5.162-12.485 5.239-21.255 17.577-21.255 31.965 0 19.138 15.514 34.652 34.652 34.652 8.985 0 17.17-3.42 23.327-9.029a71.428 71.428 0 0 0 34.85 9.029c18.034 0 34.5-6.665 47.109-17.647 9.741 10.832 23.86 17.647 39.575 17.647 29.39 0 53.215-23.825 53.215-53.215-.001-26.53-19.418-48.52-44.815-52.549z" fill="#e2f2f6"/><path d="m504.055 437.511c-25.588.644-50.596-6.979-73.359-16.048 23.857-19.853 40.121-51.424 46.301-90.522a7.761 7.761 0 0 0 -1.913-6.419 7.746 7.746 0 0 0 -6.199-2.536c-.522.03-32.232 1.869-80.175 4.597l-.53-.787c-26.708-39.705-54.324-80.76-121.229-81.531h-69.561l-35.71-51.503a7.757 7.757 0 0 0 -6.375-3.337h-27.264a7.756 7.756 0 0 0 -7.329 10.298l15.441 44.542h-69.902a7.757 7.757 0 0 0 -7.755 7.974l.651 23.286a7.758 7.758 0 0 0 7.742 7.542c14.747.025 25.698 3.903 33.477 11.858 14.172 14.491 16.491 41.523 16.378 65.167l-14.368.765c-32.856 1.744-64.681 8.822-74.981 48.453-1.761 6.776-4.762 20.676-6.5 28.87-4.1.413-8.284.658-12.582.658l-.557-.002a7.759 7.759 0 0 0 -.032 15.515l.598.002c30.385-.002 55.503-9.727 78.124-20.252 22.74-10.58 43.149-13.417 64.224-8.939 4.189.903 8.31-1.784 9.202-5.973a7.757 7.757 0 0 0 -5.974-9.201c-24.537-5.223-48.049-2.025-73.996 10.045-13.163 6.124-27.189 11.956-42.566 15.458 1.672-7.762 3.769-17.251 5.075-22.28a62.906 62.906 0 0 1 1.955-6.195c44.705-2.837 90.325-4.775 134.491-6.644 43.185-1.828 87.84-3.718 131.024-6.439a7.759 7.759 0 0 0 7.254-8.231c-.269-4.277-3.941-7.496-8.231-7.254-43.023 2.712-87.596 4.598-130.703 6.422-40.526 1.716-82.277 3.487-123.486 5.961 10.712-10.111 26.936-13.338 48.484-14.482 38.585-2.047 78.819-4.239 117.671-6.383 8.266-.456 19.713-5.911 31.831-11.686 9.011-4.294 20.223-9.638 25.095-9.909a97898.437 97898.437 0 0 0 182.106-10.326c-2.122 9.953-5.549 21.756-10.966 33.538-36.415 2.837-73.98 4.681-108.809 5.322a7.757 7.757 0 0 0 -7.614 7.898 7.756 7.756 0 0 0 7.754 7.616c.047 0 .097 0 .144-.002 31.899-.588 66.066-2.173 99.568-4.6-6.595 10.036-15.058 19.345-25.878 26.697-.625-.272-1.26-.545-1.881-.817-38.775-16.328-77.39.871-111.458 16.042l-3.172 1.413c-31.282 12.46-68.888 8.813-111.772-10.845a7.756 7.756 0 1 0 -6.464 14.104c28.354 12.998 54.814 19.508 79.126 19.508 15.951 0 30.977-2.803 45.006-8.415.091-.036.18-.074.271-.114l3.32-1.477c32.712-14.57 66.538-29.638 99.025-15.958 28.756 12.58 62.405 25.926 98.328 25.066a7.76 7.76 0 0 0 7.568-7.943c-.104-4.281-3.606-7.741-7.943-7.567zm-147.087-129.168h-31.123v-25.191h6.381c.402 0 .788-.059 1.174-.118 8.798 7.324 16.429 15.97 23.568 25.309zm-174.38-25.192v25.191h-27.065v-25.191zm15.515 0h27.065v25.191h-27.065zm42.581 0h27.066v25.191h-27.066zm42.581 0h27.064v25.191h-27.064zm-144.325-78.21h12.303l27.266 39.325h-25.937zm-29.112 77.623a7.755 7.755 0 0 0 -2.95-14.928h-32.43l-.22-7.854 192.633-.002c16.103.186 29.596 3.042 41.245 7.856h-170.628a7.758 7.758 0 0 0 0 15.516h2.529v25.191h-14.357c-3.137-9.205-7.652-17.578-14.191-24.265-.521-.533-1.089-1.007-1.631-1.514zm167.106 50.317c-7.922.443-19.086 5.763-30.905 11.394-9.268 4.417-20.802 9.913-26.011 10.201a62484.385 62484.385 0 0 1 -87.76 4.786c.02-11.493-.558-23.726-2.659-35.403h238.53a791.518 791.518 0 0 1 2.557 3.75 97387.175 97387.175 0 0 1 -93.752 5.272zm100.028 132.804h-.045c-22.822.131-39.384 7.563-55.403 14.75-17.583 7.89-35.767 16.049-64.475 16.049-27.898.002-47.598-7.888-66.651-15.517-17.368-6.955-35.328-14.148-58.295-14.723-4.26-.076-7.842 3.278-7.949 7.561a7.758 7.758 0 0 0 7.561 7.951c20.178.506 36.08 6.873 52.917 13.616 20.418 8.176 41.53 16.631 72.418 16.629 32.03-.002 52.642-9.25 70.828-17.409 15.879-7.125 29.593-13.278 49.142-13.39a7.757 7.757 0 0 0 7.712-7.803 7.762 7.762 0 0 0 -7.76-7.714z"/><path d="m131.702 452.646c20.181.506 36.084 6.875 52.922 13.617 2.57 1.028 5.155 2.064 7.772 3.085a7.7 7.7 0 0 0 2.82.534 7.76 7.76 0 0 0 2.824-14.985c-2.575-1.006-5.118-2.025-7.648-3.038-17.37-6.956-35.331-14.148-58.301-14.725-24.154-.598-39.833 6.794-56.419 14.627-2.116 1-4.252 2.009-6.432 3.011a7.758 7.758 0 1 0 6.485 14.095 693.47 693.47 0 0 0 6.574-3.078c15.516-7.329 28.915-13.685 49.403-13.143zm312.889 4.204c-5.926-2.218-11.532-4.604-16.955-6.911-16.15-6.873-31.405-13.366-50.248-13.366l-.472.002c-22.822.131-39.386 7.564-55.403 14.752a655.92 655.92 0 0 1 -7.917 3.509 7.757 7.757 0 0 0 -4.034 10.203 7.758 7.758 0 0 0 10.201 4.036c2.746-1.189 5.436-2.398 8.102-3.593 15.879-7.127 29.593-13.28 49.14-13.392l.377-.002c15.682 0 28.898 5.623 44.178 12.127 5.578 2.371 11.343 4.826 17.587 7.165a7.761 7.761 0 0 0 9.987-4.544 7.76 7.76 0 0 0 -4.543-9.986zm-333.202-397.572c-6.96-6.959-16.213-10.793-26.056-10.793s-19.096 3.833-26.056 10.793c-14.366 14.367-14.366 37.744 0 52.112 6.96 6.959 16.213 10.793 26.056 10.793s19.096-3.833 26.056-10.793c14.367-14.368 14.367-37.745 0-52.112zm-10.971 41.14a21.193 21.193 0 0 1 -15.084 6.249 21.193 21.193 0 0 1 -15.084-6.249c-8.318-8.317-8.318-21.851 0-30.169a21.19 21.19 0 0 1 15.083-6.249c5.698 0 11.055 2.22 15.084 6.249 8.319 8.317 8.319 21.852.001 30.169zm-92.66-7.327h24.485a7.758 7.758 0 0 0 0-15.516h-24.485a7.758 7.758 0 0 0 0 15.516zm122.909-7.758a7.758 7.758 0 0 0 7.758 7.758h24.485a7.758 7.758 0 0 0 0-15.516h-24.485a7.759 7.759 0 0 0 -7.758 7.758zm-53.091 53.091v24.485a7.758 7.758 0 0 0 15.516 0v-24.485a7.758 7.758 0 0 0 -15.516 0zm7.757-98.424a7.758 7.758 0 0 0 7.758-7.758v-24.484a7.759 7.759 0 0 0 -15.516 0v24.485a7.759 7.759 0 0 0 7.758 7.757zm-59.554 29.062 7.54 3.123a7.737 7.737 0 0 0 2.966.593 7.759 7.759 0 0 0 7.17-4.791 7.756 7.756 0 0 0 -4.198-10.135l-7.54-3.123a7.756 7.756 0 0 0 -10.135 4.198 7.755 7.755 0 0 0 4.197 10.135zm119.108 32.543-7.54-3.123a7.757 7.757 0 0 0 -5.937 14.333l7.54 3.123a7.737 7.737 0 0 0 2.966.593 7.759 7.759 0 0 0 2.971-14.926zm-85.961 47.48a7.737 7.737 0 0 0 2.966.593 7.756 7.756 0 0 0 7.169-4.791l3.123-7.54a7.757 7.757 0 1 0 -14.333-5.937l-3.123 7.54a7.756 7.756 0 0 0 4.198 10.135zm43.754-105.63a7.737 7.737 0 0 0 2.966.593 7.759 7.759 0 0 0 7.17-4.791l3.123-7.54a7.758 7.758 0 0 0 -14.333-5.937l-3.123 7.54a7.755 7.755 0 0 0 4.197 10.135zm-70.963 72.484 7.54-3.123a7.757 7.757 0 1 0 -5.937-14.333l-7.54 3.123a7.756 7.756 0 0 0 -4.198 10.135 7.758 7.758 0 0 0 7.17 4.791 7.754 7.754 0 0 0 2.965-.593zm107.233-61.211-7.54 3.123a7.756 7.756 0 0 0 -4.198 10.135 7.758 7.758 0 0 0 7.17 4.791c.99 0 1.995-.19 2.966-.593l7.54-3.123a7.756 7.756 0 1 0 -5.938-14.333zm-37.345 90.159a7.758 7.758 0 0 0 7.17 4.791c.99 0 1.995-.19 2.966-.593a7.756 7.756 0 0 0 4.198-10.135l-3.123-7.54a7.757 7.757 0 0 0 -10.135-4.198 7.756 7.756 0 0 0 -4.198 10.135zm-43.754-105.63a7.758 7.758 0 0 0 7.17 4.791c.99 0 1.995-.19 2.966-.593a7.756 7.756 0 0 0 4.198-10.135l-3.123-7.54a7.756 7.756 0 0 0 -10.135-4.198 7.756 7.756 0 0 0 -4.198 10.135zm-27.372 108.688a7.737 7.737 0 0 0 5.486-2.272l17.313-17.313a7.76 7.76 0 0 0 0-10.972 7.762 7.762 0 0 0 -10.972 0l-17.313 17.313a7.76 7.76 0 0 0 5.486 13.244zm86.909-94.666c1.515 1.514 3.5 2.272 5.486 2.272s3.971-.758 5.486-2.272l17.313-17.313a7.76 7.76 0 0 0 0-10.972 7.762 7.762 0 0 0 -10.972 0l-17.313 17.313a7.76 7.76 0 0 0 0 10.972zm17.314 92.394c1.515 1.514 3.5 2.272 5.486 2.272s3.971-.758 5.486-2.272a7.76 7.76 0 0 0 0-10.972l-17.313-17.313a7.762 7.762 0 0 0 -10.972 0 7.76 7.76 0 0 0 0 10.972zm-92.395-92.394c1.515 1.514 3.5 2.272 5.486 2.272s3.971-.758 5.486-2.272a7.76 7.76 0 0 0 0-10.972l-17.314-17.313a7.762 7.762 0 0 0 -10.972 0 7.76 7.76 0 0 0 0 10.972zm263.859 163.204c8.733 0 17.161-2.67 24.237-7.604a79.664 79.664 0 0 0 33.941 7.604 79.474 79.474 0 0 0 46.561-15.073c11.049 9.651 25.314 15.073 40.121 15.073 33.621 0 60.973-27.352 60.973-60.972 0-26.399-16.538-49.086-40.61-57.508a42.461 42.461 0 0 0 3.472-16.781c0-23.384-19.025-42.409-42.409-42.409-16.574 0-31.475 9.822-38.366 24.357a79.83 79.83 0 0 0 -29.742-5.759 79.312 79.312 0 0 0 -42.464 12.295 7.757 7.757 0 0 0 -2.407 10.704 7.757 7.757 0 0 0 10.703 2.408 63.803 63.803 0 0 1 34.169-9.892c10.672 0 21.233 2.677 30.542 7.741a7.754 7.754 0 0 0 11.288-5.171c2.659-12.265 13.71-21.168 26.278-21.168 14.83 0 26.894 12.064 26.894 26.894 0 6.206-2.059 12.04-5.956 16.868a7.755 7.755 0 0 0 4.822 12.533c22.176 3.518 38.273 22.396 38.273 44.887 0 25.065-20.392 45.457-45.458 45.457-12.867 0-25.189-5.495-33.805-15.077a7.756 7.756 0 0 0 -10.864-.663 63.966 63.966 0 0 1 -73.091 7.69 7.762 7.762 0 0 0 -8.996 1.044 26.828 26.828 0 0 1 -18.104 7.007c-14.83 0-26.894-12.064-26.894-26.894a26.85 26.85 0 0 1 16.5-24.812 7.76 7.76 0 0 0 4.737-7.703 63.797 63.797 0 0 1 -.188-4.613c0-13.951 4.409-27.209 12.748-38.343a7.758 7.758 0 0 0 -12.417-9.301c-10.367 13.838-15.847 30.313-15.847 47.644 0 .158 0 .318.002.478-12.945 7.528-21.051 21.383-21.051 36.649-.001 23.385 19.024 42.41 42.408 42.41z"/><path d="m421.344 86.542a7.762 7.762 0 0 0 7.574-6.116c.348-1.611 1.869-2.826 3.534-2.826a7.758 7.758 0 0 0 0-15.516c-8.943 0-16.805 6.33-18.697 15.053a7.757 7.757 0 0 0 5.938 9.225 7.67 7.67 0 0 0 1.651.18zm-105.505 58.163a7.758 7.758 0 0 0 7.758-7.758c0-22.469 18.28-40.748 40.748-40.748a7.758 7.758 0 0 0 0-15.516c-31.023 0-56.263 25.24-56.263 56.263a7.758 7.758 0 0 0 7.757 7.759z"/></svg>