<svg id="Layer_1" enable-background="new 0 0 512 512" viewBox="0 0 512 512" xmlns="http://www.w3.org/2000/svg"><g><g><path d="m509.4 139.3c-1.2-2.2-2.9-3.9-5-5.1l3-9.9c5.3-16.3-4.8-35-21.3-39.7-16.8-5-34.6 4.5-39.7 21.3l-3 9.9c-6-.5-11.8 3.6-13.4 9.3-2.9 9.6-21 69.7-23.4 77.8v-70.1c-.2-1.4-.5-2.9-1.7-3.9-1.3-1.3-68.3-68.4-71.8-72-1-.9-2.3-1.4-3.7-1.5l-3.4-32.5c-.7-10.6-11.1-18.9-21.5-17.6 0 0-285.9 29.2-285.9 29.2-10.8 1.2-18.6 10.9-17.5 21.6l41.9 410c.8 9.7 9.8 17.8 19.5 17.6.7 0 1.4 0 2-.1l15.3-1.5c-1.4 12.8 6 24.6 19.6 24.8h301.5c3 0 5.5-2.5 5.5-5.5v-61.6c1-1.3 8.8-9.3 9-10.8.2-.2 42.5-141.1 42.6-141.3 5.9.7 11.9-3.7 13.4-9.3 0 0 38.8-128.9 38.8-128.9 1.3-3.5.9-7-.8-10.2zm-52.4-30.2c8.6-26 47-14.4 39.8 12 0 0-2.9 9.6-2.9 9.6l-39.8-12zm-21.6 36.4 15 4.5-28.6 94.6-14.9-4.5zm-100.7-71.2 50 50 3 3h-44.4c-4.8 0-8.6-3.8-8.6-8.6zm-254.8.7v396l-16.4 1.7c-4.4.6-9.1-3-9.4-7.6 0 0-41.9-410-41.9-410-.5-4.7 2.9-9 7.6-9.4l285.9-29.2c4.5-.6 9.1 3.1 9.4 7.7 0 0 3.3 31.4 3.3 31.4h-218.9c-10.7-.2-19.6 8.7-19.6 19.4zm315.6 420.8h-296c-2.2 0-4.4-.9-6-2.5-1.7-1.6-2.6-3.9-2.6-6.1v-412.1c0-4.8 3.8-8.6 8.6-8.6h224.1v52.2c0 10.8 8.8 19.6 19.7 19.6h52.2v101.2l-2.8 9.4c-.6 2.1-2.1 6.2-2 8.3-.3 4.2 1.6 8.2 4.8 10.9.2 0 0 6.7.1 6.7 0 0-15.5 51.6-15.5 51.6v-103.4c0-7.7-6.2-13.9-13.9-13.9h-236c-7.7 0-13.9 6.2-13.9 13.9v236c0 7.7 6.2 13.9 13.9 13.9h233.1c0 5.4 5.9 8.3 9.8 4.3 0 0 22.4-25.1 22.4-25.1zm-36.7-53.9 2.9 20h-231.6c-1.6 0-2.9-1.3-2.9-2.9v-236c0-1.6 1.3-2.9 2.9-2.9h236c1.6 0 2.9 1.3 2.9 2.9v140.1l-14.2 47.1c-.1.7-.3 1.3-.2 2v.2.1zm13.9 19.2c-1.5-10.3-4.5-31.1-6-41.4l33.8 10.2zm34-40.9-39.8-12 40.7-135.3 39.8 12zm93.1-274-38.8 128.9c-.5 1.3-1.4 1.7-2.7 1.4-11.1-3.3-42.1-12.7-52.8-15.9-1.6-.5-4.5-1-3.8-3.4.5-1.6 1.5-4.9 1.9-6.6l14.9 4.5c5.7 1.8 12.1-1.5 13.9-7.4 0 0 28.4-94.5 28.4-94.5 1.9-5.7-1.7-12.2-7.5-13.9 0 0-14.9-4.5-14.9-4.5l2-6.6c.5-1.4 1.5-1.7 2.7-1.4 0 0 55.2 16.6 55.2 16.6 1.4.7 1.8 1.4 1.5 2.8z" fill="#231f20"/></g><g><path d="m354.6 412.3c-.1-.7.1-1.3.2-2 0 0 14.2-47.1 14.2-47.1v-140.2c0-1.6-1.3-2.9-2.9-2.9h-236c-1.6 0-2.9 1.3-2.9 2.9v236c0 1.6 1.3 2.9 2.9 2.9h231.5c-1.6-11.8-5.5-37.6-7-49.6zm-201.6-168.6h104.9c3 0 5.5 2.5 5.5 5.5 0 3.1-2.5 5.5-5.5 5.5h-104.9c-7.2 0-7.3-10.8 0-11zm0 36.7h104.9c3 0 5.5 2.5 5.5 5.5 0 3.1-2.5 5.5-5.5 5.5h-104.9c-7.2 0-7.3-10.8 0-11zm166.5 157.9h-166.5c-7.2-.1-7.3-10.9 0-11.1h166.5c7.2.2 7.3 11 0 11.1zm0-36.7h-166.5c-7.2-.1-7.3-10.9 0-11.1h166.5c7.2.2 7.3 11 0 11.1zm20-36.7h-186.5c-7.2-.1-7.3-10.9 0-11.1h186.5c7.1.1 7.3 11.1 0 11.1zm0-36.7h-186.5c-7.2-.1-7.3-10.9 0-11.1h186.5c7.2 0 7.2 11.1 0 11.1z" fill="#edf1f4"/></g><g><path d="m387.7 127.3h-44.4c-4.8 0-8.6-3.8-8.6-8.6v-44.4l50 50z" fill="#ffeed9"/></g><g><path d="m318.3 55.4h-218.8c-5.2 0-9.9 2.1-13.5 5.5-3.8 3.6-6.2 8.6-6.2 14.2v395.9l-16.4 1.7c-4.4.6-9.1-3-9.4-7.6 0 0-41.9-410-41.9-410-.5-4.7 2.9-9 7.6-9.4l285.9-29.2c4.5-.6 9.1 3.1 9.4 7.7 0-.2 3.3 31.2 3.3 31.2z" fill="#ffeed9"/></g><g><path d="m390.7 256.4c.8-4.5 3.6-12.4 4.8-16.9v-101.2h-52.2c-10.8 0-19.7-8.8-19.7-19.6v-52.2h-224.1c-4.7 0-8.6 3.8-8.6 8.6v412.1c0 2.3.9 4.5 2.6 6.1 1.6 1.6 3.8 2.5 6 2.5h296v-43.7l-22.4 25.1c-3.9 4-9.8 1.1-9.8-4.3h-233.2c-7.7 0-13.9-6.2-13.9-13.9v-236c0-7.7 6.2-13.9 13.9-13.9h236c7.7 0 13.9 6.2 13.9 13.9v103.5l15.5-51.6c-.1-.1.1-6.8-.1-6.7-3.4-2.9-5.3-7.4-4.7-11.8zm-244.4-88.2h13.5c6.9 0 12.5 5.5 12.5 12.2v7.1c0 6.7-5.6 12.2-12.5 12.2h-20.5c-7.2 0-7.2-11 0-11.1h20.5c.8 0 1.5-.5 1.5-1.1v-7.1c0-.6-.7-1.1-1.5-1.1h-13.5c-6.9 0-12.5-5.5-12.5-12.2v-7c0-6.7 5.6-12.2 12.5-12.2h20.5c7.2.1 7.2 11 0 11.1h-20.5c-.8 0-1.5.6-1.5 1.2v7c0 .5.7 1 1.5 1zm47.6 20.3h20.5c7.3.1 7.3 11 0 11.1h-20.5c-6.9 0-12.5-5.5-12.5-12.2v-27.4c0-6.7 5.6-12.2 12.5-12.2h20.5c7.2.1 7.2 11 0 11.1h-20.5c-.8 0-1.4.6-1.4 1.2v27.4c-.1.5.6 1 1.4 1zm73.6-21.5c.1 6.7-5.9 12.3-12.5 12.2h-3.7l14 10.4c4.2 3 1.8 10.1-3.3 9.9-1.2 0-2.3-.3-3.3-1.1l-18.7-13.8v9.4c0 3.1-2.5 5.5-5.5 5.5s-5.5-2.4-5.5-5.5v-34c0-6.7 5.6-12.2 12.5-12.2h13.4c6.9 0 12.5 5.5 12.5 12.2v7zm21.9 27.1c0 7.2-11.1 7.2-11.1 0v-40.7c.1-7.2 10.9-7.3 11.1 0 0-.1 0 40.7 0 40.7zm49.4-27.1c.1 6.6-5.9 12.3-12.5 12.2h-15v14.9c0 3.1-2.5 5.5-5.5 5.5s-5.5-2.4-5.5-5.5v-34c0-6.7 5.6-12.2 12.5-12.2h13.5c6.9 0 12.5 5.5 12.5 12.2zm37.7-8.1h-8.2v35.2c0 3.1-2.5 5.5-5.5 5.5s-5.5-2.4-5.5-5.5v-35.2h-8.3c-3 0-5.5-2.5-5.5-5.5s2.5-5.5 5.5-5.5h27.5c7.3 0 7.3 10.8 0 11z" fill="#ffeed9"/></g><g><path d="m496.8 121.1-2.9 9.6-39.8-12 2.9-9.6c8.6-26 47-14.4 39.8 12z" fill="#69afd3"/></g><g><path d="m450.4 150.1-28.6 94.5-14.9-4.4 28.5-94.7z" fill="#69afd3"/></g><g><path d="m336.5 325.8h141.3v41.6h-141.3z" fill="#69afd3" transform="matrix(.288 -.958 .958 .288 -41.982 636.586)"/></g><g><path d="m499.8 146.2-38.8 128.9c-.5 1.3-1.4 1.7-2.7 1.4-11.1-3.3-42.1-12.7-52.8-15.9-1.6-.5-4.5-1-3.8-3.4.5-1.6 1.5-4.9 1.9-6.6l14.9 4.5c5.7 1.8 12.1-1.5 13.9-7.4 0 0 28.4-94.5 28.4-94.5 1.9-5.7-1.7-12.2-7.5-13.9 0 0-14.9-4.5-14.9-4.5l2-6.6c.5-1.4 1.5-1.7 2.7-1.4 0 0 55.2 16.6 55.2 16.6 1.4.7 1.8 1.4 1.5 2.8z" fill="#ffc24c"/></g><g><path d="m400.5 429.9-27.8 31.2c-1.5-10.3-4.5-31.1-6-41.4z" fill="#ffc24c"/></g><g><path d="m172.3 180.4v7.1c0 6.7-5.6 12.2-12.5 12.2h-20.5c-7.2 0-7.2-11 0-11.1h20.5c.8 0 1.5-.5 1.5-1.1v-7.1c0-.6-.7-1.1-1.5-1.1h-13.5c-6.9 0-12.5-5.5-12.5-12.2v-7c0-6.7 5.6-12.2 12.5-12.2h20.5c7.2.1 7.2 11 0 11.1h-20.5c-.8 0-1.5.6-1.5 1.2v7c0 .6.7 1.2 1.5 1.2h13.5c6.9-.2 12.5 5.3 12.5 12z" fill="#231f20"/></g><g><path d="m289.4 153.3v40.7c0 7.2-11.1 7.2-11.1 0v-40.7c.1-7.2 11-7.2 11.1 0z" fill="#231f20"/></g><g><path d="m263.9 175.6c4.3-3.7 3.5-10.5 3.5-15.5 0-6.7-5.6-12.2-12.5-12.2h-13.4c-6.9 0-12.5 5.5-12.5 12.2v34c0 3.1 2.5 5.5 5.5 5.5s5.5-2.4 5.5-5.5v-9.4l18.6 13.9c1 .8 2.2 1.1 3.3 1.1 5.1.2 7.6-7 3.3-9.9 0 0-14-10.4-14-10.4 4.5 0 9.5-.4 12.7-3.8zm-23.9-7.5v-8.1c0-.6.7-1.2 1.5-1.2h13.4c.8 0 1.5.6 1.5 1.2v7c-.1.7-.5 1-1.5 1.1z" fill="#231f20"/></g><g><path d="m256.4 160c-.1.3.2 7.7-.3 7.7 0 .9-15.5.2-16.1.4v-8.1c0-.6.7-1.2 1.5-1.2h13.4c.8.1 1.5.6 1.5 1.2z" fill="#ffeed9"/></g><g><path d="m326.3 147.8h-13.5c-6.9 0-12.5 5.5-12.5 12.2v34c0 7.2 11 7.2 11.1 0v-14.9c7-.5 18.9 2 23.9-3.6 4.3-3.7 3.6-10.5 3.6-15.5-.1-6.7-5.7-12.2-12.6-12.2zm1.5 19.2c-.1.7-.6 1-1.5 1.1h-15v-8.1c0-.6.7-1.2 1.5-1.2h13.5c.8 0 1.5.6 1.5 1.2z" fill="#231f20"/></g><g><path d="m327.8 160c-.1.4.3 7.7-.3 7.7.1.9-15.6.3-16.1.4v-8.1c0-.6.7-1.2 1.5-1.2h13.5c.6.1 1.4.6 1.4 1.2z" fill="#ffeed9"/></g><g><path d="m219.9 194.1c0 3.1-2.5 5.5-5.5 5.5h-20.5c-6.9 0-12.5-5.5-12.5-12.2v-27.4c0-6.7 5.6-12.2 12.5-12.2h20.5c7.2.1 7.2 11 0 11.1h-20.5c-.8 0-1.4.6-1.4 1.2v27.4c0 .6.7 1.1 1.4 1.1h20.5c3-.1 5.5 2.4 5.5 5.5z" fill="#231f20"/></g><g><path d="m382.1 153.3c0 3-2.5 5.5-5.5 5.5h-8.2v35.2c0 3.1-2.5 5.5-5.5 5.5s-5.5-2.4-5.5-5.5v-35.2h-8.4c-7.3-.1-7.3-10.9 0-11.1h27.5c3.1.1 5.6 2.6 5.6 5.6z" fill="#231f20"/></g><g><path d="m263.4 249.3c0 3.1-2.5 5.5-5.5 5.5h-104.9c-3 0-5.5-2.4-5.5-5.5 0-3 2.5-5.5 5.5-5.5h104.9c3-.1 5.5 2.4 5.5 5.5z" fill="#231f20"/></g><g><path d="m263.4 286c0 3.1-2.5 5.5-5.5 5.5h-104.9c-3 0-5.5-2.4-5.5-5.5 0-3 2.5-5.5 5.5-5.5h104.9c3-.1 5.5 2.4 5.5 5.5z" fill="#231f20"/></g><g><path d="m345 322.7c0 3.1-2.4 5.5-5.5 5.5h-186.5c-3 0-5.5-2.4-5.5-5.5 0-3 2.5-5.5 5.5-5.5h186.5c3.1-.1 5.5 2.4 5.5 5.5z" fill="#231f20"/></g><g><path d="m345 359.4c0 3-2.4 5.5-5.5 5.5h-186.5c-3 0-5.5-2.5-5.5-5.5 0-3.1 2.5-5.5 5.5-5.5h186.5c3.1 0 5.5 2.4 5.5 5.5z" fill="#231f20"/></g><g><path d="m325 396.1c0 3-2.5 5.5-5.5 5.5h-166.5c-3 0-5.5-2.5-5.5-5.5 0-3.1 2.5-5.5 5.5-5.5h166.5c3.1 0 5.5 2.4 5.5 5.5z" fill="#231f20"/></g><g><path d="m325 432.8c0 3-2.5 5.5-5.5 5.5h-166.5c-3 0-5.5-2.5-5.5-5.5 0-3.1 2.5-5.5 5.5-5.5h166.5c3.1 0 5.5 2.4 5.5 5.5z" fill="#231f20"/></g></g></svg>