<svg width="22" height="22" viewBox="0 0 22 22" fill="none" xmlns="http://www.w3.org/2000/svg">
                                    <g clip-path="url(#clip0_349_725)">
                                       <path d="M17.3866 13.6291C16.9362 13.1602 16.3929 12.9094 15.8171 12.9094C15.246 12.9094 14.6981 13.1555 14.2291 13.6245L12.7619 15.0871C12.6412 15.0221 12.5204 14.9617 12.4043 14.9014C12.2372 14.8178 12.0793 14.7389 11.9447 14.6553C10.5703 13.7824 9.32123 12.6448 8.12327 11.1728C7.54287 10.4392 7.15283 9.82166 6.8696 9.19482C7.25034 8.84658 7.60323 8.48441 7.94683 8.13616C8.07684 8.00615 8.20685 7.8715 8.33686 7.74149C9.31194 6.7664 9.31194 5.50344 8.33686 4.52836L7.06925 3.26075C6.92531 3.11681 6.77673 2.96822 6.63743 2.81964C6.35884 2.53176 6.06631 2.23459 5.7645 1.956C5.31411 1.51024 4.77549 1.27344 4.20901 1.27344C3.64254 1.27344 3.09463 1.51024 2.63031 1.956C2.62566 1.96064 2.62566 1.96064 2.62102 1.96528L1.04232 3.55792C0.44798 4.15225 0.109023 4.8766 0.0347313 5.71703C-0.0767067 7.07286 0.322613 8.33582 0.629067 9.16232C1.38127 11.1914 2.50494 13.0719 4.18115 15.0871C6.2149 17.5155 8.66189 19.4332 11.4571 20.7844C12.5251 21.2905 13.9506 21.8895 15.5432 21.9916C15.6407 21.9963 15.7428 22.0009 15.8357 22.0009C16.9083 22.0009 17.8091 21.6155 18.5149 20.8494C18.5195 20.8401 18.5288 20.8355 18.5334 20.8262C18.7749 20.5336 19.0535 20.269 19.346 19.9857C19.5457 19.7954 19.75 19.5957 19.9496 19.3868C20.4093 18.9085 20.6508 18.3513 20.6508 17.7802C20.6508 17.2044 20.4047 16.6519 19.9357 16.1876L17.3866 13.6291ZM19.0488 18.5185C19.0442 18.5185 19.0442 18.5231 19.0488 18.5185C18.8678 18.7135 18.682 18.8899 18.4824 19.0849C18.1806 19.3728 17.8741 19.6746 17.5862 20.0136C17.1172 20.5151 16.5647 20.7519 15.8404 20.7519C15.7707 20.7519 15.6964 20.7519 15.6268 20.7472C14.2477 20.659 12.9662 20.1204 12.005 19.6607C9.37695 18.3885 7.06925 16.5822 5.15159 14.2931C3.56824 12.3847 2.50958 10.6203 1.80845 8.72585C1.37663 7.56969 1.21876 6.66889 1.28841 5.81918C1.33484 5.27592 1.54379 4.82552 1.92918 4.44013L3.51253 2.85679C3.74004 2.6432 3.98149 2.52712 4.2183 2.52712C4.51082 2.52712 4.74763 2.70356 4.89621 2.85214C4.90086 2.85679 4.9055 2.86143 4.91014 2.86607C5.19338 3.13074 5.46269 3.40469 5.74593 3.69721C5.88987 3.8458 6.03845 3.99438 6.18704 4.14761L7.45464 5.41522C7.94683 5.9074 7.94683 6.36244 7.45464 6.85462C7.31999 6.98928 7.18998 7.12393 7.05533 7.25394C6.66529 7.65326 6.29383 8.02472 5.88987 8.3869C5.88058 8.39618 5.8713 8.40083 5.86665 8.41011C5.46733 8.80943 5.54163 9.19947 5.6252 9.46413C5.62985 9.47806 5.63449 9.49199 5.63913 9.50592C5.9688 10.3046 6.43313 11.0568 7.1389 11.9529L7.14355 11.9576C8.42508 13.5363 9.77627 14.7667 11.2668 15.7093C11.4571 15.83 11.6521 15.9275 11.8379 16.0204C12.005 16.104 12.1629 16.1829 12.2976 16.2665C12.3161 16.2758 12.3347 16.2897 12.3533 16.299C12.5111 16.3779 12.6597 16.4151 12.813 16.4151C13.1983 16.4151 13.4398 16.1736 13.5187 16.0947L15.1067 14.5067C15.2646 14.3488 15.5153 14.1585 15.8079 14.1585C16.0957 14.1585 16.3325 14.3395 16.4765 14.4974C16.4811 14.5021 16.4811 14.5021 16.4858 14.5067L19.0442 17.0651C19.5225 17.5387 19.5225 18.0263 19.0488 18.5185Z" fill="#fff"></path>
                                       <path d="M11.889 5.23373C13.1055 5.43803 14.2106 6.0138 15.0929 6.89601C15.9751 7.77823 16.5462 8.88333 16.7551 10.0999C16.8062 10.4063 17.0709 10.6199 17.3727 10.6199C17.4098 10.6199 17.4423 10.6153 17.4795 10.6106C17.8231 10.5549 18.0506 10.2299 17.9949 9.88627C17.7442 8.41436 17.0477 7.07246 15.9844 6.00915C14.9211 4.94585 13.5792 4.24936 12.1072 3.99863C11.7636 3.94291 11.4433 4.17043 11.3829 4.50938C11.3225 4.84834 11.5454 5.17801 11.889 5.23373Z" fill="#fff"></path>
                                       <path d="M21.974 9.70466C21.5607 7.28089 20.4185 5.07534 18.6633 3.32019C16.9082 1.56505 14.7026 0.422806 12.2789 0.0095565C11.9399 -0.0508058 11.6195 0.181357 11.5592 0.520314C11.5034 0.863915 11.731 1.1843 12.0746 1.24466C14.2383 1.61148 16.2117 2.63764 17.7811 4.20241C19.3505 5.77183 20.3721 7.74521 20.7389 9.90897C20.7899 10.2154 21.0546 10.429 21.3564 10.429C21.3936 10.429 21.4261 10.4244 21.4632 10.4197C21.8022 10.3686 22.0343 10.0436 21.974 9.70466Z" fill="#fff"></path>
                                    </g>
                                    <defs>
                                       <clipPath id="clip0_349_725">
                                          <rect width="22" height="22" fill="#fff"></rect>
                                       </clipPath>
                                    </defs>
                                 </svg>