<svg id="Слой_1" height="512" viewBox="0 0 512 512" width="512" xmlns="http://www.w3.org/2000/svg" data-name="Слой 1"><path d="m497.63 358.6v88a26.71 26.71 0 0 1 -26.72 26.72h-429.82a26.71 26.71 0 0 1 -26.72-26.72v-88a94.72 94.72 0 0 1 94.8-94.8h293.66a94.68 94.68 0 0 1 31.17 5.2 94.81 94.81 0 0 1 63.63 89.6z" fill="#ffc96d"/><path d="m434 269a94.68 94.68 0 0 0 -31.14-5.23h-293.69a94.6 94.6 0 0 0 -31.17 5.23l39.09-71.26a34.91 34.91 0 0 1 27.3-18c36.55-3.46 122.83-9.72 220.6-.06a34.91 34.91 0 0 1 26.71 17.12z" fill="#abf5ff"/><g fill="#ffc96d"><path d="m391.75 196.87a34.91 34.91 0 0 0 -26.75-17.12c-97.77-9.65-184-3.4-220.6.06a34.91 34.91 0 0 0 -27.3 18l-6.67 12.19c3.45-1.31 43.61-15.65 146.1-14.64 102 1 139.44 13.41 142.91 14.64z"/><path d="m68.63 272.89s-4.78-20.67-16.36-29.09-37.9 15.79-29.48 25.27 27.85 15 27.85 15z"/><path d="m444.4 272.89s4.78-20.67 16.36-29.09 37.9 15.79 29.48 25.27-27.85 15-27.85 15z"/></g><path d="m90.18 473.32v23.48a11.26 11.26 0 0 1 -11.27 11.27h-41.69a11.26 11.26 0 0 1 -11.22-11.27v-28.18a26.64 26.64 0 0 0 15.14 4.7z" fill="#83868a"/><path d="m486 468.62v28.18a11.26 11.26 0 0 1 -11.27 11.27h-41.64a11.26 11.26 0 0 1 -11.27-11.27v-23.48h49.08a26.64 26.64 0 0 0 15.1-4.7z" fill="#83868a"/><path d="m385.94 473.32h-254.33l23.69-29a35.59 35.59 0 0 1 27.58-13.09h149.36a35.62 35.62 0 0 1 26.5 11.77z" fill="#b6babf"/><path d="m110.91 368.28a13.53 13.53 0 0 0 14-15.95c-2.44-13.32-7.37-31.74-16.79-41.16-15.84-15.78-49.53-11.57-54.79 15.83-4.59 23.85 22.05 39.71 57.58 41.28z" fill="#fff"/><path d="m405 368.28a13.53 13.53 0 0 1 -14-15.95c2.44-13.32 7.37-31.74 16.79-41.16 15.79-15.79 49.48-11.58 54.75 15.79 4.59 23.89-22.06 39.75-57.54 41.32z" fill="#fff"/><circle cx="254.92" cy="126.01" fill="#fff" r="113.39"/><path d="m376 124.66a122.37 122.37 0 0 0 -164.3-113.31 9.65 9.65 0 1 0 6.63 18.13 103.07 103.07 0 0 1 138.37 95.18h-15.23l24.91 43.15 24.91-43.15z" fill="#ff758b"/><path d="m318.31 378.37h-124.97l-24.92-70.18h175.14z" fill="#83868a"/><path d="m318.31 378.37h-124.97l-24.92-70.18h175.14z" fill="#b6babf"/><path d="m339 203.78a3.94 3.94 0 0 1 -3-6.51c1.52-1.76 3-3.58 4.39-5.43a3.94 3.94 0 1 1 6.28 4.76c-1.5 2-3.08 3.94-4.71 5.82a3.93 3.93 0 0 1 -2.96 1.36z"/><path d="m247.95 242.69h-.2a117.32 117.32 0 0 1 -15-1.74 3.94 3.94 0 1 1 1.41-7.75 109.34 109.34 0 0 0 14 1.62 3.94 3.94 0 0 1 -.2 7.87zm24.32-1.38a3.94 3.94 0 0 1 -.64-7.82 108.51 108.51 0 0 0 13.75-3.21 3.94 3.94 0 0 1 2.29 7.54 116.45 116.45 0 0 1 -14.75 3.45 4 4 0 0 1 -.65.04zm-62.27-7.25a3.93 3.93 0 0 1 -1.53-.31 116.66 116.66 0 0 1 -13.47-6.75 3.94 3.94 0 0 1 4-6.8 108.59 108.59 0 0 0 12.64 6.32 3.94 3.94 0 0 1 -1.53 7.57zm98.88-5.66a3.94 3.94 0 0 1 -1.88-7.4 109.28 109.28 0 0 0 11.83-7.72 3.94 3.94 0 0 1 4.72 6.3 117.13 117.13 0 0 1 -12.69 8.28 3.92 3.92 0 0 1 -1.93.54zm-131.52-15.4a3.92 3.92 0 0 1 -2.67-1 117.84 117.84 0 0 1 -10.45-11 3.94 3.94 0 0 1 6-5.05 109.86 109.86 0 0 0 9.76 10.23 3.94 3.94 0 0 1 -2.67 6.83zm-23.62-30.85a3.94 3.94 0 0 1 -3.5-2.12 116.44 116.44 0 0 1 -6.11-13.86 3.94 3.94 0 1 1 7.4-2.7 108.45 108.45 0 0 0 5.69 12.92 3.94 3.94 0 0 1 -3.49 5.76zm-11.74-37.04a3.94 3.94 0 0 1 -3.9-3.42 118.07 118.07 0 0 1 -1-15.11 3.94 3.94 0 0 1 3.93-3.95 3.94 3.94 0 0 1 3.94 3.93 110.16 110.16 0 0 0 .95 14.1 3.94 3.94 0 0 1 -3.39 4.42 4 4 0 0 1 -.53.03zm1.57-38.84a3.94 3.94 0 0 1 -3.85-4.77 116.1 116.1 0 0 1 4.16-14.57 3.94 3.94 0 0 1 7.42 2.66 108.31 108.31 0 0 0 -3.88 13.58 3.94 3.94 0 0 1 -3.81 3.1zm14.68-36a3.94 3.94 0 0 1 -3.33-6 117.39 117.39 0 0 1 8.91-12.27 3.94 3.94 0 0 1 6.07 5 109.48 109.48 0 0 0 -8.28 11.45 3.94 3.94 0 0 1 -3.34 1.83z"/><path d="m184.41 41.36a3.94 3.94 0 0 1 -2.43-7c2-1.53 4-3 6-4.42a3.94 3.94 0 1 1 4.44 6.5c-1.91 1.31-3.81 2.69-5.64 4.12a3.92 3.92 0 0 1 -2.37.8z"/><path d="m246 202.26a76.25 76.25 0 1 1 76.25-76.26 76.33 76.33 0 0 1 -76.25 76.26zm0-144.62a68.37 68.37 0 1 0 68.37 68.36 68.45 68.45 0 0 0 -68.37-68.36z"/><path d="m246 143.58a3.94 3.94 0 0 1 -3.94-3.94v-59.55a3.94 3.94 0 0 1 7.88 0v52.67l31.48-18.49a3.94 3.94 0 0 1 4 6.79l-37.42 21.94a3.93 3.93 0 0 1 -2 .58z"/><path d="m470.91 477.26h-429.82a30.54 30.54 0 0 1 -17.37-5.39 3.94 3.94 0 0 1 4.46-6.49 22.7 22.7 0 0 0 12.91 4h429.82a22.77 22.77 0 0 0 22.78-22.78v-88a90.88 90.88 0 0 0 -21.57-58.78 3.94 3.94 0 1 1 6-5.1 98.77 98.77 0 0 1 23.45 63.88v88a30.65 30.65 0 0 1 -30.66 30.66z"/><path d="m15.23 457.26a3.94 3.94 0 0 1 -3.81-3 30.73 30.73 0 0 1 -1-7.72v-88a98.66 98.66 0 0 1 98.74-98.74h293.67a98.53 98.53 0 0 1 32.44 5.45l.27.1a98.36 98.36 0 0 1 26.14 13.89 3.94 3.94 0 1 1 -4.7 6.32 90.5 90.5 0 0 0 -24.3-12.87l-.26-.1a90.68 90.68 0 0 0 -29.59-4.93h-293.66a90.78 90.78 0 0 0 -90.86 90.94v88a22.88 22.88 0 0 0 .73 5.74 3.94 3.94 0 0 1 -3.81 4.93z"/><path d="m87.44 255.85a3.94 3.94 0 0 1 -3.44-5.85l29.69-54.13a38.82 38.82 0 0 1 30.38-20l3.58-.33a3.94 3.94 0 1 1 .73 7.84l-3.57.33a30.94 30.94 0 0 0 -24.21 15.93l-29.7 54.16a3.94 3.94 0 0 1 -3.46 2.05z"/><path d="m78 273a3.94 3.94 0 0 1 -1.29-7.66 98.47 98.47 0 0 1 32.42-5.45h293.7a99 99 0 0 1 22.75 2.63l-37.23-63.64a31 31 0 0 0 -23.7-15.19l-7.28-.69a3.94 3.94 0 0 1 .75-7.84l7.29.69a39 39 0 0 1 29.74 19.05l42.22 72.1a3.94 3.94 0 0 1 -4.69 5.71 90.66 90.66 0 0 0 -29.85-5h-293.66a90.6 90.6 0 0 0 -29.83 5 3.94 3.94 0 0 1 -1.34.29z"/><path d="m78.91 512h-41.69a15.22 15.22 0 0 1 -15.22-15.2v-28.18a3.94 3.94 0 0 1 6.17-3.25 22.7 22.7 0 0 0 12.91 4h49.1a3.94 3.94 0 0 1 3.94 3.94v23.49a15.22 15.22 0 0 1 -15.21 15.2zm-49-36.85v21.65a7.34 7.34 0 0 0 7.33 7.33h41.67a7.34 7.34 0 0 0 7.33-7.33v-19.54h-45.15a30.59 30.59 0 0 1 -11.2-2.11z"/><path d="m474.78 512h-41.69a15.22 15.22 0 0 1 -15.2-15.2v-23.48a3.94 3.94 0 0 1 3.94-3.94h49.08a22.7 22.7 0 0 0 12.91-4 3.94 3.94 0 0 1 6.17 3.25v28.17a15.22 15.22 0 0 1 -15.21 15.2zm-49-34.74v19.54a7.34 7.34 0 0 0 7.33 7.33h41.69a7.34 7.34 0 0 0 7.33-7.33v-21.65a30.59 30.59 0 0 1 -11.2 2.11z"/><path d="m385.94 477.26h-254.33a3.94 3.94 0 0 1 -3.05-6.43l23.69-29a39.38 39.38 0 0 1 30.64-14.53h149.35a39.63 39.63 0 0 1 29.43 13.12l9.57 10.58a3.94 3.94 0 0 1 -5.86 5.26l-9.57-10.66a31.74 31.74 0 0 0 -23.57-10.51h-149.36a31.53 31.53 0 0 0 -24.53 11.64l-18.44 22.6h246a3.94 3.94 0 0 1 0 7.88z"/><path d="m113.54 212.89a3.94 3.94 0 0 1 -1.08-7.73 270.44 270.44 0 0 1 28.48-6.45 3.94 3.94 0 0 1 1.18 7.79 267.62 267.62 0 0 0 -27.49 6.24 3.94 3.94 0 0 1 -1.09.15z"/><path d="m399.44 213.95a3.94 3.94 0 0 1 -1.08-.15c-.21-.06-21.1-6-40-8.16a3.94 3.94 0 0 1 .91-7.82c19.56 2.28 40.38 8.16 41.25 8.41a3.94 3.94 0 0 1 -1.07 7.73z"/><path d="m127.54 414.87h-113.17a3.94 3.94 0 0 1 0-7.88h113.17a3.94 3.94 0 0 1 0 7.88z"/><path d="m496.2 414.87h-107.2a3.94 3.94 0 1 1 0-7.88h107.2a3.94 3.94 0 0 1 0 7.88z"/><path d="m318.31 382.31h-125a3.94 3.94 0 0 1 -3.71-2.62l-24.89-70.19a3.94 3.94 0 0 1 3.71-5.26h175.14a3.94 3.94 0 0 1 3.71 5.27l-25.27 70.19a3.94 3.94 0 0 1 -3.69 2.61zm-122.19-7.88h119.42l22.46-62.31h-164z"/><path d="m50.65 288a3.94 3.94 0 0 1 -1.07-.15c-.84-.24-20.64-5.91-29.73-16.13-4.69-5.27-3-13.59 4.33-21.71 8.33-9.19 21.82-15.6 30.41-9.36 12.63 9.15 17.67 30.45 17.88 31.35a3.94 3.94 0 0 1 -1.76 4.24l-18 11.13a3.94 3.94 0 0 1 -2.06.63zm-4.16-42c-4.9 0-11.84 4.18-16.46 9.28-4.16 4.59-6 9.3-4.28 11.19 6.22 7 19.7 11.78 24.36 13.28l14-8.64c-1.71-5.59-6.23-18.37-14.11-24.11a5.79 5.79 0 0 0 -3.51-1z"/><path d="m462.39 288a3.94 3.94 0 0 1 -2.07-.59l-18-11.13a3.94 3.94 0 0 1 -1.76-4.24c.21-.9 5.25-22.21 17.88-31.39 8.58-6.24 22.07.16 30.4 9.35 7.36 8.12 9 16.44 4.33 21.71-9.08 10.22-28.89 15.9-29.73 16.13a3.94 3.94 0 0 1 -1.05.16zm-13.39-16.91 14 8.64c4.66-1.5 18.14-6.29 24.36-13.28 1.68-1.89-.12-6.6-4.28-11.19-5.89-6.49-15.52-11.48-19.94-8.28-7.98 5.76-12.5 18.54-14.14 24.11z"/><path d="m111.53 372.24h-.79c-25.2-1.11-45.35-9-55.28-21.55a29.43 29.43 0 0 1 -6-24.44 33.48 33.48 0 0 1 23.65-26.44c13.34-4.09 28.51-.63 37.75 8.61 10.08 10.07 15.28 29.07 17.88 43.23a17.46 17.46 0 0 1 -17.21 20.61zm-.45-7.89a9.63 9.63 0 0 0 7.72-3.29 9.52 9.52 0 0 0 2.19-8c-3.38-18.46-9-32.34-15.7-39.08-7.24-7.24-19.24-9.91-29.87-6.65a25.56 25.56 0 0 0 -18.23 20.4 21.48 21.48 0 0 0 4.44 18.07c8.39 10.63 26.88 17.57 49.45 18.56z"/><path d="m404.34 372.24a17.46 17.46 0 0 1 -17.21-20.61c2.59-14.16 7.8-33.16 17.88-43.23 9.24-9.24 24.41-12.7 37.75-8.61a33.48 33.48 0 0 1 23.65 26.44 29.43 29.43 0 0 1 -6 24.44c-9.93 12.58-30.09 20.44-55.28 21.55zm26.86-66.34c-7.81 0-15.44 2.84-20.62 8-6.74 6.74-12.32 20.62-15.7 39.08a9.52 9.52 0 0 0 2.19 8 9.65 9.65 0 0 0 7.72 3.29c22.57-1 41.06-7.94 49.45-18.56a21.48 21.48 0 0 0 4.44-18.07 25.56 25.56 0 0 0 -18.23-20.4 31.57 31.57 0 0 0 -9.26-1.3z"/><path d="m366.38 171.74a3.94 3.94 0 0 1 -3.41-2l-24.91-43.15a3.94 3.94 0 0 1 3.41-5.91h11.15c-2.89-51.94-46.45-93.54-98.9-93.54a98.76 98.76 0 0 0 -34 6 13.59 13.59 0 1 1 -9.34-25.52 126.36 126.36 0 0 1 169.45 113.1h11.46a3.94 3.94 0 0 1 3.41 5.91l-24.91 43.15a3.94 3.94 0 0 1 -3.41 1.96zm-18.09-43.14 18.09 31.33 18.09-31.33h-8.47a3.94 3.94 0 0 1 -3.94-3.89c-.83-64.42-53.92-116.83-118.35-116.83a118 118 0 0 0 -40.71 7.12 5.71 5.71 0 1 0 4 10.78 107 107 0 0 1 143.63 98.82 3.94 3.94 0 0 1 -3.94 4z"/></svg>