<?xml version="1.0" standalone="no"?>
<svg xmlns="http://www.w3.org/2000/svg" version="1.1" xmlns:xlink="http://www.w3.org/1999/xlink" width="512" height="512" x="0" y="0" viewBox="0 0 512 512" style="enable-background:new 0 0 512 512" xml:space="preserve" class=""><g><circle cx="481" cy="76" r="15" fill="#b41818" opacity="1" data-original="#000000" class=""/><circle cx="466" cy="421" r="10" fill="#b41818" opacity="1" data-original="#000000" class=""/><circle cx="456" cy="211" r="10" fill="#b41818" opacity="1" data-original="#000000" class=""/><circle cx="76" cy="91" r="10" fill="#b41818" opacity="1" data-original="#000000" class=""/><circle cx="51" cy="396" r="15" fill="#b41818" opacity="1" data-original="#000000" class=""/><circle cx="26" cy="201" r="10" fill="#b41818" opacity="1" data-original="#000000" class=""/><path d="M359.06 11H152.94C127.057 11 106 32.057 106 57.939v396.12c0 25.883 21.057 46.94 46.94 46.94h206.12c25.883 0 46.94-21.058 46.94-46.94V57.939C406 32.057 384.942 11 359.06 11zM126 91h260v330H126z" fill="#b41818" opacity="1" data-original="#000000" class=""/><path d="M365.997 234.935c0-8.016-3.12-15.55-8.785-21.215-5.667-5.668-13.2-8.79-21.212-8.79s-15.545 3.122-21.211 8.789l-7.937 7.936C289.452 208.277 268.183 201 246 201c-55.14 0-100 44.859-100 100s44.86 100 100 100c55.141 0 100-44.859 100-100 0-9.99-1.488-19.798-4.382-29.255l15.593-15.594c5.666-5.667 8.786-13.201 8.786-21.216zM326 301c0 44.112-35.888 80-80 80s-80-35.888-80-80 35.888-80 80-80c16.854 0 33.041 5.262 46.55 14.957l-34.33 34.331-14.144-14.145c-11.702-11.686-30.735-11.685-42.436.014-5.662 5.677-8.78 13.207-8.78 21.203s3.118 15.525 8.788 21.209l49.503 49.503c1.953 1.952 4.511 2.928 7.07 2.928s5.119-.977 7.071-2.929l59.698-59.698A80.653 80.653 0 0 1 326 301zM156 131h80c5.523 0 10-4.478 10-10s-4.477-10-10-10h-80c-5.523 0-10 4.478-10 10s4.477 10 10 10zM156 171h80c5.523 0 10-4.478 10-10s-4.477-10-10-10h-80c-5.523 0-10 4.478-10 10s4.477 10 10 10z" fill="#b41818" opacity="1" data-original="#000000" class=""/></g></svg>