<svg id="Layer_1" viewBox="0 0 128 128" xmlns="http://www.w3.org/2000/svg" data-name="Layer 1"><path d="m101 8h-21v-2a6.00476 6.00476 0 0 0 -6-6h-20a6.00476 6.00476 0 0 0 -6 6v2h-21a6.00476 6.00476 0 0 0 -6 6v108a6.00476 6.00476 0 0 0 6 6h74a6.00476 6.00476 0 0 0 6-6v-108a6.00476 6.00476 0 0 0 -6-6zm-49-2a2.00587 2.00587 0 0 1 2-2h20a2.00587 2.00587 0 0 1 2 2v2h-24zm-6 6h36v4a2.00591 2.00591 0 0 1 -2 2h-32a2.00591 2.00591 0 0 1 -2-2zm57 110a2.00591 2.00591 0 0 1 -2 2h-74a2.00591 2.00591 0 0 1 -2-2v-108a2.00587 2.00587 0 0 1 2-2h15v4a6.00476 6.00476 0 0 0 6 6h32a6.00476 6.00476 0 0 0 6-6v-4h15a2.00587 2.00587 0 0 1 2 2z" fill="#2d4356"/><path d="m76 6v2h-24v-2a2.00587 2.00587 0 0 1 2-2h20a2.00587 2.00587 0 0 1 2 2z" fill="#d68751"/><path d="m82 12v4a2.00591 2.00591 0 0 1 -2 2h-32a2.00591 2.00591 0 0 1 -2-2v-4z" fill="#ffdb80"/><path d="m103 14v108a2.00591 2.00591 0 0 1 -2 2h-74a2.00591 2.00591 0 0 1 -2-2v-108a2.00587 2.00587 0 0 1 2-2h15v4a6.00476 6.00476 0 0 0 6 6h32a6.00476 6.00476 0 0 0 6-6v-4h15a2.00587 2.00587 0 0 1 2 2z" fill="#e1ebf4"/><g fill="#2d4356"><path d="m93 68h-44a2 2 0 0 0 0 4h44a2 2 0 0 0 0-4z"/><path d="m49 80h24a2 2 0 0 0 0-4h-24a2 2 0 0 0 0 4z"/><path d="m93 88h-44a2 2 0 0 0 0 4h44a2 2 0 0 0 0-4z"/><path d="m49 100h24a2 2 0 0 0 0-4h-24a2 2 0 0 0 0 4z"/><path d="m93 108h-44a2 2 0 0 0 0 4h44a2 2 0 0 0 0-4z"/><path d="m73 116h-24a2 2 0 0 0 0 4h24a2 2 0 0 0 0-4z"/><path d="m31 52h66a2 2 0 0 0 0-4h-66a2 2 0 0 0 0 4z"/><path d="m31 60h36a2 2 0 0 0 0-4h-36a2 2 0 0 0 0 4z"/><path d="m41 68a2.0001 2.0001 0 0 0 -2 2v8a2 2 0 0 0 4 0v-8a2.0001 2.0001 0 0 0 -2-2z"/><path d="m41 88a2.0001 2.0001 0 0 0 -2 2v8a2 2 0 0 0 4 0v-8a2.0001 2.0001 0 0 0 -2-2z"/><path d="m41 108a2.0001 2.0001 0 0 0 -2 2v8a2 2 0 0 0 4 0v-8a2.0001 2.0001 0 0 0 -2-2z"/><path d="m35 72h-2a2 2 0 0 0 0 4h2a2 2 0 0 0 0-4z"/><path d="m35 92h-2a2 2 0 0 0 0 4h2a2 2 0 0 0 0-4z"/><path d="m35 112h-2a2 2 0 0 0 0 4h2a2 2 0 0 0 0-4z"/><path d="m44.5 31h2v10a2 2 0 0 0 4 0v-10h2a2 2 0 0 0 0-4h-8a2 2 0 0 0 0 4z"/><path d="m81.23633 43h2.26367a2 2 0 0 0 0-4h-2.26367a3.74045 3.74045 0 0 1 -3.73633-3.73633v-.52734a3.74045 3.74045 0 0 1 3.73633-3.73633h2.26367a2 2 0 0 0 0-4h-2.26367a7.74535 7.74535 0 0 0 -7.73633 7.73633v.52734a7.74535 7.74535 0 0 0 7.73633 7.73633z"/><path d="m63.44043 44c.07715 0 .15625-.001.23535-.00342a1.99918 1.99918 0 0 0 1.94434-2.05371 2.02163 2.02163 0 0 0 -2.05371-1.94434 2.448 2.448 0 0 1 -1.87793-.58936.75421.75421 0 0 1 -.18652-.57764.85743.85743 0 0 1 .31053-.63086l1.543-1.16211 2.66406 2.93311a2 2 0 1 0 2.96094-2.68945l-2.415-2.65918.01465-.01123a4.822 4.822 0 0 0 1.58105-5.58008 4.48335 4.48335 0 0 0 -8.36719-.30225 4.89309 4.89309 0 0 0 .582 5.02c.03223.04053.06543.08008.09961.11816l.17969.19727-1.248.939a4.83561 4.83561 0 0 0 -1.89648 3.56494 4.7221 4.7221 0 0 0 1.374 3.69385 6.28319 6.28319 0 0 0 4.55561 1.7373zm.001-13.62939a.55631.55631 0 0 1 .4502-.36914c.23242-.0127.40918.126.51953.4209a.86025.86025 0 0 1 -.23633.99316l-.31055.23389-.36035-.39746a.91085.91085 0 0 1 -.06252-.88135z"/></g><path d="m76 6.00011v2a2.00587 2.00587 0 0 0 -2-2h-20a2.00587 2.00587 0 0 0 -2 2v-2a2.00587 2.00587 0 0 1 2-2h20a2.00587 2.00587 0 0 1 2 2z" fill="#e5d0c3" opacity=".3"/><path d="m46 12h36v2h-36z" fill="#f9edd2" opacity=".5"/><path d="m42 12.00011v2h-15a2.00587 2.00587 0 0 0 -2 2v-2a2.00587 2.00587 0 0 1 2-2z" fill="#fff" opacity=".5"/><path d="m103 14.00011v2a2.00587 2.00587 0 0 0 -2-2h-15v-2h15a2.00587 2.00587 0 0 1 2 2z" fill="#fff" opacity=".5"/><path d="m103 120.00011v2a2.00591 2.00591 0 0 1 -2 2h-74a2.00591 2.00591 0 0 1 -2-2v-2a2.00591 2.00591 0 0 0 2 2h74a2.00591 2.00591 0 0 0 2-2z" fill="#9fa5aa" opacity=".5"/></svg>