<svg id="Layer_1" enable-background="new 0 0 256 256" height="512" viewBox="0 0 256 256" width="512" xmlns="http://www.w3.org/2000/svg"><g><path d="m47.411 26.302s3.408 12.659 13.222 13.246c0 0-13.1 4.525-13.321 14.202 0 0-2.579-13.572-12.925-14.059 0 .001 12.05-1.825 13.024-13.389z" fill="#d7e057"/><path d="m47.311 55.25c-.713 0-1.335-.506-1.472-1.217-.024-.124-2.495-12.418-11.523-12.843-.77-.037-1.387-.651-1.427-1.421-.04-.771.511-1.445 1.273-1.561.441-.069 10.894-1.817 11.754-12.032.061-.725.634-1.301 1.359-1.367.731-.058 1.393.399 1.583 1.102.032.116 3.259 11.626 11.863 12.14.714.043 1.298.584 1.396 1.292s-.319 1.388-.994 1.623c-.121.042-12.118 4.311-12.313 12.819-.018.767-.61 1.396-1.374 1.459-.041.005-.084.006-.125.006zm-7.741-15.729c3.878 1.969 6.23 5.746 7.587 8.876 2.026-4.021 5.941-6.787 8.949-8.427-4.134-1.842-6.783-5.651-8.334-8.722-1.794 4.359-5.272 6.868-8.202 8.273z" fill="#3a312a"/><path d="m25.712 43.283s2.411 8.954 9.352 9.369c0 0-9.266 3.201-9.422 10.045 0 0-1.824-9.6-9.142-9.944 0 0 8.524-1.291 9.212-9.47z" fill="#d7e057"/><path d="m25.641 64.197c-.713 0-1.337-.507-1.472-1.22-.016-.082-1.704-8.442-7.739-8.726-.77-.037-1.387-.651-1.427-1.421-.04-.771.511-1.445 1.273-1.561.296-.047 7.364-1.243 7.942-8.113.061-.726.635-1.303 1.36-1.368.731-.069 1.392.399 1.582 1.101.021.079 2.227 7.92 7.994 8.264.715.043 1.299.584 1.396 1.293.098.709-.319 1.388-.996 1.622-.081.028-8.282 2.953-8.413 8.662-.018.767-.611 1.397-1.376 1.461-.041.005-.083.006-.124.006zm-4.519-11.527c2.107 1.333 3.523 3.394 4.447 5.28 1.376-2.232 3.515-3.872 5.365-4.973-2.287-1.269-3.884-3.35-4.941-5.224-1.174 2.287-3.015 3.875-4.871 4.917z" fill="#3a312a"/><path d="m25.712 16.625s2.411 8.954 9.352 9.37c0 0-9.266 3.201-9.422 10.045 0 0-1.824-9.6-9.142-9.944 0 0 8.524-1.292 9.212-9.471z" fill="#d7e057"/><path d="m25.641 37.54c-.713 0-1.337-.507-1.472-1.22-.016-.082-1.704-8.442-7.739-8.726-.77-.037-1.388-.651-1.428-1.421-.04-.771.511-1.445 1.273-1.56.296-.047 7.364-1.243 7.942-8.114.061-.726.635-1.303 1.36-1.368.731-.062 1.392.399 1.582 1.102.021.079 2.227 7.92 7.994 8.265.714.043 1.299.584 1.396 1.293.098.709-.32 1.388-.996 1.622-.081.028-8.282 2.952-8.413 8.662-.018.767-.611 1.397-1.376 1.461-.04.003-.082.004-.123.004zm-4.519-11.528c2.107 1.333 3.523 3.395 4.447 5.28 1.376-2.232 3.515-3.872 5.365-4.972-2.287-1.269-3.884-3.35-4.941-5.224-1.174 2.286-3.015 3.875-4.871 4.916z" fill="#3a312a"/><path d="m16.25 213.429c-.038 0-.073-.005-.111-.006v12.435c0 7.465 6.052 13.517 13.517 13.517h196.689c7.465 0 13.517-6.052 13.517-13.517v-144.521c0-7.465-6.052-13.517-13.517-13.517h-196.69c-7.465 0-13.517 6.052-13.517 13.517v114.489c.038 0 .073-.006.111-.006v17.609z" fill="#fce8cb"/><path d="m226.345 240.875h-196.69c-8.28 0-15.017-6.737-15.017-15.017v-12.435c0-.401.161-.786.446-1.067.285-.282.665-.452 1.073-.433.032.001.117.005.149.007.829 0 1.472.671 1.472 1.5 0 .222-.05.432-.14.622v11.806c0 6.627 5.391 12.017 12.017 12.017h196.689c6.626 0 12.017-5.391 12.017-12.017v-144.521c0-6.627-5.391-12.017-12.017-12.017h-196.689c-6.626 0-12.017 5.391-12.017 12.017v113.915c.072.175.111.367.111.568 0 .829-.671 1.5-1.5 1.5l-.092.006c-.397-.018-.788-.151-1.073-.433-.286-.282-.446-.666-.446-1.067v-114.489c0-8.28 6.736-15.017 15.017-15.017h196.689c8.28 0 15.017 6.737 15.017 15.017v144.52c0 8.281-6.736 15.018-15.016 15.018z" fill="#3a312a"/><path d="m76.003 97.918h163.858v-16.58c0-7.465-6.052-13.517-13.517-13.517h-196.689c-7.465 0-13.517 6.052-13.517 13.517v16.58h42.886z" fill="#ed6e7a"/><path d="m239.861 99.418h-163.858c-.829 0-1.5-.671-1.5-1.5s.671-1.5 1.5-1.5h162.358v-15.081c0-6.627-5.391-12.017-12.017-12.017h-196.689c-6.626 0-12.017 5.391-12.017 12.017v15.081h41.386c.829 0 1.5.671 1.5 1.5s-.671 1.5-1.5 1.5h-42.885c-.829 0-1.5-.671-1.5-1.5v-16.581c0-8.28 6.736-15.017 15.017-15.017h196.689c8.28 0 15.017 6.737 15.017 15.017v16.581c-.001.829-.672 1.5-1.501 1.5z" fill="#3a312a"/><path d="m173.966 139.424h-19.598c-1.654 0-2.994-1.34-2.994-2.994v-19.597c0-1.654 1.34-2.994 2.994-2.994h19.598c1.654 0 2.994 1.34 2.994 2.994v19.597c0 1.653-1.34 2.994-2.994 2.994z" fill="#8ac6dd"/><path d="m173.966 140.924h-19.598c-2.478 0-4.494-2.016-4.494-4.494v-19.597c0-2.478 2.016-4.494 4.494-4.494h19.598c2.478 0 4.494 2.016 4.494 4.494v19.597c0 2.478-2.016 4.494-4.494 4.494zm-19.597-25.586c-.824 0-1.494.67-1.494 1.494v19.597c0 .824.67 1.494 1.494 1.494h19.598c.824 0 1.494-.67 1.494-1.494v-19.597c0-.824-.67-1.494-1.494-1.494z" fill="#3a312a"/><path d="m216.301 139.424h-19.597c-1.654 0-2.994-1.34-2.994-2.994v-19.597c0-1.654 1.34-2.994 2.994-2.994h19.597c1.654 0 2.994 1.34 2.994 2.994v19.597c0 1.653-1.341 2.994-2.994 2.994z" fill="#8ac6dd"/><path d="m216.301 140.924h-19.597c-2.478 0-4.494-2.016-4.494-4.494v-19.597c0-2.478 2.016-4.494 4.494-4.494h19.597c2.478 0 4.494 2.016 4.494 4.494v19.597c0 2.478-2.016 4.494-4.494 4.494zm-19.597-25.586c-.824 0-1.494.67-1.494 1.494v19.597c0 .824.67 1.494 1.494 1.494h19.597c.824 0 1.494-.67 1.494-1.494v-19.597c0-.824-.67-1.494-1.494-1.494z" fill="#3a312a"/><path d="m173.966 181.56h-19.598c-1.654 0-2.994-1.34-2.994-2.994v-19.598c0-1.654 1.34-2.994 2.994-2.994h19.598c1.654 0 2.994 1.34 2.994 2.994v19.598c0 1.653-1.34 2.994-2.994 2.994z" fill="#8ac6dd"/><path d="m173.966 183.06h-19.598c-2.478 0-4.494-2.016-4.494-4.494v-19.598c0-2.478 2.016-4.494 4.494-4.494h19.598c2.478 0 4.494 2.016 4.494 4.494v19.598c0 2.478-2.016 4.494-4.494 4.494zm-19.597-25.586c-.824 0-1.494.67-1.494 1.494v19.598c0 .824.67 1.494 1.494 1.494h19.598c.824 0 1.494-.671 1.494-1.494v-19.598c0-.824-.67-1.494-1.494-1.494z" fill="#3a312a"/><path d="m216.301 181.56h-19.597c-1.654 0-2.994-1.34-2.994-2.994v-19.598c0-1.654 1.34-2.994 2.994-2.994h19.597c1.654 0 2.994 1.341 2.994 2.994v19.598c0 1.653-1.341 2.994-2.994 2.994z" fill="#8ac6dd"/><path d="m216.301 183.06h-19.597c-2.478 0-4.494-2.016-4.494-4.494v-19.598c0-2.478 2.016-4.494 4.494-4.494h19.597c2.478 0 4.494 2.016 4.494 4.494v19.598c0 2.478-2.016 4.494-4.494 4.494zm-19.597-25.586c-.824 0-1.494.67-1.494 1.494v19.598c0 .824.67 1.494 1.494 1.494h19.597c.824 0 1.494-.671 1.494-1.494v-19.598c0-.824-.67-1.494-1.494-1.494z" fill="#3a312a"/><path d="m173.966 223.696h-19.598c-1.654 0-2.994-1.34-2.994-2.994v-19.598c0-1.654 1.34-2.994 2.994-2.994h19.598c1.654 0 2.994 1.34 2.994 2.994v19.598c0 1.654-1.34 2.994-2.994 2.994z" fill="#8ac6dd"/><path d="m173.966 225.196h-19.598c-2.478 0-4.494-2.016-4.494-4.494v-19.598c0-2.478 2.016-4.494 4.494-4.494h19.598c2.478 0 4.494 2.016 4.494 4.494v19.598c0 2.478-2.016 4.494-4.494 4.494zm-19.597-25.586c-.824 0-1.494.67-1.494 1.494v19.598c0 .824.67 1.494 1.494 1.494h19.598c.824 0 1.494-.67 1.494-1.494v-19.598c0-.824-.67-1.494-1.494-1.494z" fill="#3a312a"/><path d="m216.301 223.696h-19.597c-1.654 0-2.994-1.34-2.994-2.994v-19.598c0-1.654 1.34-2.994 2.994-2.994h19.597c1.654 0 2.994 1.341 2.994 2.994v19.597c0 1.655-1.341 2.995-2.994 2.995z" fill="#8ac6dd"/><path d="m216.301 225.196h-19.597c-2.478 0-4.494-2.016-4.494-4.494v-19.598c0-2.478 2.016-4.494 4.494-4.494h19.597c2.478 0 4.494 2.016 4.494 4.494v19.598c0 2.478-2.016 4.494-4.494 4.494zm-19.597-25.586c-.824 0-1.494.67-1.494 1.494v19.598c0 .824.67 1.494 1.494 1.494h19.597c.824 0 1.494-.67 1.494-1.494v-19.598c0-.824-.67-1.494-1.494-1.494z" fill="#3a312a"/><path d="m96.379 83.905c-5.093 0-9.223-4.129-9.223-9.223v-16.084c0-5.093 4.129-9.223 9.223-9.223 5.094 0 9.223 4.129 9.223 9.223v16.085c0 5.093-4.13 9.222-9.223 9.222z" fill="#8ac6dd"/><path d="m96.379 85.405c-5.913 0-10.723-4.81-10.723-10.723v-16.084c0-5.913 4.81-10.723 10.723-10.723s10.723 4.81 10.723 10.723v16.085c0 5.912-4.811 10.722-10.723 10.722zm0-34.53c-4.258 0-7.723 3.464-7.723 7.723v16.085c0 4.258 3.464 7.723 7.723 7.723s7.723-3.464 7.723-7.723v-16.085c0-4.259-3.465-7.723-7.723-7.723z" fill="#3a312a"/><path d="m159.621 83.905c-5.093 0-9.223-4.129-9.223-9.223v-16.084c0-5.093 4.129-9.223 9.223-9.223 5.094 0 9.223 4.129 9.223 9.223v16.085c0 5.093-4.13 9.222-9.223 9.222z" fill="#8ac6dd"/><path d="m159.621 85.405c-5.913 0-10.723-4.81-10.723-10.723v-16.084c0-5.913 4.81-10.723 10.723-10.723s10.723 4.81 10.723 10.723v16.085c0 5.912-4.811 10.722-10.723 10.722zm0-34.53c-4.258 0-7.723 3.464-7.723 7.723v16.085c0 4.258 3.464 7.723 7.723 7.723s7.723-3.464 7.723-7.723v-16.085c0-4.259-3.465-7.723-7.723-7.723z" fill="#3a312a"/><ellipse cx="77.75" cy="168.673" fill="#d7e057" rx="22.581" ry="22.581" transform="matrix(.997 -.074 .074 .997 -12.194 6.175)"/><g fill="#3a312a"><path d="m77.75 192.754c-13.278 0-24.081-10.803-24.081-24.081s10.803-24.08 24.081-24.08 24.081 10.803 24.081 24.08c0 13.279-10.803 24.081-24.081 24.081zm0-45.161c-11.624 0-21.081 9.456-21.081 21.08s9.457 21.081 21.081 21.081 21.081-9.457 21.081-21.081-9.457-21.08-21.081-21.08z"/><path d="m77.623 170.168c-.384 0-.767-.146-1.06-.439l-9.435-9.435c-.586-.585-.586-1.536 0-2.121.586-.586 1.535-.586 2.121 0l9.435 9.435c.586.585.586 1.536 0 2.121-.293.292-.677.439-1.061.439z"/><path d="m77.624 170.169c-.384 0-.768-.146-1.061-.439-.586-.585-.586-1.535 0-2.121l15.323-15.323c.586-.586 1.535-.586 2.121 0 .586.585.586 1.535 0 2.121l-15.323 15.323c-.292.292-.676.439-1.06.439z"/></g><path d="m114.227 198.194c2.395-2.993 1.909-7.361-1.083-9.756-2.993-2.395-7.361-1.91-9.756 1.083-6.388 7.983-15.899 12.562-26.096 12.562-18.422 0-33.41-14.988-33.41-33.41s14.988-33.41 33.41-33.41c13.018 0 24.308 7.49 29.817 18.383-3.17-1.968-7.351-1.082-9.433 2.047-.787 1.182-1.164 2.518-1.163 3.839 0 2.244 1.087 4.448 3.096 5.785l14.171 9.432c3.191 2.124 7.5 1.258 9.624-1.933l9.432-14.171c2.124-3.19 1.26-7.5-1.932-9.624-3.191-2.125-7.5-1.259-9.624 1.932l-.095.143c-6.991-17.397-24.026-29.715-43.892-29.715-26.078 0-47.293 21.215-47.293 47.292s21.215 47.292 47.292 47.292c14.436.001 27.899-6.477 36.935-17.771z" fill="#f16c7a"/><path d="m77.292 217.466c-26.904 0-48.792-21.888-48.792-48.793 0-26.904 21.888-48.792 48.792-48.792 19.224 0 36.373 11.087 44.336 28.45 1.071-.902 2.357-1.525 3.768-1.808 2.214-.446 4.462 0 6.338 1.249 1.877 1.248 3.156 3.154 3.6 5.365s0 4.462-1.25 6.339l-9.432 14.17c-1.249 1.877-3.154 3.156-5.365 3.6-2.212.444-4.461 0-6.338-1.249l-14.171-9.432c-2.357-1.569-3.765-4.198-3.765-7.033-.001-1.663.488-3.279 1.414-4.67 1.722-2.586 4.596-3.921 7.478-3.76-5.878-8.928-15.772-14.339-26.613-14.339-17.595 0-31.91 14.315-31.91 31.91s14.314 31.91 31.91 31.91c9.739 0 18.824-4.373 24.924-11.999 2.908-3.634 8.232-4.224 11.865-1.318 3.634 2.909 4.226 8.231 1.318 11.865-9.323 11.652-23.213 18.335-38.107 18.335zm0-94.585c-25.25 0-45.792 20.542-45.792 45.792s20.542 45.793 45.792 45.793c13.978 0 27.014-6.272 35.764-17.209 1.875-2.342 1.493-5.773-.85-7.648-2.342-1.874-5.772-1.493-7.647.85-6.673 8.341-16.612 13.125-27.267 13.125-19.249 0-34.91-15.661-34.91-34.91s15.661-34.91 34.91-34.91c13.227 0 25.164 7.359 31.155 19.206.304.6.171 1.329-.325 1.783-.495.454-1.232.524-1.804.168-2.511-1.558-5.758-.854-7.394 1.604-.597.897-.912 1.937-.912 3.008 0 1.829.907 3.525 2.427 4.537l14.171 9.432c1.211.805 2.66 1.091 4.086.805 1.425-.286 2.653-1.11 3.458-2.32l9.432-14.171c.806-1.21 1.092-2.661.806-4.086s-1.11-2.654-2.32-3.458c-1.21-.806-2.663-1.092-4.086-.806-1.425.286-2.653 1.11-3.459 2.32l-.095.143c-.308.464-.848.72-1.402.661-.554-.057-1.03-.416-1.238-.933-7.023-17.481-23.706-28.776-42.5-28.776z" fill="#3a312a"/><path d="m223.36 99.415v126.44c0 6.63-5.39 12.02-12.02 12.02h15c6.63 0 12.02-5.39 12.02-12.02v-126.44z" fill="#decaad"/><path d="m238.36 81.335v15.08h-15v-15.08c0-6.62-5.39-12.01-12.02-12.01h15c6.63 0 12.02 5.39 12.02 12.01z" fill="#d34e5c"/></g></svg>