<svg id="Layer_1" enable-background="new 0 0 68 68" viewBox="0 0 68 68" xmlns="http://www.w3.org/2000/svg"><g><g><g><g><g><path d="m52.1447334 23.9716625-.480793 1.0373383c-.0122566.0266762-.0439529.0381088-.0703773.0257282-.0266762-.0122585-.0383606-.043829-.0258522-.0700054.0007477-.0016212.0014992-.0032406.0022507-.0048618z" fill="#4269c4"/></g><g><path d="m50.4805641 26.9143887c-.2732468.2683048-.589119.5123558-.9525146.6616783-.3586655.1569366-.7474213.2434902-1.140831.2631836-.1157532.0059624-.2144203-.0832214-.220005-.1988487-.0058365-.116127.0835953-.2142944.1990967-.2201309.0047417-.0004921.0102272-.0001106.0147171-.0004787.3447342.0070572.6930351-.0449982 1.0204659-.1620636.3324127-.1108246.6242714-.3055153.8947258-.535656l.0049934-.0037346c.0559425-.047823.1397476-.0409775.1873207.0150852.0455779.053316.0412368.1327609-.007969.1809654z" fill="#3a3a3a"/></g><g><path d="m46.1868172 27.0693302c-.6002502-.5216331-1.0087509-1.1731071-1.4657898-1.7137604-.1093445-.1281109-.0941238-.3207912.0339851-.4301338s.3209152-.0938759.4302559.034235c.0029907.0034962.007225.0088634.009964.0124855.4669304.6080189.8320541 1.2393551 1.3360786 1.7123451.104641.0967979.111412.2604465.014492.3648396-.0944251.1025257-.2543334.1093025-.3589858.019989z" fill="#3a3a3a"/></g><g><path d="m43.1167259 24.2667522c-.6087761-.099823-1.344696.1211052-2.0261383.2681446l-.0543938.011528c-.2013626.043642-.4000092-.0842094-.4434013-.2856979s.0845833-.3998852.2859497-.4435253c.0029945-.0008698.0079842-.0014877.0109787-.0023556.7572632-.1393318 1.4780197-.4019394 2.3518829-.2404079.1907845.0351715.3172684.2189312.2818451.4098396-.0349197.1887894-.2184257.3132763-.406723.2824745z" fill="#3a3a3a"/></g><g><path d="m39.1572571 25.3725338c-.5989075.3632946-1.1413002.8137207-1.5880013 1.3411026-.1444054.1710606-.3998718.1918068-.5703087.0474033-.1706848-.1442795-.191803-.3998699-.0474014-.5703068.0007515-.0009956.0029984-.0033627.0037498-.0043602.5171318-.5930195 1.1334229-1.0890007 1.8024597-1.4822617.1852341-.1091442.4236298-.0472202.5328979.1382637.1080209.183611.0478479.4198876-.133396.5301591z" fill="#3a3a3a"/></g><g><path d="m36.7754669 28.4684887c-.0062027.1651287-.026474.4089413-.070137.6070728-.0431747.2078609-.1070518.4129505-.1933708.6105289-.1741295.3940296-.4450035.7577515-.798584 1.0305653-.1842766.1416969-.4486504.1076775-.5905991-.0764771-.1409492-.1827812-.1069336-.4452839.0733566-.5881081.2297325-.1824245.4101563-.4312668.5337524-.7122364.0632935-.139986.1118774-.2888451.1460037-.4417133.035881-.1630936.0492668-.2881756.0615044-.4918365.0137711-.2318459.2125626-.4081993.4440346-.3945522.2284813.0138912.4033432.2071934.3948174.434557z" fill="#3a3a3a"/></g><g><path d="m33.3973541 31.3866634c-.3702393.0411758-.7329865.0755024-1.0837822.1281796-.175396.0257149-.3480549.0562992-.516983.0937462-.1806469.0351868-.3154221.0892677-.4474354.1320019l-.0688782.0224857c-.2033882.0658398-.4217625-.045948-.4876022-.2493362-.0623608-.1926575.0359402-.3987007.2191391-.4762917.4437637-.1856384.7895718-.2383213 1.1785564-.3087845.3784981-.0621204.7504807-.1022968 1.1129913-.1471004.2222977-.0279007.4248962.1297665.4525452.3521881.0276489.2217979-.1302681.4245205-.352314.4522953-.0012473-.0000019-.0049896.0006179-.006237.000616z" fill="#3a3a3a"/></g><g><path d="m32.0200882 32.5753746c.6287422.2855682 1.3165321.4370041 2.0077171.4683342.1948128.0082359.3465118.1731949.338028.3681297-.0079803.1896973-.1658249.3381653-.3539124.3384209-.7872658-.0015221-1.5700607-.1785278-2.2940598-.4895363-.1899757-.0816917-.278244-.3019485-.1966782-.4915504.0813198-.1900978.3012009-.278492.4914246-.1969261.0019952.0008773.0054856.0022544.0074807.003128z" fill="#3a3a3a"/></g><g><path d="m36.2148857 32.9321785c.3864059-.0056076.7897339.0221062 1.1837158.1367416.1924934.0623627.3972168.1223755.5599442.2475586l.5074387.3422852c.1171379.0787277.1483612.2382927.0691338.3556824-.0767288.1136475-.2286873.1463776-.345089.0760078l-.0590744-.0359993-.4247284-.2576103c-.1333237-.1012001-.2971687-.1367111-.4550095-.1820679-.3209419-.078743-.6641731-.0902901-1.0149269-.0700417-.1691399.0095062-.3139-.119648-.32341-.2887878-.009758-.169014.1193962-.3137779.2885361-.3232841.0039901-.0001221.0097274-.0004883.0134696-.0004845z" fill="#3a3a3a"/></g><g><path d="m39.7509117 35.5717239c.2976875.6967278.4982643 1.4487076.5042572 2.2129097.0006523.0738373-.0590439.1341286-.1328812.1347809-.0708466.0004044-.1291466-.0546722-.1345444-.1236534-.0556946-.7163696-.2922745-1.4067841-.6189728-2.0454292-.0529976-.1038399-.0119247-.2308807.0919189-.2838783.1038399-.0529976.2307549-.0121727.2837524.0916672.0024912.0043678.0047304.0094871.0064699.0136031z" fill="#3a3a3a"/></g><g><path d="m39.7828674 39.9644699-.4645882 1.0467148.3638573-1.0818939c.0075226-.0286789.0369797-.0458527.0654068-.038208.0286751.0075226.0458488.0369797.0380821.0651588-.0002517.0019951-.0022544.0067291-.002758.0082283z" fill="#4269c4"/></g></g><g><g><g><path d="m51.6719055 12.8666525-.9518585 2.0469742-2.0052185-.9324017.9518509-2.0470037c.14505-.3123732.5157089-.4477348.8279419-.3023586l.8749199.4068327c.3121376.145153.4474983.5158109.3023643.8279571" fill="#8a9bea"/></g><g><path d="m63.5336609 18.3822937-.9518585 2.0469742-2.0054436-.9323196.9518356-2.0469971c.1450653-.3123798.5159492-.4478245.828186-.3024483l.8749161.4068317c.3121376.145155.4474984.515812.3023644.8279591" fill="#e9edf4"/></g><g><path d="m63.5331383 18.3819675-.9517746 2.0472012-2.0054436-.9323177.9517479-2.047226c.1451492-.312151.516037-.4475956.8281898-.3024483l.8749161.4068336c.3130989.1455766.4472695.515894.3023644.8279572" fill="#8a9bea"/></g><g><path d="m64.8100967 23.5997314-.5481339 1.178751c-.1331406.2863407-.5011292.3688354-.7436104.1672897l-7.5868263-6.3022556 2.1232529-4.5661983 6.7053833 9.032671c.1052552.1418323.1243516.3296699.0499344.4897422" fill="#b53016"/></g><g><path d="m44.854454 14.3202753-.5481377 1.178751c-.1331367.2863407.0406876.6209803.3513069.6764078l9.708313 1.7399025 2.1233368-4.5659695-11.2283287.6937943c-.1760482.0108137-.3320808.1170397-.4064903.2771139" fill="#b53016"/></g><g><path d="m56.429287 25.1356144-.3215027.6917934c-.1315193.2828083-.4933777.367588-.7367706.172966l-2.5825577-2.0646496.9172974-1.972702 2.6276245 2.629488c.1428222.1432038.1812248.3599835.0959091.5431042" fill="#b53016"/></g><g><path d="m48.6770706 21.5308533-.3215866.6915627c-.1317444.2828941.036541.6139984.3422127.6746902l3.2429237.6445465.9174347-1.9730415-3.704155-.3143539c-.2012939-.0169965-.3918266.0933303-.4768295.276596" fill="#b53016"/></g><g><path d="m60.7858047 7.0075221c.2034035.6901207.2995224 1.3950686.2831345 2.1049838-.0318298.8840122-.2218018 1.7570925-.6060181 2.5742922l-3.3405304 7.2040348c-.5993156 1.2559547-1.3058167 2.4506531-2.1347122 3.5785904l-1.5250435 2.0364037c-.3482399.5817661-1.0789223.8056965-1.6969337.5135345-.3113823-.1383514-.53582-.383604-.668396-.6752586-.122097-.296257-.1371231-.6334095-.0294418-.955061l1.1130638-3.2732182c.2358971-.7046413.5074425-1.3890305.8148804-2.0526676l3.7757339-8.0977516c.6709366-1.4705124 1.8937531-2.6283703 3.3655853-3.2603111.2608299-.1169028.5622292.0264239.6486778.3024287z" fill="#d1dafe"/></g><g><path d="m59.9976196 10.5378094-2.0540085-.9551029c-.1435738-.0669622-.1938705-.2510948-.0953445-.374157.1455193-.1828432.3367958-.3164806.5488663-.3939276.301281-.1100245.6454582-.1054983.9596939.0410223l.2859268.1327534c.5347061.2486343.8117867.8269072.7023964 1.3812008-.0306206.1546488-.2040672.2349214-.3475304.168211" fill="#8a9bea"/></g><g><path d="m53.4819145 22.4443703-1.7386017 3.7393188c-.1089706.2343464-.388382.3361263-.6226425.2273846-.2318077-.1077652-.3337364-.3868771-.2246094-.6215401l1.7386627-3.7391148c.1077919-.2317829.3868904-.3337078.6186829-.2259369.2343598.108965.3362885.3880768.228508.6198884" fill="#b53016"/></g></g></g></g></g><g><g><path d="m22.4497547 19.2301903c.4800129-.3446522.9677277-.6967201 1.323925-1.1682301 1.1014767-1.4580669.565237-3.693738-.767498-4.9439497s-3.2269154-1.7012243-5.047657-1.8564949c-.7318268-.0624094-1.474493-.0844622-2.1955843.0551586-.5762606.111578-1.1289225.324544-1.7044258.4399672-1.060667.2127275-2.15942.0876427-3.235465.1989784s-2.2226954.5402641-2.7352667 1.4929123c-.7063084 1.3127184.0841246 2.9014835.8732481 4.166151.7891245 1.2646694 1.6187458 2.8161201.9769573 4.1615601-.5931101 1.243391-2.1472797 1.6494865-3.1648283 2.5781384-1.37321 1.2532425-1.6189938 3.4170818-.9876752 5.1657257s1.9851775 3.1406326 3.4397635 4.2984314c.9298134.740097 1.96488 1.4284096 3.1424932 1.5881767 1.0165834.1379204 2.0423536-.131916 3.0161972-.4545479 1.7977457-.5955887 3.5892477-1.4211197 4.842061-2.8413582.3835964-.4348602.7265549-.9327278 1.2373543-1.2071991s1.2652493-.216814 1.5335617.2972469c1.3363228-.7335052 1.935236-2.5667801 1.2896862-3.9477425-.4181156-.8944397-1.2343483-1.5225677-1.9518394-2.2008362-.7174911-.6782703-1.3962421-1.5323639-1.3875237-2.520155.0160276-1.7750796.0356218-2.2486857 1.5025159-3.3019331z" fill="#3a3a3a"/></g><g><path d="m21.4613247 29.709465s-8.9005127-2.6177979-14.2233677 0l-1.7824063 26.0639077c3.9238276 4.4677734 15.158123 4.3129883 22.222332 1.1875l-1.417263-8.4032631z" fill="#fbad3e"/></g><g><path d="m21.4613247 29.709465 8.2315178 14.6014938 10.2966709 1.337986-1.7319489 5.82127s-12.1478806-.1380501-14.6729164-2.9126053c-3.4373665-3.7770461-2.1233234-18.8481445-2.1233234-18.8481445z" fill="#fa990e"/></g><g><path d="m30.4641399 54.8984947h-10.2530403c-.6265011 0-1.1343784-.5078773-1.1343784-1.1343765v-.0000038c0-.6264992.5078773-1.1343765 1.1343784-1.1343765h10.2530403z" fill="#4269c4"/></g><g><path d="m17.6218872 28.2260456v6.020937c-2.1242332-.6299095-3.8680687-2.409193-5.322855-5.0610771v-4.7120361s-3.5006628-3.9071903.4072132-4.3048229l3.664917-3.4903965 5.5846348 1.2798119v5.7252922c0 2.4284382-1.908144 4.4283295-4.3339062 4.5422916h-.0000038z" fill="#ffcecf"/></g><g><g><path d="m45.8109322 54.8984947h-15.5541706c-.5827713 0-1.021143-.5311394-.9106293-1.1033363l2.6753674-13.8518715c.0842781-.4363403.4662247-.7515755.9106293-.7515755h15.5541687c.5827751 0 1.0211449.5311394.9106293 1.1033363l-2.6753654 13.8518715c-.0842783.4363404-.4662248.7515755-.9106294.7515755z" fill="#4269c4"/></g><g><path d="m47.1420403 54.8984947h-15.5541707c-.5827732 0-1.021143-.5311394-.9106293-1.1033363l2.6753674-13.8518715c.0842781-.4363403.4662247-.7515755.9106293-.7515755h15.5541687c.5827751 0 1.0211449.5311394.9106293 1.1033363l-2.6753654 13.8518715c-.0842782.4363404-.4662247.7515755-.9106293.7515755z" fill="#255299"/></g></g><g><circle cx="40.703" cy="47.045" fill="#4269c4" r="2.478"/></g><g><path d="m21.0475483 50.6931725s3.4031372-3.1849861 4.7556667-2.486908-2.7923183 2.6976357-2.7923183 2.6976357 4.827795-1.1788368 5.6131344.4354744c.7853394 1.6143074-.1157589 3.2804947-7.5764828 1.9279671z" fill="#ffcecf"/></g><g><path d="m21.9687347 49.0858727-11.5893564-2.1860352.2256289-5.6631851c.1636124-4.1066322-1.018671-8.1543121-3.3669825-11.5272388l-.0000033-.0000038s-2.5598145.6401367-3.7812502 7.6206036c-1.2216797 6.980957-1.4543457 13.3217773 3.7812502 15.6777344 3.7204585 1.6743164 10.8903809 1.2773438 14.7307129.9077148v-4.8295899z" fill="#fa990e"/></g></g><g><g><g><g><g><g><g><path d="m27.7697868 22.1535511c.0426617.4635468.3921509.8344555.848732.9270954.1995602.0428371.3921528.0787086.5918846.1072655v.8630123c0 .3778744.456583.5777798.7275372.3064785l.8631859-.8414192c.0855007-.0787106.1995583-.1211987.3207569-.114233 1.5550232.0926399 3.1241531-.0355244 4.6932831-.3496628.4137421-.0783615.7346725-.4133968.7989311-.8271408.3280678-1.9827003.3137894-3.9159451.0071373-5.8129711-.0713959-.4280224-.4137421-.7703714-.8346291-.8417673-2.339325-.3921518-4.7288055-.3994656-7.1611214-.0073137-.4635468.0713959-.8201752.4565811-.8630123.9201298-.1568946 1.854536-.1568946 3.7445945.0073147 5.6705264z" fill="#3d5e2a"/></g><g><path d="m26.8852901 22.2377892c.0426636.4635468.3921509.8344536.8487339.9270935.1995583.0428371.3921509.0787106.5918846.1072674v.8630123c0 .3778725.4565811.5777798.7275352.3064785l.8631859-.8414211c.0855007-.0787086.1995583-.1211967.3207569-.1142311 1.5550232.0926399 3.124155-.0355244 4.6932812-.3496628.4137459-.0783615.7346764-.4133968.7989311-.8271408.3280716-1.9827003.3137932-3.9159451.0071411-5.8129711-.0713959-.4280224-.4137459-.7703724-.8346291-.8417673-2.3393288-.3921518-4.7288055-.3994656-7.1611233-.0073137-.4635468.0713949-.8201752.4565811-.8630123.9201279-.1568945 1.8545378-.1568945 3.7445963.0073148 5.6705283z" fill="#aec46e"/></g><g><path d="m26.7639179 19.4349136c0 .9270954.0356979 1.8541889.1213722 2.8028755.0426636.4635468.3921509.8344536.8487339.9270935.1995583.0428371.3921509.0787106.5918846.1072674v.8630123c0 .3778725.4565811.5777798.7275352.3064785l.8631859-.8414211c.0855007-.0787086.1995583-.1211967.3207569-.1142311 1.5550232.0926399 3.124155-.0355244 4.6932812-.3496628.4137459-.0783615.7346764-.4133968.7989311-.8271408.0498047-.321106.099781-.641861.1283379-.9560013-.9701042.4353371-2.1040726.6777325-3.3237114.6777325-2.5320949 0-4.728981-1.0556049-5.7703075-2.5960026z" fill="#617f4d"/></g></g></g></g></g></g><g><g><path d="m28.5628967 17.4635525c.9343586-.3179131 1.8688698-.3890648 2.8032284-.402689.4673309.0069637.9345112.0242214 1.4016895.0884094.4671783.059042.9343605.1465435 1.4016914.3142796-.4673309.1680393-.9345131.2555408-1.4016914.3145809-.4671783.064188-.9343586.0811443-1.4016895.0884113-.9343586-.0136261-1.8688698-.0850811-2.8032284-.4029922z" fill="#fff"/></g><g><path d="m28.5628967 19.4349098c.9343586-.3179111 1.8688698-.3893661 2.8032284-.4026871.4673309.0069637.9345112.0242214 1.4016895.0881062.4671783.0590401.9343605.1468449 1.4016914.3145809-.4673309.167738-.9345131.2555408-1.4016914.3145828-.4671783.0638847-.9343586.0811424-1.4016895.0881062-.9343586-.0133209-1.8688698-.0847759-2.8032284-.402689z" fill="#fff"/></g><g><path d="m28.5628967 21.4062691c.5425701-.3179131 1.0851402-.3893661 1.6277103-.4029922.2712841.007267.5425701.0242233.8138542.0884113.271286.0590401.5425701.1468449.8138561.3145809-.271286.1677361-.5425701.2552376-.8138561.3142796-.2712841.064188-.5425701.0814457-.8138542.0884094-.54257-.0136242-1.0851402-.084776-1.6277103-.402689z" fill="#fff"/></g></g></g><g><g><g><g><path d="m60.8973694 53.7347641c0 .444809-.0709343.8697968-.2062035 1.2693062-.5991058-.0644875-1.1983681-.1481667-1.7910233-.231842-1.7458839-.2513428-3.060173-1.720089-3.1760941-3.4854736-.0322418-.4960861-.0644875-.9921684-.0901222-1.4882507.3671074-.1094704.7601662-.1673508 1.1595154-.1673508 2.2677613-.0000001 4.1039277 1.8361663 4.1039277 4.1036109z" fill="#4269c4"/></g></g></g><g><g><path d="m52.4587784 46.8652992c-.3117523-1.3522758-.1694145-2.8498039.4873695-4.1919632.3323746-.6667786.8083534-1.294838 1.4496994-1.7799263.6355286-.4853439 1.4626083-.8031693 2.3149948-.8082314.8525124.0040474 1.6798477.3216209 2.3160057.8067093.6410942.4858513 1.1188469 1.112648 1.4504623 1.7804375.6579208 1.3421555.7992477 2.8406982.4855957 4.1929741-.3370552-1.3434219-.8017769-2.5752487-1.5333328-3.5631447-.7162476-.9896622-1.7122383-1.6617546-2.7187309-1.6627655-1.0067444-.0010147-2.0042534.6718369-2.7205009 1.6615028-.7325668.988144-1.1964035 2.2209855-1.5315628 3.5644074z" fill="#b53016"/></g><g><path d="m66.1687012 53.5798836c0 .4301796-.1761169.8188591-.455986 1.0987282s-.6737366.4559898-1.098732.4559898h-15.8113442c-.8551712 0-1.5496559-.6943588-1.5496559-1.554718 0-.0050583 0-.0050583 0-.0103722 0-.4094315.0259361-.8135452.0778122-1.2126007.5959244-4.6433983 4.5709038-8.2348862 9.3749847-8.2348862h.0050621c4.8040848 0 8.7790642 3.5914879 9.3801765 8.2348862.0518723.3990555.0776826.8084831.0776826 1.2229729z" fill="#fbad3e"/></g><g><path d="m62.6395912 52.3930969c-3.9525833.5458221-7.9050407.5458221-11.8573723 0 .005188-.1191826.020752-.238369.0363121-.3522377.3783073-2.9540634 2.9073792-5.17733 5.887249-5.17733 2.9849358 0 5.5191956 2.2232666 5.8974991 5.17733.015564.1138687.0311241.2330551.0363121.3522377z" fill="#b53016"/></g><g><g><path d="m50.1240463 54.7459221c0 .1346207-.010376.2641792-.0311241.3886795h-1.2902832c-.8551712 0-1.5496559-.6943588-1.5496559-1.554718 0-.0050583 0-.0050583 0-.0103722 0-.4094315.0259361-.8135452.0778122-1.2126007.1191864-.0207481.243557-.0311241.3731155-.0311241 1.3370972 0 2.4201355 1.0830383 2.4201355 2.4201355z" fill="#b53016"/></g><g><path d="m66.1687012 53.5798836c0 .4301796-.1761169.8188591-.455986 1.0987282s-.6737366.4559898-1.098732.4559898h-1.2852211c-.0207481-.1245003-.0309982-.2540588-.0309982-.3886795 0-1.3370972 1.0830421-2.4201355 2.4149513-2.4201355.1295547 0 .2539291.010376.3783035.0311241.0518722.3990555.0776825.8084831.0776825 1.2229729z" fill="#b53016"/></g></g><g><path d="m55.0888176 49.4015846c.2043343.214077.2502594.428154.2589912.6424828-.0075912.214077-.0535202.4281578-.2589912.6422348-.2054749-.214077-.2514038-.4281578-.2589951-.6422348.0087319-.2143288.054657-.4284058.2589951-.6424828z" fill="#d1dafe"/></g><g><path d="m53.342289 49.4015846c1.1228943-.2044601 2.2457886-.2502632 3.3685532-.2588654 1.1228943.0073357 2.2457886.0533905 3.3685532.2588654-1.1227646.2054749-2.2456589.2515297-3.3685532.2588654-1.1227647-.0086022-2.2456589-.0544052-3.3685532-.2588654z" fill="#fff"/></g></g></g><g><path d="m64.0374069 60.4260979c-20.1520195 1.2124214-40.3042526 1.2130356-60.4562721.0018387-.8404446-.0505142-1.5275464-.6853943-1.6665703-1.5157967-.1147752-.6855659-.1101924-1.3754349.0093923-2.0694313.1434919-.8327446.8327354-1.4682579 1.6765472-1.5133018 20.1388702-1.0750771 40.2779541-1.0745468 60.4168205.0015907.8365097.0447006 1.5188141.6706734 1.673584 1.4939537.1327133.7059669.1377563 1.4075737.0102692 2.1046371-.1501599.821064-.8305951 1.4463844-1.6637708 1.4965096z" fill="#51504f"/></g></g></svg>