<svg height="512" viewBox="0 0 64 64" width="512" xmlns="http://www.w3.org/2000/svg"><g fill-rule="evenodd"><path d="m48 64h-32a16.0007 16.0007 0 0 1 -16-16v-32a16.0007 16.0007 0 0 1 16-16h32a16 16 0 0 1 16 16v32a16 16 0 0 1 -16 16" fill="#00b487"/><path d="m30 18h18a9.0006 9.0006 0 0 0 .92-17.954c-.306-.017-.609-.046-.92-.046h-32a16.0007 16.0007 0 0 0 -16 16v32a30.0007 30.0007 0 0 1 30-30" fill="#19cda0"/><path d="m48 32a16 16 0 1 0 16 16v-32a16 16 0 0 1 -16 16" fill="#009669"/><path d="m57.196 22a1.0005 1.0005 0 0 1 .848 1.53c-1.01 1.615-2.456 3.9293-2.456 3.9293a12.9982 12.9982 0 0 1 -20.515 15.9307s-1.331 1.9964-2.241 3.3615a1 1 0 0 1 -1.664 0l-2.241-3.3615a12.9982 12.9982 0 0 1 -20.515-15.9307s-1.446-2.3143-2.456-3.9293a1.0005 1.0005 0 0 1 .848-1.53h5.914a33.983 33.983 0 0 1 38.564 0z" fill="#003c37"/><path d="m43.126 22.1343a30.0668 30.0668 0 0 0 -22.252 0 13.01 13.01 0 0 1 11.126 12.8237v.042a13.01 13.01 0 0 1 11.126-12.8657z" fill="#ffc300"/></g><circle cx="19" cy="35" fill="#fff" r="9"/><circle cx="19" cy="35" fill="#003c37" r="5"/><circle cx="19" cy="35" fill="#ff5f32" r="2"/><circle cx="45" cy="35" fill="#fff" r="9"/><circle cx="45" cy="35" fill="#003c37" r="5"/><circle cx="45" cy="35" fill="#00b487" r="2"/></svg>